<svg width="65" height="152" viewBox="0 0 65 152" fill="none" xmlns="http://www.w3.org/2000/svg">
<path opacity="0.2" d="M27.4316 129.11C27.4316 129.11 -1.95305 133.275 1.28432 141.374C4.52555 149.471 9.15208 155.487 19.3324 149.704C29.5127 143.92 34.6047 139.521 44.785 138.596C54.9653 137.67 59.8246 132.352 50.3389 130.267C40.8531 128.187 27.4316 129.11 27.4316 129.11Z" fill="black"/>
<path d="M32.9996 73.4641C33.3288 74.7297 35.2414 75.1208 36.3913 74.8198C36.79 74.7195 37.6428 77.0192 38.4569 77.7549C39.3148 78.5189 40.1264 77.7176 40.2177 77.4025C40.2808 77.1555 38.3322 73.9709 37.8717 73.1529C36.3385 70.4171 35.1269 70.6178 33.9797 70.9187C32.8298 71.2145 32.6742 72.2075 32.9996 73.4641Z" fill="#FFE8D9"/>
<path d="M33.0202 72.4711C31.7147 72.7515 28.6728 70.7772 28.6728 70.7772C28.6728 70.7772 28.5493 70.466 28.3384 69.927C27.1512 66.8517 22.8514 56.346 21.8996 52.3626C20.8527 47.9947 19.5202 40.0331 19.5202 40.0331C19.5202 40.0331 17.3388 30.8188 21.7929 28.6875C24.3447 27.4721 29.0329 29.2483 29.7776 36.5887C30.0645 39.408 31.3468 51.2552 31.3468 51.2552L35.8099 68.3939C35.8099 68.3939 35.5694 71.9181 33.0202 72.4711Z" fill="#517491"/>
<path d="M31.0047 71.7252L34.3089 70.8261L36.5791 74.4301L36.7424 75.0719L37.5643 80.335C37.5643 80.335 38.1611 82.838 35.5257 83.5467C33.8022 84.0097 35.3379 83.5994 35.3379 83.5994C32.9777 84.2348 32.1134 81.7485 32.1134 81.7485L29.7841 75.2815C29.3802 73.8873 29.4934 72.129 31.0047 71.7252Z" fill="#FFE8D9"/>
<path d="M36.9161 70.4171C37.0498 71.001 36.0093 72.4184 34.3244 72.9509C32.143 73.6377 31.0021 73.4397 31.0021 73.4397C29.8947 73.3059 29.2464 73.0165 29.0072 72.3104C29.0072 72.3104 28.1069 69.6943 27.8715 68.8582C27.7159 68.3219 27.9808 68.2627 27.9808 68.2627C27.9808 68.2627 28.1172 68.6833 28.2432 68.817C28.7011 69.3187 29.8162 69.8833 32.0195 69.4794C35.4807 68.8543 35.4447 66.7321 35.4447 66.7321C35.9488 66.6241 36.1572 66.8144 36.2614 67.3945L36.9161 70.4171Z" fill="white"/>
<path d="M33.599 18.2319C34.1032 17.9399 34.5585 17.9142 34.8878 18.1033L36.0157 18.7593C35.6891 18.5689 35.2325 18.5972 34.727 18.8853C33.7302 19.4628 32.9224 20.8609 32.925 22.0095C32.9315 22.578 33.1257 22.9793 33.4511 23.1709L32.3269 22.5124C31.9977 22.3233 31.7944 21.9259 31.7932 21.3548C31.7893 20.2037 32.597 18.8081 33.599 18.2319Z" fill="#2680BB"/>
<path d="M37.8177 27.6895L37.8897 38.6955C37.8897 39.1045 38.0351 39.39 38.2692 39.5264L35.891 38.0987C35.6556 37.9624 35.518 37.6794 35.5115 37.2704L35.4408 26.2605L37.8177 27.6895Z" fill="#1F6999"/>
<path d="M41.4615 25.5697L37.8177 27.6894L37.8897 38.6954C37.8962 39.5186 38.4788 39.8466 39.185 39.435L40.2435 38.8214C40.9612 38.4047 41.5361 37.3989 41.5336 36.5745L41.4615 25.5697Z" fill="#144262"/>
<path d="M38.9972 31.9724L39.0049 33.8927C39.0049 34.1049 39.0821 34.2516 39.1978 34.3185L38.3708 33.8426C38.2512 33.7731 38.1766 33.6239 38.1766 33.4156L38.1753 31.4952L38.9972 31.9724Z" fill="#517491"/>
<path d="M39.8473 29.7679C40.0325 29.6599 40.1985 29.6521 40.3155 29.7216L41.1425 30.2001C41.019 30.1319 40.8544 30.1396 40.6679 30.2451L39.6595 30.829L38.8364 30.3506L39.8473 29.7679Z" fill="#926822"/>
<path d="M39.6595 30.8291L38.8364 30.3506C38.4698 30.5628 38.1727 31.0734 38.1753 31.494L38.9971 31.9725C38.992 31.5532 39.2943 31.0426 39.6595 30.8291Z" fill="#517491"/>
<path d="M39.6596 30.8291C39.2956 31.0426 38.992 31.5532 38.9971 31.9725L39.0049 33.8928C39.0049 34.3134 39.3071 34.4858 39.6685 34.2761L40.6847 33.6896C41.0448 33.4774 41.3445 32.9655 41.3445 32.5423L41.3367 30.6259C41.3367 30.204 41.0371 30.0342 40.6679 30.2451L39.6596 30.8291Z" fill="#517491"/>
<path d="M36.1726 17.513C37.3315 16.8403 38.3823 16.7785 39.1424 17.221L45.4037 20.8584C44.6461 20.4185 43.5914 20.4802 42.4326 21.1465C40.1264 22.4803 38.264 25.7061 38.2717 28.3557C38.2742 29.6702 38.7399 30.5975 39.4884 31.0348L33.2285 27.3961C32.4799 26.9588 32.013 26.0328 32.0117 24.7196C31.9989 22.0687 33.8677 18.8429 36.1726 17.513Z" fill="#517491"/>
<path d="M42.4313 21.1466C40.1251 22.4803 38.2627 25.7061 38.2704 28.3557C38.2768 31.0066 40.1522 32.0741 42.4609 30.7429C44.7632 29.4117 46.6307 26.1846 46.6204 23.5325C46.6127 20.8867 44.7362 19.8192 42.4313 21.1466Z" fill="#B5802A"/>
<path d="M53.4489 42.994C56.9808 41.3374 60.0317 37.1984 61.3848 33.39C64.0601 25.8798 59.5172 20.0392 53.1736 24.119C42.7258 31.5584 43.6712 47.5922 53.4489 42.994Z" fill="#EEE2B0"/>
<path d="M54.2914 24.6361C50.0997 27.0541 46.7105 32.9269 46.7285 37.7412C46.735 42.5593 49.7948 44.6623 54.3416 42.0808C58.5462 39.6911 61.9224 33.7913 61.9057 28.9744C61.8954 24.1615 58.4806 22.2154 54.2914 24.6361Z" fill="white"/>
<path d="M53.6805 29.6831C52.1782 30.5538 50.955 32.6683 50.9614 34.3983C50.9666 36.1295 52.1911 36.8292 53.6985 35.9572C55.2098 35.0903 56.424 32.9745 56.4227 31.2497C56.4162 29.5133 55.1918 28.8123 53.6805 29.6831Z" fill="#517491"/>
<path d="M52.5898 29.0399C51.4605 29.9236 50.5254 31.3384 50.0829 32.7751C48.8315 36.8202 51.9029 38.4228 54.7415 35.1314L54.9319 34.9076C52.6721 37.5327 50.1678 36.3018 51.1839 33.013C51.5402 31.8567 52.2965 30.7197 53.2033 30.0097C55.431 28.2644 57.1493 29.9634 56.1229 32.8561C57.6124 28.6605 55.1982 27.0026 52.5898 29.0399Z" fill="#517491"/>
<path d="M53.458 27.1517L55.6034 28.3968C53.4747 27.162 49.7936 31.0116 49.8065 34.4921C49.8091 35.5622 50.1846 36.3147 50.7943 36.6709L48.6502 35.4195C48.0405 35.0671 47.6624 34.3133 47.6598 33.2471C47.6508 29.7563 51.3319 25.917 53.458 27.1517Z" fill="#517491"/>
<path d="M39.4872 31.0348C39.4872 31.0348 43.5632 33.741 45.5761 38.8498C45.5761 38.8498 44.7915 35.0864 48.3556 29.0811L39.8577 23.67C38.4801 25.3923 37.1039 29.894 39.4872 31.0348Z" fill="#0E304C"/>
<path d="M45.4025 20.8584C45.4025 20.8584 50.3479 22.5755 55.8297 22.241C55.8297 22.241 52.2296 23.8462 48.4611 29.1505L39.8563 23.67C40.2486 22.9716 42.8802 19.5786 45.4025 20.8584Z" fill="#0E304C"/>
<path d="M54.1897 42.0654C58.3853 39.6422 61.7963 33.7437 61.7822 28.9166C61.7744 26.5191 60.9243 24.8316 59.5545 24.0328L61.0156 24.8817C62.3867 25.6792 63.2343 27.3667 63.242 29.7654C63.2574 34.5926 59.849 40.4937 55.6483 42.9156C53.5338 44.1388 51.6186 44.2507 50.2321 43.4442L48.7722 42.5953C50.1536 43.3979 52.0752 43.286 54.1897 42.0654Z" fill="#2680BB"/>
<path d="M54.1307 22.6862C56.7044 21.2032 59.0337 21.0655 60.7122 22.0431L62.1771 22.8971C60.4922 21.9132 58.1668 22.0495 55.5995 23.5325C50.4933 26.4792 46.3594 33.6408 46.3723 39.5071C46.3826 42.4165 47.4154 44.4667 49.0759 45.4352L47.6173 44.5851C45.9543 43.6204 44.9176 41.5663 44.9137 38.6557C44.8957 32.7919 49.0347 25.6303 54.1307 22.6862Z" fill="#2680BB"/>
<path d="M55.5982 23.5325C50.4919 26.4792 46.3581 33.6407 46.3709 39.5071C46.3915 45.3696 50.5524 47.7375 55.6573 44.7921C60.7558 41.8467 64.8961 34.6826 64.8781 28.8226C64.8601 22.9601 60.6967 20.5896 55.5982 23.5325ZM55.6496 42.9155C51.4476 45.3439 48.0224 43.3876 48.007 38.5618C47.9941 33.7372 51.4 27.8361 55.5995 25.4103C59.8028 22.9871 63.2292 24.9396 63.2434 29.7654C63.2588 34.5925 59.8517 40.4936 55.6496 42.9155Z" fill="#1F6999"/>
<path d="M5.1764 132.574C5.1764 132.574 5.21762 139.162 5.21762 139.3C5.16488 141.889 6.45233 147.117 12.4409 147.117C17.3825 147.117 14.9065 147.117 14.9065 147.117C14.9065 147.117 19.007 146.667 18.0179 140.892C17.6719 138.876 16.4603 132.011 16.4603 132.011L5.1764 132.574Z" fill="#383736"/>
<path d="M5.17645 131.13C5.17645 131.13 5.0466 130.975 5.21767 138.353C5.27426 140.946 6.4871 145.257 12.3676 145.257C14.7522 145.257 15.3594 145.308 15.4237 145.304C17.1562 145.257 18.4218 143.488 17.9035 139.799C17.6771 138.19 16.1182 131.148 16.0037 131.148L5.17645 131.13Z" fill="#545454"/>
<path d="M40.1187 125.414L42.394 127.043C42.394 127.043 51.553 130.274 52.1858 130.511C52.9035 130.786 54.4727 131.231 54.4174 132.51C54.4033 132.813 54.4341 133.002 54.2682 133.291C53.6714 134.32 52.3248 134.874 51.0527 135.212C48.2796 135.962 42.2731 135.664 42.2731 135.664C40.5212 135.622 37.5707 135.044 37.2234 134.824C37.2234 134.824 35.6993 134.532 35.4819 135.069C35.4047 135.262 35.6427 136.1 35.6749 136.262L31.8381 135.132C31.6465 135.058 31.1294 133.321 30.9674 132.55L30.539 127.377L40.1187 125.414Z" fill="#545454"/>
<path d="M52.5601 134.169C51.8604 134.592 50.8392 134.87 49.8218 135.078C45.7523 135.922 39.3997 135.12 39.3997 135.12C38.7695 135.03 36.3823 134.687 36.3823 134.687C36.3823 134.687 35.4305 134.852 35.4807 135.069C35.4678 134.956 35.4922 135.058 35.4446 135.078C35.3546 135.113 35.6736 136.262 35.6736 136.262L36.6061 135.553C36.6061 135.553 39.5155 135.908 40.0325 136.02C40.0325 136.02 46.1471 136.774 50.2475 135.976C51.5389 135.722 53.674 134.763 54.3428 133.498C54.4598 133.274 54.5705 132.748 54.3801 132.393C54.3724 132.462 53.5094 133.603 52.5601 134.169Z" fill="#282827"/>
<path d="M35.4806 135.07L31.2747 133.664C31.2747 133.664 31.7468 135.172 31.8008 135.139L35.6324 136.275C35.6092 136.158 35.5244 135.395 35.4806 135.07Z" fill="#282827"/>
<path d="M29.6915 75.2391C29.6915 75.2391 37.1656 97.3193 39.3534 104.727C40.7824 109.56 42.3117 125.127 42.3117 125.127C42.7902 127.298 43.14 127.717 42.5689 128.517C40.4145 131.499 32.7797 136.304 30.8954 131.782C30.8954 131.782 27.9641 115.234 25.9808 110.256C22.8412 102.417 12.1773 80.69 12.1773 80.69L29.6915 75.2391Z" fill="#282827"/>
<path d="M22.8951 78.7349L17.6732 129.787L17.5176 134.475C17.4957 136.067 15.4043 137.775 12.7496 138.245C9.48004 138.808 7.67942 137.929 7.67942 137.929C5.52631 137.315 4.54109 134.951 4.48707 134.398L3.91336 110.41L3.45294 79.8488L22.8951 78.7349Z" fill="#3F342A"/>
<path d="M25.456 29.3165C28.0966 33.8298 29.4741 37.6203 29.833 46.8372L31.3996 77.2778C31.442 78.5177 31.7044 80.0084 30.6664 80.7389C30.6664 80.7389 20.207 88.8008 15.3375 88.4137C12.2364 88.1668 4.45231 85.4271 4.45231 85.4271C2.14358 84.4278 2.06638 83.0438 1.98792 82.4277L0.243889 40.5618C0.0303802 36.2196 9.77849 31.1082 11.4789 30.0188L18.4629 27.5892C18.4629 27.5892 23.6618 26.2554 25.456 29.3165Z" fill="#0E304C"/>
<path d="M38.4094 45.3555L36.9727 45.2166L33.1887 41.1406L34.7759 35.5778C34.7759 35.5778 34.9135 34.7906 39.0473 34.581C42.1998 34.415 42.7465 36.644 42.7465 36.644C42.6641 36.8305 43.0346 40.1232 42.8931 40.9168C42.8172 41.3207 41.3175 41.9664 41.3175 41.9664C40.7156 44.0461 40.0891 45.1278 38.4094 45.3555Z" fill="#FFE8D9"/>
<path d="M22.7023 37.5791C23.9872 35.5585 23.3313 29.8786 20.1209 27.3345C19.1575 27.4129 18.4617 27.5891 18.4617 27.5891L12.3059 29.4143C12.3059 29.4143 8.99008 31.1494 7.07878 32.7301C8.05115 32.7198 10.6429 33.9957 14.0603 36.9926C17.2488 39.7914 20.9235 40.374 22.7023 37.5791Z" fill="#F2F4F4"/>
<path d="M20.881 32.8291C17.0815 36.6144 14.8474 32.6915 12.3702 29.768L11.902 19.2301L20.6186 21.7356L20.881 32.8291Z" fill="#E8C5AC"/>
<path d="M12.2107 26.2155C12.2107 26.2155 12.2055 27.6406 12.2686 27.8914C13.2525 32.1564 18.5285 33.7217 18.5285 33.7217C19.2025 34.0471 19.1896 34.824 19.1279 35.8594L18.8539 38.8897C18.7896 39.8827 18.2751 39.7978 17.87 39.4029C17.87 39.4029 13.7875 36.1179 12.6325 35.0015C9.92762 32.3866 10.1283 31.7616 11.0158 28.3184C11.5534 26.2412 12.2107 26.2155 12.2107 26.2155Z" fill="white"/>
<path d="M19.7723 33.5366C19.344 34.0884 19.4405 34.4485 19.7479 34.8498L21.3711 37.0158C22.2109 37.9701 22.2804 37.1675 22.2714 36.3688L22.2547 30.5963C21.7827 26.9718 20.8103 26.8329 20.8103 26.8329C20.8103 26.8329 20.7897 27.6702 20.881 28.4175C21.0315 29.66 20.9466 32.033 19.7723 33.5366Z" fill="white"/>
<path d="M14.5799 13.2119C16.7253 13.1245 17.0455 15.1785 17.0455 15.1785L17.2153 19.4886C17.2153 19.4886 17.1484 20.4301 16.3446 20.6269C15.1343 20.9227 14.5619 19.8745 13.9664 18.722C13.9342 18.6603 13.1715 16.9535 13.1226 16.8506C12.4705 15.4088 12.5438 13.2904 14.5799 13.2119Z" fill="#FFE8D9"/>
<path d="M18.8707 6.81052L10.5823 7.17452L11.03 22.1356C11.1895 23.1595 11.183 24.0919 11.3824 24.9511C11.6062 25.8965 12.0731 26.7685 13.2705 27.5981C13.2705 27.5981 15.4339 29.1879 17.4185 29.8786C18.3317 30.1963 19.317 30.4754 20.2623 30.2889C20.9864 30.1423 22.7138 29.0387 22.7138 29.0387C23.8393 28.2991 24.7615 27.8798 25.321 26.0804C25.5744 25.2791 26.2483 22.8083 26.2908 21.9375L27.1114 13.0177L27.3531 5.00598L18.8707 6.81052Z" fill="#FFE1CC"/>
<path d="M25.6142 3.40337C27.9898 4.61626 29.159 6.32434 28.1455 9.97844C27.3262 12.9444 27.0174 13.5181 27.0586 13.5579C27.0985 13.5978 27.083 11.5836 27.0843 10.4042C27.0946 8.64207 25.3094 9.29032 24.6058 9.89097C23.5627 10.781 21.0752 12.4467 21.0148 12.4852C20.0848 13.0705 19.8726 12.673 19.7838 11.9862C19.7568 11.8331 19.7195 10.9225 19.7195 10.9225C19.6012 11.0125 17.4353 12.1354 16.8565 12.5058C15.2102 13.5669 14.967 15.0332 15.1021 16.3349L15.1509 17.6416C15.1741 18.322 15.3233 19.0925 14.6519 19.0436C13.9393 18.9896 13.9895 18.7182 13.767 18.0018C13.767 18.0018 13.5702 14.6229 10.8551 16.0416C9.42351 16.7824 10.6042 20.0134 10.7084 20.1999L11.4197 25.0887C10.8138 25.2945 9.41452 24.3312 8.57335 22.6694C7.00546 19.5992 6.01891 17.3895 5.58032 16.4532C1.29855 7.23755 8.75726 -2.26493 19.2488 0.481113C21.2128 0.989163 25.6142 3.40337 25.6142 3.40337Z" fill="#421E01"/>
<path d="M11.1625 15.8731C13.3092 15.7895 13.632 17.8423 13.632 17.8423L13.7979 22.1523C13.7979 22.1523 13.7297 23.0926 12.9284 23.2893C11.7194 23.5877 11.1445 22.5421 10.5541 21.3896C10.5181 21.3202 9.75663 19.6172 9.71033 19.5169C9.05694 18.0686 9.13157 15.9541 11.1625 15.8731Z" fill="#FFE8D9"/>
<path d="M36.8762 42.6042C38.4775 44.1412 37.0576 47.5934 37.0576 47.5934C37.0576 47.5934 32.4066 52.5414 27.8522 56.7216C23.308 60.9043 20.3884 60.732 16.1529 57.4328L3.57261 47.3143C3.57261 47.3143 -0.637199 43.7965 0.242561 39.9894C1.24194 35.6407 6.24917 34.2568 9.9007 37.1674C11.9136 38.7726 17.6719 45.1702 20.3074 48.1387C21.182 49.1278 22.0746 49.1574 22.5505 48.697L31.7533 41.7373C31.7533 41.7373 34.4209 40.2453 36.8762 42.6042Z" fill="#517491"/>
<path d="M33.5475 39.4505C34.0942 39.0197 36.6576 39.4171 38.3065 41.3528C39.8319 43.1432 39.7046 43.9703 39.7046 43.9703C39.9734 45.0713 39.9439 45.7902 39.3458 46.2661C39.3458 46.2661 37.4345 48.0732 36.7142 48.5954C36.2473 48.9337 36.0479 48.6495 36.0479 48.6495C36.0479 48.6495 36.4171 48.3768 36.4737 47.9523C36.565 47.2719 36.5817 45.8983 35.4962 44.3754C33.3997 41.4326 31.2774 42.0229 31.2774 42.0229C30.9842 41.5831 31.1128 41.1715 31.6273 40.8705L33.5475 39.4505Z" fill="white"/>
</svg>
