<svg width="153" height="143" viewBox="0 0 153 143" fill="none" xmlns="http://www.w3.org/2000/svg">
<path d="M21.4551 86.6275L19.991 86.9867C20.1553 87.6552 20.335 88.3347 20.5261 89.0055L21.9763 88.5929C21.7901 87.9397 21.6149 87.2783 21.4551 86.6275Z" fill="#0E304C"/>
<path d="M20.1903 66.4324L18.6923 66.2606C18.6131 66.9532 18.5449 67.6523 18.4907 68.3382L19.9936 68.4573C20.0467 67.7887 20.1127 67.1078 20.1903 66.4324Z" fill="#0E304C"/>
<path d="M19.8335 74.5558L18.3268 74.5957C18.3452 75.2873 18.3762 75.989 18.4191 76.6813L19.9236 76.5882C19.8821 75.9136 19.8516 75.2296 19.8335 74.5558Z" fill="#0E304C"/>
<path d="M20.6271 82.646L19.1412 82.8996C19.2584 83.5844 19.3888 84.2748 19.5293 84.9513L21.0051 84.6445C20.868 83.9857 20.741 83.313 20.6271 82.646Z" fill="#0E304C"/>
<path d="M20.086 78.6155L18.5861 78.7628C18.6539 79.4544 18.7345 80.152 18.8265 80.8363L20.3208 80.6362C20.2311 79.9692 20.1523 79.2893 20.086 78.6155Z" fill="#0E304C"/>
<path d="M19.8685 70.4873L18.3626 70.4217C18.3324 71.1144 18.314 71.8161 18.3079 72.508L19.8154 72.5208C19.8214 71.847 19.8391 71.1626 19.8685 70.4873Z" fill="#0E304C"/>
<path d="M20.8009 62.4126L19.319 62.1334C19.1913 62.8121 19.0737 63.5044 18.9689 64.1914L20.4594 64.4179C20.5612 63.7482 20.6761 63.0736 20.8009 62.4126Z" fill="#0E304C"/>
<path d="M21.252 58.3276L20.2405 58.06C20.063 58.7312 19.8957 59.4133 19.7434 60.0879L21.2132 60.4207C21.3617 59.7664 21.5233 59.1043 21.6956 58.4531C21.5463 58.418 21.3986 58.3762 21.252 58.3276Z" fill="#0E304C"/>
<path d="M34.9845 111.658C34.7504 112.12 34.4478 112.544 34.0936 112.912C34.4229 113.264 34.7572 113.614 35.0964 113.958L36.1705 112.9C35.7672 112.492 35.3711 112.075 34.9845 111.658Z" fill="#0E304C"/>
<path d="M36.5892 115.419C37.0927 115.895 37.612 116.368 38.1324 116.826L39.1281 115.694C38.6212 115.248 38.1151 114.787 37.6244 114.323L36.5892 115.419Z" fill="#0E304C"/>
<path d="M39.7247 118.176C40.2594 118.614 40.8115 119.049 41.3652 119.47L42.2772 118.27C41.7379 117.86 41.2008 117.436 40.6796 117.01L39.7247 118.176Z" fill="#0E304C"/>
<path d="M22.9026 91.5381C22.7881 91.2061 22.6761 90.8722 22.5684 90.5394L21.1344 91.0033C21.2252 91.2849 21.3202 91.5664 21.4159 91.8475C21.8663 91.6712 22.3622 91.5641 22.9026 91.5381Z" fill="#0E304C"/>
<path d="M133.212 67.9072L134.714 67.7742C134.653 67.0883 134.578 66.3896 134.492 65.6981L132.996 65.8854C133.08 66.5588 133.153 67.2391 133.212 67.9072Z" fill="#0E304C"/>
<path d="M133.429 71.9695L134.936 71.9431C134.924 71.2542 134.899 70.5521 134.862 69.8564L133.357 69.9367C133.393 70.6147 133.417 71.2987 133.429 71.9695Z" fill="#0E304C"/>
<path d="M43.0505 120.705C43.617 121.104 44.1988 121.499 44.78 121.879L45.6045 120.616C45.0381 120.247 44.4713 119.862 43.92 119.473L43.0505 120.705Z" fill="#0E304C"/>
<path d="M131.914 59.8829L133.381 59.5373C133.224 58.8703 133.05 58.1893 132.864 57.5132L131.41 57.9134C131.591 58.5714 131.76 59.2339 131.914 59.8829Z" fill="#0E304C"/>
<path d="M132.707 63.8725L134.195 63.6317C134.084 62.9458 133.959 62.2543 133.825 61.5767L132.346 61.8706C132.478 62.5309 132.599 63.204 132.707 63.8725Z" fill="#0E304C"/>
<path d="M44.7784 25.9592L43.932 24.7114C43.3588 25.1003 42.7856 25.5043 42.2274 25.9129L43.1172 27.1298C43.6614 26.7314 44.2199 26.3376 44.7784 25.9592Z" fill="#0E304C"/>
<path d="M35.4888 33.8287L34.3974 32.7885C33.9184 33.2912 33.4432 33.8083 32.9841 34.3257L34.1117 35.3259C34.559 34.8224 35.0222 34.3186 35.4888 33.8287Z" fill="#0E304C"/>
<path d="M38.3974 30.9856L37.3825 29.8708C36.8688 30.3389 36.3578 30.8205 35.8645 31.3029L36.9178 32.3811C37.3987 31.9111 37.8965 31.4416 38.3974 30.9856Z" fill="#0E304C"/>
<path d="M113.923 28.1768C113.389 27.7325 112.841 27.2927 112.295 26.8691L111.372 28.0611C111.905 28.4738 112.439 28.9023 112.958 29.3353L113.923 28.1768Z" fill="#0E304C"/>
<path d="M41.4989 28.3581L40.5654 27.174C40.0194 27.6047 39.4759 28.0486 38.9502 28.4941L39.9248 29.6443C40.4369 29.2105 40.9668 28.7775 41.4989 28.3581Z" fill="#0E304C"/>
<path d="M117.035 30.9619C116.534 30.481 116.02 30.0032 115.504 29.5419L114.499 30.6649C115.001 31.1141 115.503 31.5796 115.991 32.0484L117.035 30.9619Z" fill="#0E304C"/>
<path d="M118.505 34.1569H119.722L119.94 33.9599C119.476 33.4454 118.996 32.9325 118.514 32.4351L117.432 33.4842C117.794 33.8573 118.152 34.2406 118.505 34.6254V34.1569Z" fill="#0E304C"/>
<path d="M105.461 121.975L106.228 123.273C106.825 122.92 107.423 122.552 108.003 122.181L107.192 120.911C106.625 121.273 106.044 121.631 105.461 121.975Z" fill="#0E304C"/>
<path d="M110.62 25.6199C110.061 25.2177 109.482 24.8175 108.901 24.4308L108.066 25.6854C108.632 26.0623 109.195 26.452 109.74 26.8439L110.62 25.6199Z" fill="#0E304C"/>
<path d="M112.141 117.358L113.085 118.534C113.627 118.099 114.167 117.65 114.689 117.2L113.705 116.059C113.196 116.497 112.67 116.934 112.141 117.358Z" fill="#0E304C"/>
<path d="M115.487 114.449C115.398 114.534 115.31 114.62 115.221 114.704L116.245 115.809C116.412 115.655 116.572 115.496 116.737 115.339C116.278 115.111 115.854 114.814 115.487 114.449Z" fill="#0E304C"/>
<path d="M108.883 119.787L109.74 121.027C110.308 120.634 110.878 120.225 111.434 119.811L110.534 118.602C109.992 119.005 109.437 119.404 108.883 119.787Z" fill="#0E304C"/>
<path d="M103.502 21.2419C102.887 20.922 102.257 20.6084 101.629 20.3099L100.982 21.6712C101.594 21.9617 102.208 22.2674 102.807 22.579L103.502 21.2419Z" fill="#0E304C"/>
<path d="M107.141 23.3038C106.552 22.9416 105.947 22.584 105.341 22.2403L104.597 23.5522C105.188 23.8868 105.778 24.2354 106.35 24.5878L107.141 23.3038Z" fill="#0E304C"/>
<path d="M98.2003 125.586L98.7732 126.981C99.4116 126.718 100.054 126.441 100.685 126.155L100.062 124.782C99.4481 125.06 98.8218 125.331 98.2003 125.586Z" fill="#0E304C"/>
<path d="M101.894 123.912L102.565 125.261C103.186 124.952 103.808 124.629 104.413 124.3L103.694 122.975C103.104 123.295 102.499 123.61 101.894 123.912Z" fill="#0E304C"/>
<path d="M132.541 83.1299L134.025 83.3964C134.146 82.7173 134.258 82.0238 134.357 81.3353L132.865 81.122C132.768 81.7928 132.659 82.4682 132.541 83.1299Z" fill="#0E304C"/>
<path d="M131.678 87.1039L133.139 87.4762C133.31 86.8046 133.471 86.121 133.618 85.4442L132.145 85.1242C132.002 85.7833 131.845 86.4493 131.678 87.1039Z" fill="#0E304C"/>
<path d="M133.116 79.1042L134.615 79.2632C134.688 78.5701 134.75 77.8707 134.798 77.184L133.295 77.0778C133.248 77.7471 133.188 78.4288 133.116 79.1042Z" fill="#0E304C"/>
<path d="M133.439 73.0125C133.439 73.6871 133.427 74.3711 133.403 75.0464L134.91 75.0992C134.934 74.4065 134.946 73.7044 134.946 73.0125H133.439Z" fill="#0E304C"/>
<path d="M99.7236 19.4464C99.0856 19.1709 98.434 18.9033 97.7877 18.6516L97.2401 20.0561C97.8699 20.3015 98.5041 20.5622 99.1259 20.8306L99.7236 19.4464Z" fill="#0E304C"/>
<path d="M130.531 91.0058L131.961 91.4825C132.181 90.823 132.391 90.1526 132.586 89.4904L131.139 89.0649C130.949 89.7098 130.745 90.3629 130.531 91.0058Z" fill="#0E304C"/>
<path d="M57.9159 128.267C58.5686 128.488 59.2379 128.701 59.9057 128.901L60.3372 127.457C59.6868 127.262 59.0352 127.055 58.3994 126.839L57.9159 128.267Z" fill="#0E304C"/>
<path d="M54.001 126.782C54.6391 127.051 55.2933 127.313 55.9449 127.56L56.4793 126.151C55.8447 125.91 55.2081 125.655 54.5871 125.393L54.001 126.782Z" fill="#0E304C"/>
<path d="M47.464 22.4962C46.8648 22.8429 46.264 23.205 45.6788 23.5721L46.4804 24.8493C47.0506 24.4916 47.6351 24.1389 48.2192 23.8009L47.464 22.4962Z" fill="#0E304C"/>
<path d="M63.8183 128.37C63.3088 128.252 62.7982 128.134 62.2962 128.003L61.9171 129.462C62.4477 129.6 62.9866 129.73 63.5248 129.853C63.5308 129.334 63.6337 128.836 63.8183 128.37Z" fill="#0E304C"/>
<path d="M62.9003 16.3176C62.2246 16.4807 61.5447 16.6579 60.8803 16.8437L61.2866 18.2957C61.934 18.1148 62.5962 17.9422 63.2546 17.7832L62.9003 16.3176Z" fill="#0E304C"/>
<path d="M58.8803 17.4426C58.2193 17.6536 57.5537 17.879 56.9025 18.113L57.4128 19.5319C58.0471 19.3039 58.6945 19.0842 59.3382 18.8788L58.8803 17.4426Z" fill="#0E304C"/>
<path d="M51.1429 20.5402C50.5222 20.842 49.8974 21.1601 49.2865 21.485L49.9939 22.816C50.5893 22.4995 51.1976 22.1897 51.8024 21.8957L51.1429 20.5402Z" fill="#0E304C"/>
<path d="M46.55 122.99C47.1421 123.347 47.7511 123.699 48.3597 124.038L49.0912 122.72C48.4984 122.39 47.9056 122.047 47.3286 121.699L46.55 122.99Z" fill="#0E304C"/>
<path d="M94.385 126.995L94.8561 128.427C95.5175 128.21 96.1808 127.978 96.8271 127.739L96.3051 126.325C95.675 126.558 95.0291 126.783 94.385 126.995Z" fill="#0E304C"/>
<path d="M54.95 18.8539C54.3063 19.1121 53.6607 19.3842 53.0317 19.6627L53.6419 21.0409C54.2547 20.7695 54.8836 20.5042 55.5107 20.2529L54.95 18.8539Z" fill="#0E304C"/>
<path d="M50.2072 125.019C50.8248 125.334 51.4576 125.642 52.0881 125.935L52.7235 124.568C52.1092 124.282 51.4926 123.982 50.8912 123.676L50.2072 125.019Z" fill="#0E304C"/>
<path d="M91.8268 16.694C91.1572 16.5135 90.4758 16.3431 89.8016 16.1875L89.4624 17.6565C90.1189 17.808 90.7829 17.9742 91.4353 18.1498L91.8268 16.694Z" fill="#0E304C"/>
<path d="M90.4788 128.125L90.8447 129.588C91.5151 129.42 92.1935 129.237 92.8609 129.044L92.4422 127.595C91.7921 127.783 91.1319 127.962 90.4788 128.125Z" fill="#0E304C"/>
<path d="M95.8231 17.9264C95.1681 17.6984 94.4984 17.4783 93.8332 17.2733L93.3885 18.7136C94.0371 18.9134 94.6891 19.1278 95.3267 19.3498L95.8231 17.9264Z" fill="#0E304C"/>
<path d="M90.2628 105.929C108.441 98.3987 117.073 77.5578 109.544 59.3792C102.014 41.2006 81.1728 32.5681 62.9944 40.098C44.816 47.6279 36.1837 68.4688 43.7137 86.6474C51.2437 104.826 72.0844 113.458 90.2628 105.929Z" stroke="#0E304C" stroke-miterlimit="10" stroke-dasharray="6 6"/>
<path d="M38.2836 104.269C38.2836 111.457 32.4565 117.283 25.2701 117.283C18.0825 117.283 12.2559 111.457 12.2559 104.269C12.2559 97.0822 18.0825 91.2555 25.2701 91.2555C32.4565 91.2555 38.2836 97.0822 38.2836 104.269Z" stroke="#0E304C" stroke-miterlimit="10"/>
<path d="M31.0731 108.879C30.7923 107.893 29.6945 107.725 29.6945 107.725L27.2961 107.037L27.2807 107.063L26.4606 106.301L26.4569 106.303V105.704C26.9042 105.441 27.3214 105.051 27.4525 104.539C27.4748 104.45 27.497 104.365 27.5181 104.283C27.5181 104.283 27.5923 104.014 27.6786 103.654C28.2243 103.731 28.2428 102.374 28.2428 102.374C28.1765 102.211 28.0563 102.178 27.9409 102.193C27.944 102.154 27.9455 102.117 27.9455 102.082C27.9455 102.082 28.9879 97.7344 25.0395 97.8727C25.0395 97.8727 23.6006 98.0811 23.4619 98.8775C23.4619 98.8775 22.7463 99.0821 22.6724 99.7269C22.6724 99.7269 22.484 100.877 22.5853 102.21C22.4519 102.171 22.2891 102.175 22.2088 102.374C22.2088 102.374 22.2684 103.739 22.8235 103.653C22.8661 103.809 22.9147 103.963 22.9709 104.114C23.0037 104.246 23.0406 104.386 23.0794 104.539C23.2102 105.051 23.6274 105.441 24.0751 105.704V106.264L24.0687 106.261L23.1389 107.126L20.8461 107.725C20.8461 107.725 19.7479 107.893 19.4675 108.88L18.9878 110.668H24.4746H25.217H25.243H25.298H25.3244H26.0672H31.5524L31.0731 108.879Z" fill="#0E304C"/>
<path d="M20.8069 107.545L22.5925 107.079C22.5337 107.064 22.4971 107.058 22.4971 107.058L20.5943 106.512L20.5819 106.534L19.9314 105.929L19.928 105.93V105.455C20.2838 105.246 20.6143 104.937 20.7179 104.531C20.7364 104.46 20.7534 104.393 20.7703 104.328C20.7703 104.328 20.8291 104.115 20.8977 103.829C21.3303 103.89 21.3454 102.814 21.3454 102.814C21.293 102.685 21.1973 102.659 21.1061 102.671C21.108 102.64 21.1091 102.61 21.1091 102.583C21.1091 102.583 21.936 99.1334 18.8039 99.243C18.8039 99.243 17.6627 99.4081 17.553 100.04C17.553 100.04 16.9844 100.202 16.9263 100.714C16.9263 100.714 16.7771 101.626 16.857 102.684C16.7515 102.653 16.6226 102.656 16.5589 102.815C16.5589 102.815 16.606 103.897 17.0462 103.829C17.0805 103.952 17.1181 104.074 17.1622 104.194C17.1894 104.298 17.2176 104.41 17.2489 104.532C17.3518 104.937 17.6838 105.246 18.0396 105.456V105.9L18.0339 105.898L17.296 106.584L15.4769 107.059C15.4769 107.059 14.6056 107.192 14.3836 107.975L14.003 109.394H18.3558H18.9448H18.9667H19.0096H19.0311H19.14L19.2904 108.833C19.5877 107.784 20.6803 107.567 20.8069 107.545Z" fill="#0E304C"/>
<path d="M31.5309 109.393H31.5746H31.5957H32.1848H36.5375L36.1562 107.974C35.9338 107.192 35.0629 107.058 35.0629 107.058L33.1601 106.512L33.1473 106.534L32.4976 105.929L32.4938 105.93V105.455C32.8488 105.246 33.1801 104.937 33.2837 104.531C33.3025 104.46 33.3187 104.393 33.3357 104.328C33.3357 104.328 33.3949 104.115 33.4631 103.829C33.8957 103.89 33.9108 102.814 33.9108 102.814C33.8588 102.685 33.7623 102.659 33.6715 102.671C33.6734 102.64 33.6749 102.61 33.6749 102.583C33.6749 102.583 34.501 99.1334 31.3692 99.243C31.3692 99.243 30.2281 99.4081 30.118 100.04C30.118 100.04 29.5501 100.202 29.4917 100.714C29.4917 100.714 29.3421 101.626 29.4224 102.684C29.3161 102.653 29.1879 102.656 29.1243 102.815C29.1243 102.815 29.1714 103.897 29.6119 103.829C29.6455 103.952 29.6835 104.074 29.728 104.194C29.7544 104.298 29.7834 104.41 29.8147 104.532C29.9179 104.937 30.2488 105.246 30.6042 105.456V105.9L30.5989 105.898L29.861 106.584L28.0427 107.059C28.0427 107.059 28.0393 107.059 28.0385 107.06L29.7352 107.546C29.872 107.57 30.9539 107.79 31.249 108.83L31.4009 109.393H31.5102L31.5309 109.393Z" fill="#0E304C"/>
<path d="M89.6391 128.239C89.6391 135.425 83.8128 141.252 76.6257 141.252C69.4389 141.252 63.6122 135.425 63.6122 128.239C63.6122 121.051 69.4389 115.225 76.6257 115.225C83.8128 115.225 89.6391 121.051 89.6391 128.239Z" stroke="#0E304C" stroke-miterlimit="10"/>
<path d="M78.9216 128.783L76.6178 130.797L74.325 128.688L69.4638 133.775H83.8656C83.9486 133.775 84.0277 133.759 84.1012 133.733L78.9216 128.783Z" fill="#0E304C"/>
<path d="M79.7228 128.082L84.5723 132.716V123.843L79.7228 128.082Z" fill="#0E304C"/>
<path d="M76.6328 129.531L84.2854 122.842C84.1675 122.755 84.0228 122.703 83.8656 122.703H69.3861C69.3322 122.703 69.2799 122.709 69.2297 122.72L76.6328 129.531Z" fill="#0E304C"/>
<path d="M68.6795 123.495V133.06L73.5444 127.97L68.6795 123.495Z" fill="#0E304C"/>
<path d="M137.176 45.8837C137.176 53.0705 131.349 58.8968 124.163 58.8968C116.975 58.8968 111.148 53.0705 111.148 45.8837C111.148 38.6966 116.975 32.8702 124.163 32.8702C131.35 32.8702 137.176 38.6966 137.176 45.8837Z" stroke="#0E304C" stroke-miterlimit="10"/>
<path d="M131.099 38.6744H116.948C116.596 38.6744 116.311 38.9593 116.311 39.3105V49.1953C116.311 49.5473 116.596 49.8318 116.948 49.8318H131.099C131.45 49.8318 131.735 49.5469 131.735 49.1953V39.3105C131.735 38.9593 131.45 38.6744 131.099 38.6744ZM130.598 48.6647H117.448V39.6278H130.598V48.6647Z" fill="#0E304C"/>
<path d="M130.038 40.0999H118.008V48.1919H130.038V40.0999Z" fill="#0E304C"/>
<path d="M134.192 52.6208H114.133V53.0926H134.192V52.6208Z" fill="#0E304C"/>
<path d="M131.735 50.283H116.311L114.133 52.2382H134.192L131.735 50.283ZM116.499 50.5528H131.697L132.564 51.261H115.76L116.499 50.5528ZM121.605 51.9736L122.031 51.4136H126.257L126.721 51.9736H121.605Z" fill="#0E304C"/>
<path d="M89.2931 18.7552C90.9447 11.7607 86.6134 4.75157 79.6189 3.09996C72.6244 1.44836 65.6153 5.77966 63.9637 12.7742C62.3121 19.7687 66.6434 26.7778 73.6379 28.4294C80.6325 30.081 87.6415 25.7497 89.2931 18.7552Z" stroke="#0E304C" stroke-miterlimit="10"/>
<path fill-rule="evenodd" clip-rule="evenodd" d="M80.2031 21.7845C79.7048 21.7845 79.2207 21.6848 78.7437 21.5496C75.533 20.617 73.1267 18.6165 71.1761 15.9682C70.4357 14.9573 69.7736 13.9392 69.5387 12.7005C69.2824 11.2126 69.7024 9.95254 70.8201 8.93451C71.169 8.60703 72.2368 8.47177 72.6711 8.67822C72.8277 8.74941 72.9274 8.87755 73.0057 9.05553C73.4115 10.0095 73.803 10.9706 74.2017 11.9174C74.2871 12.0954 74.2444 12.2876 74.159 12.4727C73.9597 12.9141 73.6322 13.2558 73.2905 13.6331C73.0484 13.8823 73.0342 14.1172 73.2193 14.4233C74.3583 16.3099 75.9245 17.6839 77.9677 18.5026C78.2881 18.6379 78.5159 18.588 78.7224 18.3389C79.0712 17.9117 79.4343 17.4917 79.7475 17.0503C79.9682 16.7513 80.2174 16.7086 80.5306 16.851C81.2212 17.15 81.8832 17.4774 82.5667 17.8049C82.7233 17.8761 82.8657 17.9402 83.0223 18.0043C83.7128 18.3602 83.6986 18.3602 83.6417 19.1291C83.5278 20.5885 82.4172 21.336 81.1001 21.6848C80.8011 21.7845 80.5093 21.7845 80.2031 21.7845Z" fill="#517491"/>
<path fill-rule="evenodd" clip-rule="evenodd" d="M81.4847 10.3368C82.0186 10.7924 82.403 11.4047 82.7234 12.0525C82.9583 12.5651 83.1149 13.1204 83.2217 13.6828C83.2288 13.7967 83.2787 13.9106 83.1719 14.0316C82.8586 14.0601 82.5525 14.0601 82.2464 14.0814C82.1325 14.1028 82.0969 14.0814 82.0827 13.9604C81.9403 12.8926 81.506 11.9599 80.7727 11.1911C79.712 10.0449 78.3878 9.48962 76.8216 9.53233C76.786 9.53233 76.7505 9.53233 76.6437 9.53233C76.6152 9.21197 76.6152 8.86313 76.601 8.51429C76.6721 8.40039 76.786 8.40039 76.8928 8.40039C77.5478 8.40039 78.1743 8.47158 78.7865 8.64956C79.292 8.8133 79.7761 9.01975 80.2317 9.30452C80.3598 9.38283 80.4809 9.46826 80.609 9.58928C80.7229 9.68183 80.9151 9.83846 81.0219 9.93812C81.1358 10.0307 81.3708 10.2158 81.4847 10.3368Z" fill="#517491"/>
<path fill-rule="evenodd" clip-rule="evenodd" d="M79.9683 11.1983C80.8226 11.9387 81.3423 12.8713 81.5203 13.989C81.5416 14.1314 81.506 14.1741 81.3708 14.1741C81.0931 14.1741 80.8297 14.2026 80.5521 14.2524C80.4666 14.2524 80.431 14.2239 80.4239 14.1243C80.2815 13.1418 79.7903 12.3801 78.993 11.8248C78.395 11.4048 77.7186 11.1983 76.9925 11.2197C76.8644 11.2197 76.8359 11.1983 76.8288 11.0844C76.8288 10.7996 76.7932 10.5291 76.7576 10.2515C76.7576 10.1518 76.786 10.1304 76.8715 10.1304C78.0319 10.0735 79.0642 10.4508 79.9683 11.1983Z" fill="#517491"/>
<path fill-rule="evenodd" clip-rule="evenodd" d="M78.815 14.3806C78.6868 13.4694 78.0105 12.8429 77.1064 12.8215C77.0138 12.8215 76.9783 12.8215 76.9783 12.7219C76.9569 12.4513 76.9355 12.1666 76.8928 11.8818C76.8928 11.7964 76.9071 11.7679 76.9925 11.7679C78.338 11.6682 79.7262 12.8358 79.8686 14.1955C79.8686 14.2881 79.8401 14.2881 79.7689 14.2881C79.4628 14.3094 79.1496 14.3593 78.815 14.3806Z" fill="#517491"/>
<path d="M38.2832 45.8837C38.2832 53.0705 32.4566 58.8968 25.2698 58.8968C18.083 58.8968 12.2563 53.0705 12.2563 45.8837C12.2563 38.6966 18.083 32.8702 25.2698 32.8702C32.4566 32.8702 38.2832 38.6966 38.2832 45.8837Z" stroke="#0E304C" stroke-miterlimit="10"/>
<path d="M29.8792 50.3018H32.0725L31.8701 50.5573C31.1243 51.4942 30.1844 52.229 29.0489 52.7612C27.9417 53.2726 26.7776 53.5277 25.5569 53.5277C23.5407 53.5277 21.8561 52.8497 20.5002 51.4942C19.1442 50.1382 18.4666 48.3466 18.4666 46.1178C18.4666 43.9034 19.099 42.0368 20.3619 40.518C21.6251 38.9996 23.382 38.2399 25.6319 38.2399C26.9871 38.2399 28.0868 38.4992 28.9317 39.0173C30.9265 40.2376 31.9237 42.1118 31.9237 44.6383C31.9237 46.0647 31.5253 47.3637 30.7313 48.5347C29.8294 49.8548 28.6939 50.5147 27.324 50.5147C26.6005 50.5147 26.1241 50.2204 25.8976 49.6313C25.5641 49.9362 25.2698 50.1529 25.0142 50.2807C24.7014 50.4367 24.3363 50.5147 23.9176 50.5147C22.9174 50.5147 22.1474 50.1103 21.607 49.3012C21.139 48.6055 20.9049 47.7293 20.9049 46.6714C20.9049 45.3445 21.2162 44.1167 21.8403 42.9884C22.5838 41.6399 23.5686 40.9653 24.7949 40.9653C25.5671 40.9653 26.2051 41.2947 26.7079 41.9539L26.8206 41.242H28.836L27.676 48.5772C27.676 48.6978 27.7292 48.7585 27.8358 48.7585C28.2466 48.7585 28.6661 48.5347 29.0915 48.0881C29.4111 47.7474 29.6806 47.3423 29.9003 46.8742C30.192 46.2497 30.3367 45.5043 30.3367 44.6383C30.3367 43.2118 29.9127 42.0564 29.0648 41.173C28.2161 40.2893 27.0825 39.8476 25.6636 39.8476C24.031 39.8476 22.6879 40.4061 21.6345 41.5242C20.5804 42.642 20.0536 44.1449 20.0536 46.0327C20.0536 47.7572 20.5326 49.1591 21.4906 50.2377C22.4915 51.366 23.8429 51.9306 25.5471 51.9306C27.1085 51.9306 28.5387 51.4022 29.8377 50.3444L29.8792 50.3018ZM25.7808 46.8097C26.0224 45.9015 26.1429 45.0392 26.1429 44.2226C26.1429 43.8043 26.0687 43.4526 25.9191 43.1689C25.7344 42.8071 25.451 42.6262 25.0674 42.6262C24.343 42.6262 23.7932 43.2363 23.4171 44.457C23.1469 45.323 23.0123 46.2241 23.0123 47.1614C23.0123 47.6012 23.0911 47.9848 23.2471 48.3108C23.4525 48.737 23.7506 48.9496 24.1414 48.9496C24.6095 48.9496 24.9886 48.6978 25.2799 48.1936C25.4435 47.9102 25.6104 47.4485 25.7808 46.8097Z" fill="#517491"/>
<path d="M137.176 104.269C137.176 111.457 131.35 117.283 124.162 117.283C116.976 117.283 111.149 111.457 111.149 104.269C111.149 97.0822 116.976 91.2555 124.162 91.2555C131.35 91.2555 137.176 97.0822 137.176 104.269Z" stroke="#0E304C" stroke-miterlimit="10"/>
<path d="M124.162 106.253C121.339 106.253 116 105.839 116 104.269C116 102.7 121.339 102.285 124.162 102.285C126.985 102.285 132.325 102.7 132.325 104.269C132.325 105.839 126.986 106.253 124.162 106.253ZM124.162 102.942C122.092 102.942 120.148 103.111 118.69 103.419C117.001 103.776 116.656 104.181 116.656 104.269C116.656 104.357 117.001 104.762 118.69 105.119C120.148 105.427 122.092 105.597 124.162 105.597C126.232 105.597 128.175 105.428 129.634 105.119C131.323 104.762 131.668 104.357 131.668 104.269C131.668 104.181 131.323 103.776 129.634 103.419C128.176 103.111 126.232 102.942 124.162 102.942Z" fill="#0E304C"/>
<path d="M124.162 109.622C119.662 109.622 116 107.221 116 104.269C116 101.317 119.662 98.9155 124.162 98.9155C128.663 98.9155 132.325 101.317 132.325 104.269C132.325 107.221 128.663 109.622 124.162 109.622ZM124.162 99.572C120.023 99.572 116.656 101.679 116.656 104.269C116.656 106.859 120.023 108.966 124.162 108.966C128.301 108.966 131.668 106.859 131.668 104.269C131.668 101.679 128.302 99.572 124.162 99.572Z" fill="#0E304C"/>
<path d="M124.162 112.432C122.495 112.432 122.055 107.092 122.055 104.269C122.055 101.446 122.495 96.1068 124.162 96.1068C125.829 96.1068 126.27 101.446 126.27 104.269C126.27 107.092 125.829 112.432 124.162 112.432ZM124.162 96.7633C123.67 96.7633 122.711 99.4123 122.711 104.269C122.711 109.126 123.67 111.775 124.162 111.775C124.654 111.775 125.613 109.126 125.613 104.269C125.613 99.4123 124.654 96.7633 124.162 96.7633Z" fill="#0E304C"/>
<path d="M124.162 112.432C121.21 112.432 118.809 108.77 118.809 104.269C118.809 99.7688 121.21 96.1068 124.162 96.1068C127.114 96.1068 129.515 99.7688 129.515 104.269C129.515 108.77 127.114 112.432 124.162 112.432ZM124.162 96.7633C121.572 96.7633 119.466 100.131 119.466 104.269C119.466 108.408 121.572 111.775 124.162 111.775C126.752 111.775 128.859 108.408 128.859 104.269C128.859 100.13 126.752 96.7633 124.162 96.7633Z" fill="#0E304C"/>
<path d="M124.162 112.432C119.662 112.432 116 108.77 116 104.269C116 99.7689 119.662 96.1069 124.162 96.1069C128.663 96.1069 132.325 99.7689 132.325 104.269C132.325 108.77 128.663 112.432 124.162 112.432ZM124.162 96.7634C120.023 96.7634 116.656 100.131 116.656 104.269C116.656 108.408 120.023 111.775 124.162 111.775C128.301 111.775 131.668 108.408 131.668 104.269C131.668 100.13 128.302 96.7634 124.162 96.7634Z" fill="#0E304C"/>
<path d="M152.5 77.2908C152.5 81.5227 149.069 84.9525 144.838 84.9525C140.607 84.9525 137.176 81.5223 137.176 77.2908C137.176 73.0598 140.607 69.6292 144.838 69.6292C149.069 69.6292 152.5 73.0598 152.5 77.2908Z" stroke="#0E304C" stroke-miterlimit="10" stroke-dasharray="2.36 2.36"/>
<path d="M148.254 80.0053C148.089 79.4246 147.444 79.3251 147.444 79.3251L146.031 78.9203L146.022 78.9361L145.54 78.4873L145.537 78.4884V78.1357C145.8 77.9804 146.046 77.7513 146.123 77.4502C146.137 77.3974 146.149 77.3477 146.162 77.2991C146.162 77.2991 146.206 77.1415 146.257 76.929C146.578 76.9746 146.589 76.176 146.589 76.176C146.55 76.0799 146.479 76.0603 146.411 76.0693C146.413 76.0464 146.413 76.0245 146.413 76.0041C146.413 76.0041 147.027 73.4445 144.702 73.5263C144.702 73.5263 143.856 73.6484 143.774 74.1172C143.774 74.1172 143.353 74.2378 143.309 74.6173C143.309 74.6173 143.199 75.2941 143.257 76.0788C143.179 76.0558 143.084 76.058 143.037 76.176C143.037 76.176 143.072 76.9791 143.398 76.9286C143.424 77.0206 143.451 77.1114 143.484 77.1999C143.504 77.2772 143.525 77.3605 143.548 77.4506C143.625 77.752 143.871 77.9808 144.135 78.1361V78.4658L144.131 78.4636L143.583 78.9735L142.234 79.3258C142.234 79.3258 141.587 79.4253 141.422 80.0061L141.14 81.059H144.37H144.807H144.823H144.855H144.871H145.308H148.538L148.254 80.0053Z" fill="#517491"/>
<path d="M142.21 79.2199L143.262 78.9451C143.227 78.9365 143.205 78.9327 143.205 78.9327L142.086 78.6112L142.078 78.6237L141.695 78.2675L141.693 78.2687V77.989C141.902 77.8654 142.097 77.6838 142.158 77.4452C142.168 77.4034 142.179 77.3634 142.188 77.3254C142.188 77.3254 142.223 77.1999 142.263 77.0318C142.518 77.068 142.527 76.4341 142.527 76.4341C142.496 76.358 142.44 76.3425 142.386 76.3493C142.388 76.3312 142.388 76.3135 142.388 76.2977C142.388 76.2977 142.875 74.2664 141.031 74.3316C141.031 74.3316 140.359 74.4284 140.294 74.8004C140.294 74.8004 139.959 74.8961 139.925 75.1972C139.925 75.1972 139.837 75.7346 139.884 76.3572C139.822 76.3387 139.747 76.3402 139.708 76.4337C139.708 76.4337 139.736 77.0706 139.995 77.0307C140.016 77.1034 140.038 77.1757 140.065 77.2455C140.08 77.3073 140.097 77.3728 140.115 77.4448C140.176 77.6838 140.371 77.865 140.581 77.9886V78.2498L140.577 78.2483L140.143 78.6523L139.072 78.9319C139.072 78.9319 138.559 79.0107 138.429 79.4716L138.204 80.3071H140.767H141.113H141.125H141.151H141.164H141.228L141.317 79.9766C141.493 79.3597 142.137 79.2323 142.21 79.2199Z" fill="#517491"/>
<path d="M148.524 80.3079H148.549H148.562H148.909H151.471L151.247 79.4724C151.116 79.0114 150.603 78.9327 150.603 78.9327L149.483 78.6112L149.476 78.6237L149.092 78.2675L149.09 78.2686V77.989C149.3 77.8654 149.494 77.6838 149.555 77.4452C149.566 77.4034 149.576 77.3634 149.586 77.3254C149.586 77.3254 149.621 77.1999 149.661 77.0318C149.915 77.068 149.925 76.4341 149.925 76.4341C149.894 76.358 149.837 76.3425 149.784 76.3493C149.784 76.3312 149.785 76.3135 149.785 76.2977C149.785 76.2977 150.272 74.2664 148.428 74.3316C148.428 74.3316 147.756 74.4284 147.691 74.8004C147.691 74.8004 147.357 74.8961 147.322 75.1972C147.322 75.1972 147.234 75.7346 147.282 76.3572C147.219 76.3387 147.144 76.3402 147.105 76.4337C147.105 76.4337 147.133 77.0706 147.394 77.0307C147.413 77.1034 147.436 77.1757 147.462 77.2455C147.478 77.3073 147.494 77.3728 147.513 77.4448C147.574 77.6838 147.769 77.865 147.978 77.9886V78.2498L147.974 78.2483L147.541 78.6523L146.469 78.9319L146.467 78.9327L147.466 79.2191C147.547 79.233 148.183 79.3627 148.357 79.9751L148.445 80.3071H148.511H148.524V80.3079Z" fill="#517491"/>
<path d="M56.3233 110.668C56.3233 114.899 52.8923 118.33 48.6613 118.33C44.4298 118.33 40.9996 114.899 40.9996 110.668C40.9996 106.436 44.4298 103.006 48.6613 103.006C52.8923 103.006 56.3233 106.437 56.3233 110.668Z" stroke="#0E304C" stroke-miterlimit="10" stroke-dasharray="2.36 2.36"/>
<path d="M52.5878 106.981H44.734C44.5648 106.981 44.4276 107.117 44.4276 107.287V112.386C44.4276 112.555 44.5648 112.693 44.734 112.693H49.6381C49.9196 112.992 50.4171 113.665 50.0124 114.356C50.0124 114.356 51.5273 113.783 51.7949 112.693H52.5878C52.7567 112.693 52.8935 112.555 52.8935 112.386V107.287C52.8938 107.118 52.7571 106.981 52.5878 106.981ZM51.8341 111.088H45.4877C45.4075 111.088 45.3423 111.022 45.3423 110.942C45.3423 110.862 45.4075 110.797 45.4877 110.797H51.8341C51.9144 110.797 51.9792 110.862 51.9792 110.942C51.9792 111.022 51.9144 111.088 51.8341 111.088ZM51.8341 109.981H45.4877C45.4075 109.981 45.3423 109.916 45.3423 109.836C45.3423 109.756 45.4075 109.691 45.4877 109.691H51.8341C51.9144 109.691 51.9792 109.756 51.9792 109.836C51.9792 109.916 51.9144 109.981 51.8341 109.981ZM51.8341 108.876H45.4877C45.4075 108.876 45.3423 108.811 45.3423 108.73C45.3423 108.651 45.4075 108.586 45.4877 108.586H51.8341C51.9144 108.586 51.9792 108.651 51.9792 108.73C51.9792 108.811 51.9144 108.876 51.8341 108.876Z" fill="#0E304C"/>
<path d="M15.8229 78.5396C15.8229 82.7714 12.3927 86.2012 8.16164 86.2012C3.92984 86.2012 0.5 82.771 0.5 78.5396C0.5 74.3078 3.92984 70.8779 8.16164 70.8779C12.3927 70.8779 15.8229 74.3081 15.8229 78.5396Z" stroke="#0E304C" stroke-miterlimit="10" stroke-dasharray="2.36 2.36"/>
<path fill-rule="evenodd" clip-rule="evenodd" d="M12.0413 77.3817C11.6052 75.5925 10.0695 74.3662 8.20583 74.3513C7.96728 74.3513 7.70637 74.3737 7.44918 74.4296C4.8512 74.9514 3.50189 77.8327 4.76919 80.1548C4.79901 80.2257 4.80647 80.2704 4.78783 80.3412C4.61637 80.9488 4.45237 81.5638 4.28091 82.1714C4.25854 82.2757 4.25854 82.2757 4.35172 82.2459C4.98538 82.0819 5.62649 81.9216 6.26014 81.7464C6.31605 81.7353 6.3496 81.7427 6.39805 81.7651C7.22553 82.1751 8.08283 82.3093 8.98113 82.1341C11.1467 81.7092 12.5594 79.5175 12.0413 77.3817ZM8.75376 81.5042C8.57484 81.5377 8.39966 81.5489 8.30275 81.5489C7.61318 81.5489 7.04662 81.3886 6.52851 81.0792C6.46514 81.0382 6.40551 81.0196 6.32351 81.0531C5.97686 81.1463 5.63394 81.2321 5.27612 81.3215C5.2053 81.3439 5.19784 81.329 5.21648 81.2619C5.30221 80.9301 5.39911 80.5947 5.4923 80.2704C5.51466 80.1735 5.50721 80.1064 5.4513 80.0244C4.73937 78.8689 4.76546 77.4413 5.56312 76.3716C6.40178 75.2645 7.53491 74.8098 8.89913 75.1005C10.2298 75.3763 11.0759 76.2411 11.3965 77.5643C11.8251 79.387 10.5914 81.206 8.75376 81.5042Z" fill="#0E304C"/>
<path fill-rule="evenodd" clip-rule="evenodd" d="M9.2309 80.1622C9.09299 80.1659 8.96253 80.1398 8.82834 80.0988C7.92259 79.8379 7.24421 79.2751 6.70001 78.5259C6.50246 78.2538 6.30491 77.9668 6.24528 77.6127C6.167 77.1952 6.28627 76.8374 6.59937 76.5541C6.69629 76.4646 7.00193 76.4236 7.12494 76.4795C7.16966 76.5019 7.19948 76.5392 7.21439 76.5839C7.33366 76.8523 7.44176 77.1281 7.55358 77.389C7.57968 77.4487 7.56477 77.4971 7.5424 77.5418C7.48649 77.6686 7.39703 77.7692 7.29639 77.8736C7.23303 77.9407 7.22184 78.004 7.27775 78.101C7.59458 78.634 8.04187 79.0104 8.60843 79.249C8.69416 79.2863 8.76126 79.2751 8.82089 79.2005C8.91408 79.0775 9.02217 78.9582 9.11163 78.8352C9.17126 78.757 9.24581 78.7346 9.33154 78.7719C9.52909 78.8576 9.71173 78.9508 9.90555 79.044C9.95028 79.0589 9.99501 79.085 10.0323 79.1036C10.2224 79.2043 10.2224 79.2043 10.2037 79.4167C10.1702 79.8267 9.86083 80.0392 9.49182 80.1398C9.40609 80.1622 9.32036 80.1659 9.2309 80.1622Z" fill="#0E304C"/>
<path d="M122.055 82.9424C126.287 82.9424 129.717 79.512 129.717 75.2804C129.717 71.0487 126.287 67.6183 122.055 67.6183C117.823 67.6183 114.393 71.0487 114.393 75.2804C114.393 79.512 117.823 82.9424 122.055 82.9424Z" stroke="#0E304C" stroke-miterlimit="10" stroke-dasharray="2.36 2.36"/>
<path d="M127.011 74.1677C126.793 74.3731 126.448 74.3622 126.243 74.1432C124.001 71.7535 120.233 71.6344 117.843 73.8764C117.624 74.0825 117.28 74.0716 117.074 73.8523C116.869 73.6337 116.879 73.2892 117.099 73.0838C119.925 70.4303 124.383 70.5724 127.036 73.3989C127.241 73.6175 127.231 73.9615 127.011 74.1677Z" fill="#0E304C"/>
<path d="M125.836 75.4791C125.617 75.6845 125.273 75.6739 125.067 75.4549C123.432 73.7138 120.688 73.6268 118.947 75.2605C118.728 75.4659 118.383 75.4553 118.178 75.2364C117.972 75.017 117.983 74.6733 118.202 74.4672C120.38 72.4231 123.817 72.532 125.861 74.7106C126.066 74.9292 126.055 75.2737 125.836 75.4791Z" fill="#0E304C"/>
<path d="M124.726 76.9367C124.506 77.1428 124.163 77.1319 123.957 76.9125C122.897 75.7835 121.117 75.7277 119.988 76.7867C119.769 76.9928 119.425 76.9819 119.219 76.7626C119.013 76.5436 119.024 76.1995 119.244 75.9938C120.81 74.5236 123.28 74.6024 124.75 76.1686C124.956 76.3868 124.945 76.7313 124.726 76.9367Z" fill="#0E304C"/>
<path d="M122.873 77.3276C123.333 77.8179 123.309 78.5886 122.819 79.0488C122.328 79.5093 121.558 79.4844 121.097 78.9941C120.637 78.5038 120.661 77.7331 121.152 77.273C121.642 76.8124 122.413 76.8373 122.873 77.3276Z" fill="#0E304C"/>
<path d="M45.9448 133.06C45.9448 137.292 42.5143 140.722 38.2836 140.722C34.0518 140.722 30.6219 137.292 30.6219 133.06C30.6219 128.829 34.0522 125.399 38.2836 125.399C42.5143 125.399 45.9448 128.829 45.9448 133.06Z" stroke="#0E304C" stroke-miterlimit="10" stroke-dasharray="2.36 2.36"/>
<path fill-rule="evenodd" clip-rule="evenodd" d="M41.293 129.374C39.3543 129.374 37.4075 129.374 35.4648 129.374C34.7736 129.374 34.4177 129.717 34.4177 130.38C34.4177 131.293 34.4177 132.218 34.4177 133.138C34.4177 134.059 34.4177 134.999 34.4177 135.928C34.4177 136.56 34.7858 136.911 35.4402 136.911C37.3952 136.911 39.338 136.911 41.293 136.911C41.9678 136.911 42.3319 136.56 42.3319 135.912C42.3319 134.059 42.3319 132.218 42.3319 130.365C42.3319 129.717 41.9678 129.374 41.293 129.374ZM40.6509 130.216C41.4321 130.216 41.4321 130.216 41.4321 130.969C41.4321 131.703 41.4321 131.703 40.6631 131.703C39.882 131.703 39.882 131.703 39.882 130.958C39.882 130.216 39.882 130.216 40.6509 130.216ZM38.3809 131.675C39.2071 131.675 39.9147 132.354 39.9065 133.138C39.8983 133.946 39.1867 134.617 38.3564 134.601C37.5261 134.586 36.8186 133.907 36.839 133.123C36.8595 132.331 37.5547 131.675 38.3809 131.675ZM41.4321 135.604C41.428 135.955 41.3298 136.045 40.9617 136.045C40.0987 136.045 39.2357 136.045 38.3727 136.045C37.5139 136.045 36.6509 136.045 35.7879 136.045C35.4239 136.045 35.3216 135.955 35.3216 135.604C35.3216 134.691 35.3298 133.767 35.3093 132.854C35.3093 132.596 35.3871 132.534 35.6406 132.542C36.0005 132.573 36.0087 132.557 35.9637 132.885C35.8247 134.059 36.6713 135.187 37.8819 135.413C39.1212 135.643 40.3605 134.925 40.704 133.79C40.8063 133.439 40.8308 133.064 40.7572 132.709C40.7286 132.581 40.7654 132.557 40.884 132.557C41.4321 132.518 41.4321 132.503 41.4321 133.045C41.4321 133.891 41.4321 134.754 41.4321 135.604Z" fill="#517491"/>
<path d="M123.661 15.4467C123.661 19.6781 120.231 23.1083 116 23.1083C111.769 23.1083 108.338 19.6777 108.338 15.4467C108.338 11.2149 111.769 7.78503 116 7.78503C120.231 7.78503 123.661 11.2152 123.661 15.4467Z" stroke="#0E304C" stroke-miterlimit="10" stroke-dasharray="2.36 2.36"/>
<path d="M118.27 11.0084H113.729C113.455 11.0084 113.233 11.2304 113.233 11.5044V19.3891C113.233 19.6631 113.455 19.8851 113.729 19.8851H118.27C118.545 19.8851 118.766 19.6627 118.766 19.3891V11.5044C118.766 11.2304 118.544 11.0084 118.27 11.0084ZM116.657 19.4875H115.342C115.253 19.4875 115.18 19.4159 115.18 19.3266C115.18 19.2372 115.253 19.1649 115.342 19.1649H116.657C116.746 19.1649 116.819 19.2369 116.819 19.3266C116.819 19.4159 116.747 19.4875 116.657 19.4875ZM117.843 18.3735H114.157V11.8183H117.843V18.3735ZM118.198 18.7435H113.801V11.5006H118.198V18.7435Z" fill="#0E304C"/>
<path d="M118.81 134.229C118.81 138.46 115.379 141.891 111.148 141.891C106.916 141.891 103.486 138.46 103.486 134.229C103.486 129.997 106.917 126.567 111.148 126.567C115.379 126.567 118.81 129.997 118.81 134.229Z" stroke="#0E304C" stroke-miterlimit="10" stroke-dasharray="2.36 2.36"/>
<path d="M113.862 136.83H115.153L115.034 136.98C114.595 137.531 114.041 137.964 113.373 138.277C112.721 138.578 112.035 138.728 111.317 138.728C110.13 138.728 109.137 138.329 108.339 137.531C107.542 136.733 107.143 135.678 107.143 134.366C107.143 133.063 107.514 131.963 108.258 131.069C109.002 130.175 110.037 129.728 111.361 129.728C112.159 129.728 112.806 129.881 113.304 130.186C114.478 130.904 115.065 132.008 115.065 133.495C115.065 134.335 114.831 135.1 114.363 135.789C113.833 136.566 113.163 136.955 112.358 136.955C111.931 136.955 111.651 136.782 111.518 136.435C111.321 136.615 111.148 136.742 110.998 136.817C110.814 136.909 110.598 136.955 110.352 136.955C109.763 136.955 109.31 136.717 108.992 136.24C108.716 135.831 108.578 135.315 108.578 134.692C108.578 133.911 108.762 133.188 109.129 132.524C109.567 131.73 110.147 131.333 110.868 131.333C111.323 131.333 111.698 131.527 111.995 131.915L112.061 131.496H113.247L112.564 135.814C112.564 135.886 112.595 135.921 112.658 135.921C112.9 135.921 113.147 135.789 113.398 135.526C113.586 135.325 113.744 135.088 113.874 134.811C114.046 134.444 114.132 134.005 114.132 133.495C114.132 132.655 113.882 131.975 113.382 131.455C112.883 130.935 112.216 130.675 111.38 130.675C110.419 130.675 109.628 131.004 109.008 131.662C108.387 132.32 108.076 133.205 108.076 134.316C108.076 135.332 108.358 136.157 108.923 136.792C109.512 137.456 110.308 137.789 111.31 137.789C112.23 137.789 113.072 137.478 113.837 136.855L113.862 136.83ZM111.449 134.774C111.591 134.239 111.661 133.731 111.661 133.251C111.661 133.005 111.618 132.798 111.53 132.63C111.421 132.417 111.254 132.311 111.028 132.311C110.603 132.311 110.278 132.67 110.057 133.388C109.898 133.899 109.819 134.429 109.819 134.981C109.819 135.24 109.864 135.466 109.957 135.657C110.078 135.908 110.254 136.033 110.483 136.033C110.759 136.033 110.982 135.885 111.153 135.588C111.25 135.422 111.348 135.15 111.449 134.774Z" fill="#0E304C"/>
<path d="M56.3233 35.2798C56.3233 39.5116 52.8923 42.9414 48.6613 42.9414C44.4298 42.9414 40.9996 39.5112 40.9996 35.2798C40.9996 31.0484 44.4298 27.6185 48.6613 27.6185C52.8923 27.6185 56.3233 31.0487 56.3233 35.2798Z" stroke="#0E304C" stroke-miterlimit="10" stroke-dasharray="2.36 2.36"/>
<path d="M52.745 31.036H44.4137C44.2064 31.036 44.0387 31.2037 44.0387 31.4106V37.2301C44.0387 37.437 44.2064 37.6047 44.4137 37.6047H52.745C52.9519 37.6047 53.1196 37.437 53.1196 37.2301V31.4106C53.12 31.2037 52.9519 31.036 52.745 31.036ZM52.4503 36.9177H44.7088V31.5975H52.4503V36.9177Z" fill="#0E304C"/>
<path d="M52.1205 31.8756H45.0374V36.6395H52.1205V31.8756Z" fill="#0E304C"/>
<path d="M54.566 39.2467H42.7566V39.5248H54.566V39.2467Z" fill="#0E304C"/>
<path d="M53.12 37.8702H44.0387L42.7566 39.0215H54.566L53.12 37.8702ZM44.1495 38.0292H53.097L53.6084 38.446H43.715L44.1495 38.0292ZM47.1553 38.8662L47.406 38.5357H49.894L50.1672 38.8662H47.1553Z" fill="#0E304C"/>
<path d="M35.7005 15.4467C35.7005 19.6785 32.2696 23.1083 28.0385 23.1083C23.8071 23.1083 20.3769 19.6781 20.3769 15.4467C20.3769 11.2156 23.8075 7.78503 28.0385 7.78503C32.2696 7.78503 35.7005 11.2156 35.7005 15.4467Z" stroke="#0E304C" stroke-miterlimit="10" stroke-dasharray="2.36 2.36"/>
<path d="M24.6193 12.7505V11.4153H25.9932V12.7505H24.6193ZM24.6193 18.9525V13.4996H25.9932V18.9525H24.6193Z" fill="#517491"/>
<path d="M32.1565 18.9526H30.7728V16.165C30.7728 15.5892 30.7436 15.2018 30.6803 15.0286C30.6218 14.8502 30.5341 14.7228 30.3928 14.6107C30.2661 14.519 30.0907 14.4833 29.9105 14.4833C29.6717 14.4833 29.4573 14.5546 29.2673 14.682C29.0822 14.8094 28.9506 15.0031 28.8824 15.2375C28.8142 15.4465 28.7704 15.8644 28.7704 16.481V18.9475H27.3915V13.4946H28.6778V14.2998C29.1309 13.6832 29.7058 13.3621 30.3928 13.3621C30.6998 13.3621 30.9775 13.4335 31.2211 13.5405C31.4793 13.6577 31.6693 13.8004 31.796 13.9788C31.9227 14.1673 32.0201 14.3559 32.0688 14.575C32.1176 14.8043 32.1517 15.1203 32.1517 15.5586L32.1565 18.9526Z" fill="#517491"/>
<path d="M106.059 74.6015C104.412 76.7752 102.25 78.4368 99.8281 79.6695C97.0509 81.0835 94.0183 82.1907 90.9812 82.8834C85.5197 84.1289 79.6187 84.0547 74.5111 81.5437C64.3558 76.5513 60.2683 63.917 61.9665 53.2872C62.5627 49.5566 63.8146 45.826 65.8455 42.605C53.6593 46.9751 44.942 58.6277 44.942 72.3173C44.942 89.7472 59.0699 103.876 76.4998 103.876C93.929 103.876 108.058 89.7472 108.058 72.3173C108.058 71.9219 108.048 71.5293 108.033 71.1377C107.508 72.3595 106.872 73.5289 106.059 74.6015Z" fill="#517491"/>
<path d="M88.4943 99.5292C84.7735 99.5413 81.0094 99.0578 77.4849 97.8299C71.2652 95.6633 66.0053 91.3965 62.1779 86.0778C58.3335 80.7369 55.8677 74.4308 54.4243 68.0355C53.1546 62.4085 52.7197 56.3644 53.588 50.6251C48.2309 56.2803 44.9424 63.9133 44.9424 72.3174C44.9424 89.7473 59.0702 103.876 76.5002 103.876C82.5492 103.876 88.2007 102.173 93.0019 99.2217C91.5129 99.4421 89.9972 99.5247 88.4943 99.5292Z" fill="#517491"/>
<g opacity="0.4">
<path d="M68.4187 102.635C68.4767 102.277 68.9324 102.035 68.9523 101.672C68.961 101.309 68.4975 101.087 68.4534 100.721C68.4138 100.371 68.7601 100.121 68.7206 99.7651C68.6705 99.3283 68.231 99.0664 68.231 98.5803C68.5027 98.6047 68.6109 99.0069 68.9177 98.676C69.0511 98.5335 68.961 98.2855 69.0511 98.1619C69.1845 97.9844 69.3522 98.0715 69.5493 98.0462C70.1225 97.9844 71.0907 97.3422 70.7609 96.6288C70.6852 96.4728 70.1082 96.0138 70.5031 95.9418C70.5619 95.9298 70.8691 96.1174 70.9674 96.1352C71.1751 96.177 71.3473 96.177 71.5403 96.108C71.9303 95.9671 72.2262 95.5446 72.375 95.167C72.5024 94.8384 72.5239 94.7766 72.8005 94.5444C73.388 94.0583 73.4969 93.3611 73.4513 92.6435C73.4065 91.9757 73.3032 91.3396 74.1926 91.2503C74.3803 91.2295 74.4983 91.2503 74.6577 91.1832C74.8552 91.1014 74.9087 91.0249 75.1224 90.9861C75.5757 90.8998 75.6251 90.7976 75.8376 90.3903C75.9952 90.0869 76.1783 89.7854 76.3117 89.4594C76.4949 89.02 76.4546 88.6627 76.5149 88.195C76.559 87.8344 76.6671 87.4959 76.6973 87.1326C76.7267 86.7724 76.6377 86.4241 76.8748 86.1355C77.1118 85.8434 77.379 85.7575 77.5512 85.4066C77.8324 84.8458 78.0894 84.4656 78.0894 83.8238C78.0894 83.5686 78.1791 83.1398 78.0894 82.9046C77.962 82.5439 77.7235 82.7199 77.4284 82.6378C76.816 82.4603 76.8552 81.5811 76.1836 81.4899C75.9055 81.4503 75.6206 81.5223 75.3436 81.4823C74.9373 81.4232 74.6871 81.468 74.3019 81.4782C74.3607 81.0655 73.8369 80.8386 73.5452 80.6924C73.3722 80.6054 73.4562 80.5809 73.2286 80.6137C73.1499 80.625 73.0176 80.6969 72.9381 80.7297C72.7202 80.8262 72.5774 80.9125 72.3852 81.0504C72.3351 80.7994 72.5668 80.6434 72.5081 80.3985C71.7242 80.0672 71.4008 80.66 70.8687 81.0828C70.7195 80.7226 70.9226 80.5895 71.1683 80.3672C71.3722 80.1814 71.4509 80.083 71.5011 79.7936C71.5806 79.2924 71.3032 78.7361 71.1683 78.2571C71.0454 77.8203 70.8725 77.8524 70.4677 77.8524C70.1813 77.8524 69.8956 77.8678 69.6137 77.7958C68.5706 77.5343 68.2013 76.4033 67.2369 76.0623C66.7733 75.8961 66.3086 75.8493 65.8199 75.7728C65.602 75.7378 65.3665 75.6692 65.1536 75.6025C64.837 75.4989 64.7473 75.3014 64.525 75.1114C64.2996 74.9181 64.101 74.9728 63.8244 75.0617C63.6412 75.1239 63.0597 75.3975 63.4343 75.5803C63.4637 75.7212 63.5085 75.9552 63.4283 76.0969C63.3103 76.3114 63.0435 76.2564 62.9387 76.4369C62.6723 76.2175 62.629 75.9285 62.7379 75.6078C62.8313 75.3308 63.1867 75.131 63.1626 74.822C62.8573 74.7628 62.6489 75.0941 62.4058 75.2049C62.1635 75.3187 61.9385 75.3685 61.6947 75.5505C61.596 75.63 61.5025 75.6914 61.423 75.8C61.345 75.9112 61.3356 76.077 61.2308 76.1776C61.1565 76.2549 61.0032 76.2846 60.8946 76.3069C60.6436 76.3592 60.7763 76.3856 60.5588 76.2356C60.2378 76.0182 60.2042 76.0472 59.8428 76.1369C59.5617 76.2077 59.3005 76.2722 59.0235 76.3736C58.8298 76.4425 59.0028 76.5835 58.7269 76.4327C58.618 76.3788 58.4993 76.1851 58.4303 76.0947C58.2279 75.8324 58.1235 75.5987 58.1593 75.252C58.188 74.9452 58.2777 74.6596 58.3222 74.3532C58.3606 74.1169 58.5098 73.6767 58.3956 73.4563C58.0798 72.8224 57.1614 73.4717 56.7013 73.2886C56.312 73.131 56.5878 72.9283 56.8041 72.6788C57.0766 72.3656 57.0521 72.2563 57.1369 71.8791C57.1908 71.6221 57.5703 71.3628 57.591 71.1137C57.6148 70.7801 56.9979 70.5179 56.7454 70.4417C56.4103 70.3404 55.9799 70.4123 55.8217 70.7572C55.6494 71.1333 55.9065 71.3081 55.4817 71.5923C55.2594 71.7434 54.9583 71.904 54.7009 71.9729C54.2467 72.089 53.9362 72.138 53.7093 71.7234C53.4376 71.2218 53.3133 70.7541 53.3728 70.1553C53.4161 69.6854 53.5752 69.2169 53.7142 68.759C53.7621 68.5815 53.7621 68.4236 53.8024 68.248C53.8665 67.9593 53.7531 68.0449 54.0534 67.945C54.4634 67.8033 54.5083 67.786 54.8188 67.4905C55.0962 67.2256 55.412 67.212 55.7779 67.1943C56.0983 67.1788 56.3455 67.3352 56.6327 67.3243C57.0175 67.3119 57.1117 66.9746 57.3981 66.8634C57.7233 66.7368 58.0798 66.9267 58.3557 67.0285C58.6429 67.1344 59.0578 66.9101 59.2786 67.0579C59.5364 67.2312 59.4177 67.6382 59.4818 67.8934C59.5266 68.0486 59.6106 68.1553 59.64 68.3151C59.6702 68.4707 59.5914 68.6362 59.6054 68.7798C59.6453 69.1472 59.9566 69.2173 60.243 69.0417C60.5389 68.8612 60.6478 68.4711 60.6617 68.15C60.6934 67.688 60.4262 67.3567 60.3674 66.9621C60.2777 66.3075 61.0823 66.3622 61.423 66.1157C61.7946 65.8508 61.8786 65.3198 62.2819 65.0899C62.6184 64.8973 63.0386 64.8555 63.2417 64.4632C63.4226 64.1025 62.9346 63.0156 63.5428 62.8698C63.7388 62.8208 63.8146 63.0307 63.9962 63.0062C64.1745 62.9844 64.4115 62.6403 64.5246 62.5065C64.8117 62.1816 64.9847 62.1221 65.4042 62.0799C65.8052 62.0403 66.1756 61.9367 66.3671 61.5511C66.436 61.4083 66.398 61.2229 66.4812 61.0868C66.6441 60.8178 66.6829 60.9666 66.9369 60.892C67.3507 60.7729 67.6861 60.4273 68.1255 60.2868C68.3234 60.2223 68.9365 59.9906 69.0499 60.1828C69.2429 60.5065 68.4722 60.3998 68.3626 60.6674C68.0916 61.3243 69.2663 60.546 69.3759 60.502C69.7117 60.3685 70.5367 60.4552 70.3976 59.8406C70.19 59.8281 70.023 59.853 69.8308 59.8926C69.524 59.9563 69.6021 60.0037 69.4208 59.8032C69.183 59.5394 69.163 59.2926 69.3759 59.051C69.6563 58.7292 69.8191 58.6112 69.2124 58.5566C69.03 58.5392 68.8325 58.5295 68.6595 58.5909C68.5755 58.618 68.2981 58.8675 68.2254 58.8479C67.8006 58.745 68.4564 58.3094 68.5906 58.2404C68.8864 58.09 69.2919 58.0474 69.6269 57.9886C70.2695 57.8748 71.1088 58.3715 71.7072 58.0278C71.8647 57.9419 71.9341 57.7938 72.092 57.7026C72.2401 57.6088 72.4474 57.5813 72.6109 57.5198C72.9173 57.4056 73.3066 57.2651 73.3662 56.8999C73.4845 56.2279 72.5661 56.4827 72.1847 56.4307C72.2201 56.3218 72.4233 56.2053 72.4417 56.1021C72.482 55.8726 72.3245 55.8741 72.2254 55.7037C72.0178 55.3683 72.1659 55.054 72.2556 54.7314C72.3388 54.4149 72.2657 53.9777 71.9544 53.862C71.509 53.7011 71.3854 54.1654 71.1204 54.3527C70.9505 54.4714 70.5412 54.5777 70.3931 54.3579C70.2695 54.1774 70.3241 53.6958 70.2356 53.4757C70.0411 53.0144 69.8696 52.9873 69.3839 52.9379C69.0842 52.9078 68.753 52.8739 68.4564 52.9059C68.1251 52.9406 67.8647 53.0826 67.8007 53.4335C67.775 53.5801 67.8741 53.7184 67.7954 53.8563C67.7012 54.0139 67.4494 54.0093 67.3021 54.0832C66.8664 54.3082 67.1769 54.4461 67.232 54.817C67.29 55.2097 67.0236 55.4667 66.7028 55.637C66.4209 55.7851 66.2288 55.8986 66.0109 56.1032C65.8775 56.2298 65.7592 56.2524 65.6797 56.4341C65.6062 56.595 65.6363 56.7635 65.5169 56.9304C65.3393 57.1852 65.0827 57.5805 64.7228 57.4919C64.4255 57.4218 64.2988 57.1189 64.3267 56.8317C64.3621 56.5355 64.6335 56.2735 64.56 55.943C64.4703 55.5458 64.064 55.6393 63.7377 55.5458C63.3386 55.4301 63.0224 55.23 62.6874 55.0175C62.3768 54.8226 61.9909 54.8905 61.8865 54.4887C61.6796 53.7101 62.5246 53.516 63.042 53.2756C63.3834 53.1203 63.8421 53.0265 64.104 52.7472C64.3712 52.4684 64.2223 52.3308 64.6229 52.3104C65.1366 52.2882 65.9367 52.2068 66.312 51.8164C66.1538 51.6856 65.7991 51.6898 65.882 51.392C66.1353 51.38 66.3916 51.3996 66.6373 51.3619C66.9391 51.3148 67.2056 51.2093 67.5221 51.2217C67.844 51.2307 68.4202 51.3219 68.6482 51.0261C68.7718 50.8656 68.7918 50.4412 68.7771 50.2358C68.534 50.2128 68.2974 50.0496 68.0558 50.174C67.8436 50.2799 67.7995 50.5814 67.6062 50.6997C67.2161 50.9421 66.9357 50.6835 66.9938 50.3021C66.7021 50.2905 66.3607 50.3572 66.2386 50.0331C66.1357 49.7448 66.4349 49.3939 66.0362 49.3396C65.7151 49.2967 65.2655 49.5869 65.2252 49.903C65.1818 50.2859 65.3488 50.5207 64.7918 50.6605C64.4164 50.7521 64.1993 50.8584 63.8473 51.0265C63.4528 51.2141 63.4132 50.9379 63.0672 50.8584C62.8603 50.8109 62.589 50.8633 62.3806 50.8829C62.2585 50.8957 61.9513 51.0208 61.853 50.9873C61.6992 50.9379 61.7493 50.7574 61.521 50.7597C61.4369 50.7597 61.1464 50.9153 61.0567 50.9677C60.8445 51.086 60.4699 51.5111 60.2133 51.3649C59.98 51.2315 60.0697 50.8539 59.7346 50.745C59.4365 50.6519 59.0861 50.8814 58.7993 50.7649C58.5822 50.6764 58.6866 50.5652 58.5584 50.4491C58.37 50.2731 58.0742 50.3432 57.8217 50.2686C57.5398 50.1819 57.2632 50.0854 56.9722 50.0334C56.3451 49.9279 55.5597 49.8955 54.9334 49.9034C54.5874 49.9057 54.4683 50.0903 54.1718 50.2098C54.0907 50.2426 54.0033 50.2652 53.9125 50.2837C51.738 52.5117 49.8906 55.0589 48.4472 57.85C48.4905 57.9219 48.529 57.9996 48.5561 58.0878C48.6451 58.3893 48.6111 59.2021 48.1506 59.2361C48.0172 59.2474 47.9407 59.1045 47.8695 59.0311C46.9884 60.9259 46.29 62.9222 45.796 64.9987C46.0677 65.082 46.3349 65.1849 46.4811 65.446C46.6594 65.7517 46.5459 66.1692 46.6888 66.5001C46.8278 66.8261 46.9706 67.0974 47.0347 67.4581C47.0649 67.6243 46.9914 67.8191 47.0347 67.9793C47.1041 68.2314 47.2171 68.1625 47.3599 68.3177C47.7545 68.7526 47.3799 69.8244 48.249 69.9658C48.2844 69.7728 48.1943 69.6993 48.157 69.541C48.1122 69.365 48.1208 69.1823 48.0869 69.0017C48.0319 68.7327 47.9874 68.3256 47.8698 68.0878C47.7361 67.8139 46.8915 66.4703 47.5631 66.4703C48.1208 66.4677 48.2542 67.7076 48.4521 68.0878C48.5248 68.2261 48.645 68.3592 48.679 68.5148C48.7091 68.6543 48.645 68.8163 48.685 68.9524C48.769 69.2384 49.0803 69.3255 49.2872 69.5331C49.7922 70.0321 49.4794 70.6671 49.7813 71.2147C50.0824 71.76 50.5328 72.1828 51.0611 72.5156C51.51 72.8054 52.177 73.3085 52.7107 73.336C53.3276 73.3632 53.7587 72.9633 54.3006 73.3997C54.4736 73.538 54.5524 73.6869 54.7005 73.8222C54.9081 74.0121 55.4373 74.4154 55.7139 74.4568C55.9502 74.4941 56.2468 74.386 56.4744 74.455C56.8249 74.559 56.7808 74.8299 56.875 75.1073C56.9786 75.3832 57.1961 75.5411 57.3005 75.7759C57.4132 76.0321 57.4026 76.2055 57.6589 76.3958C57.8767 76.5567 58.1646 76.6592 58.3862 76.8299C58.5886 76.9837 58.9293 77.4077 59.2451 77.2622C59.5078 77.1412 59.4373 76.7493 59.4475 76.5074C59.7388 76.4923 60.0252 76.455 60.263 76.6257C60.5095 76.8085 60.4801 77.1047 60.6289 77.3681C60.9602 77.9692 60.7571 78.5865 60.361 79.1103C59.9966 79.5908 59.6404 79.9866 59.3695 80.5243C59.279 80.7075 59.2202 80.7738 59.2059 80.9909C59.1859 81.275 59.3095 81.1838 59.3883 81.3843C59.487 81.6417 59.2896 81.9074 59.1859 82.1449C59.0578 82.4245 58.8599 83.012 59.3382 83.0734C59.3382 83.0734 59.6894 83.5279 59.709 83.5622C59.8526 83.7906 59.862 84.0589 59.9121 84.3133C59.9856 84.7377 60.1484 85.0147 60.367 85.3802C60.5547 85.6942 60.6026 86.0337 60.771 86.3356C60.9191 86.602 61.1558 86.8496 61.3193 87.1206C61.5409 87.4986 61.5462 87.5683 61.9819 87.5905C62.4707 87.6124 62.5935 87.7805 62.9632 88.0786C63.7245 88.6846 64.303 89.0863 64.0554 90.0646C63.8285 90.9563 63.8926 91.9539 64.1696 92.8044C64.303 93.2243 64.2932 93.6607 64.3365 94.1156C64.358 94.3176 64.3365 94.5229 64.3621 94.7276C64.3806 94.9401 64.505 95.1259 64.5344 95.32C64.5837 95.6712 64.505 96.1009 64.5242 96.4653C64.5344 96.6258 64.5491 96.777 64.5935 96.93C64.629 97.0735 64.7767 97.2706 64.7921 97.3867C64.8415 97.7398 64.5837 97.8684 64.7567 98.2415C64.82 98.3798 64.9143 98.5053 64.9885 98.6515C65.068 98.8173 65.0593 98.95 65.1268 99.1067C65.2504 99.4041 65.5221 99.4418 65.5817 99.7674C65.6118 99.9351 65.6853 100.469 65.6465 100.593C65.5971 100.755 65.1577 100.961 65.2806 101.22C65.3393 101.338 65.5918 101.297 65.7045 101.402C65.7995 101.481 65.859 101.686 65.8877 101.813C65.9092 101.895 65.9269 101.98 65.9442 102.068C66.7518 102.355 67.5745 102.61 68.4115 102.831C68.4093 102.765 68.4085 102.7 68.4187 102.635Z" fill="#0E304C"/>
<path d="M61.9834 70.9745C61.7309 70.8652 61.4592 70.7747 61.2218 70.6353C60.9708 70.4902 60.7816 70.3051 60.5012 70.2113C60.1353 70.093 59.7754 70.0956 59.4053 69.9961C59.1927 69.9392 59.1675 70.004 58.9651 70.0481C58.8468 70.073 58.7032 70.0575 58.6052 70.0967H58.6192C58.5457 70.1363 58.1752 70.3568 58.2687 70.48C58.3923 70.6432 58.733 70.4208 58.8464 70.3447C59.2512 70.0847 59.5964 70.2897 59.9925 70.431C60.1707 70.4951 60.3576 70.52 60.5106 70.6409C60.5996 70.7103 60.8212 70.8708 60.8464 70.9718C60.9011 71.1595 60.6 71.1425 60.6836 71.3494C60.7624 71.5537 61.1924 71.5077 61.3556 71.4972C61.489 71.4926 61.6126 71.473 61.7449 71.4972C61.9126 71.5299 62.0268 71.6061 62.1945 71.565C62.234 71.458 62.352 71.3325 62.3335 71.2187C62.3087 71.0928 62.0908 71.0223 61.9834 70.9745Z" fill="#0E304C"/>
<path d="M63.6963 71.565C63.4785 71.565 63.1736 71.5767 63.0104 71.4342V71.3819C62.8212 71.3472 62.9361 71.6046 62.9603 71.6777C63.0059 71.8017 63.0647 71.8861 62.8623 71.9272C62.7232 71.9573 62.5265 71.8756 62.3972 71.9426C62.2442 72.0255 62.2793 72.177 62.4229 72.2264C62.6546 72.3037 62.9704 72.1175 63.2022 72.1446C63.2825 72.1552 63.2964 72.2117 63.345 72.2223C63.4238 72.2415 63.5188 72.2223 63.5983 72.2238C63.7396 72.2317 63.9582 72.2863 64.0973 72.2388C64.1854 72.2091 64.3682 71.9822 64.2009 71.96C64.4526 72.0169 64.3377 71.8077 64.2341 71.7056C64.066 71.5439 63.9281 71.565 63.6963 71.565Z" fill="#0E304C"/>
<path d="M61.2658 72.1921C61.1524 72.1054 61.028 72.1808 61.0126 72.0214C60.8302 71.9916 60.6629 72.0244 60.5151 72.1397C60.5747 72.1593 60.6448 72.1521 60.699 72.1766C60.7816 72.2113 60.7816 72.261 60.8313 72.3033C60.9248 72.3914 61.039 72.4084 61.2127 72.3896C61.3608 72.3749 61.4196 72.3127 61.2658 72.1921Z" fill="#0E304C"/>
<path d="M61.0096 71.9761C61.0088 71.9947 61.0112 72.0078 61.0127 72.0226C61.0247 72.0241 61.0371 72.0241 61.0507 72.0268L61.0096 71.9761Z" fill="#0E304C"/>
<path d="M65.3371 72.0762L65.4004 72.0438C65.1882 71.9594 65.0846 72.0385 64.961 72.2089C65.016 72.3347 65.0948 72.2613 65.1886 72.2907C65.3021 72.3253 65.3461 72.3868 65.4698 72.3868C65.6774 72.3868 65.8613 72.3325 65.8251 72.0777C65.599 72.0608 65.5489 72.2164 65.3371 72.0762Z" fill="#0E304C"/>
<path d="M72.6713 57.8042C72.631 57.8053 72.5963 57.817 72.5609 57.8283C72.5563 57.8366 72.5529 57.8438 72.5477 57.8524L72.6713 57.8042Z" fill="#0E304C"/>
<path d="M72.9686 58.3933C72.8789 58.3394 72.8348 58.2162 72.8205 58.1246C72.7911 57.9513 72.8638 57.9905 72.894 57.8525C72.9181 57.7519 73.0315 57.6777 72.8005 57.6607C72.6577 57.6505 72.6215 57.7203 72.5604 57.8284C72.5959 57.8171 72.6305 57.8054 72.6708 57.8043L72.5472 57.8525C72.5525 57.8439 72.5559 57.8367 72.5604 57.8284C72.2197 57.9385 72.115 58.4762 71.9002 58.6975C71.7973 58.7992 71.4174 58.9247 71.7031 59.0238C71.9348 59.1026 72.2175 58.8678 72.479 58.9149C72.6912 58.9541 72.805 59.0996 73.0421 59.0649C73.215 59.0408 73.541 58.858 73.5109 58.6451C73.477 58.3466 73.1442 58.5056 72.9686 58.3933Z" fill="#0E304C"/>
<path d="M73.1649 50.7621C73.067 50.6509 72.9588 50.4787 72.9686 50.328C72.9731 50.2044 73.1167 50.138 73.1167 50.0585C73.1261 49.8735 72.7561 49.7182 72.5925 49.6858C72.34 49.6364 72.1919 49.7129 72.0347 49.4631C71.8663 49.2012 71.8866 49.0858 71.5158 49.1409C71.2546 49.1801 71.0323 49.2366 70.7843 49.1149C70.5427 48.9984 70.4485 48.7915 70.1478 48.7448C69.8519 48.6969 69.743 48.7689 69.5007 48.9377C69.3778 49.0244 68.9919 49.2535 68.8344 49.1427C68.5864 48.9705 69.1302 48.7719 69.1355 48.6958C69.1457 48.4587 68.6166 48.7011 68.5178 48.7448C68.2567 48.8608 68.0238 49.0478 67.7573 49.1646C67.4555 49.298 67.3224 49.4186 67.6537 49.5803C67.9062 49.7031 68.1187 49.6681 68.3897 49.6858C68.6399 49.7001 68.8879 49.7691 69.1412 49.8113C69.3827 49.8494 69.4849 49.9963 69.6986 50.051C69.9842 50.1248 70.1372 49.8294 70.3641 49.7849C70.6121 49.7382 70.9139 49.9575 71.0613 50.1305C71.2049 50.288 71.2445 50.5006 71.4125 50.6197C71.5222 50.7003 71.6737 50.7248 71.7826 50.8187C71.965 50.9664 72.083 51.1721 71.9511 51.3749C71.8229 51.5777 71.6545 51.4887 71.486 51.3919C71.3191 51.3007 71.1909 51.2117 70.998 51.22C70.909 51.2242 70.7847 51.2317 70.7067 51.272C70.6185 51.3161 70.539 51.4243 70.4643 51.497C70.3355 51.6349 70.1919 51.8188 70.0001 51.8641C69.7577 51.9221 69.3236 51.7111 69.1065 51.8377C68.9923 51.9036 68.9727 52.0446 69.0824 52.1139C69.1913 52.1799 69.4517 52.0517 69.5565 52.0374C69.7728 52.0077 70.1139 52.0152 70.2868 52.1362C70.4847 52.2673 70.5341 52.573 70.7116 52.7508C70.9441 52.98 71.2237 53.0813 71.5516 53.0776C71.6699 53.0749 71.907 53.1024 71.858 52.9046C71.8241 52.7829 71.5569 52.8206 71.4928 52.7267C71.4581 52.6751 71.4634 52.4184 71.503 52.3789C71.6503 52.2428 71.829 52.4697 71.9262 52.5138C72.1007 52.5933 72.5039 52.6155 72.5688 52.3578C72.6042 52.2127 72.5039 52.1731 72.4504 52.0623C72.3717 51.9093 72.3509 51.8573 72.3509 51.667C72.3464 50.9528 73.0591 51.5042 73.4137 51.5973C73.6895 51.6745 74.0702 51.4002 73.8384 51.119C73.6941 50.9521 73.3334 50.9619 73.1649 50.7621Z" fill="#0E304C"/>
<path d="M59.7008 48.7891C59.9137 48.7205 60.1394 48.7551 60.3618 48.745C60.4473 48.7427 60.7432 48.728 60.7371 48.6112C60.7319 48.428 60.2389 48.4631 60.1349 48.4386C60.0215 48.4137 59.9031 48.3794 59.7897 48.3406C59.6714 48.2969 59.5775 48.2999 59.4483 48.2999C59.3702 48.2999 59.2855 48.2882 59.212 48.3052C59.1419 48.3225 59.0831 48.3673 59.0134 48.3843C58.9399 48.4043 58.8852 48.4367 58.817 48.4755C58.7582 48.5094 58.6832 48.5298 58.6192 48.5644C58.5163 48.6296 58.4371 48.7276 58.3233 48.7842C58.1982 48.8463 58.0629 48.8659 57.9378 48.9225C57.7448 49.0091 57.6118 49.1942 57.4094 49.2405C57.4644 49.3121 57.5123 49.3984 57.6065 49.429C57.66 49.4463 57.72 49.4305 57.7742 49.4361C57.8191 49.4437 57.8632 49.4682 57.9039 49.47C57.9578 49.4757 57.9732 49.478 58.012 49.4207C58.0505 49.3717 58.0629 49.3095 58.1108 49.2658C58.1895 49.1942 58.2984 49.1991 58.4021 49.1991C58.5509 49.1961 58.6779 49.1889 58.8076 49.1143C58.9444 49.0299 59.094 48.9963 59.2463 48.9519C59.4008 48.9081 59.547 48.8441 59.7008 48.7891Z" fill="#0E304C"/>
<path d="M62.9463 49.6271C62.8167 49.493 62.9463 49.2985 63.0443 49.1919C63.0944 49.1353 63.1634 49.0931 63.212 49.034C63.2474 48.9902 63.3115 48.8414 63.2776 48.7875C63.2327 48.7212 63.0605 48.743 62.9847 48.7453C62.8811 48.7502 62.7933 48.7792 62.7285 48.8738C62.6403 48.9948 62.655 49.2951 62.4228 49.2412C62.2985 49.2088 62.2544 49.0864 62.2397 48.968C62.2397 48.9401 62.2544 48.8836 62.2397 48.861C62.2156 48.8067 62.1059 48.7916 62.052 48.8139C61.9932 48.8391 61.9431 48.9028 61.8798 48.9326C61.8349 48.9526 61.7663 48.9899 61.7162 48.9914C61.5824 48.9982 61.4057 48.9228 61.276 48.8783C61.2018 48.8508 61.1423 48.7984 61.0684 48.7785C60.9704 48.7517 60.8212 48.7815 60.7179 48.7913C60.6346 48.8011 60.5898 48.8308 60.5148 48.8678C60.3927 48.9345 60.2344 48.9122 60.0968 48.9104C59.963 48.9081 59.8398 48.8979 59.726 48.9771C59.6766 49.011 59.6171 49.011 59.5583 49.0302C59.498 49.0502 59.4385 49.0773 59.3898 49.1146C59.2756 49.1964 59.365 49.2137 59.4547 49.2409C59.5379 49.2661 59.6823 49.2872 59.7366 49.3743C59.8138 49.5126 59.6322 49.5371 59.5281 49.5454C59.4633 49.5495 59.227 49.4903 59.2123 49.5944C59.2071 49.6859 59.6069 49.6166 59.6909 49.6283C59.755 49.6388 59.8692 49.7266 59.8138 49.8111C59.7901 49.8529 59.5869 49.8333 59.5474 49.8333C59.4437 49.8333 59.3205 49.8069 59.2123 49.8261C59.094 49.8457 59.0247 49.9094 59.0247 50.0353C59.0341 50.4016 59.5334 50.2309 59.7592 50.3096C59.9227 50.3692 60.0124 50.5493 60.1794 50.5817C60.4017 50.6292 60.7816 50.5897 60.8913 50.359C60.9308 50.2754 60.9112 50.174 60.9949 50.1174C61.0936 50.0556 61.276 50.0896 61.3842 50.0896C61.5534 50.0896 61.7008 50.0605 61.8685 50.0654C61.948 50.0677 61.9533 50.0752 62.0128 50.1223C62.1164 50.1985 62.225 50.2561 62.3478 50.2953C62.5457 50.3594 62.7778 50.3206 62.9648 50.2339C63.0692 50.1872 63.1679 50.1122 63.2666 50.056C63.3269 50.0213 63.4351 49.9746 63.4411 49.8974C63.449 49.7112 63.0492 49.7327 62.9463 49.6271Z" fill="#0E304C"/>
<path d="M86.1807 50.4288C86.472 50.4118 86.7188 50.2611 86.3329 50.0877C86.0371 49.9551 85.7552 49.9942 85.7552 49.5676C85.7612 49.2115 86.0284 49.259 86.2896 49.3901C86.4524 49.4734 86.8764 49.8688 87.0949 49.7297C87.4349 49.5175 86.9706 49.3102 86.8285 49.2413C86.6201 49.1429 86.2734 49.0385 86.3582 48.7453C86.4524 48.4046 87.139 48.402 87.4255 48.2961C87.7311 48.1819 88.0725 47.9697 88.2455 47.6833C88.4223 47.3792 88.3088 47.0457 88.4083 46.7423C88.596 46.1664 89.4948 46.4589 89.8656 46.1223C90.0179 45.9844 90.0379 45.9916 89.8347 45.9252C89.5491 45.8284 89.1538 45.9814 88.8624 45.9999C88.4223 46.0281 88.4577 45.8307 88.1227 45.6283C87.756 45.4037 87.1194 45.5295 86.6992 45.5295C86.2459 45.5295 85.7895 45.5197 85.3501 45.6192C84.6936 45.7662 84.1106 46.125 83.4055 46.1223C82.8311 46.1201 82.2647 45.9742 81.6817 46.0278C80.9249 46.0982 80.1795 46.0504 79.4337 46.0236C79.0384 46.0089 78.5002 45.9765 78.1395 46.1465L78.1889 46.1223C77.636 46.2463 77.1416 46.5791 76.5688 46.6858C76.1535 46.7619 75.7287 46.7645 75.3247 46.8832C75.096 46.9503 74.7463 47.1998 74.9588 47.4776C75.1951 47.7915 76.1836 47.5476 76.5729 47.6068C76.9682 47.6633 77.4525 48.0191 77.7197 48.3055C77.962 48.5667 78.0208 49.0962 78.0434 49.447C78.0804 50.0481 77.5422 50.4469 77.2494 50.8791C76.7907 51.5624 77.5705 52.4717 77.6696 53.1482C77.7235 53.5202 78.1731 53.64 78.5447 53.5413C78.8303 53.464 79.1424 53.1855 79.3741 52.9899C79.7487 52.6613 79.7487 52.1819 80.1787 51.8891C80.6189 51.5805 81.0289 51.5356 81.5324 51.4384C82.6438 51.227 83.5479 50.3749 84.6932 50.3798C85.1775 50.3798 85.6764 50.4593 86.1807 50.4288Z" fill="#0E304C"/>
<path d="M89.8008 55.5931C89.6772 55.601 89.563 55.6745 89.4549 55.7212C89.2423 55.8124 88.9815 55.7559 88.7682 55.7141C88.6409 55.6873 88.5421 55.6719 88.4268 55.7533C88.3194 55.8305 88.2745 55.8746 88.1366 55.8987C87.9828 55.9266 87.9388 55.9338 87.8347 56.0355C87.7854 56.0845 87.5785 56.1916 87.6486 56.2794C87.6878 56.3363 87.742 56.2794 87.7812 56.27C87.86 56.2507 87.86 56.2225 87.9535 56.2575C88.0684 56.2997 88.1611 56.3985 88.2647 56.4678C88.4716 56.6133 88.7483 56.5198 88.9472 56.4083C89.0693 56.3367 89.1394 56.3664 89.2872 56.3442C89.4108 56.3242 89.5197 56.2579 89.6339 56.2078C89.7473 56.161 89.9143 56.1735 89.993 56.0804C90.0379 56.0325 90.0379 55.9707 90.0827 55.9214C90.1121 55.8901 90.2161 55.8795 90.2308 55.8524C90.2361 55.8479 90.255 55.8309 90.261 55.8237C90.2161 55.7834 90.1313 55.7016 90.068 55.6998L90.1084 55.7111C89.9885 55.6885 89.944 55.581 89.8008 55.5931Z" fill="#0E304C"/>
<path d="M89.9693 56.3138C89.9052 56.3816 89.7221 56.4008 89.7221 56.5045C89.7258 56.6552 89.9143 56.5885 89.7869 56.7788C89.7168 56.8817 89.6086 56.9677 89.5845 57.0969C89.563 57.2213 89.563 57.3833 89.7221 57.372C89.8996 57.3592 89.9199 57.158 90.068 57.1369C90.3089 57.1026 90.6156 57.3046 90.818 57.0996C90.9269 56.9891 91.0204 56.7634 90.9461 56.6157C90.8775 56.4702 90.6804 56.4155 90.5368 56.3341C90.4381 56.275 90.3793 56.0997 90.255 56.1099H90.2798C90.146 56.0428 90.042 56.235 89.9693 56.3138Z" fill="#0E304C"/>
<path d="M90.7155 56.2352C90.8142 56.303 91.0358 56.3637 90.9958 56.1481C90.8523 56.1523 90.9265 56.0083 91.0407 56.0211C91.0546 55.8237 90.6706 56.0358 90.6506 55.91L90.6661 55.9341C90.5926 55.9341 90.4931 55.91 90.4475 55.9737C90.5417 56.0603 90.6065 56.1636 90.7155 56.2352Z" fill="#0E304C"/>
<path d="M91.5401 57.9787C91.7824 57.9244 92.0089 57.7767 92.2358 57.6892C92.4389 57.6101 92.5825 57.6678 92.7886 57.6802C92.991 57.6923 93.323 57.6131 93.4858 57.4778C93.5405 57.433 93.6147 57.3734 93.6 57.2947C93.5846 57.2306 93.5152 57.2283 93.4809 57.1839C93.3822 57.0335 93.6106 57.0037 93.5604 56.8537C93.5209 56.7218 93.3773 56.7991 93.2733 56.7889C93.1056 56.7742 93.0423 56.5918 92.9869 56.4456C92.9175 56.2583 92.9228 55.999 92.8101 55.8385C92.7204 55.7171 92.5376 55.6681 92.4084 55.6233C92.3341 55.5988 92.1683 55.5784 92.128 55.5144C92.0251 55.3693 92.2561 55.2973 92.3096 55.2057C92.4046 55.0384 92.2007 55.0229 92.0835 55.0109C92.0134 55.0056 91.9452 55.0131 91.9004 54.954C91.8657 54.8997 91.8702 54.7621 91.8156 54.7339C91.7764 54.7139 91.669 54.7531 91.6286 54.7689C91.5197 54.8025 91.3622 54.8601 91.3027 54.9687C91.2333 55.0847 91.3174 55.272 91.3969 55.3659C91.43 55.4107 91.4602 55.3911 91.4809 55.465C91.5009 55.5464 91.4361 55.6014 91.4361 55.6749C91.4361 55.8633 91.6038 55.8453 91.7372 55.8746C91.8706 55.9014 91.8864 55.9534 91.9803 56.0476C92.0929 56.1633 92.0929 56.2157 92.0877 56.3932C92.0839 56.5142 92.079 56.6593 91.9403 56.7117C91.8107 56.7618 91.7232 56.6973 91.6151 56.8285C91.5601 56.8892 91.571 56.9483 91.5408 57.0226C91.5062 57.1368 91.4304 57.1711 91.3569 57.2479C91.5013 57.3022 92.0002 57.2871 91.8811 57.5468C91.8163 57.6802 91.6588 57.6975 91.5412 57.7171C91.453 57.7322 91.2054 57.8061 91.1689 57.9018C91.1199 58.0409 91.4598 57.996 91.5401 57.9787Z" fill="#0E304C"/>
<path d="M105.265 61.5801C105.048 61.6517 104.831 61.7659 104.629 61.8717C104.576 61.903 104.525 62.0666 104.426 62.1129C104.323 62.1649 104.144 62.076 104.03 62.1178C103.487 62.321 103.364 62.5309 102.752 62.5622C102.787 62.8071 103.038 62.7212 103.127 62.913C103.201 63.0592 103.127 63.3622 103.127 63.5239C103.121 64.0598 103.176 64.064 103.73 64.0888C104.387 64.1235 104.569 64.0839 105.118 64.4751C105.759 64.936 105.754 64.4148 106.253 64.0839C106.841 64.3134 106.258 64.872 106.115 65.1836C105.977 65.4825 106.091 65.865 105.963 66.1224C105.711 66.6462 104.658 66.3689 104.175 66.3689C103.849 66.3689 103.449 66.428 103.152 66.3093C102.806 66.1688 102.559 65.8853 102.149 65.7742C101.626 65.6359 100.525 65.4305 100.267 66.1224C100.366 66.1544 100.445 66.2799 100.52 66.3169C100.307 66.6606 99.6151 66.445 99.3389 66.2577C98.9296 65.9769 98.8539 65.8601 98.3466 65.715C97.8525 65.5688 97.3581 65.3434 97.1064 64.8825C96.884 64.4695 97.0223 64.0402 96.552 63.8345C96.307 63.7237 96.2516 63.7485 96.0082 63.8401C95.704 63.9558 95.7632 64.1017 95.3679 64.1412C94.9277 64.1861 94.4698 64.1163 94.0281 64.1412C93.6249 64.1627 93.1934 64.2004 92.8542 64.3952C92.6465 64.5158 92.5825 64.7291 92.2463 64.7853C92.0379 64.8203 91.7628 64.8037 91.5544 64.7834C91.0611 64.7359 90.2407 64.3263 89.8408 64.8968C89.6437 65.1753 89.8012 65.3336 89.5148 65.5839C89.277 65.7908 88.9118 65.8624 88.7434 66.1559C88.3835 66.7687 88.9363 67.1539 88.2406 67.5933C87.5928 68.0007 87.2729 68.1548 86.8967 68.8362C86.5757 69.4158 85.9979 69.8266 85.716 70.4239C85.5197 70.8332 85.6629 71.2805 85.6667 71.7132C85.6667 72.6557 84.8119 73.1208 85.4304 74.0893C85.6629 74.4567 86.0171 74.748 86.2252 75.1309C86.4373 75.5312 86.4667 76.0128 86.6405 76.427C86.971 77.195 88.2994 78.2597 89.0807 78.5838C89.7032 78.8457 90.0243 78.6554 90.4977 78.4032C90.9725 78.1568 91.4304 78.2227 91.9501 78.248C92.7656 78.2853 93.2299 77.3118 94.1774 77.7611C94.6322 77.9751 94.5787 78.3071 95.1173 78.4081C95.6061 78.4975 96.0353 78.395 96.3074 78.9316C96.6519 79.613 96.203 80.3418 96.1823 81.0338C96.1683 81.7302 96.8101 81.7325 97.0479 82.3547C97.2254 82.8212 97.2254 83.3379 97.4327 83.792C97.8473 84.7063 98.0157 85.1989 97.5918 86.2171C97.2752 86.9878 97.1124 87.9191 97.5556 88.6916C98.0643 89.5735 98.1834 90.4252 98.3263 91.4284C98.3918 91.8908 98.3658 92.3464 98.5441 92.7497C98.748 93.2068 99.1802 93.6297 99.3389 94.0977C104.725 88.4508 108.038 80.808 108.058 72.3919C107.95 72.1989 107.832 72.0067 107.689 71.8217C107.306 71.3205 107.45 71.0834 107.395 70.4763C107.35 69.9329 107.01 69.8511 106.605 69.5379C106.283 69.2918 106.199 69.0834 106.061 68.742C105.908 68.3644 105.527 67.8533 105.464 67.4674C105.394 67.0446 105.75 66.9474 106.056 67.2115C106.15 67.2873 106.047 67.5319 106.269 67.5933C106.413 67.6325 106.511 67.4282 106.644 67.3634C106.782 67.8477 106.851 68.3738 107.064 68.8309C107.236 69.2085 107.533 69.5718 107.696 69.9845C107.804 70.2513 107.881 70.4141 108.009 70.5739C107.838 67.4237 107.204 64.3964 106.174 61.5582C105.92 61.4632 105.669 61.4414 105.265 61.5801Z" fill="#0E304C"/>
<path d="M101.133 54.1194C100.998 54.2897 101.27 54.2965 101.329 54.3881C101.374 54.4601 101.358 54.6225 101.355 54.7092C101.349 54.9436 101.23 55.1656 100.959 55.0774C100.816 55.0307 100.632 54.7789 100.44 54.9391C100.316 55.0356 100.302 55.4109 100.316 55.5545C100.337 55.7392 100.455 56.0535 100.218 56.1986C100.089 56.2751 99.7353 56.2295 99.5947 56.1933C99.3976 56.1409 99.2548 56.0101 99.0272 56.0478C98.8455 56.078 98.5972 56.24 98.4095 56.2947C97.9452 56.4284 97.303 56.3663 96.8048 56.3421C96.7099 56.1322 96.5376 55.8748 96.6025 55.6254C96.6511 55.4478 96.913 55.2255 96.7204 55.0325C96.5915 54.907 96.2377 54.976 96.1125 55.1147C95.9011 55.3521 96.0733 55.5025 96.1529 55.7297C96.2169 55.9099 96.2229 56.2159 96.0941 56.3689C95.9211 56.5807 95.6143 56.4552 95.3675 56.5129C95.2439 56.5396 95.0664 56.5807 94.9914 56.69C94.9179 56.8015 94.9827 56.9636 94.8237 57.0578C94.6213 57.1739 94.3601 57.1223 94.1626 57.2903C93.8065 57.5835 93.4715 57.9514 93.0901 58.1959C92.8331 58.3569 92.5033 58.3836 92.2067 58.4481C91.8947 58.5125 91.6915 58.5792 91.3558 58.5988C91.3512 58.8261 91.3365 58.9738 91.4748 59.1468C91.6237 59.3295 91.7959 59.478 91.9241 59.6781C92.2067 60.1097 92.2154 60.5939 91.6282 60.7499C91.1085 60.8905 90.5316 60.6482 89.9926 60.6757C89.8257 60.6836 89.4545 60.6531 89.3565 60.8457C89.2321 61.0778 89.5589 61.3303 89.6964 61.466C89.7952 61.5674 89.9689 61.6518 90.0526 61.7618C90.2395 62.0309 90.0134 62.5547 89.8743 62.8046C89.8095 62.9286 89.543 63.12 89.5238 63.2467C89.4289 63.7558 90.0816 64.0599 90.4513 64.141C90.7724 64.2069 91.375 64.3878 91.7017 64.2894C92.0624 64.1809 92.4068 63.6386 92.5417 63.2889C92.7502 62.7579 92.6691 62.4914 93.1982 62.1703C93.3859 62.0562 93.6377 62.0497 93.8054 61.8666C93.9682 61.6834 93.949 61.3582 94.1265 61.2075C94.3929 60.9855 95.0407 61.1411 95.3761 60.9817C95.9252 60.7281 95.9885 60.5702 96.5617 60.958C97.0645 61.2987 97.5201 61.6989 97.9889 62.0497C98.3503 62.3162 98.2267 62.2891 98.3289 62.701C98.3986 62.9538 98.5719 63.3503 98.7792 63.5018C99.0551 63.2372 99.2733 62.8962 99.184 62.514C99.3716 62.5039 99.5748 62.5114 99.7617 62.499C100.019 61.4392 97.2872 61.4788 97.4504 60.2495C97.7862 60.1571 97.851 60.3603 98.1024 60.4658C98.2799 60.5449 98.5618 60.5381 98.7295 60.6335C98.971 60.7699 98.9665 60.938 99.1689 61.123C99.3132 61.2564 99.5002 61.2493 99.6679 61.368C100.359 61.8493 99.721 63.2075 101.205 63.1091C100.689 63.3857 101.238 63.8937 101.353 64.2744C101.372 63.8941 101.707 63.639 101.698 63.2003C101.693 62.7134 101.446 62.5826 101.999 62.4074C102.355 62.2936 102.74 62.286 103.086 62.1575C103.614 61.9653 103.541 61.9484 103.398 61.4144C103.342 61.2142 103.185 61.2489 103.279 60.9734C103.328 60.8366 103.638 60.6561 103.733 60.5159C103.94 60.1997 104.059 59.5704 104.563 59.5447C105.091 59.5206 104.888 60.0618 105.199 60.2932C105.333 60.3934 105.536 60.4247 105.722 60.3931C104.829 58.2046 103.697 56.1394 102.358 54.2291C102.184 54.2076 101.993 54.136 101.895 54.1145C101.79 54.0896 101.207 54.0248 101.133 54.1194Z" fill="#0E304C"/>
<path d="M97.2887 51.4867C97.2005 51.694 97.2932 51.8349 97.1406 52.0369C96.8301 52.4567 96.2309 52.4839 95.7628 52.5834C95.3829 52.6614 95.3181 53.0171 94.948 53.1287C94.9273 53.501 94.9039 54.2322 95.1851 54.5122C95.5604 54.8796 96.3111 54.2073 96.7551 54.3136C97.0856 54.3927 97.0121 54.6501 97.0965 54.8845C97.1745 55.1038 97.5405 55.4479 97.7624 55.5293C98.059 55.6405 98.4389 55.5489 98.6081 55.2795C98.7604 55.0424 98.6722 54.773 98.8791 54.571C99.066 54.3927 99.2149 54.3011 99.2544 54.0181C99.3095 53.5983 99.0615 53.7321 98.835 53.501C98.2667 52.9335 99.4674 52.6369 99.7677 52.4835C99.8974 52.4217 100.065 52.2981 100.153 52.1877C100.233 52.0912 100.272 51.8888 100.37 51.8214C100.406 51.7976 100.434 51.7848 100.459 51.7803C99.9743 51.2146 99.4685 50.6663 98.945 50.1368C98.2071 50.4533 97.542 50.9045 97.2887 51.4867Z" fill="#0E304C"/>
<path d="M100.491 52.3289C100.292 52.7528 99.8819 53.1953 100.341 53.6468C100.731 54.0293 101.175 53.629 101.601 53.5951C101.683 53.5887 101.784 53.58 101.889 53.5733C101.468 53.0038 101.028 52.4495 100.57 51.9098C100.58 52.0447 100.529 52.2444 100.491 52.3289Z" fill="#0E304C"/>
</g>
<path opacity="0.3" d="M71.9548 45.7114C71.4823 46.4327 71.0673 47.1913 70.7093 47.9745C69.0967 51.5076 68.4877 55.5449 68.9494 59.4006C69.4468 63.548 71.1936 67.8114 74.2322 70.7457C77.1322 73.5465 81.0335 74.9036 85.0407 74.823C87.341 74.7766 89.6117 74.33 91.7873 73.5921C93.8344 72.8983 95.8996 72.0911 97.6566 70.8071C99.398 69.5345 100.727 67.8224 101.543 65.8254C101.567 65.7677 101.587 65.7085 101.61 65.6509C100.941 53.863 91.1722 44.5096 79.2155 44.5096C76.6747 44.5096 74.2315 44.9328 71.9548 45.7114Z" fill="#0E304C"/>
</svg>
