<svg width="409" height="448" viewBox="0 0 409 448" fill="none" xmlns="http://www.w3.org/2000/svg">
<path d="M188.463 75.9793C188.463 75.9793 133.332 78.7669 104.127 144.97C74.9219 211.172 44.7676 190.508 26.9591 250.228C9.15068 309.946 45.0615 377.857 69.1332 385.214C93.2048 392.572 368.16 385.214 368.16 385.214C368.16 385.214 404.489 356.689 407.338 282.598C410.187 208.507 356.05 183.761 333.612 173.228C311.175 162.694 276.597 74.3434 188.463 75.9793Z" fill="#F3F5F4"/>
<path d="M267.456 257.036C330.963 207.963 343.278 182.766 374.623 178.08C450.971 166.669 395.032 393.319 220.2 441.752C137.134 464.763 34.2397 402 19.5243 353.236C5.29805 306.091 43.5999 288.406 100.156 313.692C156.715 338.978 235.099 282.04 267.456 257.036Z" stroke="#BBBFBD" stroke-miterlimit="10"/>
<path d="M341.986 208.56C345.591 204.035 345.319 197.011 341.379 192.871C337.439 188.731 331.323 189.043 327.718 193.568C324.113 198.093 324.385 205.118 328.325 209.258C332.265 213.398 338.382 213.085 341.986 208.56Z" fill="#D9D9D9"/>
<path d="M337.795 427.131C341.572 422.794 341.572 415.763 337.795 411.426C334.019 407.089 327.897 407.089 324.121 411.426C320.344 415.763 320.344 422.794 324.121 427.131C327.897 431.468 334.019 431.468 337.795 427.131Z" stroke="#BBBFBD" stroke-miterlimit="10"/>
<path d="M205.02 177.774C210.361 177.774 214.69 172.802 214.69 166.669C214.69 160.535 210.361 155.563 205.02 155.563C199.68 155.563 195.351 160.535 195.351 166.669C195.351 172.802 199.68 177.774 205.02 177.774Z" stroke="#BBBFBD" stroke-miterlimit="10"/>
<path d="M177.657 211.034L167.849 226.714H186.489L177.657 211.034Z" stroke="#BBBFBD" stroke-miterlimit="10" stroke-linecap="round" stroke-linejoin="round"/>
<path d="M131.564 410.22L125.399 423.854H144.038L131.564 410.22Z" fill="#D9D9D9"/>
<path d="M40.1443 242.584C42.4855 231.197 36.3458 219.787 26.4309 217.098C16.5159 214.409 6.58032 221.46 4.23912 232.847C1.89792 244.234 8.03767 255.645 17.9526 258.334C27.8676 261.022 37.8031 253.971 40.1443 242.584Z" stroke="#BBBFBD" stroke-miterlimit="10" stroke-linecap="round" stroke-linejoin="round"/>
<path d="M19.4424 240.559C19.2761 239.692 19.193 238.92 19.193 238.243C19.193 237.139 19.3474 236.243 19.6561 235.554C19.9648 234.853 20.3566 234.283 20.8316 233.844C21.3065 233.393 21.7933 232.983 22.292 232.615C22.9569 232.128 23.5447 231.612 24.0552 231.066C24.5658 230.508 24.8211 229.706 24.8211 228.661C24.8211 227.64 24.5183 226.868 23.9128 226.346C23.3072 225.824 22.5295 225.562 21.5796 225.562C20.4635 225.562 19.5374 225.859 18.8012 226.453C18.065 227.047 17.5426 227.64 17.2339 228.234L14.7048 224.779C15.3104 224.031 16.2128 223.318 17.412 222.641C18.6231 221.953 20.0479 221.608 21.6865 221.608C24.3224 221.608 26.2756 222.184 27.5461 223.336C28.8165 224.488 29.4518 226.109 29.4518 228.198C29.4518 229.113 29.3093 229.878 29.0243 230.496C28.7512 231.101 28.3891 231.63 27.9379 232.081C27.4867 232.52 27.0058 232.948 26.4952 233.363C25.9491 233.803 25.4207 234.277 24.9101 234.788C24.3996 235.299 23.9781 235.928 23.6456 236.676C23.3131 237.412 23.1469 238.35 23.1469 239.49V240.559H19.4424ZM19.4067 249.286V243.978H23.4319V249.286H19.4067Z" fill="#517491"/>
<path d="M225.202 97.806C232.406 89.5326 232.406 76.1188 225.202 67.8454C217.998 59.572 206.319 59.572 199.115 67.8454C191.911 76.1188 191.911 89.5326 199.115 97.806C206.319 106.079 217.998 106.079 225.202 97.806Z" fill="#517491"/>
<path d="M209.402 85.6847C209.236 84.8179 209.153 84.0461 209.153 83.3694C209.153 82.2651 209.307 81.3687 209.616 80.68C209.925 79.9795 210.316 79.4095 210.791 78.9702C211.266 78.519 211.753 78.1094 212.252 77.7413C212.917 77.2545 213.504 76.738 214.015 76.1918C214.526 75.6337 214.781 74.8323 214.781 73.7874C214.781 72.7663 214.478 71.9945 213.873 71.4721C213.267 70.9496 212.489 70.6884 211.539 70.6884C210.423 70.6884 209.497 70.9853 208.761 71.5789C208.025 72.1726 207.502 72.7663 207.194 73.36L204.665 69.9048C205.27 69.1567 206.173 68.4443 207.372 67.7675C208.583 67.0789 210.008 66.7345 211.646 66.7345C214.282 66.7345 216.235 67.3104 217.506 68.4621C218.776 69.6139 219.412 71.2346 219.412 73.3243C219.412 74.2386 219.269 75.0045 218.984 75.6219C218.711 76.2274 218.349 76.7558 217.898 77.207C217.446 77.6463 216.966 78.0738 216.455 78.4893C215.909 78.9287 215.381 79.4036 214.87 79.9142C214.359 80.4247 213.938 81.054 213.605 81.8021C213.273 82.5382 213.107 83.4762 213.107 84.6161V85.6847H209.402ZM209.367 94.4117V89.1043H213.392V94.4117H209.367Z" fill="white"/>
<path d="M79.2148 248.993C80.3888 243.256 77.2911 237.513 72.2959 236.164C67.3007 234.816 62.2995 238.374 61.1255 244.11C59.9515 249.847 63.0492 255.591 68.0444 256.939C73.0396 258.287 78.0408 254.73 79.2148 248.993Z" fill="#D9D9D9"/>
<path d="M399.289 55.8656H316.148C311.402 55.8656 307.556 60.2835 307.556 65.734V123.201C307.556 128.651 311.402 133.069 316.148 133.069H333.071L329.716 143.027C328.744 145.911 331.652 148.466 333.821 146.635L349.892 133.068H399.29C404.036 133.068 407.883 128.65 407.883 123.2V65.7329C407.882 60.2834 404.034 55.8656 399.289 55.8656Z" fill="#517491"/>
<path d="M317.363 71.9751H396.892" stroke="white" stroke-miterlimit="10" stroke-linecap="round" stroke-linejoin="round"/>
<path d="M317.363 80.2704H396.892" stroke="white" stroke-miterlimit="10" stroke-linecap="round" stroke-linejoin="round"/>
<path d="M317.363 88.5668H396.892" stroke="white" stroke-miterlimit="10" stroke-linecap="round" stroke-linejoin="round"/>
<path d="M317.363 96.8632H396.892" stroke="white" stroke-miterlimit="10" stroke-linecap="round" stroke-linejoin="round"/>
<path d="M317.363 105.159H396.892" stroke="white" stroke-miterlimit="10" stroke-linecap="round" stroke-linejoin="round"/>
<path d="M317.363 113.456H396.892" stroke="white" stroke-miterlimit="10" stroke-linecap="round" stroke-linejoin="round"/>
<path d="M139.331 238.547C139.331 238.547 138.485 230.385 137.385 226.498C136.285 222.612 131.632 215.227 131.632 215.227C131.632 215.227 129.771 219.794 132.478 223.583C132.478 223.583 132.309 229.607 132.563 231.744C132.563 231.744 123.767 223.116 122.075 222.242C121.002 221.258 119.693 220.059 118.095 218.596C112.257 213.252 108.366 214.904 108.872 215.293C109.222 215.56 115.898 221.76 120.031 225.604L119.49 226.493C118.234 225.343 116.235 223.51 113.272 220.797C107.434 215.453 103.541 217.105 104.049 217.494C104.474 217.819 114.246 226.909 117.433 229.875L116.493 231.423C115.257 230.29 113.2 228.405 110.056 225.527C104.218 220.183 100.326 221.834 100.833 222.224C101.268 222.557 111.506 232.083 114.434 234.808L113.438 236.448C112.351 235.315 109.332 232.235 106.418 229.9C102.78 226.985 100.156 228.345 100.156 228.345C100.156 228.345 100.156 228.345 101.764 229.996C103.371 231.648 111.747 239.228 111.747 239.228C111.747 239.228 124.535 252.346 127.744 253.608L130.873 257.037L142.387 242.724L139.331 238.547Z" fill="#FF996A"/>
<path d="M231.39 329.152C224.525 340.522 214.921 347.545 202.154 344.561C167.963 336.58 127.593 260.36 127.593 260.36L129.624 257.834L144.692 239.112L197.133 293.841L213.51 266.615L229.506 240.028L237.411 226.89C237.411 226.89 242.041 235.298 244.955 262.022C246.774 278.771 242.933 310.078 231.39 329.152Z" fill="#D3AA7D"/>
<path d="M231.39 329.152C224.525 340.522 214.921 347.545 202.154 344.561C167.963 336.58 127.593 260.36 127.593 260.36L129.624 257.834L130.877 257.035C130.877 257.035 178.985 333.042 199.259 321.736C211.794 314.746 213.807 286.881 213.511 266.614L229.507 240.027L231.39 329.152Z" fill="#C1966B"/>
<path d="M359.812 321.736L356.697 384.738H344.616L349.365 321.736H359.812Z" fill="#0E304C"/>
<path d="M285.868 321.736L282.753 384.738H270.672L275.421 321.736H285.868Z" fill="#0E304C"/>
<path d="M361.048 332.642H265.337C255.823 332.642 248.111 323.785 248.111 312.859V251.372C248.111 240.447 255.823 231.59 265.337 231.59H361.048C370.562 231.59 378.274 240.447 378.274 251.372V312.859C378.274 323.785 370.562 332.642 361.048 332.642Z" fill="#0E304C"/>
<path d="M352.976 332.642H257.264C247.751 332.642 240.039 323.785 240.039 312.859V251.372C240.039 240.447 247.751 231.59 257.264 231.59H352.976C362.49 231.59 370.202 240.447 370.202 251.372V312.859C370.201 323.785 362.489 332.642 352.976 332.642Z" fill="#517491"/>
<path d="M280.833 203.223C280.833 203.223 299.71 199.742 325.105 229.914L330.963 384.738H224.827C224.827 384.738 213.238 280.288 226.747 243.143C240.256 205.997 264.52 201.563 280.833 203.223Z" fill="#FFD294"/>
<path d="M243.805 119.256L248.465 111.929L288.193 127.205L287.848 144.343H290.472C295.8 144.343 300.12 149.303 300.12 155.423C300.12 161.543 295.801 166.504 290.472 166.504H287.402L286.934 189.765V210.206L258.171 214.748L257.466 201.076L257.093 193.893L252.92 191.605C240.973 185.058 233.364 171.208 233.364 156.004C233.364 142.789 237.022 129.922 243.805 119.256Z" fill="#FF996A"/>
<path d="M257.094 193.892L257.466 201.075C258.524 200.93 259.631 200.742 260.78 200.502C278.545 196.783 285.499 178.342 284.778 168.842C284.778 168.842 278.789 191.691 257.094 193.892Z" fill="#D37A57"/>
<path d="M290.768 152.249C290.025 152.896 289.339 153.751 289.094 154.821C289.094 154.821 290.577 155.388 290.712 157.299C290.847 159.209 289.094 160.035 289.094 160.035C289.094 160.035 290.442 162.616 292.69 161.223C294.937 159.829 294.564 154.964 292.331 153.944C292.331 153.944 295.882 153.48 297.184 154.977C297.184 154.977 297.482 153.476 295.998 152.148C294.468 150.777 292.314 150.904 290.768 152.249Z" fill="#D37A57"/>
<path d="M243.805 119.256C243.805 119.256 249.184 129.89 256.136 133.332C263.087 136.773 270.517 131.764 277.469 136.333C284.42 140.903 279.986 149.466 281.544 153.581C283.102 157.695 284.83 158.245 284.83 158.245C284.83 158.245 285.765 146.546 287.849 144.344C287.849 144.344 294.091 144.283 296.034 146.372C296.034 146.372 299.521 138.288 300.121 131.956C300.72 125.624 294.607 123.56 294.607 123.56C294.607 123.56 293.169 108.419 276.989 102.776C260.809 97.1322 248.466 106.079 241.993 102.776C235.521 99.4723 229.649 104.428 229.289 111.93C228.93 119.43 233.365 122.184 233.365 122.184C233.365 122.184 230.368 125.085 231.567 129.553C232.766 134.021 236.527 135.053 236.527 135.053C236.527 135.053 240.954 123.722 243.805 119.256Z" fill="#3F2D1F"/>
<path d="M292.21 204.839L286.996 197.051L266.289 205.431L262.936 212.113L260.668 206.111L257.523 202.167L254.259 209.395C254.259 209.395 254.358 216.643 262.345 218.568C270.332 220.494 287.785 213.019 292.21 204.839Z" fill="#9C897A"/>
<path d="M296.033 146.371C296.033 146.371 292.814 144.959 289.758 148.186C286.702 151.413 287.737 154.584 287.737 154.584C287.737 154.584 289.149 150.761 292.174 151.178C295.2 151.595 297.401 160.982 293.358 162.738C289.315 164.493 284.155 161.819 284.335 154.584C284.516 147.351 286.826 143.259 290.634 142.637C294.441 142.014 295.948 145.688 296.033 146.371Z" fill="#0E304C"/>
<path d="M267.446 182.732C267.055 182.732 266.708 182.415 266.63 181.958C266.544 181.44 266.839 180.94 267.29 180.84C282.952 177.381 288.257 160.443 288.309 160.273C288.459 159.776 288.931 159.512 289.366 159.685C289.8 159.858 290.029 160.4 289.879 160.898C289.823 161.08 284.227 179.043 267.603 182.714C267.551 182.726 267.498 182.732 267.446 182.732Z" fill="#0E304C"/>
<path d="M263.952 182.105C263.952 184.328 265.521 186.13 267.457 186.13C269.393 186.13 270.961 184.328 270.961 182.105C270.961 179.883 269.392 178.08 267.457 178.08C265.522 178.08 263.952 179.882 263.952 182.105Z" fill="#0E304C"/>
<path d="M291.779 152.913C291.779 152.913 291.336 157.359 292.186 159.738C293.036 162.116 294.368 160.885 294.627 157.997C294.885 155.108 292.371 151.057 291.779 152.913Z" fill="#0E304C"/>
<path d="M186.362 384.738C186.362 384.738 186.008 372.662 197.849 368.878C209.691 365.094 224.116 376.158 226.43 384.738H186.362Z" fill="#0E304C"/>
<path d="M354.273 346.297C351.275 356.654 345.792 364.486 339.298 370.028C334.872 373.79 329.982 376.485 325.102 378.179C304.726 385.276 229.265 384.732 229.265 384.732L232.104 358.551L316.602 336.739C316.602 336.739 305.672 296.919 306.155 264.748C306.591 234.806 314.366 222.466 323.124 228.295C323.783 228.743 324.442 229.275 325.101 229.915C325.101 229.915 338.443 252.749 352.212 299.646C357.845 318.827 357.743 334.257 354.273 346.297Z" fill="#E5BC89"/>
<path d="M223.522 362.029L205.595 358.277C205.595 358.277 202.301 357.629 199.006 359.266C195.712 360.902 191.971 368.878 191.971 368.878C191.971 368.878 194.999 368.93 197.046 366.809C199.095 364.686 199.361 362.846 199.361 362.846L205.94 363.435L206.057 365.187C203.86 365.739 197.606 367.377 194.554 368.88C190.814 370.721 188.855 376.344 188.855 376.344C188.855 376.344 193.752 375.527 196.245 372.049L206.428 370.723L206.501 371.815C204.402 371.979 200.654 372.519 197.136 374.3C191.883 376.958 190.28 380.538 190.28 380.538C190.28 380.538 195.534 380.538 199.229 377.266L201.716 377.029C199.258 378.839 197.136 383.197 197.136 383.197C197.136 383.197 198.204 383.504 200.609 382.277C203.013 381.05 203.637 379.651 203.637 379.651L210.643 380.253C214.281 380.849 219.784 381.436 222.929 380.231L229.629 381.415L231.732 362.033H223.522V362.029Z" fill="#FF996A"/>
<path d="M372.758 397.407H35.672C32.6258 397.407 30.1557 394.57 30.1557 391.072C30.1557 387.574 32.6258 384.737 35.672 384.737H372.759C375.805 384.737 378.275 387.574 378.275 391.072C378.274 394.571 375.805 397.407 372.758 397.407Z" fill="#0E304C"/>
<path d="M243.541 397.407H33.4655C31.6378 397.407 30.1557 394.57 30.1557 391.072C30.1557 387.574 31.6378 384.737 33.4655 384.737H138.503H243.541C245.369 384.737 246.851 387.574 246.851 391.072C246.851 394.571 245.369 397.407 243.541 397.407Z" fill="#517491"/>
<path d="M180.015 360.322H63.9283C60.0132 360.322 56.6243 357.194 55.7817 352.803L40.7763 274.537C40.0402 270.699 42.5855 267.063 46.0076 267.063H163.404C166.874 267.063 169.877 269.834 170.623 273.726L185.675 352.235C186.471 356.388 183.718 360.322 180.015 360.322Z" fill="#517491"/>
<path d="M82.964 347.065C81.9945 352.674 76.2956 356.1 70.2345 354.718C64.1734 353.336 60.0464 347.669 61.0159 342.061C61.9854 336.452 67.6843 333.027 73.7454 334.408C79.8065 335.79 83.9335 341.456 82.964 347.065Z" fill="#517491"/>
<path d="M185.674 352.235L170.622 273.725C169.876 269.833 166.873 267.062 163.403 267.062H156.636C160.106 267.062 163.109 269.833 163.855 273.725L178.907 352.235C179.704 356.388 176.95 360.322 173.247 360.322H180.014C183.718 360.322 186.471 356.388 185.674 352.235Z" fill="#0E304C"/>
<path d="M165.585 381.593C165.585 383.329 164.364 384.732 162.851 384.732H66.4834C64.9378 384.732 63.5329 384.007 62.5194 382.843C61.4972 381.679 60.8743 380.075 60.8743 378.29C60.8743 377.021 61.2063 375.78 61.8214 374.721L85.6724 333.681C86.3539 332.526 87.4845 331.83 88.6971 331.83H130.399C131.894 331.83 132.834 333.691 132.077 335.18L111.941 375.132C111.193 376.611 112.123 378.453 113.603 378.453H162.85C163.607 378.453 164.288 378.806 164.786 379.379C165.277 379.942 165.585 380.725 165.585 381.593Z" fill="#0E304C"/>
<path d="M136.974 313.146H77.8519C77.1636 313.146 76.6051 312.505 76.6051 311.714C76.6051 310.924 77.1636 310.282 77.8519 310.282H136.974C137.663 310.282 138.221 310.924 138.221 311.714C138.221 312.506 137.663 313.146 136.974 313.146Z" fill="#0E304C"/>
<path d="M139.824 321.736H80.7008C80.0125 321.736 79.454 321.095 79.454 320.304C79.454 319.514 80.0125 318.873 80.7008 318.873H139.823C140.511 318.873 141.07 319.514 141.07 320.304C141.07 321.096 140.512 321.736 139.824 321.736Z" fill="#0E304C"/>
<path d="M42.0006 271.698H167.199C168.217 271.698 169.195 271.914 170.099 272.3C168.972 269.175 166.3 267.063 163.271 267.063H45.8748C43.2689 267.063 41.1766 269.172 40.6494 271.872C41.0809 271.76 41.533 271.698 42.0006 271.698Z" fill="#517491"/>
<path d="M170.62 347.065C169.65 352.674 163.952 356.1 157.89 354.718C151.829 353.336 147.702 347.669 148.672 342.061C149.641 336.452 155.34 333.027 161.401 334.408C167.461 335.79 171.588 341.456 170.62 347.065Z" fill="#517491"/>
<path d="M165.578 381.821C165.475 383.493 164.164 384.733 162.705 384.733H107.862C105.647 384.733 103.852 382.671 103.852 380.129C103.852 379.259 104.067 378.407 104.471 377.671L129.667 331.831H130.399C131.894 331.831 132.834 333.693 132.077 335.182L111.941 375.133C111.193 376.612 112.123 378.454 113.603 378.454H162.85C163.607 378.454 164.288 378.807 164.786 379.38C165.32 379.99 165.637 380.863 165.578 381.821Z" fill="#0E304C"/>
<path d="M325.102 378.179C304.726 385.276 229.265 384.732 229.265 384.732L326.763 354.937C336.958 351.821 343.451 340.364 341.793 328.399C337.508 297.466 329.214 241.963 323.124 228.294C323.784 228.742 324.442 229.274 325.101 229.913C325.101 229.913 338.443 252.748 352.212 299.645C365.982 346.552 345.487 371.093 325.102 378.179Z" fill="#D3AA7D"/>
<path d="M319.352 337.837C319.352 337.837 333.293 337.611 344.615 349.484" stroke="#9C897A" stroke-miterlimit="10" stroke-linecap="round" stroke-linejoin="round"/>
<path d="M290.181 207.634C290.181 207.634 308.525 214.797 317.559 227.08" stroke="#E5BC89" stroke-miterlimit="10" stroke-linecap="round" stroke-linejoin="round"/>
<path d="M198.865 297.42C198.865 297.42 208.996 312.49 210.293 329.844" stroke="#9C897A" stroke-miterlimit="10" stroke-linecap="round" stroke-linejoin="round"/>
<path d="M251.266 209.506C251.266 209.506 247.414 221.916 263.5 223.439C279.587 224.962 297.219 206.837 297.219 206.837" stroke="#E5BC89" stroke-miterlimit="10" stroke-linecap="round" stroke-linejoin="round"/>
<path d="M229.265 362.028L225.498 380.682L229.628 381.412L231.73 362.028H229.265Z" fill="#D37A57"/>
<path d="M262.344 218.568C262.344 218.568 257.575 234.176 254.258 274.543" stroke="#E5BC89" stroke-miterlimit="10" stroke-linecap="round" stroke-linejoin="round"/>
<path d="M293.151 123.731C293.151 123.731 285.637 121.689 278.838 124.692" stroke="#543E2F" stroke-miterlimit="10" stroke-linecap="round" stroke-linejoin="round"/>
<path d="M243.804 119.256C243.804 119.256 243.047 131.893 256.968 133.698" stroke="#543E2F" stroke-miterlimit="10" stroke-linecap="round" stroke-linejoin="round"/>
<path d="M294.39 115.401C294.39 115.401 296.009 120.424 294.607 123.559" stroke="#543E2F" stroke-miterlimit="10" stroke-linecap="round" stroke-linejoin="round"/>
<path d="M231.345 110.276C231.345 110.276 230.718 118.036 237.621 121.088" stroke="#543E2F" stroke-miterlimit="10" stroke-linecap="round" stroke-linejoin="round"/>
<path d="M233.857 124.692C233.857 124.692 232.575 130.5 237.347 133.002" stroke="#543E2F" stroke-miterlimit="10" stroke-linecap="round" stroke-linejoin="round"/>
<path d="M256.138 104.869C256.138 104.869 265.041 100.385 277.686 106.911C289.093 112.798 290.181 120.126 290.181 120.126" stroke="#543E2F" stroke-miterlimit="10" stroke-linecap="round" stroke-linejoin="round"/>
<path d="M294.39 126.854C294.39 126.854 296.9 128.215 296.9 132.3C296.9 136.385 295.179 140.549 295.179 140.549" stroke="#543E2F" stroke-miterlimit="10" stroke-linecap="round" stroke-linejoin="round"/>
<path d="M252.581 125.413C252.581 125.413 254.357 130.819 264.714 131.42C275.071 132.021 278.419 132.021 281.243 135.865C284.068 139.709 283.127 143.914 283.127 143.914" stroke="#543E2F" stroke-miterlimit="10" stroke-linecap="round" stroke-linejoin="round"/>
<path d="M248.702 0H154.442C148.983 0 144.558 5.08277 144.558 11.3519V29.8867C144.558 36.1558 148.983 41.2374 154.442 41.2374H166.926L164.022 52.7575C163.481 54.9025 165.539 56.6752 167.18 55.4788L186.727 41.2374H248.702C254.16 41.2374 258.585 36.1558 258.585 29.8867V11.3519C258.586 5.08277 254.16 0 248.702 0Z" fill="#D9D9D9"/>
<path d="M157.378 11.0951H246.318" stroke="white" stroke-miterlimit="10" stroke-linecap="round" stroke-linejoin="round"/>
<path d="M157.378 19.7616H246.318" stroke="white" stroke-miterlimit="10" stroke-linecap="round" stroke-linejoin="round"/>
<path d="M157.378 28.4279H246.318" stroke="white" stroke-miterlimit="10" stroke-linecap="round" stroke-linejoin="round"/>
<path d="M95.1361 204.558C139.459 204.558 175.389 163.293 175.389 112.391C175.389 61.4882 139.459 20.2235 95.1361 20.2235C50.8135 20.2235 14.8828 61.4882 14.8828 112.391C14.8828 163.293 50.8135 204.558 95.1361 204.558Z" stroke="#BBBFBD" stroke-miterlimit="10"/>
<path d="M170.296 112.383C170.296 144.595 154.931 172.684 132.162 187.516C129.611 189.178 126.966 190.682 124.248 191.991C115.294 196.317 105.459 198.705 95.1419 198.705C94.4555 198.705 93.7779 198.693 93.1004 198.672C92.6825 198.661 92.2656 198.64 91.8477 198.608C91.5509 198.608 91.2629 198.598 90.9661 198.566C90.5209 198.544 90.0757 198.512 89.6392 198.47C89.4537 198.459 89.2682 198.449 89.0827 198.416C88.5535 198.384 88.0341 198.321 87.5147 198.267C86.9113 198.193 86.3177 198.118 85.7241 198.033L104.309 167.163L54.9381 105.69L22.7238 135.58C22.3898 134.195 22.0833 132.809 21.805 131.392C21.7035 130.859 21.601 130.315 21.5082 129.783C21.3784 129.08 21.2573 128.365 21.1557 127.662C21.0815 127.194 21.0073 126.725 20.9517 126.256C20.8492 125.585 20.7662 124.903 20.6822 124.221C20.6354 123.838 20.5895 123.464 20.5524 123.081C20.487 122.494 20.4225 121.898 20.3757 121.301L20.3473 120.949C20.2917 120.31 20.236 119.671 20.1989 119.021C20.1521 118.306 20.1062 117.593 20.0779 116.868V116.825C20.0408 116.09 20.0125 115.355 20.0037 114.608C19.9851 113.873 19.9763 113.127 19.9763 112.382C19.9763 98.0493 23.0196 84.5378 28.4012 72.6455C39.5822 47.9257 60.8762 30.205 85.9926 26.6998C88.99 26.2838 92.042 26.0708 95.1409 26.0708C107.759 26.0708 119.664 29.6511 130.102 35.9695L97.3679 66.3282L119.218 142.421L161.593 72.0501C167.15 84.0815 170.296 97.816 170.296 112.383Z" fill="#517491"/>
<path d="M28.203 72.5717L54.739 105.615L22.5246 135.505C22.1907 134.12 21.8841 132.734 21.6058 131.317C21.5043 130.784 21.4018 130.24 21.309 129.708C21.1792 129.005 21.0581 128.29 20.9566 127.587C20.8824 127.119 20.8082 126.65 20.7525 126.181C20.651 125.51 20.567 124.828 20.4831 124.146C20.4362 123.763 20.3903 123.389 20.3532 123.006C20.2878 122.419 20.2233 121.823 20.1765 121.226L20.1491 120.874C20.0935 120.235 20.0378 119.596 20.0007 118.946C19.9549 118.231 19.908 117.518 19.8797 116.793V116.75C19.8426 116.015 19.8152 115.28 19.8055 114.533C19.7869 113.798 19.7781 113.052 19.7781 112.307C19.7781 97.9743 22.8214 84.4629 28.203 72.5717Z" fill="#517491"/>
<path d="M124.048 191.916C115.094 196.242 105.26 198.63 94.9418 198.63C94.2554 198.63 93.5779 198.618 92.9003 198.597C92.4824 198.586 92.0655 198.565 91.6476 198.533C91.3508 198.533 91.0628 198.522 90.766 198.491C90.3208 198.469 89.8756 198.437 89.4391 198.395C89.2536 198.384 89.0681 198.374 88.8826 198.341C88.3534 198.31 87.834 198.246 87.3146 198.192C86.7112 198.118 86.1176 198.043 85.524 197.958L104.109 167.088L124.048 191.916Z" fill="#517491"/>
<path d="M129.904 35.8944L97.1698 66.2531L85.7945 26.6248C88.7918 26.2088 91.8439 25.9957 94.9428 25.9957C107.561 25.9946 119.465 29.5749 129.904 35.8944Z" fill="#517491"/>
<path d="M170.097 112.307C170.097 144.519 154.732 172.608 131.963 187.44L119.019 142.346L161.394 71.9752C166.952 84.0055 170.097 97.74 170.097 112.307Z" fill="#517491"/>
<path d="M104.11 167.088L85.525 197.958C85.0515 197.894 84.5789 197.82 84.1054 197.734C83.7158 197.67 83.3263 197.606 82.9367 197.532C82.5003 197.458 82.0736 197.371 81.6372 197.276C81.0621 197.16 80.4871 197.042 79.911 196.903C79.419 196.786 78.9279 196.668 78.4446 196.541C78.138 196.465 77.8324 196.38 77.5258 196.295C77.1177 196.189 76.7184 196.071 76.3103 195.954C74.9834 195.571 73.6751 195.133 72.3766 194.665C71.9031 194.494 71.4305 194.324 70.9668 194.142C70.3361 193.897 69.7141 193.652 69.102 193.385C68.5269 193.151 67.9518 192.895 67.3856 192.64C66.8105 192.384 66.2442 192.117 65.6877 191.84C65.1312 191.573 64.5747 191.296 64.0269 191.009C64.0269 191.009 64.0182 191.009 64.0084 190.998C63.4519 190.71 62.9041 190.412 62.3564 190.113C60.6859 189.197 59.0622 188.206 57.4669 187.151C56.966 186.81 56.4652 186.469 55.9731 186.128C54.9343 185.414 53.913 184.658 52.9201 183.88C52.4192 183.497 51.9272 183.102 51.4361 182.697C50.944 182.303 50.4529 181.888 49.9696 181.472C49.951 181.46 49.9325 181.439 49.9051 181.418C49.4502 181.023 48.9864 180.618 48.5412 180.214C48.1419 179.851 47.7523 179.499 47.3628 179.127C46.7877 178.594 46.2214 178.041 45.6649 177.486C45.2382 177.059 44.8204 176.633 44.4035 176.196C43.9856 175.759 43.5687 175.311 43.1508 174.864C43.104 174.81 43.0581 174.768 43.021 174.725C42.6129 174.266 42.2047 173.809 41.7966 173.34C41.4442 172.935 41.0917 172.519 40.7393 172.104C40.2569 171.529 39.7746 170.943 39.3099 170.346C38.9018 169.835 38.5025 169.312 38.1129 168.79C37.7975 168.385 37.5007 167.969 37.2039 167.554C37.0184 167.32 36.8515 167.086 36.6845 166.84C36.3877 166.424 36.0997 166.009 35.8126 165.593C35.4875 165.125 35.1722 164.656 34.8666 164.176C34.4487 163.547 34.0406 162.919 33.651 162.269C33.2986 161.703 32.9549 161.139 32.621 160.563C32.3798 160.158 32.1475 159.754 31.9161 159.338C31.7677 159.092 31.628 158.836 31.4894 158.581C30.8587 157.452 30.2465 156.29 29.6617 155.117C29.3922 154.563 29.1237 154.009 28.8543 153.444C28.2421 152.155 27.6573 150.844 27.1095 149.512C26.8684 148.958 26.6458 148.393 26.4232 147.829C26.1908 147.232 25.9594 146.636 25.7368 146.039C25.7183 145.997 25.7095 145.943 25.6909 145.9C25.4585 145.271 25.2272 144.632 25.0046 143.993C25.0046 143.972 24.9948 143.95 24.986 143.919C24.7634 143.28 24.5496 142.629 24.3455 141.98C24.1415 141.362 23.9462 140.733 23.7607 140.094C23.5937 139.529 23.4268 138.954 23.2686 138.379C23.1573 137.952 23.0362 137.515 22.9249 137.089C22.9162 137.057 22.9064 137.035 22.9064 137.004C22.7765 136.503 22.6467 136.003 22.5256 135.501L54.74 105.611L104.11 167.088Z" fill="#0E304C"/>
<path d="M161.394 71.9752L119.019 142.346L97.1689 66.2533L129.903 35.8945C143.311 43.9924 154.315 56.5979 161.394 71.9752Z" fill="#0E304C"/>
<path d="M119.019 142.346L104.11 167.088L54.739 105.615L97.1689 66.2522L119.019 142.346Z" fill="#517491"/>
<path d="M108.856 100.3L109.092 95.7552L111.733 94.3077C119.292 90.1645 124.107 81.4017 124.107 71.7811C124.107 63.4197 121.793 55.2781 117.501 48.5291L114.553 43.8926L89.4148 53.558L89.6335 64.402H87.9737C84.6024 64.402 81.8686 67.5404 81.8686 71.4133C81.8686 75.2851 84.6014 78.4247 87.9737 78.4247H89.9156L90.2115 93.1438V98.3107C90.2115 98.3107 85.6715 103.334 77.0553 107.596C77.0553 107.596 86.6615 121.448 102.536 122.362C118.41 123.276 119.021 112.313 119.021 112.313C119.021 112.313 112.439 107.788 108.664 104.039L108.856 100.3Z" fill="#FF996A"/>
<path d="M109.092 95.7553L108.856 100.3C108.187 100.209 107.486 100.089 106.758 99.9365C95.5178 97.583 91.1174 85.9149 91.5734 79.9037C91.5734 79.9037 95.3645 94.3626 109.092 95.7553Z" fill="#D37A57"/>
<path d="M87.7832 69.4051C88.2538 69.8143 88.6873 70.3559 88.8426 71.0321C88.8426 71.0321 87.9043 71.3909 87.8184 72.5996C87.7334 73.8083 88.8426 74.3309 88.8426 74.3309C88.8426 74.3309 87.9892 75.9635 86.5677 75.0821C85.1461 74.2008 85.3814 71.1218 86.7952 70.477C86.7952 70.477 84.5486 70.1832 83.7236 71.1307C83.7236 71.1307 83.5352 70.181 84.4744 69.34C85.4429 68.4744 86.8049 68.554 87.7832 69.4051Z" fill="#D37A57"/>
<path d="M126.932 117.849C126.932 117.849 141.008 147.397 146.376 172.175L131.862 181.882C131.862 181.882 126.093 168.639 124.106 148.317C122.12 127.993 126.932 117.849 126.932 117.849Z" fill="#847062"/>
<path d="M119.019 51.1304C119.019 51.1304 104.954 66.418 92.0977 64.7439C92.0977 64.7439 90.7055 75.4757 93.0252 79.5863C93.0252 79.5863 92.0313 80.7177 90.6391 76.4221C89.2468 72.1264 90.3462 66.1926 89.6305 64.4031C89.6305 64.4031 85.3405 63.2358 82.5218 68.2524C79.7031 73.269 85.8726 79.3946 89.9127 78.4247L90.0982 87.6495C90.0982 87.6495 85.4693 89.633 81.5591 85.8274C77.6488 82.0218 79.5713 78.1399 79.5713 78.1399C79.5713 78.1399 73.6732 71.4537 73.4076 62.1683C73.1421 52.883 79.8691 47.0479 79.8691 47.0479C79.8691 47.0479 82.0892 33.3099 96.8681 33.1574C111.647 33.0049 115.955 38.1045 115.955 38.1045C115.955 38.1045 125.494 39.9692 128.182 51.6148C130.87 63.2605 124.105 69.4881 124.105 69.4881C124.105 69.4881 122.149 54.5672 119.019 51.1304Z" fill="#3F2D1F"/>
<path d="M93.1141 84.7085L87.918 97.1334C87.7325 97.5808 87.2404 97.7086 86.8977 97.4103L86.6839 97.2186L69.6585 82.1082C69.3988 81.8739 69.3148 81.4579 69.473 81.117L75.3457 68.7672L75.4853 68.479C75.6806 68.0529 76.1717 67.9464 76.4968 68.2548L92.9384 83.78C93.1698 84.0054 93.2439 84.3889 93.1141 84.7085Z" fill="white"/>
<path d="M128.948 189.411C118.788 195.304 107.301 198.618 95.1371 198.618C85.1257 198.618 75.5692 196.37 66.8378 192.279L61.2795 119.169C61.2795 119.169 62.4209 114.129 69.2308 111.251C76.9693 107.969 77.0523 107.596 77.0523 107.596C106.549 124.645 119.018 112.305 119.018 112.305L125.513 116.099C126.153 116.472 126.654 117.09 126.933 117.847C128.463 122.056 133.539 136.654 134.049 146.713C134.449 154.728 131.146 176.262 128.948 189.411Z" fill="#9C897A"/>
<path d="M64.5356 114.209C64.5356 114.209 57.3429 117.489 54.739 139.105C52.1341 160.721 54.9147 172.174 54.9147 172.174L69.2328 152.654C69.2328 152.654 74.134 122.729 64.5356 114.209Z" fill="#9C897A"/>
<path d="M85.9146 82.5949C84.5418 83.5054 80.9684 86.3758 80.3299 87.5846C80.0233 88.1665 79.8954 88.8292 79.8427 89.3652L78.9445 88.8505C79.3975 86.6259 80.2342 84.4024 80.2342 84.4024C80.2342 84.4024 81.6587 83.5267 82.4544 82.2327C83.2501 80.9387 82.9514 79.9049 82.9514 79.9049C82.4085 80.2648 81.5347 80.9208 80.6238 81.6631C80.6365 81.6429 80.6521 81.625 80.6648 81.6037C81.4595 80.3097 81.1617 79.2759 81.1617 79.2759C79.7363 80.2211 76.0262 83.2015 75.3632 84.4573C75.0059 85.1346 74.8829 85.915 74.8419 86.4969L74.5909 86.3534C75.0166 83.9998 75.9598 81.4893 75.9598 81.4893C75.9598 81.4893 77.3843 80.6136 78.18 79.3196C78.9747 78.0256 78.6769 76.9918 78.6769 76.9918C77.2515 77.9371 73.5414 80.9174 72.8784 82.1733C72.2155 83.4291 72.3483 85.0651 72.3483 85.0651L72.8784 95.7969L73.4008 107.594C73.4008 107.594 54.5203 157.22 54.739 169.322C54.9577 181.424 61.2805 186.218 61.2805 186.218C61.2805 186.218 68.0407 185.304 72.3483 177.662C76.6559 170.019 80.6325 111.78 80.6325 111.78C80.6325 111.78 82.8859 107.821 83.2833 104.036C83.6807 100.251 82.1674 90.6961 82.1674 90.6961C82.6165 88.7373 83.298 86.923 83.298 86.923C83.298 86.923 84.6707 86.0798 85.4361 84.8341C86.2016 83.5895 85.9146 82.5949 85.9146 82.5949Z" fill="#FF996A"/>
<path d="M93.1141 84.7086L87.918 97.1335C87.7325 97.5809 87.2404 97.7087 86.8977 97.4104L86.6839 97.2187L91.9356 84.2511L75.3456 68.7684L75.4853 68.4802C75.6805 68.0542 76.1716 67.9476 76.4967 68.256L92.9383 83.7813C93.1697 84.0055 93.2439 84.389 93.1141 84.7086Z" fill="#D9D9D9"/>
<path d="M75.3466 71.2521L74.6261 72.8791L78.2054 76.1891L79.0255 74.6193L75.3466 71.2521Z" fill="#D9D9D9"/>
<path d="M178.851 120.24L174.841 121.096L174.732 120.688C175.892 120.233 178.617 119.002 179.72 117.102C181.138 114.66 181.635 112.299 181.635 112.299C181.635 112.299 179.178 113.775 178.232 116.594L176.332 117C177.093 116.459 177.799 115.803 178.242 115.039C179.66 112.596 180.157 110.236 180.157 110.236C180.157 110.236 177.699 111.712 176.753 114.531L174.357 115.043C175.351 114.147 176.392 112.978 176.827 111.715C177.766 108.984 177.819 106.556 177.819 106.556C177.819 106.556 175.687 108.593 175.278 111.577L172.644 112.84L161.115 116.976L161.202 115.064C161.202 115.064 161.637 114.764 162.854 113.666C164.072 112.567 165.591 108.006 165.591 108.006C165.591 108.006 159.549 111.268 158.077 114.863C156.605 118.458 155.202 127.346 155.202 127.346C155.202 127.346 141.346 165.637 138.886 176.186C138.886 176.186 134.127 178.3 131.863 181.88C131.863 181.88 136.701 192.079 140.545 193.144C140.545 193.144 151.679 190.709 156.98 175.79C162.282 160.872 164.418 130.739 164.418 130.739L175.548 123.749C175.548 123.749 178.91 122.65 180.069 120.653C181.229 118.656 181.634 116.726 181.634 116.726C181.634 116.726 179.625 117.935 178.851 120.24Z" fill="#FF996A"/>
<path d="M129.282 163.696C129.282 163.696 122.763 162.254 111.605 162.254C100.447 162.254 89.2888 164.657 89.2888 164.657" stroke="#847062" stroke-miterlimit="10" stroke-linecap="round" stroke-linejoin="round"/>
<path d="M117.532 42.1177C117.532 42.1177 119.328 45.9188 119.174 48.5247" stroke="#543E2F" stroke-miterlimit="10" stroke-linecap="round" stroke-linejoin="round"/>
<path d="M114.775 39.2336C114.775 39.2336 107.49 41.9572 103.48 48.5246" stroke="#543E2F" stroke-miterlimit="10" stroke-linecap="round" stroke-linejoin="round"/>
<path d="M80.9889 43.4789C80.9889 43.4789 79.8036 46.522 79.7333 47.6433C79.7333 47.6433 75.8397 51.8078 75.3456 54.2107" stroke="#543E2F" stroke-miterlimit="10" stroke-linecap="round" stroke-linejoin="round"/>
<path d="M85.7935 42.1176C85.7935 42.1176 94.8315 32.5463 109.791 37.5921" stroke="#543E2F" stroke-miterlimit="10" stroke-linecap="round" stroke-linejoin="round"/>
<path d="M87.6144 61.8847C87.6144 61.8847 91.4963 63.6821 99.7952 61.8847C108.094 60.0873 115.65 50.3265 115.65 50.3265" stroke="#543E2F" stroke-miterlimit="10" stroke-linecap="round" stroke-linejoin="round"/>
<path d="M84.2626 114.209C84.2626 114.209 95.6116 119.645 107.235 118.845C118.858 118.044 120.306 115.641 120.306 115.641" stroke="#847062" stroke-miterlimit="10" stroke-linecap="round" stroke-linejoin="round"/>
</svg>
