<svg width="591" height="227" viewBox="0 0 591 227" fill="none" xmlns="http://www.w3.org/2000/svg">
<path d="M568.094 72.0377L540.905 66.7012C539.618 66.4487 538.723 65.7817 538.22 64.7003C537.716 63.6189 537.782 62.5047 538.417 61.3578C539.051 60.2108 540.111 59.2917 541.596 58.6005C543.08 57.9093 544.465 57.6899 545.752 57.9424L578.028 64.2774C578.729 64.4151 579.294 64.6554 579.721 64.9982C580.149 65.341 580.479 65.7677 580.712 66.2782C580.946 66.7887 581.06 67.3162 581.054 67.8607C581.048 68.4052 580.869 68.9919 580.516 69.6208L564.589 98.3995C563.897 99.6508 562.845 100.586 561.434 101.206C560.022 101.826 558.614 101.997 557.21 101.719C555.805 101.442 554.86 100.78 554.373 99.7338C553.886 98.6881 553.987 97.537 554.677 96.2807L568.094 72.0377Z" fill="white"/>
<path d="M24.105 148.337L35.241 122.966C35.7679 121.766 35.731 120.65 35.1304 119.619C34.5299 118.589 33.5775 118.007 32.2734 117.873C30.9693 117.74 29.6099 118.085 28.195 118.91C26.7802 119.734 25.8094 120.747 25.2825 121.947L12.0629 152.065C11.7756 152.72 11.6506 153.321 11.6882 153.867C11.7258 154.414 11.8875 154.929 12.1735 155.412C12.4595 155.895 12.8276 156.289 13.278 156.595C13.7283 156.901 14.3125 157.089 15.0305 157.158L47.7513 160.506C49.1739 160.651 50.5426 160.322 51.8572 159.517C53.1719 158.712 54.1159 157.653 54.6892 156.341C55.2626 155.029 55.2589 153.875 54.6781 152.878C54.0973 151.882 53.0941 151.308 51.6687 151.158L24.105 148.337Z" fill="white"/>
<path d="M63.3288 138.465C63.3288 136.704 63.6843 135.401 64.3952 134.555C65.1062 133.708 65.9356 133.014 66.8835 132.473C67.8314 131.931 68.6609 131.322 69.3718 130.645C70.0827 129.934 70.4382 128.85 70.4382 127.395V90.3242C70.4382 88.8346 70.0827 87.7344 69.3718 87.0234C68.6609 86.3125 67.8314 85.7031 66.8835 85.1953C65.9356 84.6536 65.1062 83.9596 64.3952 83.1133C63.6843 82.2669 63.3288 80.9805 63.3288 79.2539C63.3288 77.3581 63.8874 75.9701 65.0046 75.0898C66.1556 74.1758 67.6283 73.7188 69.4226 73.7188H99.6882C107.272 73.7188 114.076 75.2591 120.102 78.3398C126.128 81.3867 130.885 85.737 134.372 91.3906C137.893 97.0443 139.653 103.781 139.653 111.602C139.653 118.339 138.079 124.128 134.93 128.969C131.782 133.81 127.55 137.534 122.235 140.141C116.92 142.714 111.029 144 104.563 144H69.4226C67.5945 144 66.1218 143.56 65.0046 142.68C63.8874 141.799 63.3288 140.395 63.3288 138.465ZM102.176 132.676C104.682 132.676 106.713 131.914 108.27 130.391C109.828 128.867 111.012 126.954 111.825 124.652C112.671 122.35 113.247 119.964 113.551 117.492C113.856 115.021 114.009 112.854 114.009 110.992C114.009 108.385 113.772 105.592 113.298 102.613C112.824 99.6003 111.977 96.7734 110.759 94.1328C109.574 91.4583 107.915 89.2747 105.782 87.582C103.683 85.8893 100.975 85.043 97.657 85.043H95.4226V124.754C95.4226 127.056 95.8965 128.952 96.8445 130.441C97.8262 131.931 99.6036 132.676 102.176 132.676Z" fill="white"/>
<path d="M494.534 142H471.438C470.038 142 468.85 141.642 467.874 140.926C466.93 140.177 466.458 139.054 466.458 137.557C466.458 136.45 466.702 135.571 467.19 134.92C467.711 134.236 468.395 133.602 469.241 133.016C470.152 132.365 470.803 131.86 471.194 131.502C471.585 131.111 471.829 130.639 471.927 130.086C472.024 129.533 472.073 128.702 472.073 127.596V88.3379C472.073 87.1335 471.975 86.2708 471.78 85.75C471.617 85.2292 471.275 84.8385 470.755 84.5781C470.266 84.2852 469.518 83.8945 468.509 83.4062C467.695 83.0156 467.027 82.4948 466.507 81.8438C465.986 81.1927 465.725 80.4115 465.725 79.5C465.725 78.1979 466.165 77.1888 467.044 76.4727C467.923 75.724 468.899 75.1543 469.973 74.7637L481.448 70.5156C482.783 70.0273 484.134 69.5879 485.501 69.1973C486.868 68.7741 488.251 68.5625 489.651 68.5625C491.018 68.5625 492.093 69.002 492.874 69.8809C493.655 70.7598 494.046 71.8665 494.046 73.2012V112.898L505.081 104.109C505.341 103.914 505.618 103.686 505.911 103.426C506.236 103.165 506.399 102.872 506.399 102.547C506.399 101.961 506.009 101.473 505.227 101.082C504.446 100.691 503.665 100.171 502.884 99.5195C502.102 98.8359 501.712 97.7943 501.712 96.3945C501.712 94.8646 502.184 93.7578 503.128 93.0742C504.104 92.3581 505.292 92 506.692 92H526.858C528.258 92 529.43 92.3581 530.374 93.0742C531.35 93.7578 531.839 94.8646 531.839 96.3945C531.839 98.25 531.236 99.5358 530.032 100.252C528.86 100.936 527.509 101.473 525.979 101.863C524.156 102.319 522.512 102.824 521.048 103.377C519.583 103.93 518.102 104.826 516.604 106.062L513.772 108.357L529.885 128.865C530.602 129.744 531.546 130.639 532.718 131.551C533.922 132.43 535.012 133.374 535.989 134.383C536.966 135.392 537.454 136.531 537.454 137.801C537.454 139.266 536.966 140.34 535.989 141.023C535.012 141.674 533.857 142 532.522 142H509.134C507.799 142 506.725 141.593 505.911 140.779C505.097 139.965 504.69 138.891 504.69 137.557C504.69 136.287 505.048 135.343 505.764 134.725C506.513 134.106 507.246 133.602 507.962 133.211C508.678 132.788 509.036 132.283 509.036 131.697C509.036 131.144 508.857 130.656 508.499 130.232C508.173 129.809 507.848 129.419 507.522 129.061L499.71 119.734L494.046 124.324V127.303C494.046 128.344 494.094 129.37 494.192 130.379C494.29 131.388 494.794 132.267 495.706 133.016C496.65 133.732 497.431 134.318 498.05 134.773C498.668 135.229 498.977 136.157 498.977 137.557C498.977 140.519 497.496 142 494.534 142Z" fill="white"/>
<path d="M440.553 109.045V123.303C440.553 125.191 440.765 126.46 441.188 127.111C441.644 127.762 442.816 128.283 444.704 128.674C446.364 128.999 447.682 129.39 448.659 129.846C449.668 130.269 450.173 131.506 450.173 133.557C450.173 135.021 449.733 136.128 448.854 136.877C447.975 137.626 446.82 138 445.387 138H419.606C418.206 138 417.051 137.626 416.139 136.877C415.228 136.128 414.772 135.021 414.772 133.557C414.772 132.385 414.984 131.506 415.407 130.92C415.863 130.334 416.367 129.813 416.921 129.357C417.507 128.869 418.011 128.251 418.434 127.502C418.89 126.721 419.118 125.549 419.118 123.986V106.262C419.118 104.797 418.858 103.706 418.337 102.99C417.848 102.242 417.279 101.656 416.628 101.232C416.009 100.809 415.44 100.337 414.919 99.8164C414.43 99.263 414.186 98.4492 414.186 97.375C414.186 96.1055 414.593 95.1126 415.407 94.3965C416.253 93.6478 417.214 93.0618 418.288 92.6387L430.495 87.8047C431.276 87.4792 432.074 87.1699 432.887 86.877C433.701 86.584 434.548 86.4375 435.427 86.4375C436.566 86.4375 437.412 86.877 437.966 87.7559C438.519 88.6022 438.893 89.5951 439.089 90.7344C439.316 91.8411 439.479 92.8177 439.577 93.6641C439.675 94.25 439.772 94.8359 439.87 95.4219C439.968 96.0078 440.049 96.5938 440.114 97.1797C441.123 94.1849 442.669 91.6458 444.753 89.5625C446.869 87.4792 449.782 86.4375 453.493 86.4375C456.13 86.4375 458.197 87.0885 459.694 88.3906C461.224 89.6927 462.315 91.3691 462.966 93.4199C463.617 95.4382 463.942 97.5866 463.942 99.8652C463.942 101.981 463.665 104.032 463.112 106.018C462.559 107.971 461.582 109.582 460.182 110.852C458.815 112.121 456.878 112.756 454.372 112.756C451.637 112.756 449.635 112.333 448.366 111.486C447.129 110.64 446.331 109.598 445.973 108.361C445.615 107.124 445.42 105.887 445.387 104.65C445.387 103.413 445.29 102.372 445.094 101.525C444.899 100.679 444.313 100.256 443.337 100.256C442.458 100.256 441.823 100.874 441.432 102.111C441.042 103.316 440.798 104.618 440.7 106.018C440.602 107.417 440.553 108.426 440.553 109.045Z" fill="white"/>
<path d="M358.44 141.77C358.44 138.775 359.14 136.285 360.54 134.299C361.94 132.281 363.762 130.669 366.009 129.465C368.287 128.228 370.745 127.349 373.382 126.828C376.018 126.307 378.557 126.047 380.999 126.047C381.715 126.047 382.447 126.063 383.196 126.096C383.945 126.096 384.677 126.161 385.393 126.291V113.596C385.393 112.782 385.214 111.838 384.856 110.764C384.531 109.689 383.847 109.152 382.805 109.152C381.796 109.152 381.162 109.576 380.901 110.422C380.673 111.236 380.559 112.017 380.559 112.766C380.559 113.091 380.559 113.433 380.559 113.791C380.592 114.117 380.608 114.458 380.608 114.816C380.608 118.169 379.453 120.529 377.141 121.896C374.83 123.231 372.193 123.898 369.231 123.898C366.757 123.898 364.609 123.345 362.786 122.238C360.963 121.132 360.052 119.178 360.052 116.379C360.052 115.272 360.263 114.198 360.686 113.156C361.142 112.115 361.712 111.187 362.395 110.373C364.381 107.964 366.871 106.125 369.866 104.855C372.893 103.586 376.067 102.723 379.387 102.268C382.74 101.779 385.882 101.535 388.811 101.535C392.132 101.535 395.175 102.007 397.942 102.951C400.709 103.895 402.923 105.474 404.583 107.688C406.243 109.868 407.073 112.814 407.073 116.525V139.035C407.073 139.589 407.203 140.077 407.464 140.5C407.724 140.923 408.163 141.135 408.782 141.135C409.27 141.135 409.677 140.988 410.003 140.695C410.361 140.37 410.784 140.207 411.272 140.207C412.216 140.207 412.916 140.533 413.372 141.184C413.86 141.835 414.104 142.6 414.104 143.479C414.104 145.757 413.404 147.727 412.005 149.387C410.637 151.014 408.928 152.251 406.878 153.098C404.827 153.977 402.76 154.416 400.677 154.416C398.235 154.416 395.761 153.879 393.255 152.805C390.781 151.73 389.072 150.054 388.128 147.775C386.468 150.087 384.189 151.779 381.292 152.854C378.427 153.895 375.611 154.416 372.844 154.416C370.305 154.416 367.929 153.944 365.716 153C363.535 152.023 361.777 150.591 360.442 148.703C359.108 146.815 358.44 144.504 358.44 141.77ZM380.462 137.473C380.462 138.775 380.771 140.012 381.389 141.184C382.008 142.323 383.066 142.893 384.563 142.893C384.856 142.893 385.133 142.86 385.393 142.795V132.688C384.84 132.46 384.27 132.346 383.684 132.346C382.447 132.346 381.601 132.964 381.145 134.201C380.69 135.406 380.462 136.496 380.462 137.473Z" fill="white"/>
<path d="M317.274 92.4375C319.162 92.4375 320.334 93.1211 320.79 94.4883C321.278 95.8229 321.522 97.2389 321.522 98.7363C321.522 98.9316 321.522 99.1107 321.522 99.2734C323.508 97.2552 325.754 95.6113 328.26 94.3418C330.767 93.0723 333.566 92.4375 336.659 92.4375C340.044 92.4375 343.007 93.1536 345.546 94.5859C348.085 96.0182 350.184 97.9225 351.844 100.299C353.537 102.675 354.807 105.344 355.653 108.307C356.499 111.236 356.923 114.215 356.923 117.242C356.923 122.255 355.93 126.91 353.944 131.207C351.958 135.471 349.078 138.906 345.302 141.51C341.558 144.114 337.017 145.416 331.678 145.416C328.293 145.416 325.233 144.716 322.499 143.316V148.59C322.499 149.729 322.531 150.592 322.596 151.178C322.662 151.796 322.857 152.35 323.182 152.838C323.508 153.359 324.061 154.042 324.843 154.889C325.461 155.54 325.917 156.126 326.21 156.646C326.503 157.167 326.649 157.9 326.649 158.844C326.649 160.243 326.193 161.334 325.282 162.115C324.371 162.896 323.231 163.287 321.864 163.287H301.063C299.663 163.287 298.508 162.913 297.596 162.164C296.685 161.415 296.229 160.309 296.229 158.844C296.229 157.672 296.441 156.793 296.864 156.207C297.32 155.621 297.824 155.1 298.378 154.645C298.931 154.189 299.419 153.587 299.843 152.838C300.298 152.089 300.526 150.982 300.526 149.518V112.262C300.526 110.764 300.282 109.658 299.794 108.941C299.305 108.193 298.736 107.623 298.085 107.232C297.434 106.809 296.864 106.337 296.376 105.816C295.887 105.296 295.643 104.482 295.643 103.375C295.643 102.138 296.066 101.145 296.913 100.396C297.792 99.6478 298.736 99.0618 299.745 98.6387L309.413 94.3906C310.65 93.8372 311.919 93.3815 313.221 93.0234C314.556 92.6328 315.907 92.4375 317.274 92.4375ZM326.405 105.133C325.005 105.133 323.703 105.605 322.499 106.549V132.33C323.117 132.916 323.801 133.388 324.55 133.746C325.298 134.104 326.128 134.283 327.04 134.283C328.635 134.283 329.904 133.762 330.848 132.721C331.825 131.646 332.557 130.312 333.046 128.717C333.566 127.122 333.908 125.51 334.071 123.883C334.234 122.255 334.315 120.855 334.315 119.684C334.315 118.414 334.218 116.965 334.022 115.338C333.827 113.678 333.453 112.083 332.899 110.553C332.346 108.99 331.548 107.704 330.507 106.695C329.465 105.654 328.098 105.133 326.405 105.133Z" fill="white"/>
<path d="M265.372 135.473C263.95 135.473 262.528 135.405 261.106 135.27C259.684 135.134 258.279 134.948 256.891 134.711C256.282 134.609 255.673 134.508 255.063 134.406C254.454 134.339 253.828 134.305 253.184 134.305C251.762 134.305 250.374 134.559 249.02 135.066C247.666 135.574 246.278 135.828 244.856 135.828C242.893 135.828 241.522 135.286 240.743 134.203C239.998 133.12 239.44 131.715 239.067 129.988C238.627 127.889 238.204 125.773 237.798 123.641C237.425 121.508 237.036 119.392 236.63 117.293C236.528 116.887 236.477 116.464 236.477 116.023C236.477 114.432 237.053 113.197 238.204 112.316C239.389 111.436 240.709 110.996 242.165 110.996C243.485 110.996 244.619 111.436 245.567 112.316C246.549 113.197 247.514 114.297 248.462 115.617C249.41 116.938 250.493 118.258 251.712 119.578C252.964 120.865 254.522 121.948 256.384 122.828C258.279 123.708 260.649 124.148 263.493 124.148C265.186 124.148 266.895 123.776 268.622 123.031C270.382 122.253 271.262 120.831 271.262 118.766C271.262 117.344 270.839 116.243 269.993 115.465C269.18 114.652 268.182 114.026 266.997 113.586C265.812 113.112 264.678 112.723 263.594 112.418C260.04 111.368 256.587 110.184 253.235 108.863C249.884 107.509 246.854 105.833 244.145 103.836C241.471 101.839 239.338 99.3503 237.747 96.3711C236.156 93.3919 235.36 89.7357 235.36 85.4023C235.36 80.3919 236.528 76.194 238.864 72.8086C241.234 69.3893 244.382 66.8164 248.309 65.0898C252.236 63.3294 256.536 62.4492 261.208 62.4492C262.596 62.4492 263.967 62.5169 265.321 62.6523C266.709 62.7878 268.08 63.0247 269.434 63.3633C270.552 63.6341 271.669 63.9388 272.786 64.2773C273.937 64.582 275.088 64.7344 276.239 64.7344C277.525 64.7344 278.677 64.2943 279.692 63.4141C280.708 62.5339 281.91 62.0938 283.298 62.0938C284.719 62.0938 285.854 62.5169 286.7 63.3633C287.58 64.1758 288.274 65.1914 288.782 66.4102C289.324 67.5951 289.764 68.7461 290.102 69.8633L294.165 82.8125C294.402 83.625 294.52 84.3698 294.52 85.0469C294.52 86.7057 293.928 88.026 292.743 89.0078C291.558 89.9896 290.17 90.4805 288.579 90.4805C287.123 90.4805 286.04 90.1081 285.329 89.3633C284.618 88.5846 283.907 87.6367 283.196 86.5195C280.928 82.9987 278.389 80.0195 275.579 77.582C272.769 75.1445 269.096 73.9258 264.559 73.9258C262.9 73.9258 261.377 74.349 259.989 75.1953C258.635 76.0417 257.958 77.3958 257.958 79.2578C257.958 80.8828 258.466 82.1862 259.481 83.168C260.531 84.1159 261.783 84.8776 263.239 85.4531C264.695 85.9948 266.049 86.4688 267.302 86.875C270.585 87.9245 273.751 89.1094 276.798 90.4297C279.844 91.75 282.57 93.375 284.973 95.3047C287.411 97.2344 289.324 99.6042 290.712 102.414C292.134 105.224 292.844 108.609 292.844 112.57C292.844 116.396 292.066 119.747 290.509 122.625C288.985 125.503 286.92 127.889 284.313 129.785C281.706 131.681 278.761 133.103 275.477 134.051C272.193 134.999 268.825 135.473 265.372 135.473Z" fill="white"/>
<path d="M210.567 147.025H202.95C200.834 147.025 199.125 146.391 197.823 145.121C196.553 143.852 195.528 142.322 194.747 140.531L181.026 109.33C180.505 108.191 180.066 107.312 179.708 106.693C179.35 106.075 178.666 105.359 177.657 104.545C176.908 103.926 176.322 103.34 175.899 102.787C175.509 102.234 175.313 101.436 175.313 100.395C175.313 98.9297 175.785 97.8392 176.729 97.123C177.706 96.3743 178.878 96 180.245 96H206.563C207.93 96 209.005 96.3906 209.786 97.1719C210.567 97.9531 210.958 99.0273 210.958 100.395C210.958 101.566 210.649 102.462 210.03 103.08C209.412 103.699 208.695 104.236 207.882 104.691C207.068 105.115 206.352 105.619 205.733 106.205C205.115 106.791 204.805 107.654 204.805 108.793C204.805 109.509 204.887 110.225 205.05 110.941C205.245 111.625 205.473 112.292 205.733 112.943L213.204 132.084L220.382 113.725C220.642 113.008 220.854 112.292 221.016 111.576C221.212 110.827 221.309 110.079 221.309 109.33C221.309 108.028 221 107.068 220.382 106.449C219.796 105.798 219.096 105.261 218.282 104.838C217.468 104.415 216.752 103.894 216.134 103.275C215.548 102.624 215.255 101.664 215.255 100.395C215.255 98.9297 215.71 97.8392 216.622 97.123C217.533 96.3743 218.689 96 220.089 96H233.614C235.014 96 236.169 96.3581 237.081 97.0742C238.025 97.7904 238.497 98.8971 238.497 100.395C238.497 101.599 238.269 102.478 237.813 103.031C237.39 103.552 236.755 104.187 235.909 104.936C234.672 106.042 233.793 107.051 233.272 107.963C232.784 108.874 232.231 110.079 231.612 111.576C229.529 116.492 227.462 121.439 225.411 126.42C223.36 131.368 221.179 136.267 218.868 141.117C217.989 142.908 216.915 144.34 215.645 145.414C214.376 146.488 212.683 147.025 210.567 147.025Z" fill="white"/>
<path d="M188.966 134.725C188.966 137.622 188.103 139.819 186.378 141.316C184.685 142.814 182.439 143.562 179.639 143.562H159.962C160.71 146.362 162.045 148.722 163.966 150.643C165.886 152.531 168.653 153.475 172.266 153.475C173.699 153.475 175.115 153.182 176.514 152.596C177.947 151.977 179.281 151.261 180.518 150.447C181.788 149.633 182.895 148.934 183.839 148.348C184.783 147.729 185.499 147.42 185.987 147.42C186.931 147.42 187.615 147.762 188.038 148.445C188.461 149.096 188.673 149.845 188.673 150.691C188.673 153.654 187.973 156.258 186.573 158.504C185.206 160.717 183.383 162.557 181.104 164.021C178.858 165.486 176.384 166.577 173.682 167.293C171.013 168.042 168.376 168.416 165.772 168.416C160.661 168.416 156.153 167.358 152.247 165.242C148.341 163.126 145.281 160.164 143.067 156.355C140.886 152.514 139.796 148.006 139.796 142.83C139.796 137.296 140.854 132.479 142.969 128.377C145.118 124.275 148.194 121.102 152.198 118.855C156.202 116.577 161.003 115.438 166.602 115.438C170.476 115.438 174.105 116.17 177.491 117.635C180.909 119.1 183.676 121.264 185.792 124.129C187.908 126.993 188.966 130.525 188.966 134.725ZM159.083 136.043C159.083 136.401 159.083 136.759 159.083 137.117H164.161C165.398 137.117 166.244 136.84 166.7 136.287C167.156 135.701 167.383 134.822 167.383 133.65C167.383 132.869 167.286 131.844 167.091 130.574C166.895 129.305 166.505 128.165 165.919 127.156C165.365 126.147 164.551 125.643 163.477 125.643C162.501 125.643 161.719 126.049 161.133 126.863C160.548 127.645 160.108 128.637 159.815 129.842C159.522 131.014 159.327 132.169 159.229 133.309C159.132 134.448 159.083 135.359 159.083 136.043Z" fill="white"/>
</svg>
