<svg width="50" height="96" viewBox="0 0 50 96" fill="none" xmlns="http://www.w3.org/2000/svg">
<path d="M21.5129 46.0283C22.2805 44.4822 24.1533 43.5679 25.841 43.9302C27.5287 44.2924 28.8652 45.9081 28.888 47.6341C28.9106 49.3602 27.6047 51.0172 25.9174 51.3821C24.2304 51.7471 22.3472 50.7666 21.694 49.1688C21.0407 47.571 21.7074 45.5412 23.1892 44.6562C21.8636 43.989 20.7224 42.9594 19.9228 41.7092C18.8731 42.173 18.087 43.1158 17.6237 44.1657C17.1604 45.2155 16.9908 46.3713 16.9134 47.5162C16.8086 49.0669 16.8765 50.6805 17.5457 52.0833C18.2051 53.4657 19.4159 54.5418 20.7954 55.2074C23.947 56.7276 28.0331 56.0094 30.4772 53.5053C32.9214 51.0012 33.5405 46.8988 31.9443 43.785C30.3481 40.6712 26.6559 38.7789 23.196 39.3013C22.1017 39.4666 21.0169 39.8646 20.1918 40.6022C19.3667 41.3399 18.8339 42.4491 18.954 43.5495C19.0742 44.6497 19.9314 45.6766 21.5129 46.0283Z" fill="#0E304C"/>
<path d="M24.8099 56.435C19.9679 56.435 16.0288 52.4958 16.0288 47.6538C16.0288 42.8118 19.968 38.8725 24.8099 38.8725C29.6517 38.8725 33.5911 42.8118 33.5911 47.6538C33.5911 52.4958 29.6519 56.435 24.8099 56.435ZM24.8099 40.2409C20.7224 40.2409 17.3971 43.5663 17.3971 47.6538C17.3971 51.7413 20.7225 55.0667 24.8099 55.0667C28.8972 55.0667 32.2228 51.7413 32.2228 47.6538C32.2228 43.5663 28.8974 40.2409 24.8099 40.2409Z" fill="white"/>
<path d="M24.8099 51.9212C22.4568 51.9212 20.5425 50.0069 20.5425 47.6538C20.5425 45.3007 22.4568 43.3863 24.8099 43.3863C27.1631 43.3863 29.0776 45.3007 29.0776 47.6538C29.0776 50.0069 27.1632 51.9212 24.8099 51.9212ZM24.8099 44.7546C23.2113 44.7546 21.9108 46.0552 21.9108 47.6538C21.9108 49.2524 23.2113 50.5529 24.8099 50.5529C26.4085 50.5529 27.7093 49.2524 27.7093 47.6538C27.7093 46.0552 26.4087 44.7546 24.8099 44.7546Z" fill="white"/>
<path d="M25.0363 44.6957C24.6585 44.6957 24.3521 44.3895 24.3521 44.0115V39.6174C24.3521 39.2396 24.6583 38.9332 25.0363 38.9332C25.4141 38.9332 25.7205 39.2394 25.7205 39.6174V44.0115C25.7205 44.3895 25.4142 44.6957 25.0363 44.6957Z" fill="white"/>
<path d="M25.0363 56.1843C24.6585 56.1843 24.3521 55.878 24.3521 55.5V51.7335C24.3521 51.3557 24.6583 51.0493 25.0363 51.0493C25.4141 51.0493 25.7205 51.3556 25.7205 51.7335V55.5C25.7205 55.878 25.4142 56.1843 25.0363 56.1843Z" fill="white"/>
<path d="M28.0138 46.3141C27.7936 46.3141 27.5776 46.2082 27.4456 46.0118C27.2346 45.6984 27.3179 45.2731 27.6312 45.0621L31.1235 42.712C31.4369 42.5009 31.862 42.5842 32.073 42.8977C32.2841 43.2111 32.2009 43.6364 31.8875 43.8474L28.3952 46.1975C28.278 46.2764 28.1452 46.3141 28.0138 46.3141Z" fill="white"/>
<path d="M18.3725 52.5615C18.1483 52.5615 17.9287 52.4515 17.7977 52.2493C17.5922 51.9323 17.6828 51.5086 17.9998 51.3032L21.1609 49.2549C21.4778 49.0493 21.9015 49.1398 22.1071 49.457C22.3125 49.7741 22.222 50.1978 21.905 50.4032L18.7439 52.4515C18.6291 52.5259 18.4999 52.5615 18.3725 52.5615Z" fill="white"/>
<path d="M31.7257 52.5221C31.5995 52.5221 31.4718 52.4872 31.3577 52.4141L27.6561 50.0464C27.3378 49.8429 27.2447 49.4198 27.4484 49.1015C27.652 48.7832 28.0752 48.6903 28.3933 48.8939L32.0949 51.2615C32.4134 51.4651 32.5063 51.8882 32.3026 52.2064C32.172 52.4106 31.9511 52.5221 31.7257 52.5221Z" fill="white"/>
<path d="M21.5189 45.9936C21.3927 45.9936 21.2651 45.9588 21.1509 45.8857L17.9777 43.8561C17.6594 43.6525 17.5664 43.2294 17.7701 42.9112C17.9736 42.5929 18.3967 42.4996 18.715 42.7035L21.8881 44.7331C22.2064 44.9366 22.2995 45.3597 22.0958 45.678C21.9654 45.8822 21.7446 45.9936 21.5189 45.9936Z" fill="white"/>
<path d="M28.2017 64.4432C28.2001 64.4432 28.1987 64.4432 28.1973 64.4432L21.3839 64.3995C21.0422 64.3973 20.7543 64.1431 20.71 63.8042L20.2293 60.1369C19.9583 60.0321 19.6894 59.9174 19.4243 59.7936L16.4178 62.064C16.1438 62.2707 15.7594 62.2426 15.5185 61.9986L10.7325 57.1488C10.4925 56.9057 10.4686 56.5227 10.6768 56.2517L12.9153 53.3358C12.7841 53.0597 12.6627 52.78 12.5522 52.4989L8.8732 51.9864C8.53338 51.9391 8.28109 51.6474 8.28346 51.3044L8.32857 44.4909C8.33078 44.1492 8.58482 43.8616 8.92369 43.8171L12.2879 43.3755C12.4129 42.9935 12.5563 42.6149 12.7168 42.2434L10.6643 39.5266C10.4574 39.2529 10.4853 38.8683 10.7295 38.6274L15.5778 33.84C15.8209 33.5999 16.204 33.576 16.4751 33.7841L18.8665 35.6201C19.3364 35.3746 19.8246 35.1557 20.3252 34.966L20.7418 31.982C20.7893 31.6421 21.0833 31.3922 21.4238 31.3924L28.2373 31.4361C28.579 31.4383 28.8668 31.6923 28.9112 32.0312L29.2686 34.7553C29.8527 34.9451 30.4263 35.1771 30.9823 35.4481L33.202 33.7716C33.4756 33.5649 33.8601 33.5927 34.1012 33.8368L38.8886 38.6852C39.1287 38.9283 39.1526 39.3113 38.9444 39.5824L37.2618 41.7739C37.5215 42.3167 37.7452 42.8798 37.9297 43.4561L40.7467 43.8491C41.0866 43.8964 41.3385 44.188 41.3363 44.5311L41.2926 51.3445C41.2903 51.6862 41.0364 51.9738 40.6977 52.0184L37.6705 52.4163C37.4918 52.8801 37.2847 53.3381 37.0516 53.7853L38.9571 56.3092C39.1638 56.5828 39.1358 56.9673 38.8919 57.2083L34.0421 61.9957C33.7987 62.2358 33.4158 62.2596 33.1447 62.0514L30.4122 59.9528C30.0692 60.1005 29.7202 60.2338 29.3685 60.3514L28.8796 63.8537C28.8319 64.1917 28.5426 64.4432 28.2017 64.4432ZM21.989 63.035L27.6069 63.0709L28.0725 59.734C28.1096 59.4684 28.2984 59.2488 28.5558 59.1727C29.1173 59.0062 29.6751 58.7939 30.2132 58.542C30.4405 58.4356 30.7226 58.466 30.9217 58.619L33.5048 60.6029L37.5038 56.6553L35.6942 54.2582C35.5301 54.0409 35.5106 53.747 35.6444 53.5097C35.998 52.8832 36.2939 52.2297 36.5244 51.5673C36.6094 51.3229 36.8248 51.1474 37.0814 51.1137L39.928 50.7394L39.9641 45.1215L37.3066 44.7508C37.038 44.7135 36.8167 44.5207 36.7428 44.2597C36.522 43.4805 36.2221 42.7244 35.8514 42.0126C35.7286 41.7766 35.7536 41.4909 35.9155 41.2799L37.4957 39.222L33.5483 35.2246L31.466 36.7974C31.2539 36.9574 30.9684 36.9802 30.7338 36.8563C30.0059 36.4715 29.2405 36.1625 28.4586 35.9381C28.1968 35.8629 28.0045 35.6396 27.969 35.3694L27.6321 32.8004L22.014 32.7645L21.6232 35.5638C21.5876 35.8189 21.4118 36.0324 21.168 36.1162C20.4615 36.359 19.7794 36.666 19.1405 37.0288C18.9013 37.1646 18.6042 37.1438 18.3861 36.9765L16.1149 35.2326L12.1173 39.1801L14.0531 41.7423C14.2062 41.9449 14.2345 42.2157 14.1266 42.4455C13.8616 43.0098 13.6405 43.5957 13.4696 44.1869C13.3939 44.448 13.1709 44.6397 12.9014 44.675L9.69308 45.0962L9.65588 50.7139L13.1453 51.2C13.414 51.2373 13.6282 51.4277 13.7046 51.6756C13.8771 52.1563 14.0861 52.6355 14.3258 53.1002C14.4474 53.3358 14.4219 53.6203 14.2606 53.8305L12.1255 56.6118L16.0716 60.6106L18.9347 58.4487C19.1435 58.2911 19.4236 58.2661 19.6569 58.3848C20.1137 58.617 20.5868 58.8191 21.0637 58.9858C21.3094 59.0652 21.4974 59.28 21.5324 59.5478L21.989 63.035Z" fill="white"/>
<path d="M25.3855 28.8614C23.9289 28.8614 22.7439 27.6763 22.7439 26.2197C22.7439 24.7631 23.9289 23.5781 25.3855 23.5781C26.8422 23.5781 28.0272 24.7631 28.0272 26.2197C28.0272 27.6763 26.8422 28.8614 25.3855 28.8614ZM25.3855 24.9464C24.6834 24.9464 24.1122 25.5176 24.1122 26.2197C24.1122 26.9218 24.6834 27.4931 25.3855 27.4931C26.0877 27.4931 26.6589 26.9218 26.6589 26.2197C26.6589 25.5176 26.0877 24.9464 25.3855 24.9464Z" fill="white"/>
<path d="M43.3007 29.9734C41.8441 29.9734 40.6589 28.7884 40.6589 27.3318C40.6589 25.8752 41.8439 24.6901 43.3007 24.6901C44.7572 24.6901 45.9422 25.8752 45.9422 27.3318C45.9422 28.7884 44.7572 29.9734 43.3007 29.9734ZM43.3007 26.0584C42.5986 26.0584 42.0272 26.6297 42.0272 27.3318C42.0272 28.0339 42.5986 28.6051 43.3007 28.6051C44.0028 28.6051 44.5739 28.0339 44.5739 27.3318C44.5739 26.6297 44.0027 26.0584 43.3007 26.0584Z" fill="white"/>
<path d="M47.3583 49.6128C45.9018 49.6128 44.7168 48.4277 44.7168 46.9711C44.7168 45.5145 45.9018 44.3295 47.3583 44.3295C48.8149 44.3295 50.0001 45.5145 50.0001 46.9711C50.0001 48.4277 48.8149 49.6128 47.3583 49.6128ZM47.3583 45.6978C46.6562 45.6978 46.0851 46.269 46.0851 46.9711C46.0851 47.6732 46.6563 48.2445 47.3583 48.2445C48.0604 48.2445 48.6318 47.6732 48.6318 46.9711C48.6318 46.269 48.0603 45.6978 47.3583 45.6978Z" fill="white"/>
<path d="M25.4913 32.4799C25.1135 32.4799 24.8014 32.1736 24.8014 31.7957C24.8014 31.7653 24.8033 31.7352 24.8071 31.7059V28.2613C24.8071 27.8835 25.1134 27.5771 25.4913 27.5771C25.8691 27.5771 26.1756 27.8834 26.1756 28.2613V31.7957C26.1754 32.1736 25.8691 32.4799 25.4913 32.4799Z" fill="white"/>
<path d="M33.4721 34.9498C33.0943 34.9498 32.7878 34.6435 32.7878 34.2656V31.9957C32.7878 31.8143 32.86 31.6402 32.9882 31.512L37.5955 26.9046C37.7237 26.7762 37.8977 26.7042 38.0792 26.7042H41.1175C41.4953 26.7042 41.8017 27.0105 41.8017 27.3884C41.8017 27.7662 41.4953 28.0727 41.1175 28.0727H38.3627L34.156 32.2794V34.2657C34.1563 34.6436 33.8499 34.9498 33.4721 34.9498Z" fill="white"/>
<path d="M6.4965 29.9734C5.03988 29.9734 3.85486 28.7884 3.85486 27.3318C3.85486 25.8752 5.03988 24.6901 6.4965 24.6901C7.95313 24.6901 9.13815 25.8752 9.13815 27.3318C9.13815 28.7884 7.95313 29.9734 6.4965 29.9734ZM6.4965 26.0584C5.79439 26.0584 5.22317 26.6297 5.22317 27.3318C5.22317 28.0339 5.79439 28.6051 6.4965 28.6051C7.19862 28.6051 7.76985 28.0339 7.76985 27.3318C7.76985 26.6297 7.19862 26.0584 6.4965 26.0584Z" fill="white"/>
<path d="M16.325 34.9498C15.9472 34.9498 15.6407 34.6436 15.6407 34.2656V32.2792L11.434 28.0725H8.67923C8.30142 28.0725 7.995 27.7663 7.995 27.3883C7.995 27.0105 8.30126 26.7041 8.67923 26.7041H11.7175C11.8989 26.7041 12.073 26.7761 12.2014 26.9044L16.8088 31.5119C16.937 31.6402 17.0092 31.8142 17.0092 31.9957V34.2656C17.009 34.6436 16.7028 34.9498 16.325 34.9498Z" fill="white"/>
<path d="M24.7995 72.4219C23.3429 72.4219 22.1578 71.2369 22.1578 69.7803C22.1578 68.3236 23.3429 67.1386 24.7995 67.1386C26.2561 67.1386 27.4411 68.3236 27.4411 69.7803C27.4411 71.2369 26.2559 72.4219 24.7995 72.4219ZM24.7995 68.5069C24.0974 68.5069 23.5261 69.0782 23.5261 69.7803C23.5261 70.4824 24.0974 71.0536 24.7995 71.0536C25.5016 71.0536 26.0728 70.4824 26.0728 69.7803C26.0728 69.0782 25.5014 68.5069 24.7995 68.5069Z" fill="white"/>
<path d="M6.36918 71.2364C4.91256 71.2364 3.72754 70.0514 3.72754 68.5946C3.72754 67.138 4.91256 65.953 6.36918 65.953C7.82581 65.953 9.01083 67.138 9.01083 68.5946C9.01083 70.0514 7.82565 71.2364 6.36918 71.2364ZM6.36918 67.3213C5.66707 67.3213 5.09584 67.8925 5.09584 68.5946C5.09584 69.2969 5.66707 69.8681 6.36918 69.8681C7.0713 69.8681 7.64252 69.2969 7.64252 68.5946C7.64252 67.8925 7.07114 67.3213 6.36918 67.3213Z" fill="white"/>
<path d="M24.6938 68.4227C24.3159 68.4227 24.0095 68.1165 24.0095 67.7385V64.2042C24.0095 63.8264 24.3158 63.5199 24.6938 63.5199C25.0717 63.5199 25.3837 63.8262 25.3837 64.2042C25.3837 64.2346 25.3818 64.2645 25.378 64.2939V67.7385C25.378 68.1165 25.0716 68.4227 24.6938 68.4227Z" fill="white"/>
<path d="M11.5903 69.2223H8.55203C8.17422 69.2223 7.8678 68.9161 7.8678 68.5381C7.8678 68.1602 8.17406 67.8539 8.55203 67.8539H11.3068L15.5135 63.6472V61.6608C15.5135 61.283 15.8198 60.9766 16.1978 60.9766C16.5756 60.9766 16.882 61.2829 16.882 61.6608V63.9307C16.882 64.112 16.81 64.2862 16.6816 64.4145L12.0742 69.022C11.9456 69.1502 11.7717 69.2223 11.5903 69.2223Z" fill="white"/>
<path d="M43.2609 71.1527C41.8044 71.1527 40.6193 69.9677 40.6193 68.511C40.6193 67.0544 41.8043 65.8694 43.2609 65.8694C44.7175 65.8694 45.9027 67.0544 45.9027 68.511C45.9027 69.9677 44.7175 71.1527 43.2609 71.1527ZM43.2609 67.2377C42.5588 67.2377 41.9877 67.8089 41.9877 68.511C41.9877 69.2132 42.5589 69.7844 43.2609 69.7844C43.9629 69.7844 44.5344 69.2132 44.5344 68.511C44.5344 67.8089 43.963 67.2377 43.2609 67.2377Z" fill="white"/>
<path d="M41.051 69.329H38.0127C37.8311 69.329 37.6572 69.257 37.529 69.1286L32.9217 64.5212C32.7933 64.393 32.7213 64.2189 32.7213 64.0375V61.7677C32.7213 61.3898 33.0277 61.0834 33.4055 61.0834C33.7834 61.0834 34.0898 61.3897 34.0898 61.7677V63.754L38.2965 67.9607H41.0513C41.4291 67.9607 41.7355 68.267 41.7355 68.6449C41.7355 69.0229 41.4288 69.329 41.051 69.329Z" fill="white"/>
<path d="M45.2567 47.7653H41.0045C40.6267 47.7653 40.3203 47.4591 40.3203 47.0811C40.3203 46.7033 40.6267 46.3969 41.0045 46.3969H45.2567C45.6345 46.3969 45.9409 46.7031 45.9409 47.0811C45.9409 47.4591 45.6345 47.7653 45.2567 47.7653Z" fill="white"/>
<path d="M2.64165 49.6128C1.18502 49.6128 0 48.4277 0 46.9711C0 45.5145 1.18502 44.3295 2.64165 44.3295C4.09827 44.3295 5.28329 45.5145 5.28329 46.9711C5.28329 48.4277 4.09827 49.6128 2.64165 49.6128ZM2.64165 45.6978C1.93953 45.6978 1.36831 46.269 1.36831 46.9711C1.36831 47.6732 1.93953 48.2445 2.64165 48.2445C3.34376 48.2445 3.91498 47.6732 3.91498 46.9711C3.91498 46.269 3.34376 45.6978 2.64165 45.6978Z" fill="white"/>
<path d="M8.99555 47.7653H4.74344C4.36563 47.7653 4.0592 47.4591 4.0592 47.0811C4.0592 46.7033 4.36547 46.3969 4.74344 46.3969H8.99555C9.37336 46.3969 9.67978 46.7031 9.67978 47.0811C9.67962 47.4591 9.37336 47.7653 8.99555 47.7653Z" fill="white"/>
</svg>
