<svg width="180" height="86" viewBox="0 0 180 86" fill="none" xmlns="http://www.w3.org/2000/svg">
<path d="M36.2358 45L33.1334 53.9709L30.0311 62.9418" fill="white"/>
<path d="M36.2358 45L33.1334 53.9709L30.0311 62.9418" stroke="white" stroke-width="3" stroke-linecap="round"/>
<path d="M40.026 49.223C40.4748 49.223 40.822 49.3285 41.0856 49.5199L49.0123 55.2758C49.1617 55.3842 49.2526 55.4908 49.3024 55.5912C49.3569 55.7012 49.3843 55.819 49.3834 55.9476C49.3825 56.0785 49.3549 56.1984 49.3014 56.3099C49.2545 56.4076 49.1653 56.5132 49.0143 56.6215L49.0123 56.6224L41.0856 62.3783C40.7887 62.5939 40.4404 62.6997 40.0309 62.6908C39.6184 62.6817 39.2665 62.5656 38.9664 62.347C38.6691 62.1303 38.5524 61.9019 38.5524 61.6586C38.5524 61.4153 38.6692 61.1867 38.9664 60.9691L45.6442 56.1205L45.9225 55.9174L45.6442 55.7152L38.9664 50.8666C38.7077 50.6787 38.5953 50.4582 38.5953 50.1927C38.5954 49.9275 38.7079 49.7077 38.9664 49.5199C39.23 49.3285 39.5771 49.223 40.026 49.223ZM26.2633 49.1918C26.6913 49.1918 27.0476 49.3034 27.3434 49.5189C27.6394 49.7345 27.7566 49.9642 27.7574 50.2103C27.7582 50.4548 27.6422 50.683 27.3444 50.8978H27.3434L20.6207 55.7777L20.3424 55.9799L20.6207 56.183L27.2985 61.0316C27.5571 61.2194 27.6694 61.4392 27.6696 61.7045C27.6696 61.97 27.5572 62.1904 27.2985 62.3783C27.0349 62.5696 26.6877 62.6752 26.2389 62.6752C25.7903 62.6751 25.4438 62.5695 25.1803 62.3783L17.2526 56.6224C17.1033 56.514 17.0123 56.4074 16.9625 56.307C16.9083 56.1975 16.8817 56.0806 16.8834 55.9525C16.8852 55.8209 16.9136 55.7004 16.9674 55.5883C17.0145 55.4901 17.1035 55.384 17.2535 55.2758H17.2545L25.1813 49.5199C25.4784 49.3042 25.8353 49.1918 26.2633 49.1918Z" fill="white" stroke="white" stroke-width="0.5"/>
<path d="M31.9781 77.9336C39.0774 77.9336 45.0206 75.5215 49.1647 71.3408C53.1791 67.2909 55.5103 61.5763 55.566 54.7744L55.5641 54.1123C55.5325 51.1402 55.17 48.682 54.2086 46.0166C53.2467 43.3498 51.6845 40.4723 49.2506 36.6631H49.2496C47.5853 34.0145 46.9225 32.3205 46.5846 29.6299L46.5211 29.0771L46.1598 25.4248L44.4928 28.0176C43.5464 29.5512 42.4119 31.9781 42.0348 33.5059L41.8307 34.2695C41.7651 34.4986 41.7016 34.7032 41.6373 34.8848C41.509 35.2475 41.3776 35.5234 41.2252 35.7236C41.0716 35.9255 40.8957 36.0508 40.6813 36.1113C40.469 36.1712 40.2241 36.1659 39.9352 36.1172C39.6338 36.069 39.3895 36.0071 39.1979 35.8877C39.0028 35.7661 38.868 35.5882 38.777 35.3203C38.6869 35.055 38.6386 34.6987 38.6168 34.2168C38.6059 33.9756 38.6019 33.7014 38.6022 33.3896L38.6149 32.335C38.615 30.6505 38.8095 27.7418 39.0699 25.4951L39.1852 24.5781C39.815 19.1533 38.4287 14.6902 34.901 10.7988C34.2064 10.0315 33.5285 9.34414 32.985 8.84961C32.7131 8.60225 32.4756 8.40458 32.2877 8.26855C32.1938 8.20054 32.1138 8.14846 32.0485 8.11426C31.9806 8.07873 31.937 8.06641 31.9147 8.06641C31.9006 8.06649 31.8783 8.07408 31.8483 8.10645C31.8181 8.13898 31.7861 8.191 31.7535 8.26367C31.6885 8.40876 31.6277 8.62268 31.5768 8.89258C31.475 9.43168 31.4127 10.1801 31.4127 11.0098C31.4127 16.6104 28.1674 22.0724 18.2408 33.2773C10.9129 41.5299 8.01495 48.9415 8.83459 57.0508C9.15031 60.1201 9.74229 62.6263 10.774 64.8994C11.8057 67.1724 13.279 69.2161 15.3619 71.3574C17.8557 73.9467 20.1013 75.5889 22.6744 76.585C25.2483 77.5812 28.1557 77.9336 31.9781 77.9336ZM36.735 75.3115C26.4609 77.4951 16.626 72.6778 12.5651 63.4248C11.8058 61.6947 11.3919 60.5831 11.2008 59.2529C11.0577 58.2567 11.0399 57.1391 11.0934 55.5488L11.1686 53.7881C11.3902 49.5877 12.0236 46.4396 13.6022 43.2666C15.1798 40.0955 17.6991 36.9032 21.6842 32.6113C26.9295 26.9796 29.2652 23.6548 31.9811 18.0264L34.068 13.6709L34.1168 13.5703L34.1823 13.6602L35.2574 15.1338L35.2565 15.1348C35.5795 15.5607 35.9151 16.321 36.1998 17.2021C36.4497 17.9755 36.6629 18.8472 36.7975 19.6777L36.8502 20.0312L36.8512 20.0342C37.0415 21.9621 36.9148 25.5535 36.5348 28.1191L36.5338 28.1201L36.4039 28.9736C36.1287 30.8865 36.0557 32.2612 36.234 33.4072C36.4372 34.7132 36.9679 35.7274 37.9117 36.9062L37.9127 36.9072C38.5944 37.7857 39.5034 38.1265 40.4186 37.9863C41.3364 37.8457 42.2703 37.2196 42.9899 36.1426L42.9908 36.1416C43.3348 35.6348 43.7034 34.8399 44.0123 34.166C44.166 33.8308 44.3052 33.5253 44.4176 33.3037C44.4736 33.1933 44.5246 33.1011 44.568 33.0361C44.5896 33.0039 44.6114 32.9749 44.6324 32.9541C44.6502 32.9366 44.6811 32.9102 44.7213 32.9102C44.7598 32.9102 44.7969 32.9271 44.8287 32.9473C44.8618 32.9683 44.8971 32.9982 44.9342 33.0342C45.0087 33.1064 45.0975 33.2107 45.1969 33.3418C45.3962 33.6046 45.6463 33.983 45.9323 34.4443C46.5044 35.3675 47.2222 36.6318 47.9655 37.9971C49.452 40.7276 51.0418 43.8675 51.7701 45.5029H51.7711C52.8514 47.9484 53.1676 49.8802 53.1676 54.1113C53.1676 56.9049 52.6443 59.6011 52.1217 61.5977C51.8604 62.5961 51.599 63.4205 51.403 63.9951C51.305 64.2822 51.2229 64.5069 51.1656 64.6602C51.137 64.7368 51.1146 64.7963 51.0992 64.8359C51.0916 64.8555 51.0856 64.8708 51.0817 64.8809C51.0798 64.8854 51.0787 64.8891 51.0778 64.8916C51.0773 64.8928 51.0761 64.8939 51.0758 64.8945V64.8955C51.0748 64.8951 51.0675 64.8925 51.0143 64.8711L51.0768 64.8965L51.0699 64.9072V64.9082H51.069L51.068 64.9092C51.0672 64.9104 51.0666 64.9127 51.0651 64.915C51.062 64.9198 51.0573 64.9266 51.0514 64.9355C51.0395 64.9536 51.0223 64.98 51.0006 65.0127C50.9573 65.078 50.8962 65.169 50.8268 65.2725C50.6879 65.4795 50.5135 65.7369 50.3727 65.9346C47.893 69.4151 44.7952 72.0972 42.3815 73.3838L42.3795 73.3848C41.3621 73.8998 38.8271 74.8621 36.735 75.3115Z" fill="white" stroke="white" stroke-width="0.133333"/>
<path d="M145.633 32.876C146.077 32.876 146.355 32.7798 146.504 32.5811C146.655 32.3797 146.693 32.0501 146.597 31.5391V31.5381C146.469 30.741 146.169 30.2372 145.796 30.0508C145.431 29.8686 144.963 29.9756 144.458 30.4805C143.962 30.9767 143.89 31.574 144.117 32.0449C144.346 32.5171 144.883 32.8759 145.633 32.876Z" fill="white" stroke="white" stroke-width="0.133333"/>
<path d="M70.8893 44.6855C73.172 44.6855 74.971 44.6205 76.2623 44.4922C76.9078 44.428 77.4247 44.3483 77.8112 44.2529C78.2016 44.1566 78.4467 44.0471 78.5612 43.9326C78.6756 43.8181 78.7851 43.573 78.8815 43.1826C78.9768 42.7961 79.0566 42.2792 79.1207 41.6338C79.2491 40.3425 79.3141 38.5435 79.3141 36.2607V29.3799H77.7721C77.3814 29.3799 77.1088 29.3856 76.9049 29.4805C76.7097 29.5714 76.5675 29.7513 76.4615 30.1357C76.3551 30.5221 76.2892 31.1025 76.2379 31.9766C76.1867 32.8499 76.1504 34.0114 76.1022 35.5557L75.9088 41.8594L75.9069 41.9238H66.1315L66.1266 41.8623L65.9342 39.0957C65.886 38.4208 65.8291 37.898 65.7448 37.5039C65.66 37.1083 65.5488 36.8529 65.3981 36.7021C65.2515 36.5557 65.059 36.4996 64.7858 36.5254C64.5094 36.5516 64.1584 36.6612 63.7086 36.8379H63.7076C63.4322 36.9394 63.1998 37.2673 63.027 37.7627C62.8559 38.2533 62.7495 38.8897 62.7135 39.5771C62.6414 40.9542 62.85 42.5177 63.3571 43.5C63.5143 43.7668 63.6773 43.9686 63.9235 44.126C64.1719 44.2849 64.5116 44.4016 65.0299 44.4854C66.0687 44.6532 67.7994 44.6855 70.8893 44.6855Z" fill="white" stroke="white" stroke-width="0.133333"/>
<path d="M105.995 44.6367C109.766 44.6528 113.533 44.6252 116.421 44.5488C117.865 44.5106 119.088 44.4602 119.983 44.3975C120.43 44.3661 120.794 44.3314 121.062 44.2939C121.195 44.2752 121.304 44.2561 121.386 44.2363C121.471 44.2159 121.52 44.1971 121.541 44.1826V44.1816C121.577 44.1574 121.622 44.108 121.672 44.0273C121.721 43.948 121.771 43.8438 121.823 43.7168C121.927 43.4626 122.033 43.122 122.133 42.7178C122.308 42.0105 122.465 41.1121 122.566 40.1465L122.606 39.7285L122.92 35.7578L121.329 35.9414C120.52 36.0385 120.123 36.1499 119.908 36.5342C119.799 36.7309 119.733 37.0053 119.696 37.4004C119.66 37.7949 119.651 38.3033 119.651 38.9629C119.651 39.5902 119.639 40.0872 119.602 40.4824C119.564 40.877 119.501 41.1751 119.396 41.4023C119.289 41.6321 119.141 41.7879 118.938 41.8975C118.737 42.0055 118.487 42.0677 118.18 42.1162H118.179C117.841 42.1644 117.57 42.186 117.356 42.1455C117.136 42.1039 116.975 41.9964 116.864 41.793C116.757 41.5952 116.697 41.3096 116.664 40.916C116.631 40.5209 116.623 40.0078 116.623 39.3486C116.623 38.3854 116.558 37.6523 116.432 37.1621C116.368 36.9167 116.291 36.7376 116.202 36.6211C116.115 36.5065 116.021 36.4562 115.918 36.4561C115.129 36.4561 114.571 36.6916 114.177 37.1943C113.828 37.6386 113.601 38.2981 113.464 39.208L113.411 39.6133C113.347 40.4794 113.234 41.0575 112.998 41.4189C112.879 41.6024 112.728 41.7297 112.538 41.8105C112.35 41.8907 112.127 41.9238 111.865 41.9238C111.603 41.9238 111.379 41.8911 111.19 41.8018C110.998 41.7116 110.848 41.5662 110.73 41.3506C110.496 40.9255 110.384 40.2191 110.319 39.0957C110.271 38.4387 110.191 37.9134 110.074 37.5107C109.957 37.1071 109.805 36.8335 109.618 36.6729C109.435 36.5151 109.21 36.4603 108.931 36.5068C108.648 36.554 108.312 36.7049 107.913 36.96H107.914C107.831 37.0157 107.736 37.1288 107.639 37.2959C107.543 37.4614 107.448 37.6733 107.36 37.916C107.229 38.2799 107.116 38.7116 107.04 39.1602L106.979 39.6123C106.931 40.1416 106.886 40.5527 106.805 40.8721C106.724 41.1932 106.604 41.4295 106.401 41.6025C106.199 41.7744 105.921 41.878 105.54 41.9512C105.159 42.0243 104.665 42.068 104.023 42.1162H104.022L101.256 42.3096L101.185 42.3145V38.9629C101.185 38.191 101.177 37.6019 101.145 37.1553C101.113 36.707 101.057 36.4099 100.966 36.2168C100.921 36.1215 100.869 36.0534 100.808 36.0049C100.747 35.9565 100.675 35.9251 100.587 35.9072C100.407 35.8707 100.169 35.892 99.8458 35.9404L99.8429 35.9414C99.5417 35.9731 99.302 36.0318 99.1066 36.1357C98.9125 36.2389 98.758 36.3881 98.631 36.6074C98.406 36.9961 98.2679 37.6005 98.1505 38.5439L98.1017 38.9697C98.0214 39.6919 97.9604 40.2385 97.8741 40.6494C97.788 41.0599 97.6737 41.3479 97.4786 41.543C97.2823 41.739 97.0133 41.832 96.6407 41.8779C96.2689 41.9238 95.7811 41.9238 95.1398 41.9238H92.5021L92.5001 41.8594L92.3077 35.5557V35.5547C92.2433 32.6885 92.1786 31.1374 91.9796 30.3018C91.8805 29.8854 91.751 29.6608 91.5841 29.5371C91.4166 29.4131 91.1982 29.3799 90.8947 29.3799C90.5545 29.3799 90.2129 29.489 89.9327 29.6602C89.6518 29.8319 89.4385 30.0624 89.3488 30.3018C89.3274 30.3587 89.3062 30.4593 89.2863 30.6025C89.2666 30.7442 89.249 30.9236 89.2335 31.1357C89.2025 31.5601 89.1801 32.1135 89.1681 32.7559C89.144 34.0409 89.1605 35.6802 89.2247 37.3516V37.3525C89.289 39.6356 89.4011 41.2074 89.5851 42.2637C89.6771 42.7917 89.7866 43.188 89.9152 43.4785C90.0435 43.7684 90.1891 43.9486 90.3507 44.0518C90.3771 44.0679 90.4314 44.0876 90.5197 44.1084C90.6059 44.1287 90.7182 44.1493 90.8556 44.1689C91.1303 44.2083 91.5009 44.2454 91.9542 44.2803C92.8607 44.35 94.095 44.4097 95.547 44.46C98.4507 44.5604 102.225 44.6206 105.995 44.6367Z" fill="white" stroke="white" stroke-width="0.133333"/>
<path d="M70.6962 38.2531C71.4962 38.2531 72.2146 38.173 72.7313 38.0538C72.9899 37.9942 73.1952 37.9253 73.3339 37.8536C73.4031 37.8178 73.4529 37.7824 73.4843 37.7501C73.5157 37.7177 73.5243 37.6926 73.5243 37.6759C73.5242 37.602 73.4906 37.5302 73.4198 37.4611C73.348 37.3911 73.2403 37.326 73.1005 37.2716C72.8211 37.163 72.4273 37.0997 71.9823 37.0997C71.3703 37.0997 70.9465 37.0196 70.6776 36.7941C70.405 36.5653 70.3075 36.2015 70.3075 35.6818C70.3075 35.2282 70.388 34.8982 70.5936 34.7013C70.8016 34.5024 71.1186 34.4573 71.5428 34.5226H71.5448C71.8881 34.5849 72.1979 34.5537 72.4266 34.4698C72.6593 34.3845 72.7929 34.2519 72.8182 34.1251C72.8576 33.9281 72.7379 33.7578 72.4794 33.6241C72.2225 33.4915 71.849 33.4087 71.4403 33.3849C71.0322 33.3611 70.595 33.3967 70.2137 33.4972C69.8309 33.5981 69.513 33.7615 69.3329 33.9865L69.3319 33.9884L69.2616 34.0782C69.0952 34.305 68.9165 34.6573 68.7479 35.0646C68.6041 35.4121 68.4688 35.7956 68.3563 36.1681L68.2518 36.5353C68.1552 36.9701 68.0888 37.2917 68.0848 37.5333C68.081 37.7717 68.1388 37.9168 68.2753 38.0157C68.4198 38.1205 68.6639 38.1828 69.0614 38.2159C69.4561 38.2488 69.9879 38.2531 70.6962 38.2531Z" fill="white" stroke="white" stroke-width="0.133333"/>
<path d="M166.096 44.5568C167.315 44.6209 168.421 44.5885 169.293 44.4845C169.729 44.4325 170.105 44.3626 170.407 44.2784C170.635 44.2149 170.818 44.1441 170.952 44.0685L171.069 43.9913C171.814 43.4012 172.071 42.3859 171.864 41.1447C171.67 39.9815 171.07 38.6312 170.099 37.2794L169.899 37.0089C169.305 36.238 168.788 35.6214 168.338 35.1525C167.887 34.683 167.507 34.3647 167.187 34.1886C166.866 34.0126 166.615 33.9838 166.415 34.0714C166.212 34.1603 166.04 34.3774 165.897 34.7413L165.896 34.7443L165.861 34.8488C165.835 34.9621 165.834 35.1006 165.858 35.2609C165.89 35.4736 165.966 35.7196 166.081 35.9855C166.311 36.5171 166.694 37.1224 167.173 37.6974C167.817 38.4707 168.269 39.1196 168.517 39.6573C168.764 40.1935 168.816 40.6345 168.637 40.9796C168.458 41.3236 168.061 41.5486 167.472 41.6857C166.88 41.8232 166.077 41.8756 165.062 41.8595H165.061C164.273 41.8273 163.668 41.8113 163.206 41.8253C162.743 41.8394 162.431 41.8833 162.226 41.9669C162.124 42.0082 162.051 42.0584 161.998 42.1173C161.945 42.176 161.911 42.2467 161.89 42.3331C161.858 42.4656 161.859 42.6321 161.883 42.8429L161.913 43.0695C161.961 43.3725 162.024 43.5973 162.141 43.7716C162.256 43.9437 162.43 44.0738 162.714 44.1749C163 44.2766 163.393 44.3482 163.943 44.4064C164.493 44.4645 165.195 44.5085 166.096 44.5568Z" fill="white" stroke="white" stroke-width="0.133333"/>
<path d="M145.122 44.6851C148.951 44.6851 151.779 44.7018 153.87 44.6274C155.964 44.553 157.307 44.3874 158.171 44.0308C158.601 43.8532 158.91 43.6292 159.133 43.3472C159.356 43.065 159.497 42.7205 159.585 42.2964C159.762 41.4428 159.722 40.287 159.722 38.7056C159.722 37.8529 159.718 37.2073 159.691 36.7261C159.663 36.2423 159.614 35.9345 159.527 35.7505C159.485 35.6604 159.436 35.6046 159.38 35.5708C159.324 35.5371 159.256 35.5208 159.167 35.5239C158.984 35.5305 158.738 35.615 158.398 35.7446L158.395 35.7456L158.192 35.8208C157.738 36.0074 157.425 36.2757 157.194 36.7104C156.961 37.1502 156.809 37.7627 156.689 38.6411L156.639 39.0347C156.559 39.7251 156.494 40.2511 156.407 40.6499C156.321 41.048 156.211 41.3297 156.034 41.5239C155.855 41.7204 155.616 41.8191 155.289 41.8696C154.964 41.9198 154.544 41.9243 153.999 41.9243C153.469 41.9243 153.058 41.9159 152.735 41.8657C152.412 41.8153 152.17 41.7212 151.984 41.5435C151.798 41.3667 151.675 41.1143 151.574 40.7632C151.474 40.4123 151.392 39.9544 151.296 39.3608C151.168 38.6593 150.93 37.9406 150.643 37.3345C150.391 36.8024 150.104 36.3628 149.829 36.0952L149.712 35.9917C148.764 35.2975 147.464 35.0418 146.175 35.1851C144.885 35.3284 143.613 35.8702 142.725 36.7583C141.641 37.9067 141.204 38.9172 141.329 40.1128C141.377 40.5439 141.41 40.88 141.368 41.1382C141.347 41.2691 141.306 41.3835 141.235 41.4819C141.165 41.5806 141.067 41.66 140.939 41.7241C140.685 41.8508 140.304 41.9238 139.749 41.978C139.192 42.0325 138.451 42.0685 137.471 42.1167H137.47C136.394 42.1649 135.587 42.2053 134.983 42.1821C134.38 42.159 133.963 42.0726 133.68 41.854C133.394 41.6329 133.257 41.2869 133.186 40.7837C133.115 40.2815 133.107 39.6055 133.091 38.7085C133.059 38.0718 132.931 37.5853 132.698 37.2124C132.466 36.8416 132.126 36.5768 131.655 36.3882C131.299 36.2585 131.04 36.1741 130.848 36.1694C130.754 36.1672 130.681 36.1841 130.622 36.2202C130.563 36.2563 130.512 36.3158 130.468 36.4097C130.378 36.6017 130.325 36.9214 130.297 37.4233C130.269 37.9227 130.265 38.5922 130.265 39.4771C130.265 40.5032 130.346 41.5129 130.482 42.3208C130.55 42.7247 130.631 43.0769 130.723 43.355C130.816 43.6357 130.917 43.8322 131.018 43.9331C131.079 43.9942 131.192 44.0561 131.372 44.1157C131.551 44.1749 131.788 44.2293 132.089 44.2788C132.69 44.3777 133.54 44.4559 134.673 44.5161C136.939 44.6366 140.33 44.6851 145.122 44.6851ZM148.128 41.3257C147.403 42.051 146.443 42.2177 145.663 41.9438C144.882 41.6695 144.283 40.9537 144.283 39.9272C144.283 38.7076 144.996 37.939 145.889 37.7554C146.779 37.5723 147.835 37.9735 148.524 39.0552L148.525 39.0581C148.784 39.5114 148.907 39.8667 148.847 40.2202C148.787 40.5718 148.547 40.9063 148.128 41.3257Z" fill="white" stroke="white" stroke-width="0.133333"/>
<path d="M80.0233 50.475C80.9021 50.475 82.0618 49.938 83.1112 49.1449C84.0936 48.4024 84.9664 47.4452 85.411 46.5189L85.494 46.3344C85.7478 45.7317 85.972 44.7092 86.1327 43.5443C86.2931 42.3812 86.3895 41.0815 86.3895 39.9271C86.3895 39.027 86.3814 38.3171 86.3534 37.7582C86.3253 37.1984 86.2776 36.7937 86.1991 36.5033C86.1207 36.2134 86.0138 36.0456 85.8749 35.9476C85.7351 35.8491 85.5512 35.8129 85.2987 35.8129C84.983 35.8129 84.6345 35.86 84.3427 35.9388C84.1968 35.9783 84.0663 36.0257 83.9618 36.0775C83.8561 36.1299 83.7831 36.1847 83.744 36.2367L83.7382 36.2445L83.7303 36.2504L83.7001 36.2885C83.688 36.3088 83.6738 36.3373 83.6591 36.3763C83.6308 36.4509 83.6029 36.5525 83.576 36.6781C83.5226 36.9288 83.4745 37.2696 83.4344 37.6742C83.3543 38.4837 83.3065 39.5433 83.3065 40.6351C83.3065 42.3712 83.2425 43.4579 83.0145 44.264C82.8137 44.9738 82.4863 45.4638 81.9735 45.9877L81.7421 46.2152C80.8808 47.0446 80.1954 48.1301 79.8612 49.0052C79.6936 49.4443 79.6169 49.8227 79.6454 50.0863C79.6596 50.2172 79.6991 50.3135 79.7587 50.3763C79.8168 50.4376 79.9015 50.4749 80.0233 50.475Z" fill="white" stroke="white" stroke-width="0.133333"/>
<path d="M98.4042 50.2548C98.6138 50.4063 98.9593 50.4434 99.5028 50.3475L99.5048 50.3466C99.9447 50.2837 100.283 50.128 100.512 49.8925C100.739 49.6576 100.863 49.3371 100.863 48.9335C100.863 48.3199 100.48 47.8259 99.9921 47.5858C99.5038 47.3456 98.9249 47.3659 98.5321 47.7587C98.4169 47.8742 98.3082 48.1164 98.2284 48.4198C98.1494 48.7201 98.1014 49.0681 98.1014 49.3837C98.1015 49.8282 98.198 50.1054 98.4042 50.2548Z" fill="white" stroke="white" stroke-width="0.133333"/>
<path d="M154.771 50.475C155.215 50.475 155.493 50.3788 155.642 50.1801C155.793 49.9787 155.831 49.6491 155.735 49.1381V49.1371C155.607 48.34 155.307 47.8362 154.934 47.6498C154.569 47.4676 154.101 47.5746 153.596 48.0795C153.1 48.5757 153.027 49.173 153.255 49.6439C153.484 50.1161 154.021 50.4749 154.771 50.475Z" fill="white" stroke="white" stroke-width="0.133333"/>
<path d="M159.21 50.475C159.688 50.4749 159.982 50.3778 160.139 50.1781C160.296 49.9771 160.333 49.6489 160.237 49.1381V49.1361C160.112 48.2913 159.566 47.7184 158.988 47.5336C158.7 47.4413 158.405 47.446 158.15 47.559C157.928 47.6575 157.73 47.8402 157.591 48.1224L157.535 48.2504C157.283 48.9115 157.335 49.4639 157.623 49.85C157.912 50.2373 158.45 50.475 159.21 50.475Z" fill="white" stroke="white" stroke-width="0.133333"/>
<path d="M108.15 72.952C110.376 74.3431 113.13 74.4059 115.328 73.5624C117.526 72.7184 119.153 70.9754 119.153 68.7665C119.153 67.3772 118.767 66.3044 117.878 65.4384C116.986 64.569 115.58 63.9021 113.525 63.3417L113.524 63.3407C112.493 63.0439 111.651 62.7425 110.998 62.4354C110.345 62.1288 109.875 61.8143 109.593 61.4882C109.309 61.1593 109.213 60.8141 109.321 60.4589C109.427 60.1099 109.725 59.7639 110.197 59.4178L110.198 59.4169C110.871 58.9363 111.841 58.7799 112.811 58.9139C113.782 59.0482 114.763 59.4746 115.461 60.1727C115.767 60.478 116.049 60.6395 116.387 60.6688C116.729 60.6984 117.137 60.5946 117.695 60.3466V60.3475C117.99 60.2078 118.215 60.0847 118.38 59.9647C118.546 59.8449 118.646 59.7304 118.698 59.6093C118.801 59.3679 118.724 59.0669 118.473 58.5653C118.292 58.2351 117.946 57.8837 117.491 57.5419C117.035 57.2002 116.474 56.8708 115.869 56.5839C114.657 56.0091 113.279 55.6083 112.232 55.6083C111.838 55.6084 111.255 55.7454 110.633 55.9706C110.013 56.1953 109.363 56.5047 108.837 56.8446L108.836 56.8456L108.632 56.9764C106.564 58.3493 105.78 60.6164 106.556 62.9442C106.77 63.5845 107.103 64.0401 107.777 64.4686C108.286 64.7924 108.988 65.1005 109.978 65.4579L111.068 65.8339C112.223 66.2087 113.182 66.5799 113.94 66.9491C114.697 67.3179 115.259 67.6869 115.618 68.0575C115.977 68.4287 116.139 68.8095 116.079 69.1971C116.018 69.5815 115.741 69.9542 115.267 70.3173L115.266 70.3182L115.093 70.4384C114.228 71.0143 113.32 71.2456 112.389 71.1415C111.521 71.0443 110.639 70.6557 109.759 69.9921L109.382 69.6913C108.993 69.3641 108.679 69.1165 108.413 68.9403C108.146 68.7641 107.93 68.6624 107.735 68.6219C107.353 68.5426 107.031 68.6966 106.533 69.0702L106.532 69.0712L106.4 69.1688C106.107 69.3994 105.915 69.6386 105.817 69.8846C105.706 70.1637 105.715 70.4598 105.845 70.7772C106.11 71.4189 106.872 72.143 108.149 72.953L108.15 72.952Z" fill="white" stroke="white" stroke-width="0.133333"/>
<path d="M169.19 74.1904H170.879L168.385 70.1758L165.765 66.1211L165.735 66.0762L165.773 66.0381L168.081 63.667C168.736 62.9968 169.233 62.4646 169.58 62.043C169.93 61.6185 170.119 61.3149 170.17 61.1016C170.195 60.998 170.184 60.9226 170.151 60.8652C170.118 60.8068 170.053 60.7551 169.947 60.7139C169.732 60.6303 169.378 60.5987 168.878 60.5986C168.43 60.5986 167.866 60.8238 167.231 61.25C166.597 61.6751 165.898 62.296 165.183 63.0732C164.558 63.7599 163.95 64.3845 163.473 64.8379C163.234 65.0645 163.028 65.2496 162.869 65.3779C162.79 65.442 162.721 65.493 162.665 65.5283C162.637 65.546 162.611 65.5609 162.588 65.5713C162.577 65.5761 162.565 65.5805 162.553 65.584L162.515 65.5898C162.468 65.5898 162.439 65.556 162.425 65.5342C162.409 65.5098 162.396 65.478 162.386 65.4434C162.365 65.373 162.347 65.2726 162.332 65.1484C162.302 64.8987 162.28 64.539 162.269 64.0977C162.245 63.2145 162.261 61.9965 162.323 60.6543C162.37 59.547 162.397 58.6943 162.393 58.0352C162.389 57.3752 162.354 56.9136 162.277 56.5859C162.202 56.2599 162.087 56.074 161.929 55.9561C161.768 55.836 161.552 55.7791 161.256 55.7324L161.255 55.7314C160.919 55.6704 160.568 55.6711 160.271 55.7168C159.97 55.7631 159.738 55.8538 159.629 55.9629V55.9639C159.628 55.9646 159.627 55.9654 159.626 55.9668C159.624 55.9698 159.622 55.9747 159.619 55.9805C159.613 55.9922 159.607 56.0082 159.6 56.0293C159.586 56.0715 159.572 56.1297 159.558 56.2031C159.529 56.3496 159.501 56.5523 159.475 56.8057C159.422 57.3126 159.376 58.0169 159.337 58.8662C159.259 60.5649 159.212 62.8412 159.212 65.2734V74.1201L160.821 73.9424V73.9414C161.575 73.8472 161.963 73.7386 162.178 73.417C162.286 73.254 162.355 73.0293 162.396 72.709C162.436 72.389 162.447 71.9791 162.447 71.4492V71.4482C162.463 70.604 162.546 69.9642 162.693 69.5332C162.84 69.1056 163.062 68.8564 163.372 68.8564C163.522 68.8564 163.682 68.9161 163.85 69.0254C164.017 69.1349 164.198 69.2968 164.389 69.5098C164.772 69.9359 165.206 70.5731 165.691 71.417C166.377 72.571 166.871 73.2614 167.383 73.666C167.889 74.0666 168.418 74.1904 169.19 74.1904Z" fill="white" stroke="white" stroke-width="0.133333"/>
<path d="M68.9982 73.6287C71.836 73.5663 73.6791 73.3166 75.0294 72.6531C76.3754 71.9916 77.2401 70.9143 78.1105 69.1736L78.1115 69.1726C80.2161 65.0866 78.9171 60.2579 74.9523 57.656L74.9513 57.655C74.0834 57.0661 73.3424 56.712 72.3546 56.5037C71.3639 56.2947 70.1223 56.2322 68.2511 56.2322H63.7023L63.8888 65.0222L64.0743 73.7527L68.9982 73.6287ZM67.3741 59.0203L67.4493 59.031L70.0695 59.406C71.8898 59.6571 73.2177 60.2863 74.1671 61.4255L74.1661 61.4265C75.144 62.5317 75.6329 64.0124 75.6329 65.4451C75.6329 66.8782 75.1447 68.2702 74.1613 69.1902H74.1603C73.7781 69.5405 73.1313 69.9181 72.3956 70.239C71.6587 70.5604 70.8265 70.828 70.0714 70.9539L67.4513 71.3904L67.3741 71.4031V59.0203Z" fill="white" stroke="white" stroke-width="0.133333"/>
<path d="M82.953 72.9574C83.9964 73.7859 85.5846 74.143 87.1649 74.0424C88.745 73.9417 90.3027 73.3838 91.286 72.4008L91.288 72.3998C91.6001 72.1032 91.8318 71.875 91.9872 71.6937C92.0647 71.6033 92.1218 71.526 92.16 71.4594C92.1983 71.3927 92.2156 71.3399 92.2186 71.2972C92.2238 71.2217 92.1839 71.1526 92.0536 71.0746C91.988 71.0353 91.9042 70.997 91.8016 70.9564L91.4374 70.8265L91.4335 70.8256C91.1364 70.7067 90.6503 70.6736 90.1073 70.7201C89.5667 70.7664 88.9799 70.8908 88.4872 71.0756H88.4862C87.7057 71.3876 87.1486 71.5325 86.6346 71.5004C86.1188 71.468 85.6549 71.2583 85.0594 70.8822L85.0575 70.8812C84.3863 70.4285 83.933 70.0402 83.7089 69.7133C83.5966 69.5494 83.5367 69.3932 83.5438 69.2474C83.5511 69.0987 83.6273 68.973 83.7596 68.8705C83.8905 68.7692 84.0791 68.6883 84.3192 68.6244C84.5601 68.5603 84.8578 68.5112 85.2118 68.4779C85.9199 68.4112 86.8593 68.4037 88.0302 68.4506H88.0311C89.1233 68.513 89.9403 68.56 90.5526 68.5687C91.1665 68.5775 91.5658 68.548 91.827 68.4623C91.9558 68.42 92.0486 68.3646 92.1161 68.2963C92.1835 68.2279 92.2299 68.142 92.2616 68.0336C92.3265 67.812 92.327 67.5076 92.327 67.0824C92.327 64.4252 90.8912 62.326 88.9784 61.3002C87.0662 60.2747 84.6784 60.3219 82.7675 61.9554H82.7684C81.1957 63.3123 80.4368 65.428 80.4755 67.5258C80.5142 69.6236 81.3501 71.6925 82.953 72.9564V72.9574ZM86.5302 66.2133C85.7486 66.2133 85.1271 66.1703 84.6688 66.0824C84.4399 66.0385 84.2491 65.9827 84.0985 65.9144C83.9485 65.8463 83.8333 65.7641 83.7616 65.6635C83.6884 65.5605 83.6639 65.4429 83.6864 65.3158C83.7084 65.1913 83.775 65.0598 83.8798 64.9222C84.0892 64.6473 84.4635 64.3307 84.995 63.9711C85.5856 63.567 85.9894 63.3371 86.3837 63.3041C86.7323 63.275 87.0635 63.4004 87.4969 63.6625L87.6893 63.7826L87.6923 63.7845C88.0382 64.0362 88.3843 64.3349 88.66 64.6185C88.7978 64.7603 88.9187 64.899 89.0135 65.0267C89.1077 65.1536 89.1793 65.2739 89.2137 65.3773L89.2147 65.3822C89.2517 65.5304 89.2129 65.6633 89.1034 65.7728C88.998 65.8781 88.8295 65.9603 88.6073 66.0238C88.1612 66.1513 87.4669 66.2133 86.5302 66.2133Z" fill="white" stroke="white" stroke-width="0.133333"/>
<path d="M97.573 73.5664C98.3872 73.5821 98.9845 73.6013 99.4617 73.5264C99.9334 73.4523 100.284 73.2871 100.603 72.9336C100.926 72.5763 101.221 72.0238 101.572 71.1689C101.923 70.3153 102.328 69.1672 102.874 67.623V67.6221C103.435 66.0004 103.934 64.5038 104.277 63.3975C104.448 62.8446 104.58 62.3901 104.662 62.0664C104.703 61.9043 104.73 61.7757 104.744 61.6855C104.751 61.6407 104.754 61.6075 104.754 61.585C104.754 61.5794 104.753 61.5746 104.753 61.5713C104.726 61.5492 104.673 61.5161 104.589 61.4756C104.497 61.4318 104.379 61.3814 104.239 61.3271C104.099 61.2729 103.94 61.2145 103.769 61.1543L103.228 60.9697C102.934 60.8768 102.712 60.8395 102.521 60.8906C102.334 60.941 102.163 61.0814 101.98 61.3779C101.797 61.6755 101.607 62.1221 101.382 62.7705C101.269 63.0943 101.148 63.4679 101.013 63.8965L100.568 65.3555L99.1335 70.2207L99.072 70.4287L99.0056 70.2227L97.5085 65.5439C96.8528 63.5143 96.4182 62.3534 95.9949 61.6914C95.7844 61.3623 95.5795 61.1608 95.3552 61.0371C95.1308 60.9134 94.8807 60.864 94.574 60.8486H94.573C94.1722 60.8178 93.7706 60.8326 93.447 60.8711C93.2852 60.8904 93.1437 60.9159 93.032 60.9434C92.9229 60.9702 92.8494 60.9989 92.8113 61.0225C92.7855 61.0527 92.7651 61.111 92.7625 61.207C92.7598 61.3063 92.776 61.4324 92.8103 61.5771C92.8789 61.8667 93.0161 62.2207 93.2009 62.5596C93.391 62.9081 93.7367 63.7865 94.1492 64.8994C94.5626 66.015 95.0456 67.3727 95.5134 68.6826L95.5144 68.6836C95.9506 70.0235 96.4019 71.2541 96.783 72.1484C96.9736 72.5959 97.1465 72.958 97.2898 73.207C97.3616 73.3318 97.4251 73.4263 97.4783 73.4883C97.5047 73.519 97.5267 73.54 97.5447 73.5527L97.572 73.5664H97.573Z" fill="white" stroke="white" stroke-width="0.133333"/>
<path d="M123.399 77.9336C123.758 77.9336 124.028 77.9214 124.228 77.8701C124.424 77.8199 124.549 77.7338 124.627 77.5869C124.709 77.4345 124.745 77.2079 124.745 76.8682C124.744 76.53 124.705 76.0887 124.643 75.5117V75.5107C124.596 74.9959 124.569 74.5843 124.567 74.2617C124.565 73.9408 124.587 73.7005 124.646 73.5332C124.675 73.4487 124.716 73.3792 124.769 73.3271C124.822 73.2746 124.887 73.2425 124.96 73.2285C125.067 73.2082 125.192 73.226 125.334 73.2695L125.482 73.3213L125.486 73.3232C126.913 73.975 128.132 74.2201 129.231 74.0742C130.191 73.9466 131.066 73.5189 131.912 72.792L132.274 72.4619C133.082 71.6532 133.541 71.0691 133.801 70.3506C134.062 69.6297 134.125 68.7671 134.125 67.3945C134.125 66.0222 134.062 65.1595 133.809 64.4463C133.557 63.7356 133.114 63.167 132.336 62.3896C131.313 61.3973 130.311 60.8302 129.309 60.6924C128.371 60.5635 127.422 60.8092 126.442 61.4512L126.245 61.585L126.244 61.5859L125.967 61.7598C125.697 61.9187 125.452 62.0313 125.257 62.0859C125.13 62.1218 125.014 62.1355 124.926 62.1123C124.881 62.1003 124.839 62.0777 124.81 62.04C124.78 62.0022 124.767 61.9554 124.767 61.9053C124.767 61.8628 124.739 61.8036 124.663 61.7305C124.59 61.6594 124.482 61.5844 124.347 61.5088C124.078 61.3579 123.712 61.2108 123.332 61.0947C122.953 60.9787 122.564 60.8949 122.248 60.8662C122.091 60.8519 121.954 60.8515 121.847 60.8672C121.737 60.8833 121.672 60.9144 121.641 60.9502L121.64 60.9512C121.638 60.956 121.636 60.9637 121.633 60.9756C121.627 61.0049 121.621 61.0497 121.616 61.1094C121.604 61.2281 121.594 61.4006 121.586 61.6221C121.571 62.0654 121.563 62.7009 121.563 63.4805C121.563 65.0392 121.594 67.175 121.657 69.5137V69.5146L121.843 77.9336H123.399ZM129.231 71.0098C128.153 71.5487 127.129 71.5048 126.341 70.9824C125.605 70.4939 125.087 69.5948 124.921 68.3936L124.892 68.1494C124.735 66.7377 124.939 65.5973 125.465 64.8076C125.994 64.0146 126.843 63.585 127.953 63.585C129.155 63.585 130.055 64.0285 130.507 64.8672V64.8682C131.077 65.9442 131.203 67.2547 130.966 68.4062C130.73 69.5563 130.129 70.5606 129.231 71.0098Z" fill="white" stroke="white" stroke-width="0.133333"/>
<path d="M140.053 74.1667C140.59 74.2092 141.116 74.1845 141.568 74.0876C142.02 73.9906 142.392 73.8225 142.629 73.5857C143.095 73.1198 143.88 73.0697 145.008 73.5085H145.009C145.473 73.6942 145.888 73.8014 146.192 73.8318C146.344 73.847 146.464 73.8427 146.547 73.822C146.626 73.8023 146.654 73.7721 146.663 73.7468C146.663 73.5206 146.664 72.1231 146.638 70.3025L146.602 68.3318C146.571 66.0831 146.524 64.8123 146.308 63.9402C146.094 63.0774 145.714 62.605 145.002 61.9548C143.403 60.5406 141.123 60.2896 138.77 61.2185C138.405 61.371 137.99 61.647 137.62 61.9783C137.25 62.3101 136.929 62.6931 136.746 63.0574L136.745 63.0603C136.5 63.5052 136.438 63.8614 136.504 64.1238C136.569 64.3818 136.763 64.5637 137.066 64.656C137.371 64.7488 137.783 64.7489 138.269 64.6384C138.754 64.5281 139.309 64.3094 139.897 63.9695V63.9685C140.333 63.7038 140.671 63.5031 140.951 63.3689C141.23 63.2348 141.457 63.1638 141.67 63.1638C141.886 63.1638 142.08 63.2368 142.292 63.3738C142.503 63.5097 142.737 63.7119 143.033 63.9763L143.034 63.9773C143.47 64.3824 143.788 64.7111 143.961 64.9812C144.048 65.1164 144.103 65.2424 144.115 65.3601C144.127 65.4811 144.093 65.5896 144.013 65.6833C143.935 65.7746 143.816 65.8499 143.66 65.9138C143.503 65.978 143.304 66.0331 143.063 66.0828C142.58 66.182 141.918 66.2606 141.06 66.3386H141.059C140.221 66.4319 139.352 66.6019 138.623 66.8035C138.259 66.9044 137.93 67.0129 137.658 67.1228C137.453 67.2056 137.283 67.289 137.155 67.3689L137.04 67.447C136.727 67.7009 136.495 68.1042 136.346 68.5925C136.197 69.0804 136.134 69.6484 136.154 70.2234C136.192 71.377 136.564 72.5408 137.231 73.1472C137.87 73.726 138.977 74.0815 140.053 74.1667ZM143.14 70.8699C142.477 71.4144 141.57 71.7996 140.796 71.7029C140.016 71.6053 139.468 71.0048 139.275 70.3376C139.082 69.6717 139.24 68.921 139.893 68.5261V68.5251C140.17 68.3299 140.547 68.2065 140.958 68.1433C141.37 68.08 141.82 68.0765 142.246 68.1238C142.672 68.1711 143.078 68.2699 143.398 68.4138C143.715 68.5564 143.962 68.7497 144.049 68.9939V68.9958C144.15 69.2997 144.085 69.6345 143.916 69.9568C143.747 70.2795 143.472 70.5968 143.14 70.8699Z" fill="white" stroke="white" stroke-width="0.133333"/>
<path d="M152.84 69.8898C152.84 67.612 153.058 66.038 153.573 65.0323C153.831 64.5276 154.166 64.1644 154.585 63.9279C155.004 63.6918 155.504 63.5851 156.088 63.5851C156.514 63.5851 156.786 63.4788 156.956 63.2531C157.129 63.0219 157.208 62.6508 157.208 62.0919C157.208 61.6443 157.145 61.3047 157.027 61.0685C156.91 60.8358 156.74 60.7028 156.513 60.6603C156.282 60.6169 155.984 60.666 155.616 60.8195C155.248 60.9727 154.815 61.2272 154.319 61.5841L154.317 61.5861L154.04 61.7599C153.77 61.9187 153.525 62.0314 153.331 62.0861C153.203 62.122 153.087 62.1355 153 62.1124C152.954 62.1004 152.912 62.0771 152.882 62.0392C152.853 62.0013 152.84 61.9545 152.84 61.9044C152.84 61.7115 152.674 61.5292 152.375 61.3771C152.08 61.2277 151.681 61.1205 151.269 61.0665C150.857 61.0126 150.436 61.0126 150.103 61.0753C149.936 61.1067 149.794 61.1532 149.686 61.214C149.578 61.2748 149.508 61.3476 149.476 61.4298L149.475 61.4318L149.446 61.5304C149.436 61.5736 149.426 61.6274 149.417 61.6915C149.4 61.8175 149.385 61.9786 149.373 62.171C149.347 62.5563 149.332 63.0642 149.325 63.6603C149.317 64.2564 149.317 64.9402 149.323 65.6779L149.355 68.0167L149.541 73.7609L151.23 73.9406V73.9415L152.84 74.1202V69.8898Z" fill="white" stroke="white" stroke-width="0.133333"/>
</svg>
