<svg width="203" height="152" viewBox="0 0 203 152" fill="none" xmlns="http://www.w3.org/2000/svg">
<path opacity="0.2" d="M155.839 68.8772C156.134 61.6039 151.493 54.2663 141.9 48.7263C123.358 38.0224 93.2917 38.024 74.8758 48.7263C65.6951 54.0612 61.1157 61.065 61.1263 68.0728C61.1263 68.0509 61.1238 68.028 61.1238 68.0044L61.0945 78.5146C61.0742 85.59 65.7325 92.6752 75.0622 98.063C93.5995 108.766 123.666 108.763 142.084 98.0581C151.234 92.7428 155.815 85.7651 155.836 78.7816L155.864 68.2714C155.863 68.4717 155.846 68.6736 155.839 68.8772Z" fill="#0E304C"/>
<path opacity="0.2" d="M160.591 73.1292C161.961 72.9892 170.119 73.7317 177.673 72.1002C185.228 70.4703 199.048 67.9808 197.331 70.6421C195.614 73.3026 195.1 76.6494 185.485 75.6188C175.87 74.5897 165.313 79.2237 159.132 79.8245C152.95 80.4277 152.263 73.9889 160.591 73.1292Z" fill="#0E304C"/>
<path d="M157.738 74.3936L159.71 75.4666L159.802 73.7537L157.738 74.3936Z" fill="#0E304C"/>
<path d="M155.601 69.6896L151.328 72.7808C151.328 72.7808 149.172 74.2657 148.39 74.6557C148.036 74.8291 147.773 75.241 147.726 75.6513C147.694 75.9118 147.754 76.1732 147.932 76.3718C148.384 76.8774 149.35 77.3023 150.153 77.5132C152.53 78.1384 155.052 76.8245 155.052 76.8245C155.467 76.6006 158.272 75.053 158.482 74.9072C159.07 74.5002 159.593 74.3536 159.782 74.6524C159.782 74.6524 159.719 75.3631 159.712 75.4665L162.072 74.0769C162.072 74.0769 162.263 73.2774 162.289 72.7987L162.462 69.6326L155.601 69.6896Z" fill="#0E304C"/>
<path d="M147.717 75.7539C148.17 76.4964 149.395 76.927 150.19 77.1655C152.98 78.0065 155.141 76.498 155.141 76.498C155.943 76.0763 158.191 74.8527 158.415 74.7477C158.415 74.7477 159.723 73.9099 159.751 74.6109C159.759 74.7305 159.775 74.7542 159.767 74.8893C159.763 74.8209 159.721 74.7672 159.714 74.7363C159.585 74.269 158.268 75.0986 158.268 75.0986C158.078 75.2622 155.516 76.752 155.102 76.9767C155.102 76.9767 152.701 78.5618 150.057 77.6809C149.271 77.4204 148.276 77.0736 147.824 76.3328C147.7 76.1292 147.695 75.7173 147.717 75.7539Z" fill="#0E304C"/>
<path d="M159.752 74.6109C159.752 74.6109 160.866 74.0891 161.243 73.9303C162.126 73.5566 162.245 73.2579 162.245 73.2579C162.245 73.2579 162.127 74.1591 162.091 74.1453C162.091 74.1453 162.05 74.3968 161.543 74.6525C161.083 74.8861 159.708 75.4666 159.708 75.4666L159.752 74.6109Z" fill="#0E304C"/>
<path d="M166.81 35.0395C166.81 35.0395 151.663 49.8254 152.081 54.1548C152.519 58.6805 153.995 70.1968 153.995 70.1968C153.759 71.1558 154.213 71.777 156.315 72.4023C160.683 73.7016 162.054 71.8633 162.054 71.8633C162.447 71.488 162.979 71.3008 163.102 70.9743C163.102 70.9743 161.115 56.9456 161.718 55.0308C162.032 54.0278 169.748 45.4202 172.667 42.0352C176.582 37.4957 174.379 31.0781 174.379 31.0781L166.81 35.0395Z" fill="#0E304C"/>
<path d="M97.3785 38.58L97.3492 49.0902C96.6067 49.2107 95.8643 49.3385 95.1275 49.481L95.1568 38.9708C95.8952 38.8284 96.6377 38.6997 97.3785 38.58Z" fill="#517491"/>
<path d="M130.491 41.0288L130.461 51.5423C120.339 48.1523 108.359 47.335 97.3582 49.0902L97.3891 38.58C108.389 36.8248 120.369 37.6405 130.491 41.0288Z" fill="#517491"/>
<path d="M102.1 44.834L102.072 55.3458L92.782 49.9808L92.8114 39.4707L102.1 44.834Z" fill="#1C5275"/>
<path d="M137.711 44.1469L137.682 54.6587C128.626 53.4245 118.721 53.913 109.465 56.0818L109.496 45.57C118.751 43.4012 128.655 42.9127 137.711 44.1469Z" fill="#517491"/>
<path d="M78.4546 44.9675C74.2302 47.4245 71.0885 50.2674 69.0093 53.3024L68.9792 63.8142C71.0592 60.7768 74.2 57.9355 78.4253 55.4793C82.6497 53.0256 87.5466 51.1955 92.7821 49.9808L92.8114 39.4707C87.5767 40.6837 82.6798 42.5138 78.4546 44.9675Z" fill="#517491"/>
<path d="M140.258 46.2221L125.488 54.8053L125.459 65.3154L140.228 56.7339C140.824 58.4175 141.119 60.1507 141.114 61.9002L141.143 51.3885C141.148 49.6389 140.854 47.9073 140.258 46.2221Z" fill="#517491"/>
<path d="M119.372 54.8053L119.343 65.3154L105.27 57.1906L105.297 46.678L119.372 54.8053Z" fill="#1C5275"/>
<path d="M105.297 46.678L105.27 57.1898C100.431 58.6291 95.8374 60.5415 91.7294 62.9284C87.4716 65.4025 84.0963 68.1754 81.6027 71.1013L81.6336 60.5895C84.124 57.6652 87.5009 54.8908 91.7587 52.4167C95.8666 50.0305 100.461 48.1174 105.297 46.678Z" fill="#517491"/>
<path d="M76.4478 61.1285L76.4185 71.6411L67.4584 66.4682L67.4885 55.9565L76.4478 61.1285Z" fill="#1C5275"/>
<path d="M152.035 62.7298L152.005 73.2416C152.019 68.5637 149.783 63.8826 145.296 59.7917L145.327 49.2799C149.813 53.3708 152.048 58.0535 152.035 62.7298Z" fill="#517491"/>
<path d="M67.4885 55.9565L67.4592 66.4682C66.457 68.602 65.9531 70.8009 65.9474 72.9998L65.9767 62.488C65.9824 60.2891 66.4871 58.0902 67.4885 55.9565Z" fill="#517491"/>
<path d="M145.453 51.3884L145.423 61.9002C145.411 66.0229 143.89 70.2302 140.873 74.2153L140.902 63.7035C143.92 59.7184 145.441 55.5111 145.453 51.3884Z" fill="#517491"/>
<path d="M135.696 64.2294L135.667 74.7412L122.411 67.0885L122.441 56.5768L135.696 64.2294Z" fill="#1C5275"/>
<path d="M122.441 56.5768L122.411 67.0885L98.6095 80.9202L98.6388 70.4101L122.441 56.5768Z" fill="#517491"/>
<path d="M92.5207 70.4101L92.4914 80.9202L79.7392 73.5583L79.7693 63.0465L92.5207 70.4101Z" fill="#1C5275"/>
<path d="M149.005 71.9138L148.976 82.4247L138.862 76.5859L138.893 66.0758L149.005 71.9138Z" fill="#1C5275"/>
<path d="M79.7693 63.0465L79.74 73.5583C77.5493 76.8497 76.4396 80.273 76.4307 83.6296L76.4608 73.1178C76.4706 69.7612 77.5778 66.3379 79.7693 63.0465Z" fill="#517491"/>
<path d="M72.3088 75.5838L72.2795 86.0956C72.1606 85.2798 72.1004 84.4592 72.1036 83.6345L72.1313 73.1243C72.1297 73.9482 72.1891 74.7696 72.3088 75.5838Z" fill="#517491"/>
<path d="M107.522 79.0706L107.493 89.5816L95.5598 82.6918L95.5891 72.1816L107.522 79.0706Z" fill="#1C5275"/>
<path d="M138.893 66.0758L138.863 76.5859C136.28 79.3637 132.963 81.9965 128.873 84.3737C124.639 86.8347 119.918 88.8212 114.943 90.3493L114.972 79.8391C119.947 78.3094 124.669 76.3238 128.902 73.8619C132.992 71.4863 136.31 68.8535 138.893 66.0758Z" fill="#517491"/>
<path d="M95.5891 72.1816L95.5598 82.6918L81.2054 91.0332L81.2356 80.523L95.5891 72.1816Z" fill="#517491"/>
<path d="M110.848 80.9903L110.819 91.5021C102.551 93.5561 93.7476 94.3734 85.3159 93.9175L85.3452 83.4057C93.7777 83.8616 102.58 83.0443 110.848 80.9903Z" fill="#517491"/>
<path d="M120.626 86.6353L120.596 97.1471L110.819 91.5021L110.848 80.9903L120.626 86.6353Z" fill="#1C5275"/>
<path d="M156.376 62.7396L156.347 73.2497C156.327 80.2348 151.746 87.2101 142.595 92.5279C124.177 103.232 94.1107 103.233 75.5734 92.5311C66.2445 87.1458 61.5854 80.0589 61.6049 72.9827L61.6342 62.4725C61.6139 69.5463 66.2731 76.6324 75.6044 82.0193C94.1425 92.7232 124.208 92.7208 142.624 82.016C151.775 76.6999 156.357 69.7246 156.376 62.7396Z" fill="#517491"/>
<path d="M142.411 43.1961C160.949 53.8975 161.042 71.3129 142.625 82.016C124.209 92.7199 94.1424 92.7232 75.6052 82.0193C57.0622 71.3154 56.9686 53.8992 75.387 43.1961C93.803 32.4938 123.869 32.4905 142.411 43.1961ZM95.5704 68.637L119.372 54.8053L105.297 46.6788C100.462 48.1181 95.8667 50.0305 91.7587 52.4174C87.5017 54.8915 84.124 57.666 81.6337 60.5903L95.5704 68.637ZM122.441 56.5767L98.6396 70.4101L111.757 77.9821C116.8 76.5306 121.576 74.5653 125.833 72.0896C129.942 69.7042 133.232 67.038 135.696 64.2302L122.441 56.5767ZM85.3452 83.4057C95.8936 87.4429 108.83 88.5159 120.626 86.6353L110.848 80.9903C102.58 83.0443 93.7777 83.8616 85.3452 83.4057ZM114.971 79.8391L125.204 85.7447C130.44 84.5316 135.334 82.6983 139.556 80.2445C143.777 77.7908 146.925 74.9496 149.005 71.9137L138.892 66.0749C136.309 68.8527 132.992 71.4855 128.901 73.8611C124.668 76.323 119.946 78.3094 114.971 79.8391ZM150.526 69.2606C153.654 62.5841 151.921 55.2921 145.327 49.2799C145.919 54.0644 144.437 59.0362 140.902 63.7035L150.526 69.2606ZM78.4546 44.9675C74.2301 47.4245 71.0885 50.2674 69.0093 53.3024L78.4179 58.7341C81.0418 55.8481 84.4545 53.107 88.6879 50.6451C92.778 48.2679 97.3126 46.3377 102.1 44.8332L92.8114 39.4699C87.5767 40.6837 82.6798 42.5138 78.4546 44.9675ZM67.4885 55.9564C64.4169 62.4994 66.0255 69.6407 72.3088 75.5837C71.6079 70.7992 73.0106 65.8193 76.4486 61.1284L67.4885 55.9564ZM130.491 41.0289C120.368 37.6405 108.389 36.8248 97.3891 38.58L106.193 43.6617C114.046 41.6541 122.408 40.7635 130.491 41.0289ZM122.42 53.0321L137.711 44.1469C128.655 42.9127 118.751 43.4012 109.496 45.57L122.42 53.0321ZM77.6397 79.0568L92.5199 70.4101L79.7685 63.0465C76.2605 68.3178 75.527 73.9271 77.6397 79.0568ZM140.258 46.2221L125.488 54.8053L137.6 61.7968C141.128 56.6907 142.036 51.25 140.258 46.2221ZM95.5891 72.1816L81.2356 80.523C89.73 81.517 98.8903 81.0187 107.522 79.0714L95.5891 72.1816ZM97.3785 38.58C96.6377 38.6989 95.8952 38.8284 95.1568 38.9708C95.8887 38.8316 96.6377 38.6997 97.3785 38.58Z" fill="#0E304C"/>
<path opacity="0.2" d="M2.65854 142.276C1.45448 143.023 2.27103 143.95 5.74972 145.751C12.7625 149.389 22.4878 142.146 29.4395 139.057C36.3936 135.965 35.4924 141.375 40.513 141.631C45.5353 141.888 61.1156 136.352 57.1232 131.459C53.1333 126.566 24.6769 128.627 2.65854 142.276Z" fill="#0E304C"/>
<path d="M198.799 58.3133C198.799 58.3133 200.148 58.1782 201.574 59.3212C201.827 59.5296 202.373 60.1939 202.267 61.0463C202.154 61.9035 201.646 63.5757 201.646 63.5757L201.097 63.8159C201.097 63.8159 201.498 66.802 201.279 68.1697C201.061 69.5374 198.441 71.8829 197.266 72.6856C196.463 73.2327 195.55 73.0609 195.55 73.0609C195.55 73.0609 192.831 72.4585 192.666 72.22C192.489 71.9651 192.266 71.3643 192.777 70.6821C193.287 69.9982 194.639 67.9483 194.711 66.9649C194.779 66.0506 193.907 64.569 193.907 64.569L198.799 58.3133Z" fill="#0E304C"/>
<path d="M138.029 40.7057C139.593 40.9255 140.009 41.5231 140.009 41.5231C140.009 41.5231 142.352 39.671 144.671 36.0026C148.257 30.3323 154.237 23.2659 154.237 23.2659C154.237 23.2659 157.035 19.871 154.803 17.3172C154.081 16.4916 152.657 15.3983 151.371 15.7321C150.382 15.9926 148.366 16.6415 147.496 18.3161C146.597 20.0444 143.327 24.5383 140.108 29.8341C138.547 32.4018 133.872 40.6259 133.872 40.6259C133.872 40.6259 137.038 40.5681 138.029 40.7057Z" fill="#0E304C"/>
<path d="M165.659 36.3429C165.659 36.3429 174.745 50.9236 177.483 55.9051C178.89 58.468 182.884 60.2843 182.884 60.2843C186.244 61.4533 190.518 64.1097 193.031 64.7016C193.653 64.8465 193.397 65.9415 194.126 66.0148C195.874 66.1914 200.877 59.4018 198.233 57.6384C194.291 55.0105 185.879 50.83 185.659 50.5035C183.931 47.9114 182.214 38.7844 178.944 36.0499C176.053 33.6336 165.659 36.3429 165.659 36.3429Z" fill="#0E304C"/>
<path d="M162.297 14.2871C162.297 14.2871 159.273 12.781 157.683 13.1457C156.093 13.5112 152.185 16.4738 152.185 16.4738C152.185 16.4738 153.783 22.9883 153.395 22.9818C151.465 22.9598 159.282 33.1915 159.282 33.1915L162.852 23.1503L162.297 14.2871Z" fill="white"/>
<path d="M156.023 19.7538C159.37 19.1619 158.919 15.141 158.306 12.7923L153.134 9.36249L151.149 15.1215C151.149 15.1215 152.885 17.182 153.705 17.4718C155.256 18.0205 156.023 19.7538 156.023 19.7538Z" fill="#E8C5AC"/>
<path d="M178.505 31.6699C173.003 19.5047 168.723 16.0496 168.723 16.0496C163.468 11.5052 156.844 11.8325 156.844 11.8325L157.336 12.1248C157.811 12.417 159.362 12.4732 159.418 17.1796C159.443 19.4534 158.466 30.7361 158.495 30.8745C158.527 31.0194 156.651 28.7407 155.254 26.979C152.579 23.6029 153.27 16.5405 153.614 14.9791C152.749 15.6067 147.607 17.7999 147.862 19.2051C148.435 22.35 149.123 25.7766 158.102 34.1497C158.418 34.4469 161.551 37.4363 161.715 38.8056C161.817 39.6531 159.36 43.2929 159.36 43.2929C159.647 44.3008 161.669 45.894 163.137 44.7176C163.96 44.0606 166.75 40.7774 166.75 40.7774C166.75 40.7774 167.354 45.3185 168.16 46.586C168.318 46.836 168.553 46.998 168.776 47.1266C172.816 47.138 178.132 45.215 180.383 43.5136C182.408 41.9806 182.354 41.6501 182.354 41.6501C182.665 40.9434 179.761 34.4477 178.505 31.6699Z" fill="#517491"/>
<path d="M166.435 38.6216C164.041 35.3717 162.223 32.7413 161.579 31.5812L161.197 31.7945C161.849 32.9693 163.676 35.62 166.083 38.8813C166.509 39.4569 166.657 40.1961 166.644 40.9655L166.752 40.7774C166.752 40.7774 166.876 41.0078 167.068 41.3676C167.141 40.3752 167.002 39.3877 166.435 38.6216Z" fill="#0E304C"/>
<path d="M153.368 17.226L152.591 16.53C152.591 16.53 152.278 16.9704 152.221 17.0876C152.028 17.4784 152 18.667 152 18.667L151.851 22.5503C151.903 23.1658 152.192 23.4645 152.648 23.6632L153.688 24.2371L153.401 25.5568C153.206 26.3611 153.336 26.5361 153.78 26.9961C155.341 28.6113 158.559 31.0398 158.559 31.0398C158.559 31.0398 156.465 27.7663 155.49 25.696C153.287 21.0149 153.368 17.226 153.368 17.226Z" fill="#517491"/>
<path d="M156.899 11.8708L158.833 11.979C158.833 11.979 161.522 12.3877 161.808 14.6982C161.865 15.1639 161.902 16.5633 161.902 16.5633L161.988 20.2398C162.106 21.0637 161.943 21.426 161.404 21.7126L159.541 22.8083L160.839 23.8862C161.266 24.2232 161.224 24.5464 160.974 24.9926C158.394 29.6216 158.608 31.6959 158.608 31.6959C158.608 31.6959 157.63 29.8023 158.271 22.8238C158.434 21.0442 158.879 18.5945 159.125 16.5242C159.445 13.8263 156.899 11.8708 156.899 11.8708Z" fill="#517491"/>
<path d="M145.054 4.85807C145.054 4.85807 143.6 4.74979 143.092 5.55575C142.585 6.36335 142.733 8.12672 143.402 9.30066C144.073 10.4722 144.7 10.9989 144.7 10.9989L145.054 4.85807Z" fill="#422D0D"/>
<path d="M152.394 8.93835C150.943 9.10361 150.94 10.5161 150.94 10.5161L151.271 13.4257C151.271 13.4257 151.415 14.051 151.971 14.0998C152.816 14.1731 153.09 13.4127 153.37 12.5782C153.388 12.5318 153.725 11.3074 153.743 11.2349C154.035 10.1961 153.765 8.78448 152.394 8.93835Z" fill="#FFE8D9"/>
<path d="M149.14 3.9381L154.455 4.47216L155.695 14.5671C155.696 15.2697 155.806 15.6898 155.76 16.2889C155.709 16.9492 155.484 17.5801 154.765 18.2624C154.765 18.2624 153.691 19.1432 152.537 19.9443C152.339 20.0811 151.714 20.4718 151.011 20.3798C150.449 20.3066 149.883 20.1926 149.404 20.1128C148.601 19.9777 148.2 19.0349 148.2 19.0349L144.52 11.1071C144.52 11.1071 143.02 7.36062 144.616 5.90418C145.591 5.01761 149.14 3.9381 149.14 3.9381Z" fill="#FFE1CC"/>
<path d="M143.251 5.39372C142.374 6.69955 143.68 7.65044 145.307 8.52479C145.495 8.62493 149.596 10.3362 149.71 10.2751C149.78 10.2352 150.056 8.75354 150.52 8.80728C151.492 8.92207 151.677 9.32913 152.061 10.1872L152.687 11.7324C152.839 12.2249 153.19 12.7004 153.558 12.7647C154.035 12.8477 153.857 12.6246 153.896 12.474C153.896 12.474 153.902 10.4168 155.184 10.4534C156.279 10.4852 156.384 11.7299 156.336 11.8667L158.115 13.0659C158.236 13.0162 158.302 12.6686 158.316 12.5269C158.339 12.2282 158.495 11.0786 158.601 10.0879C159.433 2.23578 153.343 -2.20353 147.134 1.10745C144.593 2.46538 143.251 5.39372 143.251 5.39372Z" fill="#775319"/>
<path d="M155.507 9.05152C154.058 9.21678 153.964 11.1788 153.964 11.1788L153.669 13.0569C153.669 13.0569 154.527 14.1633 155.084 14.2146C155.929 14.2879 156.204 13.5258 156.484 12.6914C156.499 12.6417 156.838 11.4206 156.857 11.3465C157.148 10.3109 156.878 8.89521 155.507 9.05152Z" fill="#FFE1CC"/>
<path d="M152.819 48.3827C152.819 48.3827 150.753 47.9008 149.782 48.4609C148.263 49.3401 146.686 49.4615 146.686 49.4615C146.686 49.4615 146.484 49.7732 146.585 50.221C146.691 50.681 147.533 50.9399 148.244 50.7486C150.208 50.221 147.676 51.6074 147.187 52.0479C146.246 52.8986 145.505 54.0303 145.559 54.8435C145.636 56.0094 148.242 56.7005 149.56 55.7179C150.536 54.9909 151.956 54.0881 152.15 53.9765C153.723 53.0777 155.14 52.4704 155.458 52.218C157.341 50.7298 153.851 48.6897 152.819 48.3827Z" fill="#FFE1CC"/>
<path d="M135.8 39.3274C135.404 39.3787 133.762 39.509 132.914 40.3866C132.165 41.1608 129.683 43.6748 129.956 44.2251C130.447 45.224 132.366 45.5684 133.153 44.7852C133.632 44.3049 136.211 42.5798 136.79 42.2664C137.666 41.7942 137.929 41.5459 138.649 42.0848C139.152 42.4634 139.678 41.1177 139.757 40.9174C139.817 40.7668 137.959 39.0588 135.8 39.3274Z" fill="#E8C5AC"/>
<path d="M152.9 50.7803C153.664 51.3193 156.051 51.4194 156.051 51.4194C156.051 51.4194 156.448 51.0995 156.976 50.5385C159.535 47.8227 163.014 41.4433 165.051 37.9882C168.042 32.9114 170.995 23.3611 170.995 23.3611C171.165 22.9256 171.524 19.4387 170.389 18.0425C168.575 15.807 165.073 15.3348 163.876 18.2591C162.266 22.1929 160.764 28.2523 158.416 33.4317C156.461 37.7456 150.933 48.1907 150.933 48.1907C150.933 48.1907 151.124 49.5274 152.9 50.7803Z" fill="#0E304C"/>
<path d="M138.35 39.9877C138.35 39.9877 139.868 40.7082 139.95 41.1071C140.039 41.5524 140.586 42.5318 140.886 42.7589C141.066 42.8957 140.913 43.1594 140.913 43.1594C140.913 43.1594 140.593 43.9988 139.608 43.56C139.079 43.3263 138.819 42.4536 138.59 42.1467C138.042 41.4173 136.947 41.7902 136.947 41.7902L138.35 39.9877Z" fill="#E8C5AC"/>
<path d="M55.959 70.0178C55.959 70.0178 58.2011 66.1011 58.9981 66.0205C59.7968 65.9407 61.8231 64.9947 62.7545 65.2226C63.3479 65.3659 65.0453 66.4104 64.5951 66.8207C63.7159 67.6202 61.6961 68.7591 61.6961 68.7591C61.6961 68.7591 60.6768 69.8386 61.7563 69.8386C63.2738 69.8386 64.5137 69.6986 64.5137 69.6986C64.5137 69.6986 65.8733 70.4175 64.5137 70.7382C63.155 71.0582 61.5569 71.9374 61.5569 71.9374C61.5569 71.9374 60.0378 72.977 58.9981 72.176C57.9602 71.3765 55.959 70.0178 55.959 70.0178Z" fill="#FFE1CC"/>
<path d="M42.6533 137.397C42.6533 137.397 43.399 138.065 44.7293 137.963C45.5507 137.898 48.1942 137.48 48.1942 137.48C49.5065 137.27 51.1608 137.23 51.7608 138.404C51.7608 138.404 52.0294 139.003 52.0424 139.219C52.0856 139.962 51.4889 140.432 50.7488 140.963C50.7488 140.963 49.408 141.927 48.1942 142.535C46.627 143.315 45.6972 143.533 44.4517 143.695C44.4517 143.695 42.8715 143.874 42.2618 144.049C41.5869 144.239 41.8424 144.698 41.9475 145.351L39.9651 146.531C37.9005 147.425 35.9247 145.904 35.8433 145.402L35.3353 142.242L35.8848 140.349L42.6533 137.397Z" fill="#0E304C"/>
<path d="M42.9855 143.732C43.579 143.624 45.3334 143.441 46.9812 142.753C48.5386 142.102 50.8596 140.409 50.8596 140.409C51.5133 139.938 52.005 139.313 51.9358 138.881C51.9928 139.037 52.0482 139.201 52.0523 139.293C52.097 140.034 51.4986 140.506 50.7602 141.036C50.7602 141.036 49.4186 142.001 48.2072 142.605C46.6368 143.391 45.7087 143.605 44.4615 143.769C44.4615 143.769 42.6631 144.024 42.5947 144.033C42.1779 144.087 41.8164 144.305 41.8278 144.38C41.8352 144.341 41.8889 143.93 42.9855 143.732Z" fill="#0E304C"/>
<path d="M39.8324 145.664L41.7961 144.496C41.8335 144.711 41.9247 145.215 41.9597 145.425L39.9765 146.605C37.912 147.496 35.9361 145.978 35.8547 145.474L35.7081 144.535C35.792 145.039 37.7679 146.561 39.8324 145.664Z" fill="#0E304C"/>
<path d="M58.9851 70.3401C60.1062 72.0212 59.3963 73.4948 59.0535 73.7113C56.0153 75.6318 51.8259 79.0218 49.469 80.6134C46.8801 82.3637 40.2386 88.5289 40.2386 88.5289C40.2386 88.5289 32.9947 92.2771 31.0701 87.491C30.0028 84.8353 34.2517 82.0038 36.3537 80.6443C38.0088 79.5729 42.9838 76.3718 45.5353 74.7925C48.1599 73.1675 56.2538 69.005 56.2538 69.005C56.2538 69.005 58.215 69.1824 58.9851 70.3401Z" fill="#0E304C"/>
<path d="M34.7002 112.709C34.7002 112.709 27.5784 126.665 24.1477 130.776C21.4612 133.999 8.14886 143.512 8.14886 143.512C8.14886 143.512 8.47777 142.848 5.44032 140.609C1.33233 137.583 2.18307 137.238 2.25715 137.143C2.25715 137.143 14.8848 128.009 17.1146 124.699C19.8395 120.65 24.7876 107.911 24.7876 107.911L34.7002 112.709Z" fill="#0E304C"/>
<path d="M38.8579 108.004L49.8508 121.796C49.8508 121.796 51.7868 123.753 50.2595 126.585C48.6956 129.483 44.6536 136.97 44.6536 136.97C44.6715 136.953 44.2498 137.771 44.4549 138.051C44.6764 138.353 45.0199 138.924 44.853 139.371C44.6324 139.961 42.5817 143.608 38.2156 143.58C34.6563 143.556 35.2002 142.122 35.1367 141.548C35.1367 141.548 36.3228 135.919 40.8281 127.228C42.0224 124.925 39.4172 123.741 39.4172 123.741L29.9027 117.824L28.785 107.112L38.8579 108.004Z" fill="#0E304C"/>
<path d="M48.2902 91.2823C48.7322 95.838 41.4606 103.44 40.776 107.591C40.4422 109.618 43.6286 113.482 43.6286 113.482C43.2924 114.203 35.0292 119.065 30.9041 118.824C28.1866 118.663 26.3052 118.623 23.1081 117.024C21.9936 116.467 20.2417 114.546 20.9492 113.03C20.9492 113.03 22.8688 104.553 25.1076 97.8367C27.1844 91.6039 30.8373 84.6261 32.4973 83.5677C35.3752 81.7295 37.6538 82.1284 37.6538 82.1284C40.4983 84.5455 43.1947 85.9922 45.2536 88.0845C45.8479 88.6877 47.4915 90.4812 48.2902 91.2823Z" fill="#517491"/>
<path d="M37.7141 82.7284L39.2739 76.9995L45.4123 79.3466L43.7621 85.783C43.7401 85.8163 37.7141 82.7284 37.7141 82.7284Z" fill="#FFE1CC"/>
<path d="M48.1729 69.8166L52.4421 70.958L49.0546 81.8736C48.1436 85.0185 46.6904 85.2017 45.7241 84.9916C43.7124 84.5561 41.7781 83.6532 40.8053 82.7382C38.9222 80.9618 39.7713 76.5143 39.8202 76.209L40.7947 68.6264L48.1729 69.8166Z" fill="#FFE1CC"/>
<path d="M51.7835 69.246C53.4386 70.3825 52.469 73.0332 52.469 73.0332C52.4796 72.9599 50.3987 74.6818 50.3849 74.7811C50.3759 74.8275 48.6744 78.4365 48.6744 78.4365C48.5979 78.8655 47.8888 79.367 47.7195 78.6766C47.5306 77.904 48.1542 77.4856 47.923 77.0614C47.6869 76.6324 46.8346 76.3141 45.4807 78.5113L44.6373 80.2584C43.399 82.1732 41.6405 81.9265 40.4479 81.386C40.4479 81.386 38.8685 80.6003 38.3735 79.8595C38.1326 79.4956 37.8484 75.7637 37.6661 74.6346C36.9879 70.4338 39.8047 63.1418 47.7252 66.7923C49.8574 67.779 51.7835 69.246 51.7835 69.246Z" fill="#BF9243"/>
<path d="M48.0476 76.6828C48.0476 76.6828 46.999 76.6494 46.5073 77.6459C46.1597 78.3517 46.3111 79.0185 46.4226 79.2253C46.7189 79.7805 47.1065 79.958 47.1065 79.958C47.1065 79.958 47.4101 78.1742 47.4874 77.8494C47.5632 77.5254 48.0476 76.6828 48.0476 76.6828Z" fill="#EFCFBD"/>
<path d="M48.4017 76.6047C48.4017 76.6047 48.9284 76.6681 48.4261 77.352C47.923 78.0326 47.7545 78.4665 47.6657 78.885C47.5851 79.2684 47.4719 80.4383 47.4719 80.4383C47.4719 80.4383 47.06 80.8551 46.8695 80.0964C46.7783 79.7341 46.7913 79.0787 46.9574 78.2614C47.0225 77.9325 47.7561 76.4891 48.4017 76.6047Z" fill="#FFE8D9"/>
<path d="M38.3141 81.289C37.579 81.0024 37.7458 81.0391 37.3249 81.289C37.0424 81.4559 36.7485 81.7229 36.4921 81.9265C36.1787 82.1731 36.5369 82.2603 36.5369 82.2603C36.5369 82.2603 39.0826 83.6418 42.0321 85.5769C43.9664 86.8461 44.5811 87.4339 44.5811 87.4339L44.2807 86.5645C44.0715 86.1159 43.0213 84.346 41.6715 83.3585C41.6715 83.3585 39.2088 81.6391 38.3141 81.289Z" fill="#517491"/>
<path d="M8.06013 140.867C7.35593 138.773 6.02077 137.73 5.20096 137.331C4.26799 136.877 2.87586 136.543 2.10246 137.27C1.59445 137.757 1.19637 138.961 4.08076 141.089C7.11739 143.327 7.12063 144.127 7.12063 144.127C7.47721 143.92 6.90247 144.402 8.15864 143.488C8.55918 143.088 8.48672 142.137 8.06013 140.867Z" fill="#0E304C"/>
<path d="M1.58307 138.79C1.58307 138.79 3.86178 137.603 5.11958 137.571C5.99719 137.547 6.00287 138.183 7.27858 139.968C8.07885 141.088 8.03896 144.786 7.91766 146.206C7.82078 147.362 8.15865 148.683 8.47778 148.683C9.23897 148.683 10.1158 149.283 10.3185 149.962C10.6116 150.962 7.13448 151.967 7.13448 151.967C7.13448 151.967 5.0805 151.72 4.52202 151.323C3.9611 150.921 5.48022 145.644 4.4406 142.768C3.40261 139.889 2.90193 138.79 1.58307 138.79Z" fill="#0E304C"/>
<path d="M0.744554 142.268C0.744554 142.268 0.321216 137.959 2.96219 138.52C5.36055 139.029 4.9421 142.748 4.92094 142.748C4.76544 142.748 5.41917 143.145 5.41917 143.187C5.41917 145.11 5.31333 148.267 5.43952 150.083C5.48592 150.738 5.64061 151.762 7.1174 151.963C7.1174 151.963 6.79422 152.055 6.29517 151.95C5.28649 151.743 3.01429 151.493 2.24251 150.962C1.66205 150.56 1.48786 149.671 1.4211 149.064C1.24199 147.404 1.43004 143.759 1.52122 142.686C1.53262 142.569 0.744554 142.268 0.744554 142.268Z" fill="#0E304C"/>
<path d="M4.92092 142.748L0.74292 142.25C0.744548 142.262 1.25988 142.544 1.50736 142.662L5.4273 143.189C5.42812 143.196 4.89568 142.748 4.92092 142.748Z" fill="#517491"/>
<path d="M67.7531 78.4112C67.7531 78.4112 66.9146 77.212 67.0334 76.3141C67.1547 75.4145 66.7932 73.7349 66.5555 73.6161C66.3162 73.4956 67.872 72.1751 68.1129 73.9149C68.358 75.6961 69.0117 75.4144 69.0117 75.4144C69.0117 75.4144 70.2117 74.9342 71.7707 73.9751C73.3289 73.0161 75.4871 74.0956 75.4871 74.0956C75.4871 74.0956 77.9563 76.1146 77.5859 76.3141C76.5666 76.853 74.8269 77.3317 73.8076 78.6513C72.4627 80.3944 70.7506 80.2112 70.7506 80.2112C70.7506 80.2112 70.7506 80.2714 69.7306 79.8505C68.7129 79.4305 67.7531 78.4112 67.7531 78.4112Z" fill="#FFE1CC"/>
<path d="M71.4109 80.8706C71.3523 82.0087 61.9941 88.8701 59.6983 90.4568C53.4809 94.7528 46.4592 96.5976 46.4592 96.5976C46.4592 96.5976 44.0837 96.6774 42.9301 95.0394C41.2375 92.6369 41.8888 89.5311 44.2082 88.7235C46.0473 88.0844 51.873 85.8392 54.9202 84.5862C59.8057 82.5795 67.1539 77.0923 67.1539 77.0923C67.1539 77.0923 71.5981 77.3121 71.4109 80.8706Z" fill="#0E304C"/>
</svg>
