<svg width="65" height="152" viewBox="0 0 65 152" fill="none" xmlns="http://www.w3.org/2000/svg">
<path opacity="0.29" d="M48.3821 129.805C26.3006 130.368 47.772 119.947 21.4777 126.33C6.70463 129.918 -0.147665 138.398 1.1201 143.611C2.38665 148.827 30.1467 154.15 45.0494 151.113C79.8476 144.03 57.9887 129.556 48.3821 129.805Z" fill="#231F20"/>
<path d="M12.1816 63.5957C12.1816 63.5957 7.98583 65.8427 8.89295 67.8391C9.80007 69.8379 10.1167 69.8135 11.5458 70.0164C15.3186 70.5556 20.3958 64.0945 20.3958 64.0945L12.1816 63.5957Z" fill="#E0A77C"/>
<path d="M29.0636 24.7546C29.0636 24.7546 24.5268 26.2069 24.3471 33.2866C24.1624 40.3639 23.435 53.6137 23.435 53.6137L13.7122 61.2044L20.3506 65.7767L34.8706 57.2459L29.0636 24.7546Z" fill="#517491"/>
<path d="M24.4583 62.5309C25.2028 63.8084 25.1258 63.9783 26.2799 63.2901C26.6845 63.0566 28.3851 63.0064 28.3081 64.5407C28.2457 65.8464 29.8937 67.0934 30.1382 65.1398C30.1712 64.8537 30.3961 62.9722 29.8032 62.2558C26.9755 58.8009 24.7652 58.6787 23.6123 59.3645C22.457 60.0503 23.7028 61.2607 24.4583 62.5309Z" fill="#F2C8A5"/>
<path d="M21.3249 61.4208C21.3249 61.4208 23.1502 59.2569 24.1453 59.1261C26.4119 58.8204 27.5586 60.5735 27.5586 60.5735L27.945 61.2203L29.5514 65.8402C29.5514 65.8402 31.1186 69.0775 31.1468 70.5274C31.1529 71.0666 30.6089 71.1656 30.0587 70.8453C29.5868 70.5727 28.6088 68.0738 28.1295 68.2279C25.4852 69.0922 23.446 68.6007 23.446 68.6007L20.8115 65.1715C19.9361 63.7803 20.3053 63.4 21.3249 61.4208Z" fill="#F2C8A5"/>
<path d="M19.221 126.914L15.7318 128.488C15.7318 128.488 8.70717 131.005 7.27191 131.828C6.4846 132.279 6.07993 133.243 5.96135 133.877C5.88677 134.28 5.86477 135.42 6.10927 135.753C6.72788 136.598 8.06044 137.57 9.28664 137.802C11.651 138.236 16.6475 137.291 16.6475 137.291C17.2918 136.991 27.4058 133.81 27.4058 133.81C27.4058 133.81 27.7824 132.58 27.8753 131.833L28.4951 126.9L19.221 126.914Z" fill="#517491"/>
<path d="M18.5363 132.591C18.6036 132.686 18.7368 132.724 18.8407 132.658C18.919 132.603 18.9899 132.512 18.9373 132.433C18.6366 132.01 17.5021 130.484 16.2624 129.745C15.1793 129.095 14.1963 129.078 13.7574 129.116C13.6278 129.128 13.5203 129.229 13.5508 129.352C13.5741 129.462 13.6829 129.533 13.8002 129.528C14.1865 129.498 15.0741 129.514 16.0472 130.097C17.1328 130.749 18.1793 132.098 18.5363 132.591Z" fill="#F5F5F5"/>
<path d="M17.2808 132.972C17.3517 133.067 17.4874 133.105 17.5864 133.039C17.6634 132.984 17.7331 132.891 17.6818 132.812C17.3798 132.391 16.2429 130.868 15.0081 130.121C13.9201 129.472 12.9457 129.46 12.4982 129.498C12.3748 129.507 12.2672 129.613 12.2904 129.731C12.3149 129.846 12.4249 129.919 12.5435 129.907C12.9322 129.877 13.8223 129.897 14.7917 130.476C15.8798 131.131 16.9189 132.478 17.2808 132.972Z" fill="#F5F5F5"/>
<path d="M16.09 133.588C16.1609 133.684 16.2941 133.721 16.3932 133.655C16.4763 133.603 16.5448 133.51 16.491 133.431C16.189 133.008 15.0569 131.479 13.8161 130.742C12.7329 130.093 11.7524 130.073 11.3087 130.114C11.1852 130.121 11.0739 130.226 11.1045 130.346C11.1265 130.463 11.2365 130.537 11.3527 130.527C11.7402 130.499 12.6314 130.512 13.6046 131.098C14.6877 131.75 15.7318 133.097 16.09 133.588Z" fill="#F5F5F5"/>
<path d="M7.27308 131.829C7.47969 131.709 7.43079 131.714 7.83178 131.538C8.39048 131.641 9.31349 131.879 10.6668 132.794C13.2977 134.568 13.7171 137.258 13.7171 137.258C13.7171 137.258 12.6498 137.788 7.58851 137.008C7.52738 136.995 7.47481 136.986 7.42224 136.972C6.88066 136.602 6.40998 136.165 6.10923 135.755C5.86473 135.421 5.88795 134.281 5.9613 133.878C6.08111 133.245 6.48577 132.28 7.27308 131.829Z" fill="#14546D"/>
<path d="M5.94664 133.794C6.0151 134.761 7.90269 135.9 9.09711 136.262C13.184 137.51 25.6123 133.69 26.1943 133.483C27.55 133.003 27.7603 132.552 27.7603 132.552C27.7603 132.552 27.4804 133.946 27.4266 133.917C27.4266 133.917 27.1588 135.307 26.374 135.643C25.7382 135.921 20.8175 136.923 19.5461 137.2C19.5461 137.2 12.2488 138.78 8.8147 137.854C7.61173 137.531 6.3085 137.025 5.7498 135.797C5.5762 135.42 5.93564 133.655 5.94664 133.794Z" fill="#F5F5F5"/>
<path d="M44.866 133.706L38.4342 138.03C38.4342 138.03 35.4598 140.014 34.0576 141.064C33.2923 141.637 32.9976 142.702 32.9573 143.383C32.9304 143.82 33.0624 145.017 33.357 145.334C34.1174 146.139 35.6725 146.767 36.9525 147.061C40.7522 147.92 44.6068 145.563 44.6068 145.563C45.2376 145.159 55.4226 140.496 55.4226 140.496C55.4226 140.496 55.6597 139.161 55.6597 138.368V133.108L44.866 133.706Z" fill="#517491"/>
<path d="M45.7303 140.096C45.8147 140.196 45.9675 140.229 46.0702 140.148C46.1558 140.081 46.2291 139.978 46.1656 139.893C45.7976 139.442 44.4418 137.829 43.0224 137.085C41.773 136.44 40.6886 136.483 40.1971 136.554C40.0541 136.576 39.9429 136.695 39.982 136.829C40.0187 136.956 40.1421 137.027 40.2717 137.008C40.6996 136.953 41.6886 136.91 42.8048 137.493C44.0518 138.142 45.3012 139.573 45.7303 140.096Z" fill="#F5F5F5"/>
<path d="M44.2401 140.978C44.3232 141.076 44.4736 141.112 44.5824 141.029C44.6606 140.961 44.7327 140.859 44.6679 140.773C44.3012 140.329 42.9173 138.729 41.4869 138.008C40.2314 137.373 39.147 137.437 38.6555 137.511C38.5223 137.536 38.4098 137.654 38.4465 137.791C38.4844 137.916 38.6115 137.984 38.7411 137.969C39.1739 137.904 40.1568 137.851 41.284 138.417C42.5334 139.052 43.8 140.46 44.2401 140.978Z" fill="#F5F5F5"/>
<path d="M42.9772 141.738C43.0725 141.835 43.2229 141.862 43.3256 141.773C43.4063 141.7 43.4711 141.587 43.4002 141.513C43.0102 141.087 41.5468 139.557 40.0785 138.915C38.7949 138.346 37.7154 138.466 37.2276 138.566C37.0919 138.599 36.9892 138.724 37.0369 138.855C37.076 138.98 37.2105 139.041 37.334 139.02C37.7606 138.932 38.7423 138.824 39.8939 139.338C41.1825 139.901 42.5163 141.244 42.9772 141.738Z" fill="#F5F5F5"/>
<path d="M34.0576 141.064C34.2825 140.894 34.549 140.701 34.8339 140.496C35.3351 140.421 36.3755 140.498 38.3939 141.52C41.3805 143.034 42.7669 145.704 42.7669 145.704C42.7669 145.704 40.7705 146.623 35.3608 146.473C35.2728 146.473 35.2019 146.46 35.1163 146.458C34.4121 146.145 33.7629 145.768 33.3546 145.333C33.06 145.015 32.9279 143.82 32.9548 143.382C32.9976 142.702 33.2923 141.637 34.0576 141.064Z" fill="#14546D"/>
<path d="M32.9267 143.3C33.1309 144.307 35.7985 145.468 37.0711 145.8C43.4014 147.451 53.5301 140.612 54.1108 140.318C55.4703 139.637 55.6304 139.134 55.6304 139.134C55.6304 139.134 55.5253 140.637 55.4678 140.614C55.4678 140.614 55.3615 142.102 54.5839 142.56C53.9543 142.933 47.6876 145.92 46.3942 146.378C46.3942 146.378 40.8671 148.793 36.6995 147.529C35.4341 147.145 33.7299 146.642 32.983 145.43C32.7556 145.054 32.8986 143.158 32.9267 143.3Z" fill="#F5F5F5"/>
<path d="M34.5931 61.7069C33.7226 68.0531 17.6231 126.812 17.8651 127.656C19.0816 131.866 27.2126 132.358 28.8961 128.325L50.1816 67.7022L34.5931 61.7069Z" fill="#0E304C"/>
<path d="M42.1532 58.8474L43.5285 134.7C43.6239 136.118 44.4393 136.816 46.8257 137.09C49.7671 137.423 51.8516 136.703 51.8516 136.703C53.7379 136.042 54.705 135.225 55.7502 133.972L60.3873 62.3512L42.1532 58.8474Z" fill="#0E304C"/>
<path d="M60.2736 77.7441C60.2736 77.7441 62.1759 50.9131 59.7919 36.8638C59.1526 33.091 55.8211 30.3709 55.8211 30.3709C54.513 29.229 44.9223 22.9073 44.9223 22.9073C44.9223 22.9073 44.1044 21.9549 44.1313 21.9733L38.6494 21.6249C38.6494 21.6249 30.1699 22.4488 28.1748 25.0247C25.8043 28.0811 26.2652 31.443 26.649 34.5715L31.1345 64.2008C31.1357 65.3378 29.61 71.503 28.8349 76.3504C28.8349 76.3504 30.8582 79.1231 34.5075 79.0718C34.5784 79.0718 34.6444 74.8149 34.6444 74.7146C34.6444 71.8808 41.9209 74.6242 44.2804 75.6988C44.6765 75.8773 44.1337 84.6172 44.4797 84.693C53.5754 86.6918 58.9741 82.7943 58.9741 82.7943C59.8237 82.4924 60.3213 77.3443 60.2736 77.7441Z" fill="#0E304C"/>
<path d="M34.686 75.0459C34.5785 71.3111 35.6347 60.0173 35.6347 59.7019C35.6347 45.6098 33.9342 41.3089 35.5149 29.9503C35.5149 29.9503 36.8793 25.4465 38.9857 25.0223C41.0982 24.6017 46.9309 27.3145 46.9309 27.3145C46.9309 27.3145 44.0335 36.6119 44.3318 43.4104C44.7108 52.0256 44.503 74.5679 44.4309 79.0436C43.1826 78.9959 42.4919 78.7282 41.1349 78.3443C38.8329 77.694 36.1836 76.7453 34.686 75.0459Z" fill="#F5F5F5"/>
<path d="M43.8635 16.7213L46.9272 27.4686C46.9272 27.4686 45.6936 31.833 42.2009 33.0445C38.1812 34.4395 36.0955 30.6802 37.8254 28.8158C37.8816 28.7584 37.2912 27.4454 36.9513 26.4502C36.2276 24.3181 35.0759 22.0234 35.0759 22.0234L43.8635 16.7213Z" fill="#E0A77C"/>
<path d="M34.7496 15.901C34.8107 15.8557 34.7594 15.7286 34.6763 15.7078L32.7679 15.1442C32.384 15.0317 32.0258 15.0867 31.9488 15.1198L28.1944 18.2812C27.9963 18.4744 28.3888 18.033 28.1968 18.3644L28.2922 18.8827C28.3081 18.9072 28.3386 18.9157 28.3533 18.9047L32.1823 15.6809C32.3143 15.5782 32.4891 15.5476 32.6823 15.6039L34.2459 16.0599C34.3926 16.1051 34.5308 16.0843 34.631 16.0024L34.7496 15.901Z" fill="#282827"/>
<path d="M34.8107 6.18055L34.8131 6.18301L42.2583 5.37125L43.8965 18.7861C43.9039 19.7177 44.031 20.5466 43.9699 21.3437C43.9014 22.2178 43.5982 23.0527 42.6459 23.966C42.6459 23.966 41.7583 24.8707 40.3169 26.1128C39.4172 26.8817 38.7729 27.3977 37.4244 27.9747C36.5381 28.3537 34.5478 27.7497 34.5478 27.7497C33.3289 27.1666 32.5416 25.4404 31.6418 23.0625L27.9486 13.0989L27.0023 5.73068L34.8107 6.18055Z" fill="#F2C8A5"/>
<path d="M28.357 4.50204C26.4046 5.91285 24.4375 9.63548 26.0989 12.6295C26.3642 13.1026 28.1528 16.7775 28.2958 16.6357C29.1944 15.7359 32.494 13.8373 34.7459 12.2346C34.8633 12.1539 36.3927 10.7394 37.9905 12.4375C39.2045 13.7273 41.1361 17.7604 41.152 17.7787C41.295 18.0147 40.9564 15.8019 41.2156 14.6772C41.2156 14.6772 42.0041 13.2823 43.223 13.319C44.6815 13.3642 43.9858 16.8264 43.9247 17.0122L44.8942 20.0637C45.0274 20.1285 44.9406 17.9646 46.0311 15.0061C47.1106 12.0928 46.8722 12.6111 47.0911 11.7064C48.6755 5.17322 42.9332 -3.74274 31.5844 1.67064C30.6272 2.12665 25.6405 4.44336 24.8471 7.61095C24.814 7.74176 26.1136 5.72458 27.0904 5.37126C28.2066 4.96905 28.357 4.50204 28.357 4.50204Z" fill="#261505"/>
<path d="M45.871 15.6332C45.9321 15.5978 45.8539 15.4034 45.772 15.3679L42.9406 14.2102C42.5714 14.0574 42.0567 14.2823 41.789 14.4584L38.3072 17.0489C38.2889 17.0611 38.2888 17.0966 38.306 17.121L38.6581 17.5098C38.6715 17.5293 38.696 17.5403 38.7155 17.5318L42.1606 14.8715C42.2939 14.7786 42.4736 14.7713 42.6508 14.8434L45.1583 15.8753C45.2976 15.9327 45.4382 15.9229 45.5421 15.8581L45.871 15.6332Z" fill="#048950"/>
<g opacity="0.26">
<path d="M37.422 17.1333L33.9659 17.472C33.8767 17.4817 33.5894 17.5416 33.4928 17.7103C33.4084 17.8558 33.4549 18.1138 33.6187 18.4365C33.906 18.9879 34.1261 19.1859 34.1261 19.1859C34.1395 19.1933 34.6897 20.3388 35.8242 20.2862L36.7178 20.4439C37.8035 20.3633 37.8585 19.9659 37.9208 19.95C37.9257 19.9476 38.4869 19.62 38.7265 19.153C38.8451 18.9305 39.0064 17.4548 38.9001 17.2311C38.6592 16.7323 37.8316 17.1138 37.4306 17.1284C37.4257 17.1309 37.422 17.1333 37.422 17.1333Z" fill="#859393"/>
</g>
<path opacity="0.45" d="M29.9047 17.3619L28.0415 17.3521C27.9303 17.3546 27.7835 17.3851 27.7371 17.4719C27.7114 17.5221 27.6466 17.7152 27.9217 18.2556C28.2872 18.9891 28.3435 19.1224 28.3484 19.1322C28.3532 19.1444 28.9609 20.1041 30.1064 20.2948C30.3423 20.3351 31.0575 20.3327 31.0575 20.3327C31.1822 20.318 31.7592 19.8791 31.8949 19.6285C31.9891 19.4561 31.972 19.2006 31.8436 18.884C31.7849 18.7409 31.7421 18.6529 31.6773 18.516L31.4817 18.0905C31.148 17.346 30.1467 17.3533 30.0355 17.3533C29.9988 17.3521 29.9707 17.3546 29.9047 17.3619Z" fill="#859393"/>
<path d="M31.8534 19.005C31.8534 19.005 31.8705 19.2605 32.0771 19.1957C32.1908 19.1652 32.2471 18.9121 32.571 18.8876C33.1847 18.8448 33.3547 19.0979 33.5466 19.1174C33.741 19.137 33.6273 18.8192 33.6273 18.8192C33.6273 18.8192 33.3913 18.2348 32.5111 18.3509C31.6761 18.4597 31.8534 19.005 31.8534 19.005Z" fill="#048950"/>
<path d="M34.1787 19.9048C34.1469 19.8803 33.499 19.3179 33.2129 18.7776C32.9378 18.2666 32.9855 17.868 33.1628 17.533C33.4183 17.0501 34.2924 16.9694 34.3388 16.967L37.114 16.692L38.6336 16.5672C39.1092 16.5526 39.0982 16.7078 39.2791 17.511C39.3537 17.824 39.2351 19.0013 38.9515 19.5808C38.6201 20.2617 37.7925 20.4732 37.7705 20.472C37.7179 20.4965 37.4074 20.615 36.3145 20.6725L36.246 20.675C34.9721 20.7116 34.2203 19.9451 34.1787 19.9048ZM34.043 17.5917C33.9562 17.6015 33.6994 17.6516 33.6126 17.8118C33.5393 17.9475 33.5821 18.1956 33.7386 18.5013C34.0088 19.0453 34.4 19.4402 34.4049 19.4451C34.4146 19.4524 34.9917 20.1138 35.8853 20.197C36.8707 20.285 38.1984 20.2116 38.5468 19.3228C38.7742 18.7397 38.7216 18.0734 38.6703 17.8399C38.5529 17.2788 37.6959 17.2005 37.3292 17.2066C37.3267 17.2115 34.043 17.5917 34.043 17.5917Z" fill="#048950"/>
<path d="M27.9731 19.0209C27.9621 19.0086 27.8288 18.8179 27.577 18.335C27.33 17.8595 27.0635 17.5281 27.2469 17.2201C27.3508 17.0428 27.764 17.0452 27.9767 17.0367L29.868 16.9915C29.8998 16.9866 29.9475 16.9817 30.0049 16.9841C30.2311 16.9743 31.3839 16.9963 31.84 18.0013L32.0026 18.3619C32.0674 18.4903 32.104 18.5746 32.1615 18.7152C32.3522 19.1884 32.351 19.5918 32.1725 19.9133C31.8937 20.4341 31.0416 20.5197 30.9548 20.5368L30.4218 20.5722C28.8839 20.6138 27.9865 19.0661 27.9731 19.0209ZM29.9279 17.6223L28.3093 17.61C28.2176 17.6174 28.0367 17.6247 27.989 17.7507C27.9572 17.8289 27.8643 17.8607 28.1699 18.4451C29.1565 20.3265 30.626 20.0478 30.626 20.0478C30.626 20.0478 31.2923 20.1101 31.6175 19.714C31.8082 19.4781 31.7189 19.2177 31.6077 18.9402C31.5588 18.8143 31.5221 18.7421 31.4683 18.6223L31.2947 18.2543C30.9548 17.6785 30.1418 17.6052 30.0404 17.6125C30.0123 17.6125 29.9854 17.6198 29.9279 17.6223Z" fill="#048950"/>
<path d="M42.8867 13.1637C41.0603 12.8777 41.1116 15.7946 41.1116 15.7946L41.3414 19.0343C41.3414 19.0343 41.5652 20.2165 42.3097 20.2068C43.1765 20.1994 43.7217 19.5258 44.0909 18.4158C44.1117 18.3559 44.6692 16.7824 44.6961 16.6846C45.0836 15.3056 44.7022 13.4535 42.8867 13.1637Z" fill="#F2C8A5"/>
<path d="M34.8474 38.4934C35.7484 38.711 36.6873 38.9188 37.6445 39.0998C39.4808 39.4482 42.1312 39.7257 44.4149 39.9164C44.3501 40.7159 44.3135 41.5069 44.3122 42.2784C41.8916 42.0632 39.0248 41.7575 36.9562 41.3859C36.2582 41.2575 35.5564 41.1108 34.8657 40.9556C34.8449 40.1438 34.8388 39.3296 34.8474 38.4934Z" fill="#517491"/>
<path d="M39.7449 34.0862C41.2168 34.3649 43.2132 34.5972 45.1252 34.7806C44.9822 35.5324 44.8514 36.3136 44.7377 37.1058C42.7498 36.9078 40.663 36.6596 39.0578 36.3699C37.6568 36.1168 36.2582 35.7843 34.9562 35.4383C35.0026 34.6571 35.0638 33.8551 35.1493 33.0103C36.5638 33.4003 38.1287 33.783 39.7449 34.0862Z" fill="#517491"/>
<path d="M37.6445 56.4072C39.515 56.763 42.2352 57.0405 44.547 57.2361C44.5519 58.0246 44.5519 58.8168 44.5519 59.6078C42.0811 59.3926 39.092 59.0797 36.9563 58.6933C36.5149 58.6151 36.0724 58.5234 35.6298 58.4305C35.6249 57.5759 35.6127 56.7617 35.5931 55.9756C36.2631 56.1321 36.9501 56.2776 37.6445 56.4072Z" fill="#517491"/>
<path d="M36.911 64.0688C36.3743 63.9612 35.8364 63.839 35.3046 63.7081C35.3828 62.7839 35.4513 61.9575 35.5051 61.2937C36.2044 61.4746 36.9208 61.647 37.6494 61.8047C39.5186 62.2008 42.2388 62.5443 44.5506 62.7949C44.5494 63.5945 44.5457 64.3879 44.542 65.1703C42.0664 64.8977 39.0529 64.5101 36.911 64.0688Z" fill="#28C667"/>
<path d="M36.8181 69.5776C36.1787 69.4125 35.5381 69.2364 34.9097 69.0457C34.9647 68.2315 35.0198 67.4051 35.0809 66.5958C35.9147 66.8611 36.779 67.1141 37.6617 67.3476C39.515 67.8342 42.2278 68.3073 44.5274 68.6655C44.5225 69.4895 44.5176 70.2866 44.5115 71.0532C42.0286 70.6595 38.9722 70.1265 36.8181 69.5776Z" fill="#517491"/>
<path d="M36.779 74.6559C36.0724 74.4628 35.3706 74.25 34.6799 74.0202C34.6897 73.3038 34.7202 72.4566 34.7655 71.5275C35.6946 71.8478 36.6714 72.1607 37.6677 72.4395C39.5064 72.9627 42.1985 73.4872 44.4907 73.8894C44.4834 74.766 44.4748 75.568 44.4675 76.2844C41.9858 75.8455 38.9294 75.2489 36.779 74.6559Z" fill="#517491"/>
<path d="M10.4517 62.7815C10.5972 62.8609 27.9193 59.1542 27.9193 59.1542L35.6616 68.5567L34.2019 68.8746L27.3618 60.6482L11.3698 64.3402L10.4517 62.7815Z" fill="#7C7C7C"/>
<path d="M32.5698 64.0407C32.494 64.2485 32.2654 64.3585 32.0576 64.2839C31.8473 64.2094 31.7409 63.9832 31.813 63.7754C31.8888 63.5651 32.1175 63.4575 32.3241 63.5296C32.5319 63.603 32.6431 63.8328 32.5698 64.0407Z" fill="#686868"/>
<path d="M32.4708 64.0162C32.5747 64.136 32.5319 64.2619 32.3766 64.2888C32.2202 64.3194 32.0062 64.2461 31.9011 64.1238C31.7984 64.0016 31.8436 63.8781 32.0001 63.8487C32.1578 63.8182 32.3668 63.8952 32.4708 64.0162Z" fill="#7C7C7C"/>
<path d="M34.9342 68.7181L18.0632 71.9028L10.6803 63.2644L27.5439 60.0785L34.9342 68.7181Z" fill="#DFEAEA"/>
<path d="M37.3364 68.7756C37.6555 69.1484 37.5223 69.5274 37.043 69.6167L18.5204 73.1168C18.0375 73.2097 17.3896 72.9786 17.0693 72.6058L8.61056 62.7155C8.28904 62.3401 8.42229 61.9636 8.90275 61.8707L27.4254 58.373C27.907 58.2801 28.5574 58.5087 28.8765 58.8865L37.3364 68.7756ZM18.1475 71.6742L35.0124 68.4895L27.6246 59.8486L10.7585 63.0358L18.1475 71.6742ZM13.0997 67.6093C13.3063 67.8476 13.7171 67.9944 14.0252 67.9369C14.3296 67.877 14.4164 67.6386 14.211 67.4002C14.0093 67.1594 13.5924 67.0151 13.288 67.0726C12.9799 67.13 12.8968 67.3709 13.0997 67.6093ZM32.4842 63.9111C32.3803 63.7888 32.1664 63.7155 32.0123 63.7436C31.8558 63.7742 31.8118 63.8964 31.9157 64.0187C32.0196 64.1385 32.2311 64.2143 32.3876 64.1862C32.5441 64.1544 32.5869 64.0333 32.4842 63.9111Z" fill="#BFC1C1"/>
<path d="M37.043 69.6154L18.5204 73.1156C18.0375 73.2085 17.3896 72.9774 17.0693 72.6045L8.61057 62.7142C8.44675 62.5235 8.40273 62.334 8.45897 62.1812L7.98097 63.5162C7.92717 63.6666 7.97484 63.8573 8.135 64.0444L16.5937 73.9371C16.914 74.31 17.5632 74.5386 18.0461 74.4481L36.5675 70.948C36.8083 70.9052 36.9599 70.7854 37.0125 70.6375C37.1726 70.1912 37.3316 69.7463 37.4881 69.3049C37.4367 69.4553 37.2814 69.5726 37.043 69.6154Z" fill="#A7A9AA"/>
<path d="M14.436 67.7743L14.4066 67.8574C14.3675 67.9675 14.2562 68.053 14.079 68.0873C13.7244 68.1545 13.2489 67.9846 13.0117 67.7095C12.8956 67.5714 12.8589 67.432 12.8992 67.3208L12.9273 67.2352C12.8894 67.3476 12.9249 67.4882 13.0423 67.6264C13.2758 67.9015 13.7538 68.0726 14.1071 68.0041C14.2844 67.9699 14.3956 67.8868 14.436 67.7743Z" fill="#616464"/>
<path d="M14.3223 67.3856C14.557 67.6606 14.4616 67.9369 14.1071 68.0041C13.755 68.0738 13.2758 67.9015 13.0423 67.6264C12.8075 67.3538 12.9029 67.075 13.255 67.0078C13.6095 66.9418 14.0875 67.1105 14.3223 67.3856Z" fill="#CCCECE"/>
<path d="M11.3772 67.3562L11.5765 66.8794L13.3601 68.9663L13.1694 69.4431L11.3772 67.3562Z" fill="#4F4F4F"/>
<path d="M11.3772 67.3562L11.8723 67.2083L13.3601 68.9663L13.1694 69.4431L11.3772 67.3562Z" fill="#838484"/>
<path d="M34.7105 70.4113C34.6811 70.3759 34.6273 70.3612 34.5589 70.371L31.4866 70.9419C31.461 70.9468 31.4329 70.9566 31.4035 70.97C31.3106 71.0128 31.1945 71.1204 31.1566 71.2231C31.1333 71.2903 31.1395 71.3429 31.17 71.3759L31.3998 71.6486C31.3717 71.6131 31.3632 71.5605 31.3864 71.4982C31.417 71.4077 31.516 71.2977 31.6223 71.2476C31.6529 71.2305 31.6847 71.2194 31.7165 71.2121L34.7875 70.6412C34.8547 70.629 34.9061 70.6461 34.9366 70.6791L34.7105 70.4113Z" fill="#BFC1C1"/>
<path d="M34.7887 70.6399C34.9232 70.6155 34.999 70.7023 34.9513 70.8282C34.9048 70.959 34.7581 71.0886 34.6212 71.1118L31.5514 71.6852C31.4157 71.7097 31.3412 71.6228 31.3876 71.4969C31.4353 71.3637 31.5808 71.2365 31.7177 71.2109L34.7887 70.6399Z" fill="#838484"/>
<path d="M36.0026 62.4624C36.0026 62.4624 31.3399 61.0602 29.6894 61.0675C28.0378 61.0748 21.9618 63.0064 21.9618 63.0064C21.9618 63.0064 21.3505 64.1642 22.5767 64.0285C24.1037 63.8585 25.7077 63.8231 25.7077 63.8231C25.7077 63.8231 25.8348 65.3635 26.2712 66.1459C26.7126 66.9357 27.7823 67.6838 29.3141 67.7022C30.8447 67.7217 30.2005 66.888 30.2005 66.888C30.2005 66.888 34.9683 67.5616 36.6273 67.0457C38.2851 66.5285 37.6983 63.7179 36.0026 62.4624Z" fill="#F2C8A5"/>
<path d="M35.5063 62.1922C35.5063 62.1922 34.9855 64.3866 35.9831 66.5481C36.5247 67.7156 37.1421 68.1814 37.1421 68.1814C37.1421 68.1814 51.3393 70.448 59.0156 66.866C61.737 65.5933 61.9558 61.0589 61.9558 61.0589L61.8006 40.0032C61.2382 33.6448 58.1342 32.3648 54.7955 33.5495C51.3821 34.7598 52.0496 42.7955 52.4995 46.3127C52.7807 48.4901 52.9396 54.6272 52.9091 57.4659C52.8834 59.5907 52.5827 59.1163 51.1829 60.1237L35.5063 62.1922Z" fill="#517491"/>
<path d="M17.0607 59.5699C16.3785 59.0809 15.0582 58.7386 13.7256 60.0112C12.2439 61.4269 11.2757 62.5308 10.5947 63.2778C10.1412 63.7766 11.1657 64.2351 12.1596 63.5504C13.1547 62.8695 14.2024 62.0529 14.2024 62.0529C14.2024 62.0529 16.4617 62.3108 17.1989 61.7117C17.9311 61.1151 17.9067 60.1738 17.0607 59.5699Z" fill="#E0A77C"/>
</svg>
