<svg width="59" height="36" viewBox="0 0 59 36" fill="none" xmlns="http://www.w3.org/2000/svg">
<path d="M14.755 5.11913C14.9429 4.945 15.2682 4.88164 15.6742 4.81694C16.4157 4.6982 17.1579 4.58009 17.8998 4.46208L18.1663 4.41968C19.0914 4.27278 19.9457 3.86661 20.6368 3.24548C21.1524 2.78278 21.5611 2.35872 21.8897 2.018C22.5558 1.32714 22.8954 0.992702 23.3342 0.940453C23.9561 0.86632 24.5832 0.962024 25.2467 1.06338C25.8907 1.16181 26.5571 1.2641 27.3231 1.24201C27.5321 1.23615 27.7378 1.22986 27.941 1.22358C29.2325 1.18379 30.4523 1.1461 31.7714 1.27667C33.2968 1.42745 34.5072 2.49861 35.7887 3.63259C36.232 4.02482 36.6905 4.43057 37.1665 4.79914C37.2984 4.90133 37.4693 4.94228 37.6344 4.9116C41.9279 4.11194 48.8081 2.34123 54.5199 0.570206C57.4519 5.15294 59 10.4361 59 15.8786C59 15.9516 58.9997 16.0223 58.9993 16.0921C55.7985 16.5635 53.161 17.0267 50.9773 17.5011C50.8244 15.3888 49.0315 13.8102 45.6312 12.8024C44.9022 12.5499 31.6953 7.97921 29.0843 7.26595C28.0676 6.98795 26.982 6.72827 25.8713 6.86942C24.9291 6.989 24.0994 7.37798 23.297 7.75409C22.7118 8.02832 22.1069 8.31197 21.4706 8.48212C20.0175 8.86849 18.4021 8.89184 17.0391 8.5462C15.9426 8.26737 14.78 7.39442 14.5502 6.25887C14.5501 6.25824 14.5499 6.25771 14.5498 6.25719C14.5244 6.13133 14.51 6.00233 14.5089 5.8704C14.5069 5.53984 14.5967 5.26582 14.755 5.11913Z" fill="white"/>
<path d="M17.6193 29.4964C16.6913 29.1305 15.8068 28.693 15.6194 27.976C15.464 27.3824 15.8146 26.7045 16.2168 26.0604C16.7459 25.2127 17.349 24.3581 18.1639 23.8541C18.1662 23.8527 18.178 23.8456 18.1803 23.8441C18.6345 23.5657 19.1952 23.5277 19.6802 23.7424C20.1483 23.95 20.5559 24.2765 20.8277 24.6622C21.0184 24.9323 21.1622 25.2377 21.262 25.5695C21.0803 25.8727 20.9033 26.1856 20.7338 26.505C20.1614 27.5842 19.6478 28.7357 19.7148 29.8781C19.1037 30.0453 18.3749 29.7942 17.6193 29.4964Z" fill="white"/>
<path d="M22.7572 31.8353C21.6859 31.3697 20.999 30.8922 20.8842 29.951C20.7738 29.0462 21.2413 28.0116 21.7628 27.0285C22.3564 25.9099 23.0694 24.8382 23.7191 24.0883C24.1299 23.614 24.6128 23.473 25.0418 23.473C25.5099 23.473 25.9142 23.6411 26.0911 23.7278C26.9805 24.1633 27.4067 25.0677 27.3668 26.3386C27.3664 26.3463 27.3663 26.3537 27.3663 26.3614C27.3302 27.3738 27.0003 28.6168 26.3733 30.0405C25.8995 31.1163 25.3969 31.8026 24.8792 32.0803C24.2346 32.426 23.5369 32.1739 22.7572 31.8353Z" fill="white"/>
<path d="M30.0374 34.0772C29.3941 34.419 28.695 34.1669 27.9141 33.8287C27.0876 33.4708 26.4699 33.0955 26.1887 32.4922C26.6411 32.0234 27.0542 31.3615 27.4381 30.49C28.1477 28.8784 28.4586 27.5865 28.5175 26.5522C28.9903 25.9034 29.4142 25.3902 29.6918 25.1322C30.7197 24.1769 31.798 24.5898 32.104 24.7391C32.7826 25.0701 33.049 26.2387 32.8166 27.8651C32.6424 29.0875 32.1949 30.5387 31.5223 32.0619C31.276 32.6195 31.0315 33.0563 30.774 33.3978C30.7737 33.3983 30.7735 33.3986 30.7732 33.399C30.7732 33.399 30.773 33.3993 30.7729 33.3995C30.5341 33.717 30.2868 33.945 30.0374 34.0772Z" fill="white"/>
<path d="M35.7104 35.2742C35.0686 35.606 34.3674 35.3537 33.5832 35.0167C32.7992 34.6796 32.205 34.3337 31.9012 33.7959C32.1385 33.4378 32.3645 33.0154 32.5867 32.5124C33.2739 30.9559 33.7407 29.4583 33.9424 28.1685C34.121 27.933 34.2968 27.7169 34.4659 27.5267C35.3118 26.5729 36.4917 27.0372 36.8331 27.2021C38.4333 27.9758 38.5572 30.2043 37.173 33.3165C36.7118 34.3523 36.2198 35.011 35.7104 35.2742Z" fill="white"/>
<path d="M41.491 33.0595C41.2437 33.7811 40.836 34.2802 40.2787 34.5429C39.6536 34.8378 38.8121 34.8558 37.8187 34.6007C37.962 34.3491 38.1009 34.0731 38.2358 33.77C38.9107 32.2525 39.2135 31.0253 39.2774 30.0337C39.896 30.2777 40.5037 30.513 41.095 30.7377C41.2823 31.0208 41.4237 31.3205 41.5097 31.6327C41.6446 32.1229 41.6379 32.6297 41.491 33.0595Z" fill="white"/>
<path d="M48.9455 19.4402C48.4538 19.7642 47.8588 19.8314 47.1778 19.6402C44.7663 18.8996 42.2716 18.0153 40.6022 17.4035C40.3017 17.2934 39.9683 17.4425 39.856 17.7361C39.7436 18.0298 39.8958 18.3569 40.1956 18.4667C41.8748 19.0822 44.3834 19.9713 46.8146 20.7185C48.2243 21.2966 48.8488 22.1542 48.6694 23.2684C48.5737 23.8639 48.2556 24.3367 47.7499 24.6358C47.0295 25.0617 45.9952 25.0987 44.912 24.7374C44.9101 24.7367 44.908 24.7365 44.9061 24.7359C44.9034 24.7351 44.9012 24.7336 44.8985 24.7328C42.2143 23.9089 39.5709 22.9598 37.8258 22.3088C37.5266 22.1973 37.1916 22.3442 37.0777 22.6371C36.9638 22.9301 37.1138 23.2581 37.413 23.3697C39.1488 24.0174 41.7676 24.9575 44.4412 25.7818C45.3813 26.5457 45.751 27.4018 45.5675 28.3967C45.4635 28.9612 45.1058 29.4345 44.56 29.7293C43.7774 30.1521 42.7335 30.1593 41.6957 29.7488C41.6949 29.7485 41.6941 29.7484 41.6933 29.748C41.6914 29.7473 41.6898 29.7461 41.6878 29.7453C40.8938 29.4448 40.0658 29.1225 39.2235 28.7871C38.9564 27.1977 37.9589 26.4801 37.3464 26.184C35.9823 25.5246 34.8184 25.7994 34.044 26.3692C33.9607 25.0595 33.4767 24.1403 32.6212 23.723C31.6392 23.244 30.1444 23.1462 28.8934 24.3089C28.7272 24.4634 28.5442 24.6644 28.3627 24.8793C28.0065 23.59 27.1557 22.9796 26.6101 22.7124C25.5177 22.1772 23.9521 22.0646 22.835 23.3538C22.5658 23.6644 22.2922 24.0171 22.0212 24.4005C21.948 24.2683 21.8687 24.14 21.7819 24.0169C21.3868 23.4562 20.8252 23.0035 20.1583 22.7079C19.3184 22.3359 18.3489 22.401 17.5717 22.8776C17.5688 22.8794 17.5565 22.887 17.5537 22.8887C16.5287 23.5224 15.83 24.5029 15.2275 25.4681C15.0378 25.7721 14.8515 26.0974 14.706 26.4378C14.135 26.0863 13.5519 25.6764 12.9389 25.1952C12.2134 24.6247 11.6936 23.904 11.1908 23.2071C10.489 22.2341 9.76341 21.2282 8.48949 20.604C7.14264 19.9442 3.64126 18.7437 0.0594593 17.7095C0.0207487 17.1048 0 16.491 0 15.8785C0 11.2221 1.15426 6.61206 3.34173 2.51108C6.7226 3.93238 10.1041 5.35347 13.4858 6.77404C13.9228 8.22853 15.3449 9.28828 16.748 9.64512C18.3006 10.0387 20.1327 10.0142 21.7754 9.57748C22.5132 9.38011 23.1663 9.07404 23.7977 8.77804C24.5509 8.42496 25.2624 8.09136 26.0205 7.99514C26.9158 7.88143 27.8706 8.11273 28.7726 8.35931C31.3631 9.06693 45.1186 13.829 45.2573 13.877C45.2658 13.8799 45.2744 13.8827 45.283 13.8853C48.5403 14.848 50.0207 16.2507 49.8088 18.1736C49.7767 18.4646 49.5141 19.0658 48.9455 19.4402Z" fill="white"/>
</svg>
