<svg width="43" height="62" viewBox="0 0 43 62" fill="none" xmlns="http://www.w3.org/2000/svg">
<path d="M40.6165 16.0942C40.1538 14.3626 40.3464 12.3583 39.4691 10.8423C38.5795 9.30459 36.7389 8.47393 35.4908 7.22605C34.2429 5.97793 33.4123 4.13736 31.8745 3.2477C30.3586 2.37046 28.3543 2.56297 26.6226 2.10035C24.9494 1.65297 23.3143 0.471191 21.5 0.471191C19.6857 0.471191 18.0506 1.653 16.3774 2.10035C14.6458 2.56297 12.6415 2.37046 11.1255 3.2477C9.5878 4.13736 8.75713 5.97793 7.50926 7.22605C6.26113 8.47389 4.42056 9.30456 3.53091 10.8423C2.65366 12.3583 2.84617 14.3626 2.38356 16.0942C1.93617 17.7674 0.754395 19.4025 0.754395 21.2168C0.754395 23.0311 1.93617 24.6662 2.38356 26.3394C2.84617 28.0711 2.65366 30.0754 3.53091 31.5914C4.42056 33.1291 6.26113 33.9597 7.50926 35.2076C8.75709 36.4557 9.58776 38.2963 11.1255 39.186C12.6415 40.0632 14.6458 39.8707 16.3774 40.3333C18.0506 40.7807 19.6857 41.9625 21.5 41.9625C23.3143 41.9625 24.9494 40.7807 26.6226 40.3333C28.3543 39.8707 30.3586 40.0632 31.8745 39.186C33.4123 38.2963 34.2429 36.4557 35.4908 35.2076C36.7389 33.9598 38.5795 33.1291 39.4691 31.5914C40.3464 30.0754 40.1538 28.0711 40.6165 26.3394C41.0638 24.6662 42.2456 23.0311 42.2456 21.2168C42.2456 19.4025 41.0638 17.7674 40.6165 16.0942ZM21.5 37.771C12.3572 37.771 4.94583 30.3596 4.94583 21.2169C4.94583 12.0741 12.3572 4.66266 21.5 4.66266C30.6427 4.66266 38.0542 12.0741 38.0542 21.2168C38.0542 30.3596 30.6427 37.771 21.5 37.771Z" fill="white"/>
<path d="M21.5 36.2327C19.4734 36.2327 17.5068 35.8356 15.6548 35.0522C13.8665 34.2958 12.2608 33.2133 10.8822 31.8347C9.50354 30.4561 8.42105 28.8504 7.66467 27.0621C6.88135 25.2101 6.48413 23.2434 6.48413 21.2169C6.48413 19.1903 6.88131 17.2237 7.66467 15.3716C8.42105 13.5834 9.50358 11.9777 10.8822 10.599C12.2608 9.22041 13.8665 8.13788 15.6548 7.3815C17.5068 6.59814 19.4734 6.20096 21.5 6.20096C23.5266 6.20096 25.4932 6.59814 27.3452 7.3815C29.1335 8.13784 30.7392 9.22037 32.1178 10.599C33.4965 11.9777 34.579 13.5834 35.3353 15.3716C36.1187 17.2237 36.5159 19.1903 36.5159 21.2169C36.5159 23.2435 36.1187 25.2101 35.3353 27.0621C34.579 28.8504 33.4964 30.4561 32.1178 31.8347C30.7392 33.2133 29.1335 34.2958 27.3452 35.0522C25.4932 35.8355 23.5266 36.2327 21.5 36.2327ZM21.5 7.90651C19.7025 7.90651 17.9595 8.25824 16.3194 8.95197C14.7346 9.6223 13.311 10.5822 12.0882 11.805C10.8654 13.0279 9.90544 14.4515 9.23511 16.0363C8.54141 17.6764 8.18969 19.4194 8.18969 21.2169C8.18969 23.0143 8.54145 24.7573 9.23511 26.3975C9.90544 27.9823 10.8654 29.4059 12.0882 30.6287C13.311 31.8515 14.7346 32.8114 16.3194 33.4818C17.9595 34.1755 19.7025 34.5272 21.5 34.5272C23.2975 34.5272 25.0405 34.1754 26.6806 33.4818C28.2654 32.8114 29.689 31.8515 30.9118 30.6287C32.1347 29.4059 33.0946 27.9823 33.7649 26.3975C34.4586 24.7573 34.8103 23.0143 34.8103 21.2169C34.8103 19.4194 34.4586 17.6764 33.7649 16.0363C33.0946 14.4515 32.1347 13.0279 30.9118 11.805C29.689 10.5822 28.2654 9.62226 26.6806 8.95197C25.0405 8.25824 23.2975 7.90651 21.5 7.90651Z" fill="white"/>
<path d="M19.9295 30.6C19.1427 30.6 18.4309 30.1642 18.072 29.4625C17.4146 28.1776 15.5275 24.9084 12.2099 22.3092C11.8839 22.0539 11.7542 21.6189 11.887 21.2267C12.0197 20.8351 12.3867 20.5689 12.8001 20.5643C12.8266 20.5639 12.8533 20.5638 12.8798 20.5638C14.2488 20.5638 15.6169 20.9599 16.8364 21.7092C17.7375 22.2634 18.5692 23.0173 19.2851 23.9234C20.1942 22.2087 21.449 20.3172 22.7843 18.6667C24.1481 16.9811 26.2374 14.7438 28.4458 13.658C28.5732 13.5954 28.7088 13.5636 28.8488 13.5636C29.204 13.5636 29.529 13.7748 29.6768 14.1016C29.8255 14.4307 29.769 14.8042 29.5295 15.0764C25.4288 19.735 23.4431 24.6059 21.9081 29.1755C21.6513 29.9401 20.9687 30.4938 20.1693 30.5862C20.0899 30.5954 20.0092 30.6 19.9295 30.6Z" fill="white"/>
<path d="M22.5756 43.0924L16.3881 60.9933C16.1724 61.6166 15.3352 61.7218 14.9723 61.1709L11.5097 55.9161C11.3113 55.6152 10.9353 55.4854 10.5935 55.5994L4.62528 57.5942C3.99964 57.8034 3.40596 57.204 3.62133 56.5803L9.51719 39.523C9.81729 39.7946 10.1452 40.0431 10.508 40.2531C11.6707 40.9257 12.9517 41.0756 14.1906 41.2204C14.8587 41.2982 15.4897 41.3722 16.0591 41.5244C16.595 41.6677 17.1586 41.9127 17.7557 42.1723C18.8576 42.652 20.1069 43.1952 21.5 43.1952C21.8686 43.1952 22.2273 43.1571 22.5756 43.0924Z" fill="white"/>
<path d="M35.169 55.2508L29.1764 53.3292C28.8332 53.2194 28.4591 53.3539 28.2642 53.6566L24.8663 58.9538C24.5103 59.5093 23.6716 59.4142 23.4486 58.7932L20.7965 51.4141L23.7872 42.7618C24.2984 42.5838 24.7842 42.3723 25.2442 42.1723C25.8413 41.9127 26.405 41.6677 26.9408 41.5244C27.5102 41.3722 28.1412 41.2982 28.8093 41.2204C29.6441 41.1229 30.4978 41.0228 31.3215 40.762L36.1602 54.2245C36.3833 54.8451 35.7973 55.4523 35.169 55.2508Z" fill="white"/>
</svg>
