<svg width="74" height="91" viewBox="0 0 74 91" fill="none" xmlns="http://www.w3.org/2000/svg">
<path opacity="0.2" d="M30.5132 68.0094C30.5132 68.0094 29.5021 68.3825 25.1155 70.0575C20.7281 71.7318 11.1129 70.6164 9.08727 67.2663C7.06305 63.9163 0.315406 61.495 0.988998 65.7748C1.66466 70.0575 0.145613 72.1019 12.1246 76.9443C24.1037 81.7836 30.8513 79.7355 38.7819 83.2736C46.7091 86.8102 53.4595 86.2506 49.0715 78.2462C44.6834 70.2433 49.578 67.079 30.5132 68.0094Z" fill="black"/>
<path d="M28.7408 75.1534C28.7408 75.1534 28.6063 76.6761 28.9217 76.9198C29.2384 77.165 29.9969 77.6187 30.567 77.4787C31.1371 77.3386 31.5153 77.653 31.674 77.8967C31.8321 78.1433 34.1413 80.0605 37.6839 79.5367C41.2271 79.0128 35.2808 76.2574 34.3946 76.2916C33.5091 76.3267 28.7408 75.1534 28.7408 75.1534Z" fill="#55938E"/>
<path d="M2.85726 60.4496C2.85726 60.4496 2.36242 60.4854 2.28651 61.425C2.19265 62.612 2.63571 62.9607 2.63571 62.9607C2.63571 62.9607 2.8255 64.0776 2.69713 64.7065C2.57152 65.3339 2.19195 67.3576 3.49013 69.3479C4.593 71.0419 6.46194 72.0348 8.04447 71.4417C8.94236 71.1044 8.86576 70.289 8.86576 70.289L2.85726 60.4496Z" fill="#55938E"/>
<path d="M31.9977 72.4871C33.0191 73.4076 34.1945 74.1485 35.4188 74.252C36.1642 74.3114 37.1904 73.8089 37.9544 73.7167C38.7633 73.6216 39.8006 73.9802 39.8199 74.9167C39.9559 75.9118 40.0456 77.5031 37.5769 78.5317C36.6942 78.9033 36.1096 79.2977 34.6714 78.9543C33.6085 78.6984 32.6037 77.5716 29.9541 76.7356C28.0852 76.1455 28.823 73.9253 28.892 73.3513C28.892 73.3513 32.0136 72.3775 31.9977 72.4871Z" fill="#285A69"/>
<path d="M7.17969 61.865C6.85876 63.2782 7.12791 64.6799 7.19003 66.0336C7.25283 67.3927 8.30947 67.6142 8.70907 68.3368C9.13145 69.1027 9.27774 70.289 8.51926 70.7085C7.7594 71.2674 6.17757 71.6511 4.59642 70.0111C3.90834 69.2969 3.34448 68.8706 3.0139 67.2884C2.77027 66.1197 3.26856 64.6373 2.82617 61.6359C2.51215 59.52 3.96078 59.935 4.976 58.7746C4.976 58.7746 7.27631 61.8354 7.17969 61.865Z" fill="#285A69"/>
<path d="M26.3646 38.8584C26.3991 39.7226 25.5709 39.8223 25.7228 40.2799C25.9374 40.921 24.2051 43.0194 24.2182 44.6724L30.284 59.2901L28.7291 74.3213C28.7291 74.3213 29.03 75.755 30.3855 75.6507C32.8769 75.4603 33.3759 73.7335 33.3759 73.7335C33.3759 73.7335 35.5513 65.2799 36.2691 58.7602C36.6286 55.5198 31.0694 36.5644 31.0694 36.5644L26.3646 38.8584Z" fill="#0E304C"/>
<path d="M27.0209 39.7957L24.6323 57.4506C24.4508 58.7876 23.5846 59.8969 22.4141 60.289L7.39014 62.1803C7.39014 62.1803 6.31556 62.3318 5.24168 60.7024C4.16848 59.0723 5.37626 58.3323 5.37626 58.3323C5.37626 58.3323 10.1528 56.1296 13.6429 54.7957C16.572 53.6757 18.9654 54.1637 18.9654 54.1637C18.9654 54.1637 18.16 36.3915 20.3085 34.0229C22.4569 31.6527 27.0209 39.7957 27.0209 39.7957Z" fill="#0E304C"/>
<path d="M49.3144 44.5604C49.645 44.8961 50.6705 46.8255 49.4096 46.6481C48.2743 46.492 46.8126 45.4542 45.7145 44.5467C41.6854 41.211 40.205 33.5317 40.205 33.5317L39.8254 20.9202C40.3306 16.5019 42.4591 16.2895 44.0119 17.1057C45.5192 17.8983 44.5744 21.0862 44.3943 22.9942C43.8739 28.5051 44.2645 30.0888 44.1272 33.3917C44.1272 33.3917 45.8988 41.0687 49.3144 44.5604Z" fill="#0E304C"/>
<path d="M44.9291 19.0495L42.1409 25.4839C42.1409 25.4839 41.2071 28.0102 40.5618 28.7122C39.6536 29.6997 38.2091 30.1619 38.1048 30.1992C37.0041 30.5921 35.035 32.3729 34.5147 33.3604L32.7071 41.9526C32.7071 41.9526 30.3489 44.2847 27.1507 42.9546C21.3306 40.5364 19.3064 36.4653 19.3064 36.4653C19.2677 36.1379 20.9414 31.192 24.0678 28.8234L27.2956 26.3976C27.7891 25.9826 28.4496 25.1885 28.7857 24.2558L30.6581 19.2193C30.6581 19.2193 32.4207 14.2482 34.4325 13.8462C37.2028 13.2919 39.3941 13.748 40.7343 13.9696C41.0684 14.0259 41.6536 14.6167 42.3728 14.9898C42.3728 14.9913 45.3032 17.3166 44.9291 19.0495Z" fill="#517491"/>
<path d="M49.7968 1.32147C49.7968 1.32147 51.7486 2.21992 52.5512 4.90379C53.2393 7.21458 52.7203 9.13935 51.6947 12.2321C50.0377 17.2328 50.1529 18.9208 50.1529 18.9208C50.1529 18.9208 48.9286 18.3361 48.1411 17.2252C47.1514 15.8273 45.6448 13.7899 45.6448 13.7899C45.6448 13.7899 46.7877 10.1969 46.9278 9.76291C47.07 9.33121 49.7968 1.32147 49.7968 1.32147Z" fill="#A04525"/>
<path d="M42.7041 18.0513C42.4073 18.9155 42.6482 19.852 41.0601 22.0204C38.9331 24.922 39.0317 24.6746 38.9848 24.6929C38.5956 24.852 38.3961 19.4005 38.5921 17.9546C38.991 15.0012 39.4831 14.4942 39.9338 14.0602L44.2107 9.72791L47.3736 13.4708C47.3736 13.4708 44.8083 15.8326 43.8842 16.6039C43.6316 16.811 42.9815 17.2397 42.7041 18.0513Z" fill="#0E304C"/>
<path d="M49.6174 4.91296C52.4415 6.22178 51.5084 8.83712 50.9252 10.5967C50.5153 11.8263 49.5097 14.0244 49.5097 14.0244C48.3882 16.1357 47.1521 17.4567 45.9306 17.3692C44.4026 17.2633 42.9974 15.1025 42.183 12.4392C41.4618 10.0774 41.702 8.84626 41.771 8.55922L43.5192 2.37146C43.5192 2.37146 48.1142 4.21401 49.6174 4.91296Z" fill="#FFE1CC"/>
<path d="M49.805 1.31162C49.2854 0.880674 42.4942 -2.08644 40.0932 4.66473C39.3982 6.61311 39.4244 10.0744 39.2181 11.626C39.1822 11.8979 41.644 17.9608 43.4749 18.7488C43.4749 18.7488 42.7579 15.9728 43.3148 12.992C44.0084 9.27415 44.5957 8.19298 45.8353 7.16588C46.8933 6.28724 48.1763 6.16923 48.9534 5.82737C49.9286 5.39034 51.6457 5.09112 50.7795 2.51385C50.5642 1.87657 49.9527 1.43496 49.805 1.31162Z" fill="#A04525"/>
<path d="M47.5717 3.70544L44.0775 7.81005C44.0775 7.81005 45.5399 9.23003 46.286 9.40591C46.286 9.40591 46.6172 8.64757 47.2784 7.66006C47.3585 7.53976 47.1231 9.06252 46.7276 9.5498C46.6462 9.6465 47.992 10.2922 50.0045 10.414C50.4269 10.4391 51.7126 10.3561 51.8624 9.88328C52.7707 6.96262 50.9797 4.35718 50.9797 4.35718L47.5717 3.70544Z" fill="#A04525"/>
<path d="M6.2977 64.4553C6.11826 64.4553 5.96367 64.4301 5.85256 64.405C5.76422 64.3875 5.67312 64.3129 5.70418 64.2177C5.7304 64.1378 5.8146 64.1104 5.8919 64.1287C6.1445 64.1865 6.68901 64.2489 7.20456 63.901C7.26253 63.8606 7.34052 63.8774 7.38055 63.9383C7.43163 64.016 7.37849 64.1134 7.30395 64.1599C6.94783 64.3906 6.59033 64.4553 6.2977 64.4553Z" fill="#55938E"/>
<path d="M6.45495 66.4813C6.27551 66.4813 6.12231 66.4561 6.0105 66.4295C5.92216 66.412 5.83106 66.3373 5.86212 66.2437C5.88972 66.1622 5.97321 66.1348 6.04982 66.1515C6.30311 66.2125 6.84766 66.2734 7.36114 65.9254C7.42118 65.8866 7.49777 65.9003 7.5378 65.9643C7.58818 66.0419 7.53505 66.1386 7.4612 66.1858C7.10646 66.4143 6.74826 66.4813 6.45495 66.4813Z" fill="#55938E"/>
<path d="M6.36118 65.4672C6.18105 65.4672 6.02715 65.4436 5.91534 65.4177C5.82493 65.3971 5.7359 65.324 5.76696 65.2304C5.79388 65.1489 5.87737 65.123 5.95466 65.1382C6.20726 65.1976 6.75181 65.2601 7.26598 64.9121C7.32533 64.8718 7.404 64.8885 7.44334 64.951C7.49372 65.0286 7.43989 65.1246 7.36604 65.1725C7.01199 65.4032 6.6538 65.4672 6.36118 65.4672Z" fill="#55938E"/>
<path d="M7.91671 67.5085C7.36735 67.5085 6.22169 67.7148 5.45079 69.3122C4.41969 71.4494 4.40382 67.5055 3.12703 67.7407C3.46521 68.9559 3.98075 69.3708 4.59637 70.0112C6.17752 71.6512 7.75935 71.2675 8.51921 70.7086C9.27838 70.2891 9.13139 69.1028 8.70902 68.3369C8.52889 68.0095 8.21279 67.7826 7.91671 67.5085Z" fill="#316E7C"/>
<path d="M47.8381 88.652L58.6315 81.7341C58.7612 81.6496 58.8433 81.4752 58.8502 81.2285L48.0562 88.1495C48.0507 88.3947 47.9686 88.5682 47.8381 88.652Z" fill="#727272"/>
<path d="M41.0904 50.4771C41.2029 50.404 41.3527 50.3971 41.5246 50.474L43.5833 51.4067L32.7906 58.3262L30.7319 57.3935C30.5607 57.3173 30.411 57.3219 30.2978 57.3935L41.0904 50.4771Z" fill="#999999"/>
<path d="M48.1314 85.4383L48.0569 88.1496C48.0507 88.3947 47.9686 88.5691 47.8381 88.6521C51.4359 86.3458 55.0337 84.0404 58.6315 81.7341C58.7612 81.6496 58.8433 81.4753 58.8502 81.2286L58.922 78.5189L48.1314 85.4383Z" fill="#727272"/>
<path d="M44.2929 39.6989C44.9071 39.306 45.716 40.8334 46.9307 42.5663L36.1373 49.4857C34.9841 47.9584 34.1248 46.2262 33.4781 46.6397C37.0759 44.3327 40.6951 42.0051 44.2929 39.6989Z" fill="#898988"/>
<path d="M38.3361 52.1544L49.1295 45.2349C47.197 46.4722 45.9762 49.0654 45.8754 52.7688C45.522 65.4892 57.9338 80.0415 65.0534 75.4762C61.4557 77.784 57.8586 80.091 54.2615 82.3972C47.1943 86.9282 34.7266 72.4977 35.0813 59.6883C35.1821 55.9849 36.4051 53.3916 38.3361 52.1544Z" fill="#898988"/>
<path d="M57.5824 88.1435L56.2829 85.2053L67.0755 78.2859L68.3765 81.224C68.6174 81.7684 68.5877 82.2945 68.3192 82.4674C64.7214 84.7736 61.1236 87.0806 57.5252 89.3868C57.795 89.214 57.8247 88.6848 57.5824 88.1435Z" fill="#727272"/>
<path d="M39.9566 48.0757L50.7499 41.1547C49.5477 41.1981 48.4579 41.54 47.509 42.1498L36.7163 49.0693C37.6646 48.4594 38.7543 48.1183 39.9566 48.0757Z" fill="#999999"/>
<path d="M56.2829 85.2044L67.0755 78.285C68.1474 77.4734 69.0156 76.2864 69.6229 74.7575L58.8296 81.6784C58.2222 83.2058 57.354 84.3913 56.2829 85.2044Z" fill="#828282"/>
<mask id="mask0_48_1945" style="mask-type:luminance" maskUnits="userSpaceOnUse" x="56" y="74" width="14" height="12">
<path d="M56.2829 85.2044L67.0755 78.285C68.1474 77.4734 69.0156 76.2864 69.6229 74.7575L58.8296 81.6784C58.2222 83.2058 57.354 84.3913 56.2829 85.2044Z" fill="white"/>
</mask>
<g mask="url(#mask0_48_1945)">
<path d="M56.2829 85.2044L67.0755 78.285C68.1474 77.4734 69.0156 76.2864 69.6229 74.7575L58.8296 81.6784C58.2222 83.2058 57.354 84.3913 56.2829 85.2044Z" fill="#828282"/>
</g>
<path d="M50.3269 37.5275C50.4097 37.4742 50.5132 37.459 50.634 37.4872L53.5396 38.1191L42.7469 45.0385L39.8407 44.4051C39.7206 44.3769 39.6164 44.3929 39.5336 44.4485L50.3269 37.5275Z" fill="#BCBCBC"/>
<path d="M54.5037 39.354C54.396 38.866 53.9868 38.2165 53.5395 38.1198L42.7469 45.0393C43.1789 45.1299 43.5978 45.7664 43.7103 46.2735L44.3184 49.0396L55.111 42.1217L54.5037 39.354Z" fill="#727272"/>
<path d="M61.7876 83.3521L62.4184 79.9571L73.2124 73.0346L72.5803 76.4327C72.5465 76.6025 72.4733 76.7182 72.3739 76.7837C68.7754 79.0914 65.179 81.3968 61.5813 83.7046C61.6806 83.6391 61.7538 83.5203 61.7876 83.3521Z" fill="#999999"/>
<path d="M59.8 76.5978L70.5913 69.6783C72.3105 71.2308 73.0503 71.661 73.2049 72.6135C73.2084 72.6401 73.2111 72.6652 73.2139 72.6926C73.2291 72.8129 73.2318 72.9287 73.2132 73.0345L62.4192 79.957C62.4385 79.8496 62.435 79.7309 62.4219 79.6106C62.4192 79.5839 62.4164 79.5603 62.4123 79.5329C62.268 78.6451 61.5951 78.2203 59.8 76.5978Z" fill="#727272"/>
<path d="M55.111 42.1216C56.8557 42.9021 58.5004 44.0784 59.9794 45.4215L49.1867 52.3409C47.7236 51.0115 46.0879 49.8322 44.3177 49.0396L55.111 42.1216Z" fill="#999999"/>
<path d="M69.9583 63.2165L59.1656 70.1359C59.6412 72.3074 59.8599 74.4263 59.8075 76.4143C59.8033 76.4752 59.7999 76.5346 59.7999 76.597L70.5912 69.6776C70.5919 69.6121 70.596 69.5557 70.6008 69.4964C70.6526 67.5084 70.4338 65.3864 69.9583 63.2165Z" fill="#828282"/>
<path d="M60.8891 43.3422C61.0319 43.2516 61.23 43.2721 61.4329 43.4016C61.6862 43.5622 64.3488 46.6656 64.551 46.8979L53.7584 53.8158C51.3622 51.0733 50.6465 49.9091 50.095 50.2631L60.8891 43.3422Z" fill="#BCBCBC"/>
<path d="M61.2755 68.9421L59.8372 64.6106L70.6299 57.6912L72.0695 62.0242C72.2303 62.5107 72.1662 62.9325 71.935 63.0818L61.1423 70.0012C61.3735 69.8535 61.4384 69.4317 61.2755 68.9421Z" fill="#BCBCBC"/>
<path d="M32.8217 58.311C32.8217 58.2455 32.8217 58.1861 32.8217 58.1206C32.8783 56.1014 33.211 54.3609 33.7714 52.9158L32.0543 50.468C31.694 49.9548 31.5864 49.2886 31.8107 48.9749L33.4263 46.7029C33.5713 46.5004 33.8218 46.4997 34.0778 46.6641C34.2152 46.7502 34.3539 46.8842 34.4885 47.0608L36.1773 49.4683C37.2436 48.5965 38.5335 48.1092 39.9869 48.0567L39.3789 45.2936C39.2485 44.7051 39.4679 44.2939 39.871 44.3868L42.7766 45.0203C42.8566 45.0386 42.9374 45.0751 43.0167 45.1261C43.3383 45.3302 43.6344 45.7771 43.74 46.256L44.348 49.0221C45.0044 49.3168 45.678 49.6807 46.3661 50.1193C46.5075 50.2083 46.6497 50.302 46.7926 50.4002C47.6187 50.9545 48.4269 51.6047 49.2171 52.3227L49.9576 50.4581C50.0784 50.1573 50.3676 50.1086 50.6706 50.302C50.7651 50.3629 50.861 50.4451 50.9528 50.5517L53.7887 53.7967C54.18 54.2444 54.3691 54.9327 54.2076 55.3241L53.4664 57.1978C54.4616 58.6178 55.3857 60.1588 56.2084 61.7988C56.5086 62.3965 56.7936 63.0064 57.0621 63.6148L58.8365 63.5386C58.9524 63.5325 59.0753 63.5744 59.1967 63.6513C59.4687 63.8256 59.7337 64.1805 59.8683 64.5924L61.3059 68.9231C61.5039 69.5208 61.348 69.8497 60.9905 70.04L59.1947 70.1177C59.6716 72.2892 59.889 74.4096 59.8358 76.3976C59.8324 76.4585 59.8282 76.5148 59.8282 76.5788L61.8607 78.4152C62.2707 78.7853 62.5357 79.4637 62.4481 79.9365L61.8166 83.3345C61.7379 83.7418 61.4204 83.8523 61.0678 83.6276C61.0153 83.5934 60.9642 83.5546 60.9111 83.5074L58.8599 81.6587C58.2512 83.1906 57.3823 84.3738 56.3126 85.1862L57.6121 88.1244C57.873 88.7114 57.8171 89.2817 57.4852 89.4035L55.0758 90.2723C54.9357 90.3202 54.7694 90.2829 54.6024 90.1771C54.376 90.0332 54.1524 89.7652 54.0012 89.4263L52.6844 86.4555C51.3055 86.5133 49.7796 86.176 48.1598 85.423L48.0873 88.1312C48.0728 88.6444 47.7312 88.8439 47.2978 88.5667L44.2431 86.4965C43.8208 86.2125 43.4902 85.5555 43.5033 85.0255L43.5806 82.3219C42.0091 80.9179 40.5246 79.2231 39.1746 77.2998L37.7336 78.4228C37.5824 78.5401 37.3747 78.515 37.1642 78.381C36.9834 78.2668 36.8019 78.0688 36.6549 77.8084L34.3815 73.7754C34.0696 73.2234 34.0433 72.5899 34.3263 72.3714L35.7584 71.2605C34.7459 69.0107 33.9798 66.7235 33.4836 64.4926L31.3986 63.5455C31.3627 63.5302 31.3269 63.5112 31.2917 63.4891C30.9197 63.2523 30.5925 62.6935 30.5359 62.1727L30.108 58.0612C30.0508 57.4948 30.3413 57.1864 30.7603 57.3745L32.8217 58.311ZM38.1263 71.7943C40.1712 75.8692 42.9484 79.2314 45.9437 81.2582C46.0582 81.3359 46.1756 81.4113 46.2895 81.4844C52.4008 85.3758 57.3361 82.4582 57.548 74.8429C57.6522 71.1045 56.5817 66.8049 54.5354 62.7247C52.4898 58.646 49.7133 55.2875 46.7173 53.2622C46.5959 53.1792 46.4785 53.0985 46.3626 53.0232C40.2644 49.1401 35.3208 52.0608 35.1131 59.67C35.0095 63.4084 36.08 67.714 38.1263 71.7943Z" fill="#D6D6D6"/>
<path d="M54.1766 55.3431C54.2138 55.2571 54.227 55.1482 54.229 55.0355C54.2304 55.0043 54.227 54.9715 54.2256 54.9342C54.2201 54.8497 54.2069 54.7576 54.1855 54.6677C54.1766 54.6304 54.1704 54.5977 54.1607 54.5619C54.1228 54.4386 54.0765 54.3152 54.0158 54.1949C53.9433 54.0594 53.857 53.93 53.7584 53.8158L64.551 46.8979C64.6504 47.0121 64.7367 47.1385 64.8071 47.2755C64.8071 47.2755 64.8098 47.277 64.8112 47.2801C64.8719 47.3988 64.9175 47.5191 64.9534 47.6417C64.9644 47.679 64.9706 47.7118 64.9789 47.746C65.0017 47.8397 65.0141 47.9288 65.0203 48.0163C65.0217 48.0506 65.0245 48.0833 65.0238 48.116C65.0217 48.2287 65.0093 48.3361 64.9713 48.4252L64.2308 50.2974L53.4381 57.2168L54.1766 55.3431Z" fill="#686868"/>
<path d="M59.7096 64.3068C59.7606 64.4035 59.8034 64.5048 59.8379 64.6099L70.6306 57.6904C70.5968 57.5846 70.5533 57.4849 70.5036 57.3897C70.5029 57.3866 70.5022 57.3836 70.5022 57.3821C70.4932 57.3653 70.4822 57.3554 70.4732 57.3387C70.2897 57.0082 69.9487 56.6237 69.5995 56.6352L67.8251 56.7113L57.0318 63.6323C58.7813 63.5561 58.8959 63.4153 59.3182 63.7929C59.3659 63.8348 59.4121 63.885 59.4577 63.936C59.5439 64.0396 59.6295 64.1447 59.7096 64.3068Z" fill="#727272"/>
<path d="M66.9707 54.8985C66.892 54.7424 66.8126 54.5863 66.7326 54.4287C65.97 52.9623 65.128 51.5811 64.2287 50.2974L53.436 57.2168C54.3367 58.499 55.1773 59.8832 55.9392 61.3511C56.0193 61.5057 56.0993 61.6618 56.178 61.8194C56.4769 62.4155 56.7626 63.0239 57.0311 63.6338L67.8244 56.7128C67.5552 56.1045 67.2702 55.4977 66.9707 54.8985Z" fill="#999999"/>
<path d="M39.1028 41.8971C39.7102 42.0387 40.2851 41.2263 40.4017 40.6141C40.4431 40.4017 41.0187 40.6781 41.5984 40.7405C42.1471 40.8014 42.2748 40.324 41.9083 39.9883C41.8138 39.9053 41.2237 39.5078 40.3203 39.4035C38.8316 39.2398 38.2305 40.4299 38.0296 40.8715C37.7764 41.4311 38.4941 41.7524 39.1028 41.8971Z" fill="#F2C8A5"/>
<path d="M36.2504 41.1144L38.5273 41.6109L39.6163 40.2099L40.802 41.0543L42.0698 41.3946C42.0698 41.3946 44.1244 41.4395 43.8498 42.1438C43.524 42.9692 43.0423 43.5341 43.0423 43.5341C42.1175 44.9587 40.2989 44.1851 40.2989 44.1851L38.4866 43.4877C37.6418 42.9303 36.1034 41.9299 36.2504 41.1144Z" fill="#F2C8A5"/>
<path d="M40.2043 41.7677C40.5342 42.105 41.5598 44.0328 40.3002 43.8585C39.1636 43.7008 37.7018 42.6631 36.6044 41.754C32.5746 38.4199 31.0936 30.7406 31.0936 30.7406L30.7347 19.7272C30.5283 14.4752 33.3483 13.4976 34.9005 14.313C36.4078 15.1071 35.5237 19.5315 35.3442 21.4365C34.8232 26.9489 34.9005 27.0174 35.0164 30.6013C35.0178 30.6013 36.7887 38.2775 40.2043 41.7677Z" fill="#0E304C"/>
</svg>
