<svg width="11" height="7" viewBox="0 0 11 7" fill="none" xmlns="http://www.w3.org/2000/svg">
<path d="M5.46873 4.44485L1.65047 0.319391C1.46983 0.124208 1.23991 0.026615 0.960724 0.026615C0.681539 0.0266149 0.451622 0.124208 0.270973 0.319391C0.090324 0.514574 -1.0611e-07 0.76299 -1.4806e-07 1.06464C-1.9001e-07 1.36628 0.0903238 1.6147 0.270973 1.80988L4.80362 6.70721C4.90215 6.81367 5.0089 6.88926 5.12386 6.93398C5.23882 6.97869 5.36199 7.00069 5.49337 6.99998C5.62475 6.99927 5.74792 6.97727 5.86288 6.93398C5.97783 6.89068 6.08458 6.81509 6.18312 6.70721L10.7158 1.80988C10.9128 1.59696 11.0074 1.34854 10.9995 1.06464C10.9917 0.780735 10.8889 0.53232 10.6911 0.319392C10.4934 0.106465 10.2595 1.4268e-06 9.98956 1.38926e-06C9.71957 1.35171e-06 9.48538 0.106465 9.287 0.319392L5.46873 4.44485Z" fill="white"/>
</svg>
