<svg width="95" height="91" viewBox="0 0 95 91" fill="none" xmlns="http://www.w3.org/2000/svg">
<path opacity="0.2" d="M84.0609 74.7319C81.0647 73.5917 81.1886 72.2662 78.6408 71.0773C78.0572 69.9871 77.2795 66.5662 75.71 65.4079L68.7184 60.2486L63.0112 62.6208L63.7055 57.4215L51.0999 47.2473L47.1975 49.4366L47.4805 44.5763L44.58 42.4358L31.1991 46.5529L35.3888 42.6286L35.278 41.4754L33.7617 34.4526L20.9702 37.3626L24.6132 34.532L24.4597 33.4922L22.6199 26.2304L3.25885 46.8448L2.93105 48.3608L6.78553 51.1974L21.0872 46.9129L15.7988 56.8181L16.4603 58.2959L18.7451 59.8706L40.2078 52.9016L27.1763 65.2138L27.869 66.8835L41.2707 76.773L45.0551 74.3141L42.7417 72.1913L37.984 64.4657L41.1275 62.5966L51.1388 70.1109L44.7949 78.2153L45.6263 80.0847L53.6457 86.0056C55.8245 87.6134 57.8294 88.1062 60.2047 88.4238C62.5804 88.7418 64.8157 88.3126 66.9112 87.1368C68.3152 86.3493 69.176 85.3861 69.4921 84.246C69.5526 84.0285 69.589 83.8112 69.6016 83.5944L69.738 81.2521C70.7006 81.499 71.6702 81.6254 72.6476 81.6252C74.0583 81.624 75.2714 81.3381 76.2872 80.7686C78.0638 79.7718 78.9895 78.6438 79.063 77.3836L79.1488 75.9107C79.3968 76.265 79.8573 76.6898 80.6557 77.2489C82.9273 78.8408 87.0268 79.2109 88.1357 77.2438C89.2451 75.2771 86.6079 75.701 84.0609 74.7319ZM54.3868 67.5811L45.1242 60.6947L51.005 56.9745L60.069 63.7798L54.3868 67.5811Z" fill="black"/>
<path d="M29.586 37.0259L29.2154 43.5595L29.1169 43.4946L29.4876 36.9607L29.586 37.0259Z" fill="#87440E"/>
<path d="M13.1335 37.8671L10.6509 39.6945L10.3246 46.176L12.8072 44.3484L24.5743 33.909L24.9003 27.4274L13.1335 37.8671Z" fill="#517491"/>
<path d="M6.84525 43.5181L6.53243 50.0153L3.82739 48.0841L4.1402 41.5869L6.84525 43.5181Z" fill="#0E304C"/>
<path d="M27.0593 38.042L6.77086 43.3381L6.44676 49.7584L26.7349 44.462L29.1736 43.638L29.4974 37.2177L27.0593 38.042Z" fill="#517491"/>
<path d="M27.7952 49.2815L35.3512 41.8049L35.6757 35.3561L24.6668 46.2504L22.3115 48.2522L22.1752 50.9566L18.7728 51.9706L18.4483 58.4191L46.7074 49.9972L47.0325 43.5487L27.7952 49.2815Z" fill="#517491"/>
<path d="M47.1613 43.5974L18.9414 51.7566L16.2999 49.8635L27.9139 38.4973L29.5864 37.1443L29.4969 37.08L27.0577 37.884L6.75517 43.0238L4.11368 41.1307L21.8094 25.4304L24.7524 27.5393L13.0787 37.7308L10.6145 39.5123L10.6881 39.5849L14.1584 38.5043L33.1716 33.5723L35.7842 35.4444L24.8146 46.1408L22.4668 48.1045L22.5565 48.1688L25.9396 46.9469L44.2033 41.478L47.1613 43.5974Z" fill="white"/>
<path d="M18.8466 52.2502L18.5341 58.7471L15.8287 56.8159L16.1416 50.319L18.8466 52.2502Z" fill="#0E304C"/>
<path d="M51.0719 49.5601L50.7654 56.0197L43.2672 59.9351L43.5735 53.4755L51.0719 49.5601Z" fill="#517491"/>
<path d="M62.3614 57.6802L62.0562 64.1184L50.606 55.8694L50.9113 49.4309L62.3614 57.6802Z" fill="#0E304C"/>
<path d="M64.7202 56.2763L64.406 62.7776L61.8956 64.0764L62.2098 57.5754L64.7202 56.2763Z" fill="#517491"/>
<path d="M41.2039 55.0203L40.898 61.4756L32.6264 65.7956L32.9327 59.3406L41.2039 55.0203Z" fill="#517491"/>
<path d="M51.138 62.1431L50.833 68.5869L40.7487 61.322L41.0539 54.878L51.138 62.1431Z" fill="#0E304C"/>
<path d="M53.5073 60.7446L53.1931 67.246L50.6832 68.5448L50.9968 62.0438L53.5073 60.7446Z" fill="#517491"/>
<path d="M64.8289 56.6027L62.3848 57.8737L51.0074 49.7197L43.5829 53.5807L53.595 60.7558L51.1509 62.0269L41.1392 54.8518L32.9422 59.1149L44.4853 67.3875L42.0433 68.6575L27.5431 58.2663L50.4943 46.33L64.8289 56.6027Z" fill="white"/>
<path d="M44.3744 67.7158L44.0608 74.2171L41.5517 75.5152L41.866 69.0138L44.3744 67.7158Z" fill="#517491"/>
<path d="M42.0416 69.1287L41.7367 75.5572L27.1635 65.0607L27.4681 58.6326L42.0416 69.1287Z" fill="#0E304C"/>
<path d="M68.7659 62.4324L68.4596 68.8923L61.0713 72.7502L61.3779 66.2903L68.7659 62.4324Z" fill="#517491"/>
<path d="M75.1666 68.156C75.0381 67.2863 74.2697 66.345 72.8614 65.3297L68.6655 62.3046L68.3387 68.7958L72.5347 71.8209C73.9429 72.8359 74.7113 73.7775 74.8401 74.6469C74.8562 74.7556 74.8619 74.8629 74.8563 74.9684L75.1833 68.4772C75.1884 68.372 75.183 68.2647 75.1666 68.156Z" fill="#0E304C"/>
<path d="M79.0751 69.4934L78.7869 75.8899C78.7316 77.109 77.8075 78.1792 76.0143 79.1004C74.9895 79.6271 73.7591 79.8732 72.3226 79.8388C70.8879 79.8036 69.4659 79.5196 68.0528 78.9869L68.341 72.5904C69.7542 73.123 71.1761 73.4071 72.6108 73.4426C74.0471 73.477 75.2777 73.2308 76.3026 72.7042C78.0957 71.7826 79.0201 70.7128 79.0751 69.4934Z" fill="#517491"/>
<path d="M59.008 67.8352L58.7021 74.2899L50.3206 78.6678L50.6262 72.2134L59.008 67.8352Z" fill="#517491"/>
<path d="M64.4823 71.7143L58.9043 67.6911L58.5779 74.1782L64.1556 78.2014C65.3725 79.0794 65.9607 79.9224 65.9202 80.7307L66.2466 74.2436C66.2874 73.4351 65.6992 72.5921 64.4823 71.7143Z" fill="#0E304C"/>
<path d="M69.6043 76.0006C69.2998 77.0942 68.4419 78.0071 67.0332 78.74C64.9307 79.8335 62.6771 80.2043 60.2727 79.8518C57.868 79.4996 55.5555 78.5276 53.3332 76.9344L45.2577 71.1452L68.2116 59.205L75.3426 64.3171C77.6241 65.9527 78.8922 67.5019 79.1487 68.9663C79.4047 70.4304 78.4972 71.7007 76.4268 72.7774C75.4078 73.3076 74.185 73.5596 72.7596 73.5335C71.3352 73.5067 69.9244 73.2321 68.5229 72.7096C69.5507 73.8099 69.9106 74.9058 69.6043 76.0006ZM59.9581 77.3696C61.4061 77.5458 62.7674 77.3005 64.044 76.6366C65.3843 75.9397 66.1234 75.1674 66.2638 74.3212C66.402 73.4758 65.8211 72.587 64.5207 71.6548L58.9654 67.6727L50.657 71.9946L55.7756 75.6639C57.1172 76.6256 58.5117 77.1945 59.9581 77.3696ZM68.7247 62.5963L61.4098 66.4015L66.1982 69.834C67.2993 70.6235 68.5135 71.1004 69.8398 71.2647C71.1658 71.4289 72.3978 71.2154 73.5321 70.6253C74.7735 69.9795 75.327 69.2306 75.1952 68.3753C75.0649 67.521 74.2993 66.5929 72.8985 65.5886L68.7247 62.5963Z" fill="white"/>
<path d="M69.4996 76.2527C69.1922 77.3544 68.3334 78.2773 66.9256 79.0223C64.8244 80.134 62.5747 80.5196 60.1769 80.1786C57.7788 79.8379 55.4746 78.8732 53.2625 77.2833L45.2237 71.5062L44.8999 77.9135L52.9384 83.6902C55.1505 85.2801 57.455 86.2448 59.8534 86.5859C62.2515 86.9266 64.5006 86.5412 66.6015 85.4292C68.0099 84.6843 68.8684 83.7616 69.176 82.66C69.235 82.4498 69.2697 82.2394 69.2804 82.0296L69.6039 75.6221C69.5933 75.8325 69.5585 76.0425 69.4996 76.2527Z" fill="#0E304C"/>
<path d="M75.2512 62.6949C75.2512 62.6949 74.3128 63.2687 73.7262 64.8848C73.139 66.4983 73.0714 67.2174 73.2741 67.7144C73.476 68.2139 73.8591 68.5396 74.6951 68.902C75.5304 69.2635 77.1786 69.1362 77.7236 69.2627C78.2686 69.3868 78.1349 69.3003 80.0906 69.7214C82.8451 70.3123 83.5793 69.8096 84.1028 69.1762C84.6351 68.5298 85.016 67.9307 84.8193 67.5308C83.6685 65.1737 79.6407 65.847 79.3043 64.4146C78.9687 62.9855 75.2512 62.6949 75.2512 62.6949Z" fill="#FAFCFC"/>
<path d="M75.4071 61.7147C75.4071 61.7147 74.4694 62.2901 73.8829 63.9037C73.2956 65.5189 73.2288 66.2363 73.43 66.7366C73.6319 67.2345 74.1821 67.7691 75.0293 68.0915C75.7041 68.347 76.3308 68.4049 76.8854 68.4449C77.806 68.5086 78.3087 68.6604 79.804 69.0831C82.1219 69.7377 84.1422 68.8048 84.6374 68.1348C85.0717 67.5447 84.8905 66.1123 83.2029 65.3989C80.7833 64.3697 79.9525 63.9665 79.461 63.4377C78.5359 62.4452 75.4071 61.7147 75.4071 61.7147Z" fill="#CE4136"/>
<path d="M75.5824 65.9311C75.6975 64.3207 74.652 62.6141 74.652 62.6141L74.5993 62.5349C74.3558 62.8704 74.096 63.3152 73.8829 63.9037C73.2956 65.5189 73.2288 66.2363 73.43 66.7366C73.6319 67.2345 74.2155 67.7511 75.0508 68.1127C75.0931 68.1307 75.1361 68.147 75.1799 68.1649C75.3722 67.5871 75.5044 67.0149 75.5824 65.9311Z" fill="#517491"/>
<path d="M54.9703 44.5496L59.0999 41.1446L73.9676 35.2428C75.8571 34.5776 78.4037 43.5188 78.3258 48.3914L79.7498 63.7314C79.7498 63.7314 79.2791 67.1087 76.3308 66.7374C74.6789 66.5293 73.482 65.2079 73.482 65.2079L72.8791 52.8795C72.8791 52.8795 64.6653 54.7967 62.4402 54.1103C58.4688 52.8885 54.9703 44.5496 54.9703 44.5496Z" fill="#0E304C"/>
<path d="M81.8027 66.2755C81.8027 66.2755 80.7231 66.9202 80.0809 68.6644C79.4357 70.4078 79.3763 71.1766 79.625 71.7014C79.8715 72.2278 80.3697 73.2791 81.355 73.6366C82.3387 73.9949 83.6759 74.1777 84.3136 74.2927C84.9514 74.4095 85.3717 74.6837 87.6629 75.0689C90.8881 75.6084 93.4251 74.3458 94.0191 73.6496C94.6212 72.9452 94.6776 71.4149 94.6776 71.4149C92.1162 70.6526 86.9969 69.4985 86.5707 67.9805C86.1424 66.4632 81.8027 66.2755 81.8027 66.2755Z" fill="#FAFCFC"/>
<path d="M81.9586 65.2242C81.9586 65.2242 80.8813 65.8682 80.2375 67.6124C79.5938 69.3549 79.5329 70.1254 79.7817 70.6518C80.0304 71.1766 80.5293 72.2287 81.5131 72.5853C82.4961 72.9453 83.834 73.1265 84.471 73.2407C85.1088 73.3558 85.7644 74.0757 88.0586 74.4331C90.3557 74.7866 93.385 73.8561 93.9426 73.1256C94.4363 72.4784 95.769 70.7253 93.2075 69.963C90.6475 69.1982 87.155 68.4457 86.7274 66.9284C86.3005 65.4095 81.9586 65.2242 81.9586 65.2242Z" fill="#FB6E5D"/>
<path d="M82.2682 69.7206C82.3632 67.9984 81.1033 66.211 81.1033 66.211L81.0401 66.1253C80.7647 66.491 80.4722 66.9774 80.2375 67.6124C79.5938 69.3549 79.5329 70.1254 79.7817 70.6518C80.0304 71.1766 80.5293 72.2287 81.5131 72.5853C81.5606 72.6041 81.6141 72.6188 81.6631 72.6359C81.8754 72.0124 82.2051 70.8787 82.2682 69.7206Z" fill="#517491"/>
<path d="M88.0401 71.5235C87.9006 71.6067 87.7862 71.4092 87.8419 71.2468C87.8419 71.2468 88.0208 70.7979 88.13 70.2315C88.2829 69.4357 88.1255 68.7771 87.9013 68.5134C87.81 68.4065 87.5998 68.3625 87.6756 68.2408C87.7476 68.1258 87.8946 68.1021 87.9852 68.2C88.274 68.5045 88.7893 69.226 88.5777 70.336C88.4515 70.993 88.277 71.3807 88.0401 71.5235Z" fill="#517491"/>
<path d="M89.1033 71.7177C88.9637 71.8018 88.8508 71.6018 88.9057 71.441C88.9057 71.441 89.0839 70.9913 89.1931 70.4241C89.3438 69.6291 89.1708 69.0349 88.9496 68.7705C88.8582 68.6619 88.6645 68.5534 88.7402 68.4318C88.813 68.32 88.9592 68.2963 89.0498 68.3902C89.3364 68.697 89.8531 69.4169 89.64 70.5285C89.5153 71.1839 89.3386 71.5749 89.1033 71.7177Z" fill="#517491"/>
<path d="M89.9964 71.9389C89.8591 72.0238 89.7432 71.8246 89.8004 71.6622C89.8004 71.6622 89.9801 71.2141 90.0877 70.6469C90.2392 69.8503 90.0602 69.2626 89.8353 68.9974C89.7447 68.8888 89.5598 68.7754 89.6333 68.6546C89.7061 68.5428 89.8516 68.5175 89.9429 68.6138C90.2325 68.9174 90.747 69.6389 90.5354 70.7505C90.4107 71.4067 90.2333 71.7977 89.9964 71.9389Z" fill="#517491"/>
<path d="M85.8447 71.7944C85.3286 71.743 84.8163 71.6671 84.4488 71.5586C84.4436 71.5912 84.4407 71.6157 84.4407 71.6157L87.1388 74.2495C87.4142 74.3173 87.7157 74.3785 88.0579 74.4331C88.2205 74.4568 88.3891 74.4723 88.5628 74.4805C88.0379 73.9516 86.8306 72.7428 85.8447 71.7944Z" fill="#F5F5F5"/>
<path d="M87.6273 71.9593C87.1128 71.9055 86.599 71.8287 86.2337 71.7218C86.2285 71.7536 86.2263 71.7757 86.2263 71.7757L88.9214 74.4136C89.0551 74.4454 89.1969 74.4756 89.3439 74.5066C89.6134 74.4992 89.8851 74.4789 90.1539 74.4495C89.5629 73.8594 88.5108 72.8041 87.6273 71.9593Z" fill="#F5F5F5"/>
<path d="M80.404 42.8855C84.4585 42.4285 84.8706 46.7305 84.8706 46.7305C85.6969 53.6231 86.2924 65.9645 86.9138 66.8681C87.2405 67.3439 86.7646 70.4151 83.8067 70.6445C82.3366 70.7596 80.6609 70.5 80.6534 69.9581L77.5834 50.9371C77.5834 50.9371 77.9606 43.1614 80.404 42.8855Z" fill="#0E304C"/>
<path d="M54.0549 54.3087C51.7696 52.3548 52.2098 46.2024 52.2098 46.2024L52.8869 35.8035L62.6666 41.3862L65.8399 46.6913L80.5487 42.2195C83.3953 42.5141 85.1422 46.8235 84.6849 51.6569L82.8563 52.4152C82.8563 52.4152 81.8599 54.8939 80.2621 52.8853C79.3734 51.7671 78.8151 50.7265 78.8151 50.7265C78.8151 50.7265 67.9136 54.88 64.8131 55.8129C59.1088 57.5309 56.237 56.1737 54.0549 54.3087Z" fill="#0E304C"/>
<path d="M78.7712 40.5406C78.7712 40.5406 79.334 39.7351 79.951 39.3955C80.568 39.0576 82.312 38.4292 82.312 38.4292C82.312 38.4292 83.1109 38.5957 82.5667 39.2437C82.0225 39.8918 81.0394 39.9579 81.0632 40.4892C81.0862 41.0238 81.3639 41.7869 81.3639 41.7869L78.7712 40.5406Z" fill="#E5B28C"/>
<path d="M80.8338 47.1875L66.3945 35.0314L66.3455 35.4199C66.3106 35.6884 66.4108 35.9553 66.6068 36.1202L79.9777 47.4381C80.4329 47.8233 81.0439 47.9123 81.5733 47.6715L92.6188 42.6381C92.9225 42.4994 93.1378 42.1925 93.1816 41.8367L93.2454 41.329L80.8338 47.1875Z" fill="#9E9D9D"/>
<path d="M93.2454 41.329L81.4871 47.3361C81.0409 47.5605 80.5167 47.4944 80.1291 47.1663L66.554 35.6884C66.2682 35.446 66.3194 34.9571 66.6483 34.7906L78.4066 28.7819L93.2454 41.329Z" fill="#D3D3D3"/>
<path d="M80.709 16.7573C80.5137 16.594 80.2539 16.5581 80.0274 16.6626L79.8329 16.7532L94.039 29.0758L92.8348 41.5706L93.235 41.3894L94.6805 29.5655C94.7451 29.0293 94.5424 28.4914 94.1541 28.1609L80.709 16.7573Z" fill="#8E8D8D"/>
<path d="M93.7562 28.3454C94.1445 28.6751 94.3449 29.213 94.2804 29.7484L92.8355 41.5715L78.045 29.0048L79.4899 17.1817C79.5367 16.7973 79.945 16.612 80.2256 16.852L93.7562 28.3454Z" fill="#C1BFBD"/>
<path d="M91.3759 40.8704C91.5095 40.9839 91.511 41.2875 91.3314 41.4385L85.8468 44.2404C85.385 44.4649 85.0524 44.1498 84.6879 43.8421L72.1374 33.2212C71.8582 32.9853 71.9837 32.6972 72.2146 32.5919L77.6085 29.8757C77.907 29.741 78.2344 29.7141 78.4215 29.8741L91.3759 40.8704Z" fill="#898686"/>
<path d="M81.6572 39.5743C81.6535 39.602 81.6342 39.6257 81.6 39.642L80.8598 39.9832C80.7885 40.0167 80.6823 40.0028 80.6207 39.9497L80.6029 40.1015C80.663 40.1538 80.7714 40.1668 80.8412 40.1358L81.58 39.7946C81.6164 39.7799 81.6357 39.753 81.6401 39.7244L81.6572 39.5743Z" fill="#737373"/>
<path d="M79.2643 40.1219C79.6771 40.4729 79.6221 40.9308 79.144 41.1495L76.9827 42.1354C76.506 42.3517 75.7836 42.2473 75.3708 41.8955L72.4604 39.4282C72.0483 39.0797 72.1032 38.6186 72.5792 38.4006L74.7434 37.4163C75.2201 37.1984 75.9425 37.3037 76.3546 37.6546L79.2643 40.1219Z" fill="#9E9D9D"/>
<path d="M93.0465 29.6104L91.8845 39.1172L79.0475 28.227L80.2087 18.7193L93.0465 29.6104Z" fill="#8E8D8D"/>
<path d="M79.2085 28.0907L91.9149 38.8667L93.0464 29.6104L80.34 18.8328L79.2085 28.0907Z" fill="#1B1B1B"/>
<path d="M78.8864 30.4363C78.9473 30.4853 78.9384 30.5555 78.8678 30.5857L78.1261 30.9244C78.0556 30.9571 77.9494 30.9407 77.8878 30.8893L77.2493 30.3466C77.1877 30.2968 77.1958 30.2266 77.2671 30.1956L78.0081 29.8577C78.0793 29.8258 78.1855 29.8413 78.2464 29.8936L78.8864 30.4363Z" fill="#4A4A4A"/>
<path d="M81.1405 32.3291C81.2029 32.3789 81.1925 32.4482 81.1227 32.4809L80.3817 32.8204C80.3104 32.8522 80.2043 32.8367 80.1419 32.7853L79.5034 32.2426C79.4432 32.1895 79.4514 32.121 79.5219 32.0891L80.2637 31.752C80.3349 31.7194 80.4418 31.7357 80.502 31.7871L81.1405 32.3291Z" fill="#4A4A4A"/>
<path d="M79.9533 31.3146C80.0142 31.3668 80.006 31.4345 79.9348 31.468L79.193 31.8051C79.121 31.8377 79.0156 31.8222 78.9547 31.7692L78.3169 31.2272C78.2561 31.1758 78.262 31.1089 78.334 31.0762L79.0757 30.7375C79.1462 30.7049 79.2547 30.7212 79.3141 30.7726L79.9533 31.3146Z" fill="#4A4A4A"/>
<path d="M82.266 33.2889C82.3277 33.3404 82.318 33.4089 82.2482 33.4415L81.505 33.777C81.433 33.8105 81.3283 33.7941 81.2667 33.7411L80.6282 33.2C80.5673 33.1502 80.5755 33.0808 80.6468 33.0482L81.3884 32.7111C81.4582 32.6768 81.5659 32.6923 81.626 32.7454L82.266 33.2889Z" fill="#4A4A4A"/>
<path d="M83.3738 34.2259C83.4354 34.2781 83.4273 34.345 83.3567 34.3785L82.615 34.7147C82.5438 34.749 82.4368 34.7343 82.376 34.6796L81.7382 34.1377C81.6773 34.0863 81.6862 34.0186 81.7553 33.9859L82.497 33.648C82.5683 33.6162 82.6744 33.6317 82.7353 33.6831L83.3738 34.2259Z" fill="#4A4A4A"/>
<path d="M84.4838 35.1645C84.5454 35.2175 84.538 35.2869 84.4682 35.3187L83.7243 35.6566C83.6538 35.6885 83.5468 35.673 83.4867 35.6215L82.8482 35.0796C82.7873 35.0282 82.7962 34.9588 82.8652 34.9261L83.607 34.5899C83.6775 34.5572 83.7837 34.5719 83.8453 34.6242L84.4838 35.1645Z" fill="#4A4A4A"/>
<path d="M78.7431 32.0516C78.8055 32.1022 78.7966 32.1715 78.7253 32.2042L77.9843 32.5421C77.9138 32.5747 77.8061 32.5584 77.7445 32.507L75.9923 31.0183C75.9307 30.9669 75.9396 30.8983 76.0101 30.8657L76.7511 30.5286C76.8231 30.4959 76.9286 30.5115 76.9902 30.5629L78.7431 32.0516Z" fill="#4A4A4A"/>
<path d="M79.8078 32.9257C79.8687 32.9779 79.8598 33.0449 79.7907 33.0767L79.0497 33.4146C78.9777 33.4456 78.8708 33.4309 78.8092 33.3778L78.1714 32.8375C78.1105 32.7853 78.1187 32.7167 78.1885 32.6849L78.9302 32.3462C79.0022 32.3144 79.1076 32.3307 79.1685 32.3813L79.8078 32.9257Z" fill="#4A4A4A"/>
<path d="M81.0068 33.9361C81.067 33.9892 81.0581 34.0553 80.9898 34.0879L80.2466 34.4266C80.1753 34.4585 80.0713 34.4421 80.0097 34.3891L79.3697 33.8488C79.3081 33.7974 79.3163 33.7296 79.3868 33.697L80.1285 33.3574C80.1998 33.3264 80.306 33.3428 80.3683 33.3942L81.0068 33.9361Z" fill="#4A4A4A"/>
<path d="M82.1205 34.8845C82.1814 34.9335 82.1724 35.0037 82.1019 35.0355L81.3609 35.3734C81.2889 35.4061 81.1828 35.3906 81.1219 35.3367L80.4834 34.7964C80.4217 34.7441 80.4307 34.6748 80.5004 34.6454L81.2444 34.3042C81.3142 34.2716 81.4211 34.2871 81.4827 34.3393L82.1205 34.8845Z" fill="#4A4A4A"/>
<path d="M83.2357 35.8272C83.2973 35.8811 83.2884 35.9488 83.2179 35.9807L82.4761 36.3186C82.4056 36.3512 82.2987 36.3349 82.2378 36.2835L81.5985 35.7423C81.5384 35.6893 81.5466 35.624 81.6163 35.5889L82.3588 35.251C82.4286 35.2192 82.5355 35.2355 82.5964 35.2861L83.2357 35.8272Z" fill="#4A4A4A"/>
<path d="M77.4861 32.6237C77.5485 32.6751 77.5396 32.7437 77.4683 32.7755L76.7273 33.1134C76.6561 33.1444 76.5499 33.1281 76.4882 33.0783L74.7353 31.5921C74.6744 31.539 74.6834 31.4705 74.7531 31.4378L75.4948 31.0999C75.5661 31.0681 75.673 31.0836 75.7346 31.135L77.4861 32.6237Z" fill="#4A4A4A"/>
<path d="M78.6012 33.5688C78.6628 33.6219 78.6539 33.6888 78.5826 33.7206L77.8402 34.0585C77.7711 34.0904 77.6635 34.0757 77.6026 34.0242L76.9633 33.4815C76.9025 33.4292 76.9106 33.3615 76.9812 33.3305L77.7236 32.9918C77.7927 32.9599 77.9011 32.9771 77.9612 33.0277L78.6012 33.5688Z" fill="#4A4A4A"/>
<path d="M79.7499 34.5629C79.8108 34.616 79.8019 34.6829 79.7306 34.7172L78.9896 35.0551C78.9184 35.0853 78.8107 35.0698 78.7513 35.0192L78.1113 34.478C78.0519 34.425 78.0593 34.3564 78.1291 34.3238L78.8723 33.9859C78.9436 33.9557 79.0498 33.9696 79.1114 34.021L79.7499 34.5629Z" fill="#4A4A4A"/>
<path d="M80.8636 35.5097C80.9245 35.5619 80.9155 35.6305 80.845 35.6631L80.1048 36.001C80.0335 36.0329 79.9266 36.0182 79.8664 35.9651L79.2257 35.424C79.1663 35.3709 79.1752 35.3032 79.2443 35.2705L79.9867 34.9326C80.058 34.8992 80.1664 34.9155 80.2251 34.9677L80.8636 35.5097Z" fill="#4A4A4A"/>
<path d="M85.5996 36.1105C85.6605 36.1635 85.6516 36.2312 85.5803 36.2631L84.8379 36.6034C84.7688 36.6336 84.6619 36.6189 84.6017 36.5675L83.9617 36.0247C83.9009 35.9725 83.9091 35.9048 83.9796 35.8729L84.722 35.5342C84.7926 35.5032 84.8987 35.5179 84.9604 35.5693L85.5996 36.1105Z" fill="#4A4A4A"/>
<path d="M84.3501 36.7748C84.4118 36.8262 84.4036 36.894 84.3331 36.9258L83.5906 37.2637C83.5193 37.298 83.4147 37.2808 83.3523 37.2278L82.7138 36.6858C82.6522 36.6344 82.6611 36.5667 82.7301 36.5349L83.4718 36.197C83.5438 36.1643 83.6493 36.1806 83.7109 36.2329L84.3501 36.7748Z" fill="#4A4A4A"/>
<path d="M81.9771 36.4557C82.038 36.5079 82.0321 36.5748 81.9616 36.6083L81.2198 36.9454C81.1478 36.9772 81.0402 36.9617 80.9793 36.9103L80.3415 36.3683C80.2799 36.3161 80.2888 36.2492 80.3586 36.2165L81.1011 35.8786C81.1716 35.846 81.2785 35.8631 81.3409 35.9129L81.9771 36.4557Z" fill="#4A4A4A"/>
<path d="M83.0925 37.4008C83.1541 37.4522 83.1459 37.5208 83.0761 37.5543L82.3336 37.893C82.2631 37.9248 82.1547 37.9093 82.0938 37.8571L81.4561 37.3143C81.3952 37.2629 81.4041 37.1943 81.4746 37.1609L82.2149 36.8246C82.2869 36.7903 82.3908 36.8083 82.4532 36.8597L83.0925 37.4008Z" fill="#4A4A4A"/>
<path d="M77.4037 34.2332C77.4646 34.283 77.4564 34.3523 77.3866 34.385L76.6449 34.7213C76.5728 34.7539 76.4667 34.7376 76.4051 34.6862L73.5377 32.2523C73.4768 32.2017 73.4842 32.1332 73.5555 32.1005L74.2972 31.7626C74.3692 31.73 74.4747 31.7463 74.5363 31.7977L77.4037 34.2332Z" fill="#4A4A4A"/>
<path d="M78.4943 35.1751C78.5545 35.2289 78.547 35.2967 78.4758 35.3293L77.734 35.668C77.6635 35.6998 77.5566 35.6835 77.4957 35.6321L76.8557 35.091C76.7948 35.0396 76.803 34.971 76.8743 34.9367L77.6168 34.5996C77.6873 34.5678 77.7935 34.5833 77.8543 34.6347L78.4943 35.1751Z" fill="#4A4A4A"/>
<path d="M79.6081 36.1211C79.6697 36.1725 79.6608 36.2402 79.591 36.2737L78.8486 36.6107C78.7773 36.6434 78.6696 36.6303 78.6095 36.5756L77.971 36.0345C77.9108 35.9815 77.919 35.9137 77.9888 35.8811L78.7312 35.5448C78.8018 35.5122 78.9072 35.5277 78.9696 35.5799L79.6081 36.1211Z" fill="#4A4A4A"/>
<path d="M80.7225 37.0678C80.7849 37.1192 80.776 37.187 80.7069 37.2188L79.963 37.5575C79.8917 37.5901 79.787 37.5746 79.7254 37.5224L79.0862 36.9805C79.026 36.9282 79.0327 36.8605 79.1032 36.8279L79.8457 36.4891C79.917 36.4565 80.0246 36.4728 80.084 36.525L80.7225 37.0678Z" fill="#4A4A4A"/>
<path d="M81.8383 38.0129C81.8999 38.0643 81.8895 38.1337 81.8212 38.1647L81.0773 38.5034C81.0083 38.5353 80.9006 38.5206 80.8412 38.4683L80.2012 37.9248C80.1388 37.875 80.1477 37.8064 80.2183 37.7746L80.9593 37.4367C81.0313 37.4041 81.1375 37.4204 81.1991 37.4718L81.8383 38.0129Z" fill="#4A4A4A"/>
<path d="M86.7134 37.0572C86.7743 37.1094 86.7661 37.1772 86.6948 37.2098L85.9546 37.5477C85.8826 37.5804 85.7756 37.5649 85.7148 37.5126L85.0763 36.9699C85.0154 36.9193 85.0235 36.8515 85.0941 36.8181L85.838 36.4802C85.9071 36.4483 86.0147 36.4638 86.0756 36.5153L86.7134 37.0572Z" fill="#4A4A4A"/>
<path d="M85.463 37.7191C85.5254 37.7713 85.5187 37.8399 85.4481 37.8742L84.7049 38.2113C84.6322 38.2439 84.5268 38.2276 84.4666 38.1761L83.8266 37.635C83.7665 37.5811 83.7739 37.5142 83.8452 37.4816L84.5869 37.1429C84.6589 37.1102 84.7658 37.1265 84.8252 37.1771L85.463 37.7191Z" fill="#4A4A4A"/>
<path d="M84.2076 38.3476C84.2685 38.399 84.2603 38.4683 84.189 38.4994L83.4495 38.8373C83.376 38.8699 83.2699 38.8552 83.2082 38.8013L82.5712 38.2602C82.5088 38.2096 82.5185 38.1402 82.5883 38.1068L83.3315 37.7689C83.4012 37.7354 83.5082 37.7517 83.569 37.804L84.2076 38.3476Z" fill="#4A4A4A"/>
<path d="M82.9521 38.9572C83.0129 39.0119 83.0048 39.0789 82.9342 39.1123L82.1925 39.4494C82.1205 39.4804 82.0144 39.4649 81.9535 39.4143L81.3157 38.8716C81.2548 38.8185 81.2637 38.7516 81.3328 38.7181L82.0752 38.3802C82.1465 38.3476 82.2534 38.3647 82.3143 38.4153L82.9521 38.9572Z" fill="#4A4A4A"/>
<path d="M73.9735 32.9428C74.0336 32.9959 74.0262 33.0644 73.9549 33.0962L73.214 33.4358C73.142 33.4684 73.0365 33.4521 72.9764 33.3999L72.3349 32.8579C72.2748 32.8065 72.2837 32.7371 72.3535 32.7045L73.0944 32.3674C73.1672 32.3348 73.2726 32.3503 73.3343 32.4017L73.9735 32.9428Z" fill="#4A4A4A"/>
<path d="M75.0382 33.8439C75.0991 33.8953 75.0909 33.9638 75.0211 33.9957L74.2779 34.3336C74.2081 34.3646 74.1005 34.3483 74.0388 34.2985L73.3996 33.7557C73.3402 33.7051 73.3491 33.6366 73.4189 33.6015L74.1599 33.2652C74.2319 33.2325 74.3366 33.2481 74.3997 33.2995L75.0382 33.8439Z" fill="#4A4A4A"/>
<path d="M76.1534 34.7883C76.2135 34.8413 76.2054 34.9082 76.1363 34.9425L75.3923 35.2796C75.3218 35.3122 75.2149 35.2967 75.154 35.2445L74.5163 34.7025C74.4546 34.6495 74.4636 34.5826 74.5326 34.5483L75.2758 34.2112C75.3463 34.1786 75.454 34.1973 75.5134 34.2479L76.1534 34.7883Z" fill="#4A4A4A"/>
<path d="M81.7262 39.5172C81.7863 39.5686 81.7789 39.6363 81.7084 39.6714L80.9652 40.0069C80.8947 40.0403 80.7892 40.0248 80.7276 39.9734L75.6299 35.6493C75.569 35.5971 75.5772 35.5285 75.6485 35.4951L76.3909 35.1588C76.4615 35.1245 76.5676 35.1408 76.6285 35.1939L81.7262 39.5172Z" fill="#4A4A4A"/>
<path d="M87.8286 38.0031C87.8894 38.0537 87.8813 38.1215 87.8107 38.155L87.0683 38.4912C86.9978 38.5239 86.8916 38.5092 86.8307 38.4569L86.1922 37.9142C86.1313 37.8619 86.138 37.795 86.2078 37.7624L86.9517 37.4245C87.0208 37.3926 87.1284 37.409 87.1886 37.4604L87.8286 38.0031Z" fill="#4A4A4A"/>
<path d="M88.9445 38.9491C89.0046 38.9997 88.995 39.0682 88.9259 39.1017L88.1827 39.4396C88.1107 39.4714 88.006 39.4559 87.9459 39.4037L87.3059 38.8633C87.245 38.8103 87.2524 38.7409 87.3237 38.7115L88.0646 38.3712C88.1367 38.3385 88.2428 38.3541 88.3045 38.4071L88.9445 38.9491Z" fill="#4A4A4A"/>
<path d="M91.171 40.841C91.2334 40.8916 91.2245 40.9593 91.1532 40.9911L90.413 41.3315C90.341 41.3625 90.2348 41.347 90.1739 41.2964L88.421 39.8077C88.3594 39.7563 88.369 39.6877 88.4381 39.6559L89.1812 39.3172C89.251 39.2821 89.3579 39.2992 89.4196 39.3523L91.171 40.841Z" fill="#4A4A4A"/>
<path d="M86.5797 38.665C86.6406 38.7173 86.6317 38.785 86.5612 38.8177L85.821 39.1572C85.7497 39.1898 85.6413 39.1735 85.5812 39.1213L84.9434 38.5793C84.8825 38.5271 84.8907 38.4586 84.9605 38.4259L85.7022 38.0888C85.7735 38.0562 85.8804 38.0709 85.9405 38.1231L86.5797 38.665Z" fill="#4A4A4A"/>
<path d="M87.6948 39.611C87.7557 39.6633 87.7476 39.731 87.6763 39.762L86.9346 40.1007C86.864 40.1325 86.7571 40.117 86.6948 40.0656L86.0577 39.5237C85.9961 39.4706 86.005 39.4029 86.0748 39.3719L86.8165 39.0356C86.8885 39.0013 86.9932 39.0176 87.0556 39.0707L87.6948 39.611Z" fill="#4A4A4A"/>
<path d="M88.8078 40.557C88.8687 40.6092 88.8612 40.6762 88.7907 40.7088L88.0497 41.0475C87.977 41.081 87.8716 41.0646 87.8099 41.0124L87.1722 40.4697C87.112 40.4182 87.1179 40.3505 87.19 40.3186L87.9309 39.98C88.0029 39.9481 88.1099 39.9636 88.17 40.0167L88.8078 40.557Z" fill="#4A4A4A"/>
<path d="M89.9222 41.5021C89.9831 41.5543 89.9742 41.6229 89.9037 41.6539L89.1634 41.9926C89.0922 42.0236 88.986 42.0097 88.9244 41.9567L88.2859 41.4147C88.2242 41.3633 88.2324 41.2956 88.3029 41.2613L89.0446 40.9259C89.1159 40.8916 89.2228 40.9071 89.283 40.9609L89.9222 41.5021Z" fill="#4A4A4A"/>
<path d="M85.3213 39.2919C85.3836 39.3449 85.3754 39.4119 85.3049 39.4445L84.5632 39.7832C84.4912 39.8143 84.385 39.7979 84.3226 39.7457L83.6856 39.2037C83.624 39.1523 83.6314 39.0846 83.7042 39.052L84.4451 38.7157C84.5157 38.6822 84.6226 38.6977 84.6835 38.7499L85.3213 39.2919Z" fill="#4A4A4A"/>
<path d="M86.4372 40.2395C86.4973 40.2901 86.4891 40.3578 86.4193 40.3904L85.6783 40.7283C85.6071 40.761 85.5001 40.7455 85.4385 40.6941L84.8 40.1513C84.7399 40.0991 84.7466 40.0313 84.8171 39.9995L85.5581 39.6616C85.6308 39.6289 85.737 39.6453 85.7972 39.6959L86.4372 40.2395Z" fill="#4A4A4A"/>
<path d="M88.666 42.1297C88.7262 42.1836 88.7195 42.2489 88.649 42.2832L87.9065 42.6194C87.8345 42.6545 87.7283 42.6374 87.6674 42.5843L85.9138 41.0997C85.8529 41.045 85.8618 40.9773 85.9331 40.9446L86.6725 40.6084C86.7453 40.5749 86.8515 40.5904 86.9116 40.6435L88.666 42.1297Z" fill="#4A4A4A"/>
<path d="M84.0665 39.904C84.1282 39.9562 84.1199 40.0248 84.0509 40.0574L83.3077 40.3945C83.2364 40.4272 83.1295 40.4117 83.0686 40.3586L82.4294 39.8175C82.3693 39.7661 82.3774 39.6967 82.4479 39.6641L83.1904 39.327C83.2602 39.2943 83.3671 39.3098 83.428 39.362L84.0665 39.904Z" fill="#4A4A4A"/>
<path d="M85.1809 40.8516C85.244 40.9038 85.2351 40.9707 85.1638 41.0026L84.4221 41.3405C84.3508 41.3723 84.2447 41.3568 84.1846 41.3054L83.5468 40.7634C83.4844 40.712 83.4911 40.6435 83.5616 40.6133L84.3048 40.2745C84.3761 40.2419 84.4815 40.2582 84.5439 40.3096L85.1809 40.8516Z" fill="#4A4A4A"/>
<path d="M87.4105 42.7418C87.4721 42.794 87.4632 42.8618 87.3919 42.892L86.651 43.2307C86.5789 43.2642 86.4728 43.247 86.4119 43.198L84.659 41.7093C84.5988 41.6571 84.6055 41.5894 84.6768 41.5567L85.4185 41.2188C85.4905 41.187 85.596 41.2041 85.6583 41.2539L87.4105 42.7418Z" fill="#4A4A4A"/>
<path d="M82.84 40.4631C82.9008 40.5161 82.8934 40.5831 82.8244 40.6141L82.0804 40.9544C82.0106 40.9863 81.9022 40.9707 81.8414 40.9193L81.2028 40.3766C81.1419 40.3251 81.1509 40.2582 81.2207 40.2248L81.9639 39.8869C82.0336 39.855 82.1413 39.8705 82.2022 39.9211L82.84 40.4631Z" fill="#4A4A4A"/>
<path d="M86.1817 43.3001C86.2434 43.3532 86.2374 43.4193 86.1654 43.4519L85.4237 43.7898C85.3532 43.8233 85.2455 43.8061 85.1838 43.7563L83.4309 42.2676C83.3715 42.2146 83.3797 42.1477 83.4495 42.1158L84.1912 41.7771C84.2625 41.7453 84.3694 41.7616 84.4295 41.813L86.1817 43.3001Z" fill="#4A4A4A"/>
<path d="M77.8878 30.8894L77.2493 30.3466C77.2181 30.3221 77.2047 30.2936 77.2077 30.2625L77.1899 30.4144C77.1854 30.4421 77.2003 30.4739 77.23 30.4984L77.87 31.042L77.8878 30.8894Z" fill="#636363"/>
<path d="M78.9273 30.5172C78.9235 30.5466 78.9035 30.5702 78.8679 30.5865L78.1261 30.9253C78.0556 30.9579 77.9494 30.9416 77.8878 30.8902L77.87 31.042C77.9301 31.0934 78.0378 31.1097 78.1083 31.0779L78.8493 30.7384C78.8849 30.7245 78.9042 30.6984 78.9094 30.6706L78.9273 30.5172Z" fill="#3D3D3D"/>
<path d="M78.9539 31.7667L78.3154 31.224C78.2857 31.1987 78.2709 31.1676 78.2753 31.1399L78.2568 31.2909C78.2523 31.3194 78.2664 31.3488 78.2968 31.3758L78.9361 31.9169L78.9539 31.7667Z" fill="#636363"/>
<path d="M79.9927 31.3962C79.989 31.4223 79.9704 31.4468 79.9355 31.4639L79.1923 31.801C79.1218 31.8353 79.0148 31.8189 78.954 31.7667L78.9362 31.9169C78.9963 31.97 79.1025 31.9855 79.1745 31.952L79.9169 31.6149C79.9533 31.597 79.9711 31.5741 79.9741 31.5455L79.9927 31.3962Z" fill="#3D3D3D"/>
<path d="M80.1419 32.7853L79.5034 32.2425C79.4722 32.2156 79.4603 32.1854 79.4618 32.1568L79.4432 32.3111C79.441 32.3372 79.4544 32.3682 79.4856 32.3943L80.1241 32.9363L80.1419 32.7853Z" fill="#636363"/>
<path d="M81.182 32.4123C81.179 32.4401 81.1575 32.4654 81.1226 32.4809L80.3816 32.8204C80.3104 32.8522 80.2042 32.8367 80.1418 32.7853L80.124 32.9347C80.1856 32.9869 80.2925 33.004 80.3623 32.9706L81.1055 32.6319C81.1404 32.6147 81.1597 32.5911 81.1627 32.5641L81.182 32.4123Z" fill="#3D3D3D"/>
<path d="M81.2578 33.728L80.6178 33.1869C80.5866 33.1608 80.5747 33.1281 80.5785 33.1028L80.5592 33.2546C80.5547 33.2807 80.5688 33.3109 80.5992 33.3379L81.2392 33.8806L81.2578 33.728Z" fill="#636363"/>
<path d="M82.2958 33.3575C82.2936 33.3836 82.2728 33.4097 82.2371 33.4269L81.4962 33.7631C81.4249 33.7958 81.318 33.7795 81.2578 33.7289L81.2393 33.8815C81.3001 33.9329 81.4063 33.9476 81.4768 33.9174L82.2186 33.577C82.2542 33.5624 82.2728 33.5362 82.2765 33.5101L82.2958 33.3575Z" fill="#3D3D3D"/>
<path d="M82.3715 34.6756L81.733 34.132C81.7025 34.1075 81.6892 34.0781 81.6929 34.0488L81.6736 34.1998C81.6699 34.2275 81.6832 34.2561 81.7129 34.2953L82.3507 34.8372L82.3715 34.6756Z" fill="#636363"/>
<path d="M83.4109 34.3034C83.4064 34.3319 83.3879 34.3564 83.3515 34.3728L82.6098 34.7107C82.5385 34.7425 82.4324 34.7278 82.3715 34.6747L82.3522 34.8249C82.4131 34.878 82.5207 34.8935 82.5913 34.86L83.3337 34.5229C83.3701 34.5074 83.3886 34.4821 83.3924 34.4552L83.4109 34.3034Z" fill="#3D3D3D"/>
<path d="M83.4866 35.6207L82.8481 35.0788C82.8169 35.0502 82.8043 35.0217 82.8072 34.9947L82.7879 35.1473C82.7842 35.1734 82.7984 35.2037 82.8295 35.2314L83.468 35.7717L83.4866 35.6207Z" fill="#636363"/>
<path d="M84.5253 35.2486C84.5216 35.2771 84.5015 35.3024 84.4681 35.3188L83.7242 35.6567C83.6537 35.6885 83.5467 35.673 83.4866 35.6216L83.468 35.7717C83.5289 35.824 83.6366 35.8395 83.7071 35.8068L84.4481 35.4706C84.4844 35.4534 84.5045 35.4289 84.5067 35.4028L84.5253 35.2486Z" fill="#3D3D3D"/>
<path d="M77.7437 32.5062L75.9915 31.0174C75.9603 30.9905 75.9477 30.9619 75.9514 30.9326L75.9307 31.0844C75.9292 31.1138 75.9418 31.1439 75.973 31.1684L77.7259 32.6571L77.7437 32.5062Z" fill="#636363"/>
<path d="M78.7832 32.1357C78.7802 32.1626 78.7602 32.1871 78.7253 32.2034L77.9843 32.5413C77.9138 32.5739 77.8061 32.5576 77.7445 32.5062L77.7267 32.6572C77.7868 32.7086 77.8945 32.7249 77.965 32.6923L78.7067 32.3552C78.7423 32.3389 78.7631 32.3144 78.7654 32.2866L78.7832 32.1357Z" fill="#3D3D3D"/>
<path d="M78.8092 33.3778L78.1714 32.8375C78.1395 32.8106 78.1261 32.7812 78.1298 32.7527L78.1113 32.9045C78.1083 32.933 78.1209 32.9624 78.1536 32.9885L78.7906 33.5313L78.8092 33.3778Z" fill="#636363"/>
<path d="M79.8486 33.0098C79.8457 33.0351 79.8241 33.0612 79.7907 33.0767L79.0498 33.4146C78.9777 33.4456 78.8708 33.4309 78.8092 33.3779L78.7906 33.5313C78.8508 33.5835 78.9585 33.599 79.0297 33.5656L79.7707 33.2285C79.8056 33.2122 79.8271 33.1877 79.8301 33.1608L79.8486 33.0098Z" fill="#3D3D3D"/>
<path d="M80.009 34.3891L79.369 33.8488C79.3378 33.8227 79.3252 33.7933 79.3297 33.7647L79.3096 33.9157C79.3059 33.9443 79.3185 33.9745 79.349 34.0006L79.9912 34.5425L80.009 34.3891Z" fill="#636363"/>
<path d="M81.0455 34.0202C81.0418 34.048 81.0232 34.0733 80.9891 34.088L80.2458 34.4266C80.1746 34.4585 80.0706 34.4422 80.009 34.3891L79.9912 34.5425C80.0499 34.5948 80.1568 34.6103 80.2273 34.5776L80.9698 34.2397C81.0054 34.225 81.024 34.1981 81.0277 34.172L81.0455 34.0202Z" fill="#3D3D3D"/>
<path d="M81.1219 35.3367L80.4834 34.7964C80.4529 34.7703 80.4388 34.7392 80.4425 34.7123L80.4247 34.8649C80.4218 34.8902 80.4351 34.9213 80.4648 34.9457L81.1033 35.4869L81.1219 35.3367Z" fill="#636363"/>
<path d="M82.1614 34.9669C82.1584 34.9939 82.1376 35.0192 82.102 35.0347L81.361 35.3726C81.289 35.4052 81.1829 35.3897 81.122 35.3359L81.1034 35.486C81.165 35.5391 81.2719 35.5554 81.3425 35.5228L82.0842 35.1857C82.1191 35.1702 82.1399 35.1449 82.1429 35.1171L82.1614 34.9669Z" fill="#3D3D3D"/>
<path d="M82.237 36.2826L81.5978 35.7415C81.5689 35.7146 81.5532 35.6835 81.5584 35.6582L81.5384 35.8084C81.5347 35.837 81.5495 35.8672 81.5792 35.8925L82.2185 36.4344L82.237 36.2826Z" fill="#636363"/>
<path d="M83.2758 35.9129C83.2713 35.9374 83.2527 35.966 83.2171 35.9807L82.4754 36.3185C82.4049 36.3512 82.2979 36.3349 82.237 36.2835L82.2185 36.4352C82.2779 36.4875 82.3863 36.503 82.4568 36.4703L83.1993 36.1357C83.2334 36.1177 83.2535 36.0916 83.2565 36.0655L83.2758 35.9129Z" fill="#3D3D3D"/>
<path d="M76.4875 33.0783L74.7345 31.5921C74.7041 31.5659 74.6907 31.5357 74.6944 31.5072L74.6744 31.6598C74.6707 31.6884 74.6855 31.7161 74.7159 31.743L76.4674 33.2301L76.4875 33.0783Z" fill="#636363"/>
<path d="M77.5262 32.7078C77.5232 32.7347 77.5032 32.7592 77.4675 32.7755L76.7265 33.1134C76.6552 33.1445 76.5491 33.1281 76.4875 33.0783L76.4674 33.2293C76.5305 33.2808 76.6375 33.2971 76.7095 33.2644L77.449 32.9265C77.4853 32.911 77.5054 32.8857 77.5084 32.8588L77.5262 32.7078Z" fill="#3D3D3D"/>
<path d="M77.6027 34.0243L76.9634 33.4815C76.9323 33.457 76.9196 33.4269 76.9226 33.3983L76.9048 33.5501C76.901 33.5762 76.9152 33.608 76.9449 33.6333L77.5841 34.1753L77.6027 34.0243Z" fill="#636363"/>
<path d="M78.6399 33.6537C78.6377 33.6823 78.6198 33.706 78.5827 33.7215L77.8402 34.0594C77.7712 34.0912 77.6635 34.0765 77.6026 34.0251L77.5841 34.1769C77.645 34.2275 77.7526 34.2438 77.8224 34.212L78.5642 33.8757C78.5991 33.8578 78.6198 33.8341 78.6221 33.8064L78.6399 33.6537Z" fill="#3D3D3D"/>
<path d="M78.7512 35.0192L78.1112 34.478C78.0822 34.4519 78.0674 34.4209 78.0711 34.3923L78.0525 34.5458C78.0481 34.5727 78.0629 34.6021 78.0926 34.6282L78.7326 35.1702L78.7512 35.0192Z" fill="#636363"/>
<path d="M79.7892 34.6487C79.7862 34.6748 79.7669 34.7009 79.7305 34.718L78.9896 35.0559C78.9183 35.0861 78.8106 35.0706 78.7512 35.02L78.7327 35.171C78.7935 35.2233 78.9012 35.2388 78.971 35.2053L79.7134 34.8666C79.7483 34.8511 79.7677 34.8274 79.7721 34.7996L79.7892 34.6487Z" fill="#3D3D3D"/>
<path d="M79.8664 35.9643L79.2257 35.4232C79.196 35.3979 79.1834 35.3668 79.1864 35.3407L79.1671 35.4893C79.1634 35.5187 79.1774 35.5456 79.2071 35.575L79.8479 36.1169L79.8664 35.9643Z" fill="#636363"/>
<path d="M80.9044 35.5938C80.9014 35.6207 80.8814 35.646 80.845 35.6631L80.1048 36.001C80.0335 36.0329 79.9266 36.0182 79.8664 35.9651L79.8479 36.1178C79.9073 36.1676 80.0157 36.1847 80.0855 36.1529L80.8272 35.8141C80.8628 35.797 80.8814 35.7733 80.8866 35.7464L80.9044 35.5938Z" fill="#3D3D3D"/>
<path d="M84.601 36.5666L83.961 36.0239C83.9306 35.9969 83.918 35.9676 83.9202 35.9398L83.9024 36.0916C83.8994 36.1186 83.912 36.1479 83.9425 36.1749L84.5817 36.716L84.601 36.5666Z" fill="#636363"/>
<path d="M85.6406 36.197C85.6368 36.2231 85.6168 36.2451 85.5804 36.2631L84.838 36.6034C84.7689 36.6336 84.662 36.6189 84.6018 36.5675L84.5825 36.7169C84.6434 36.7699 84.7503 36.7862 84.8201 36.752L85.5633 36.4149C85.5982 36.3986 85.6183 36.3741 85.6213 36.3471L85.6406 36.197Z" fill="#3D3D3D"/>
<path d="M83.3516 37.2278L82.7131 36.6858C82.6834 36.6605 82.6685 36.6303 82.6722 36.6034L82.6544 36.7519C82.6499 36.7829 82.6633 36.8107 82.6952 36.8376L83.3338 37.3804L83.3516 37.2278Z" fill="#636363"/>
<path d="M84.3894 36.8564C84.3857 36.8858 84.3671 36.9095 84.3322 36.9258L83.5898 37.2637C83.5185 37.298 83.4138 37.2808 83.3515 37.2278L83.3329 37.3812C83.3923 37.4334 83.4985 37.4489 83.5705 37.4171L84.3122 37.0784C84.3478 37.0629 84.3671 37.0376 84.3716 37.0107L84.3894 36.8564Z" fill="#3D3D3D"/>
<path d="M80.9793 36.9095L80.3416 36.3675C80.3119 36.3422 80.2963 36.3112 80.3007 36.2851L80.2829 36.4352C80.2792 36.4638 80.2933 36.494 80.3223 36.5185L80.9615 37.0612L80.9793 36.9095Z" fill="#636363"/>
<path d="M82.0195 36.5405C82.0158 36.5683 81.9958 36.592 81.9616 36.6083L81.2199 36.9454C81.1479 36.9772 81.0402 36.9617 80.9794 36.9103L80.9615 37.0621C81.0217 37.1135 81.1286 37.1298 81.2006 37.0972L81.943 36.7601C81.9772 36.7429 81.9973 36.7201 81.9995 36.6923L82.0195 36.5405Z" fill="#3D3D3D"/>
<path d="M83.1339 37.4849C83.1295 37.5126 83.1109 37.5379 83.076 37.5543L82.3336 37.893C82.263 37.9248 82.1546 37.9093 82.0937 37.8571L82.0767 38.0081C82.1368 38.0595 82.2452 38.0766 82.315 38.044L83.0567 37.7036C83.0923 37.6881 83.1124 37.6636 83.1161 37.6367L83.1339 37.4849Z" fill="#3D3D3D"/>
<path d="M76.4051 34.6862L73.5378 32.2524C73.5066 32.2263 73.494 32.1953 73.4977 32.1667L73.4799 32.3218C73.4747 32.3487 73.488 32.3789 73.5185 32.405L76.3873 34.8397L76.4051 34.6862Z" fill="#636363"/>
<path d="M77.4957 35.6313L76.8557 35.0902C76.826 35.0624 76.8126 35.0338 76.8156 35.0045L76.7971 35.1571C76.7926 35.1848 76.8067 35.215 76.8379 35.2428L77.4772 35.7823L77.4957 35.6313Z" fill="#636363"/>
<path d="M78.5352 35.2591C78.53 35.2885 78.5121 35.3114 78.4765 35.3285L77.7348 35.6672C77.6643 35.699 77.5574 35.6827 77.4965 35.6313L77.4779 35.7815C77.5388 35.8337 77.6457 35.85 77.7162 35.8166L78.458 35.4803C78.4936 35.464 78.5122 35.4387 78.5159 35.4101L78.5352 35.2591Z" fill="#3D3D3D"/>
<path d="M78.6094 36.5765L77.9709 36.0354C77.9405 36.0084 77.9271 35.9782 77.9301 35.9505L77.9115 36.1015C77.9093 36.1284 77.9219 36.1586 77.9531 36.1855L78.5909 36.7275L78.6094 36.5765Z" fill="#636363"/>
<path d="M79.6497 36.2059C79.646 36.2329 79.6274 36.259 79.5918 36.2737L78.8493 36.6107C78.778 36.6434 78.6704 36.6303 78.6103 36.5756L78.5917 36.7275C78.6526 36.7781 78.7609 36.7952 78.8285 36.7634L79.5732 36.4255C79.6081 36.4075 79.6274 36.3839 79.6311 36.3561L79.6497 36.2059Z" fill="#3D3D3D"/>
<path d="M79.7246 37.5224L79.0853 36.9804C79.0556 36.9559 79.0408 36.9257 79.0452 36.8964L79.0267 37.0482C79.0222 37.0743 79.037 37.1069 79.066 37.1322L79.706 37.6734L79.7246 37.5224Z" fill="#636363"/>
<path d="M80.7648 37.1535C80.7596 37.1804 80.741 37.2049 80.7069 37.2188L79.9629 37.5575C79.8916 37.5902 79.7869 37.5746 79.7253 37.5224L79.7068 37.6726C79.7684 37.7248 79.8746 37.7403 79.9444 37.7069L80.6868 37.3706C80.721 37.3535 80.7425 37.3298 80.7462 37.3029L80.7648 37.1535Z" fill="#3D3D3D"/>
<path d="M80.8406 38.4675L80.2006 37.9239C80.1701 37.8995 80.1568 37.8701 80.1605 37.8407L80.1412 37.9941C80.1367 38.0194 80.1516 38.0521 80.1805 38.0766L80.8213 38.6185L80.8406 38.4675Z" fill="#636363"/>
<path d="M81.8769 38.0945C81.874 38.1247 81.8554 38.1492 81.8213 38.1647L81.0773 38.5034C81.0083 38.5352 80.9006 38.5205 80.8412 38.4683L80.8219 38.6193C80.882 38.6707 80.989 38.6879 81.0595 38.6552L81.8012 38.3181C81.8369 38.3026 81.8554 38.2773 81.8599 38.2496L81.8769 38.0945Z" fill="#3D3D3D"/>
<path d="M85.7148 37.5126L85.0763 36.9698C85.0466 36.9454 85.0355 36.9135 85.0362 36.8866L85.0191 37.0376C85.0139 37.0662 85.028 37.0964 85.0577 37.1233L85.6962 37.6636L85.7148 37.5126Z" fill="#636363"/>
<path d="M86.7542 37.1404C86.7505 37.169 86.7304 37.1927 86.6948 37.2098L85.9546 37.5477C85.8825 37.5804 85.7756 37.5648 85.7147 37.5126L85.6962 37.6628C85.757 37.7158 85.8633 37.7313 85.9345 37.6979L86.677 37.3616C86.7126 37.3453 86.7326 37.32 86.7363 37.2914L86.7542 37.1404Z" fill="#3D3D3D"/>
<path d="M84.4667 38.1754L83.8267 37.6342C83.7963 37.6073 83.7829 37.5771 83.7859 37.5493L83.7673 37.7012C83.7651 37.7281 83.7784 37.7567 83.8089 37.7852L84.4482 38.328L84.4667 38.1754Z" fill="#636363"/>
<path d="M85.5054 37.804C85.5024 37.8309 85.4809 37.8562 85.4482 37.8734L84.705 38.2105C84.6323 38.2431 84.5268 38.2268 84.4667 38.1754L84.4481 38.3272C84.5075 38.377 84.6159 38.3925 84.6864 38.3623L85.4282 38.0235C85.4631 38.0064 85.4816 37.9827 85.4868 37.955L85.5054 37.804Z" fill="#3D3D3D"/>
<path d="M83.2083 38.8014L82.5712 38.2602C82.54 38.2333 82.5267 38.2047 82.5296 38.177L82.5118 38.328C82.5073 38.3565 82.5215 38.3851 82.5512 38.4112L83.1904 38.9532L83.2083 38.8014Z" fill="#636363"/>
<path d="M84.2477 38.4316C84.244 38.4577 84.2254 38.4822 84.1891 38.4994L83.4495 38.8373C83.376 38.8699 83.2699 38.8552 83.2083 38.8013L83.1904 38.9532C83.2513 39.0054 83.359 39.0225 83.431 38.9882L84.1712 38.6495C84.2076 38.6348 84.2247 38.6103 84.2292 38.5818L84.2477 38.4316Z" fill="#3D3D3D"/>
<path d="M81.9526 39.4143L81.3149 38.8715C81.2844 38.8462 81.2703 38.816 81.2755 38.7874L81.2555 38.9393C81.2533 38.9662 81.2659 38.9972 81.2956 39.0233L81.9341 39.5653L81.9526 39.4143Z" fill="#636363"/>
<path d="M82.9929 39.0413C82.99 39.0707 82.9699 39.0944 82.9336 39.1123L82.1918 39.4494C82.1198 39.4804 82.0136 39.4649 81.9527 39.4143L81.9342 39.5661C81.9958 39.6175 82.1027 39.633 82.1725 39.6004L82.915 39.2617C82.9499 39.2454 82.9699 39.2209 82.9729 39.1939L82.9929 39.0413Z" fill="#3D3D3D"/>
<path d="M72.9757 33.3999L72.3342 32.858C72.3045 32.8343 72.2911 32.8033 72.2941 32.7747L72.2763 32.9249C72.2718 32.9551 72.2867 32.9837 72.3171 33.0106L72.9563 33.5509L72.9757 33.3999Z" fill="#636363"/>
<path d="M74.0158 33.0163C74.0114 33.0449 73.9914 33.0677 73.9572 33.0865L73.2155 33.4236C73.1435 33.4554 73.0366 33.4383 72.9779 33.3877L72.9594 33.5387C73.0195 33.5909 73.1256 33.6064 73.1977 33.5746L73.9372 33.2359C73.9743 33.2187 73.9929 33.1959 73.9973 33.1689L74.0158 33.0163Z" fill="#3D3D3D"/>
<path d="M74.0381 34.2985L73.3989 33.7558C73.3699 33.7288 73.3565 33.6994 73.3603 33.6709L73.3417 33.8219C73.3373 33.8512 73.3521 33.8798 73.3803 33.9076L74.0203 34.4479L74.0381 34.2985Z" fill="#636363"/>
<path d="M75.0775 33.9272C75.0738 33.9549 75.0552 33.9802 75.0203 33.9965L74.2772 34.3344C74.2074 34.3655 74.0997 34.3491 74.0381 34.2993L74.0203 34.4487C74.0811 34.5017 74.1888 34.5181 74.2593 34.4854L75.001 34.1475C75.0359 34.1312 75.056 34.1059 75.059 34.0806L75.0775 33.9272Z" fill="#3D3D3D"/>
<path d="M75.1533 35.2436L74.5155 34.7017C74.4843 34.6748 74.4709 34.6454 74.4739 34.6168L74.4561 34.7695C74.4539 34.798 74.4643 34.8274 74.4954 34.8511L75.1347 35.3955L75.1533 35.2436Z" fill="#636363"/>
<path d="M76.192 34.8723C76.1905 34.9 76.1713 34.9245 76.1356 34.9424L75.3917 35.2795C75.3211 35.3122 75.2142 35.2967 75.1533 35.2444L75.1348 35.3962C75.1949 35.4468 75.3025 35.4632 75.3731 35.4305L76.1163 35.0918C76.1505 35.0771 76.172 35.0526 76.1749 35.0249L76.192 34.8723Z" fill="#3D3D3D"/>
<path d="M80.7269 39.9726L75.6292 35.6485C75.5995 35.6215 75.5846 35.5913 75.5884 35.5644L75.5698 35.7146C75.5661 35.7431 75.5809 35.7733 75.6106 35.7994L80.7083 40.1236L80.7269 39.9726Z" fill="#636363"/>
<path d="M86.8306 38.4569L86.1921 37.9142C86.1602 37.8881 86.1461 37.857 86.1498 37.8301L86.132 37.9811C86.1275 38.0097 86.1431 38.0407 86.1735 38.0668L86.8106 38.6087L86.8306 38.4569Z" fill="#636363"/>
<path d="M87.8702 38.0872C87.8672 38.1141 87.8456 38.1386 87.8107 38.1549L87.0683 38.4912C86.9978 38.5238 86.8916 38.5092 86.8307 38.4569L86.8107 38.6087C86.8716 38.6602 86.9799 38.6773 87.0505 38.6438L87.7929 38.3059C87.8286 38.2888 87.8456 38.2659 87.8494 38.2374L87.8702 38.0872Z" fill="#3D3D3D"/>
<path d="M87.9451 39.4029L87.3051 38.8625C87.2761 38.8348 87.2605 38.8062 87.265 38.7777L87.2472 38.9287C87.242 38.9564 87.2561 38.9866 87.2858 39.0144L87.9258 39.5547L87.9451 39.4029Z" fill="#636363"/>
<path d="M88.9845 39.0323C88.9808 39.0601 88.9608 39.0846 88.9259 39.1017L88.1826 39.4396C88.1106 39.4714 88.006 39.456 87.9458 39.4037L87.9265 39.5547C87.9867 39.6069 88.0943 39.6233 88.1641 39.5898L88.9073 39.2527C88.9414 39.2356 88.9623 39.2127 88.966 39.1833L88.9845 39.0323Z" fill="#3D3D3D"/>
<path d="M90.1732 41.2956L88.4203 39.8069C88.3891 39.7799 88.3757 39.7506 88.3795 39.722L88.3601 39.8738C88.3572 39.9015 88.3706 39.9317 88.4003 39.9579L90.1539 41.4457L90.1732 41.2956Z" fill="#636363"/>
<path d="M91.2127 40.9218C91.2082 40.9503 91.1889 40.9756 91.1533 40.9911L90.4131 41.3315C90.341 41.3625 90.2348 41.347 90.174 41.2964L90.1547 41.4466C90.2155 41.4988 90.324 41.5151 90.3938 41.4825L91.1347 41.1438C91.1711 41.1274 91.1897 41.1029 91.1941 41.0752L91.2127 40.9218Z" fill="#3D3D3D"/>
<path d="M85.5804 39.1205L84.9426 38.5785C84.9114 38.5508 84.898 38.5206 84.9003 38.4937L84.8832 38.6455C84.8795 38.6732 84.8928 38.7026 84.9233 38.7287L85.5633 39.2715L85.5804 39.1205Z" fill="#636363"/>
<path d="M86.6191 38.7507C86.6162 38.7777 86.5961 38.8022 86.5604 38.8177L85.8203 39.1572C85.749 39.1898 85.6406 39.1735 85.5804 39.1213L85.5634 39.2723C85.6235 39.3229 85.7311 39.3384 85.8017 39.3074L86.5426 38.9695C86.5775 38.9531 86.5976 38.9278 86.5998 38.9025L86.6191 38.7507Z" fill="#3D3D3D"/>
<path d="M86.6941 40.0656L86.057 39.5236C86.0273 39.4975 86.0125 39.4673 86.0162 39.442L85.9969 39.5905C85.9939 39.6191 86.0065 39.6509 86.0384 39.6762L86.6755 40.2182L86.6941 40.0656Z" fill="#636363"/>
<path d="M87.7335 39.6942C87.7298 39.722 87.7113 39.7473 87.6756 39.7628L86.9339 40.1015C86.8634 40.1333 86.7565 40.1178 86.6941 40.0664L86.6755 40.2182C86.7372 40.2705 86.8441 40.286 86.9153 40.2533L87.6571 39.9154C87.692 39.8991 87.7112 39.8763 87.7164 39.8461L87.7335 39.6942Z" fill="#3D3D3D"/>
<path d="M87.8092 41.0124L87.1715 40.4696C87.1403 40.4427 87.1262 40.4149 87.1314 40.3847L87.1128 40.5365C87.1091 40.5635 87.1217 40.5953 87.1529 40.6222L87.7899 41.1634L87.8092 41.0124Z" fill="#636363"/>
<path d="M88.8487 40.6394C88.845 40.6672 88.8249 40.6933 88.79 40.7088L88.049 41.0475C87.9763 41.081 87.8708 41.0646 87.8092 41.0124L87.7899 41.1634C87.8523 41.2164 87.9585 41.2303 88.029 41.1993L88.7715 40.8614C88.8071 40.8451 88.8271 40.819 88.8301 40.7937L88.8487 40.6394Z" fill="#3D3D3D"/>
<path d="M88.9243 41.9575L88.2858 41.4156C88.2546 41.3903 88.2413 41.3593 88.245 41.3307L88.2264 41.4825C88.2227 41.5111 88.2368 41.5413 88.2672 41.5666L88.9065 42.1085L88.9243 41.9575Z" fill="#636363"/>
<path d="M89.9631 41.5861C89.9601 41.6139 89.9409 41.6392 89.9037 41.6539L89.1635 41.9926C89.0922 42.0236 88.986 42.0097 88.9244 41.9567L88.9066 42.1077C88.9675 42.1599 89.0744 42.1754 89.1457 42.1428L89.8859 41.8057C89.9215 41.7885 89.9401 41.7641 89.9438 41.7363L89.9631 41.5861Z" fill="#3D3D3D"/>
<path d="M84.3226 39.7465L83.6856 39.2045C83.6545 39.1801 83.6411 39.1491 83.6455 39.1213L83.6255 39.2731C83.6217 39.2992 83.6359 39.3311 83.6671 39.3588L84.3041 39.8999L84.3226 39.7465Z" fill="#636363"/>
<path d="M85.3613 39.3759C85.3576 39.4045 85.3406 39.4282 85.3049 39.4445L84.5632 39.7832C84.4912 39.8142 84.385 39.7979 84.3227 39.7456L84.3041 39.8999C84.365 39.9505 84.4726 39.966 84.5432 39.9342L85.2863 39.5979C85.3212 39.5791 85.3398 39.5563 85.3435 39.5269L85.3613 39.3759Z" fill="#3D3D3D"/>
<path d="M85.4385 40.6932L84.8 40.1505C84.7674 40.1244 84.7555 40.095 84.7584 40.0681L84.7406 40.219C84.7369 40.2452 84.7495 40.2754 84.7814 40.3007L85.4192 40.8426L85.4385 40.6932Z" fill="#636363"/>
<path d="M86.4772 40.3219C86.4742 40.3504 86.4542 40.3757 86.4193 40.3896L85.6783 40.7275C85.607 40.7601 85.5001 40.7446 85.4385 40.6932L85.4192 40.8434C85.4808 40.8964 85.5885 40.9128 85.6598 40.8793L86.3992 40.5406C86.4356 40.5243 86.4549 40.5006 86.4601 40.4737L86.4772 40.3219Z" fill="#3D3D3D"/>
<path d="M87.6667 42.5843L85.913 41.0997C85.8833 41.0703 85.87 41.0426 85.8729 41.014L85.8558 41.165C85.8514 41.1944 85.864 41.2229 85.8952 41.2482L87.6466 42.7378L87.6667 42.5843Z" fill="#636363"/>
<path d="M88.7061 42.2137C88.7031 42.2399 88.6846 42.266 88.6489 42.2831L87.9065 42.6194C87.8344 42.6545 87.7282 42.6373 87.6674 42.5843L87.6473 42.7377C87.7104 42.7891 87.8151 42.8046 87.8872 42.772L88.6303 42.4341C88.6645 42.4186 88.6846 42.3933 88.6875 42.3647L88.7061 42.2137Z" fill="#3D3D3D"/>
<path d="M83.0679 40.3586L82.4286 39.8175C82.3989 39.7914 82.3848 39.7604 82.3885 39.7335L82.3707 39.8845C82.367 39.9114 82.3804 39.9424 82.4101 39.9677L83.0501 40.5105L83.0679 40.3586Z" fill="#636363"/>
<path d="M84.1065 39.9889C84.1021 40.0158 84.0858 40.0419 84.0501 40.0566L83.3069 40.3937C83.2357 40.4264 83.1287 40.4109 83.0679 40.3578L83.05 40.5096C83.1102 40.561 83.2178 40.5774 83.2884 40.5464L84.0301 40.206C84.065 40.1905 84.0835 40.166 84.0887 40.1399L84.1065 39.9889Z" fill="#3D3D3D"/>
<path d="M84.1838 41.3046L83.546 40.7627C83.5133 40.7373 83.4999 40.7055 83.5036 40.6778L83.4844 40.8296C83.4799 40.8581 83.4955 40.8883 83.5274 40.9145L84.1637 41.4556L84.1838 41.3046Z" fill="#636363"/>
<path d="M85.2217 40.9332C85.2172 40.9634 85.1987 40.9871 85.1638 41.0026L84.4221 41.3405C84.3508 41.3723 84.2446 41.3568 84.1845 41.3054L84.1644 41.4564C84.2253 41.5086 84.333 41.5241 84.4042 41.4931L85.1445 41.1536C85.1801 41.1397 85.1987 41.1128 85.2031 41.085L85.2217 40.9332Z" fill="#3D3D3D"/>
<path d="M86.4119 43.1981L84.659 41.7094C84.6271 41.6849 84.6137 41.6522 84.6174 41.6261L84.5988 41.7771C84.5951 41.8041 84.6092 41.8359 84.6397 41.8612L86.3934 43.3499L86.4119 43.1981Z" fill="#636363"/>
<path d="M87.4521 42.8268C87.4461 42.8529 87.4268 42.8773 87.3919 42.8929L86.6509 43.2316C86.5789 43.265 86.4728 43.2479 86.4119 43.1989L86.3933 43.3499C86.4542 43.4013 86.5611 43.4168 86.6316 43.385L87.3734 43.0447C87.409 43.0308 87.4275 43.0063 87.4305 42.9785L87.4521 42.8268Z" fill="#3D3D3D"/>
<path d="M81.8406 40.9185L81.2021 40.3758C81.1717 40.3488 81.1591 40.3211 81.1628 40.2933L81.142 40.4451C81.1413 40.4696 81.1531 40.5039 81.1828 40.5284L81.8228 41.0695L81.8406 40.9185Z" fill="#636363"/>
<path d="M82.88 40.5471C82.8756 40.5757 82.8563 40.5994 82.8236 40.6133L82.0797 40.9536C82.0099 40.9854 81.9014 40.9699 81.8406 40.9185L81.8228 41.0703C81.8829 41.1225 81.9905 41.1397 82.0611 41.1062L82.8028 40.7683C82.8384 40.752 82.8577 40.7275 82.8629 40.6989L82.88 40.5471Z" fill="#3D3D3D"/>
<path d="M82.9558 41.8645L82.3165 41.3217C82.2868 41.2956 82.2727 41.2654 82.2765 41.2385L82.2586 41.3903C82.2542 41.4164 82.2675 41.4466 82.2987 41.4727L82.938 42.0146L82.9558 41.8645Z" fill="#636363"/>
<path d="M83.9952 41.4939C83.9915 41.5217 83.9721 41.5445 83.9365 41.5617L83.194 41.9004C83.1242 41.933 83.0166 41.9175 82.9557 41.8653L82.9371 42.0155C82.9973 42.0685 83.1057 42.084 83.1755 42.0514L83.9172 41.7127C83.9528 41.6963 83.9714 41.6735 83.9751 41.6474L83.9952 41.4939Z" fill="#3D3D3D"/>
<path d="M83.9537 41.4082C84.0153 41.4597 84.0064 41.529 83.9366 41.5617L83.1941 41.9004C83.1243 41.933 83.0167 41.9175 82.9558 41.8653L82.3165 41.3225C82.2564 41.2711 82.2646 41.2018 82.3344 41.1699L83.0768 40.832C83.1466 40.7994 83.2535 40.8157 83.3159 40.8671L83.9537 41.4082Z" fill="#4A4A4A"/>
<path d="M85.1839 43.7563L83.431 42.2676C83.4013 42.2423 83.3879 42.2121 83.3909 42.1844L83.373 42.3362C83.3693 42.3647 83.3827 42.3925 83.4131 42.4202L85.1661 43.9057L85.1839 43.7563Z" fill="#636363"/>
<path d="M86.224 43.3842C86.221 43.4119 86.2003 43.4364 86.1654 43.4511L85.4237 43.789C85.3531 43.8225 85.2454 43.8053 85.1838 43.7556L85.166 43.9049C85.2262 43.9588 85.3338 43.9735 85.4051 43.9416L86.1476 43.6029C86.1825 43.5866 86.2018 43.5621 86.2055 43.5352L86.224 43.3842Z" fill="#3D3D3D"/>
<path d="M77.4445 34.3148C77.4408 34.3442 77.4222 34.3679 77.3866 34.3842L76.6448 34.7213C76.5736 34.7539 76.4666 34.7384 76.405 34.6862L76.3872 34.8388C76.4473 34.8894 76.5557 34.9057 76.6262 34.8739L77.3687 34.536C77.4043 34.5205 77.4237 34.4952 77.4252 34.4675L77.4445 34.3148Z" fill="#3D3D3D"/>
<path d="M91.2646 42.6766L91.2371 43.012L90.4917 43.394L90.5184 43.0561L91.2646 42.6766Z" fill="#393939"/>
<path d="M92.3893 42.1183L92.3626 42.4545L91.6172 42.8341L91.6424 42.497L92.3893 42.1183Z" fill="#393939"/>
<path d="M92.3003 42.4146L91.6224 42.7574L91.6425 42.497L92.3211 42.1534L92.3003 42.4146Z" fill="black"/>
<path d="M91.1843 42.9581L90.4983 43.3075L90.5184 43.0561L91.2051 42.7092L91.1843 42.9581Z" fill="black"/>
<path d="M70.4573 33.4415C70.4573 33.4415 74.4205 32.4646 75.1563 32.3226C76.6159 32.0451 79.3148 33.4415 79.3148 33.4415L80.9979 35.1498C80.9979 35.1498 81.2199 35.535 80.6163 35.6754C80.0127 35.8142 79.1076 34.6274 79.1076 34.6274L77.3465 34.0692C77.3465 34.0692 76.2135 34.0276 76.1719 34.6274C76.14 35.0804 77.1186 35.3171 77.5366 35.3955C77.8276 35.4493 78.4706 35.664 78.5849 35.9905C78.7549 36.4761 78.3622 36.6858 78.3622 36.6858C78.3622 36.6858 78.1187 36.7389 76.7748 36.4769C75.696 36.2688 74.889 36.2214 74.2653 36.0941C73.4093 35.9186 72.9022 35.22 72.9022 35.22L70.9325 35.7799L70.4573 33.4415Z" fill="#E5B28C"/>
<path d="M57.9089 17.0984C57.9089 17.0984 51.5632 15.7893 53.4104 28.7918C53.5329 29.6561 54.3006 34.1328 55.4217 36.3071C55.4217 36.3071 56.5977 38.4879 60.5818 38.7654C62.9428 38.9295 72.6712 36.2018 72.6712 36.2018C72.6712 36.2018 73.1293 36.0011 72.4084 34.4413C71.931 33.4089 71.3445 33.0865 71.3445 33.0865L60.9471 32.3789L57.9089 17.0984Z" fill="#0E304C"/>
<path d="M77.4208 40.2329C77.4208 40.2329 80.4351 40.2631 81.7344 40.3823C83.0352 40.5031 84.4147 40.9349 85.1342 41.5062C85.7215 41.9722 87.1165 43.94 86.429 44.3554C86.0518 44.584 86.0155 44.6795 84.6946 44.4061C83.6351 44.1865 81.586 43.9792 80.2978 44.0249C79.0802 44.0673 77.4772 43.8453 77.4772 43.8453L77.4208 40.2329Z" fill="#E5B28C"/>
<path d="M61.4111 27.8997L63.3304 26.7024L64.8131 27.645L62.9376 28.8416L61.4111 27.8997Z" fill="#995710"/>
<path d="M70.1513 5.596L73.4716 7.62177L68.3701 16.8446C66.9565 19.5167 65.707 19.3502 64.9445 18.9372C63.3601 18.077 62.0548 16.1304 61.4363 15.0669C60.238 13.0085 61.7504 9.80666 61.8573 9.5365L64.2503 2.81366L70.1513 5.596Z" fill="#F7CBAD"/>
<path d="M56.4671 19.4801C56.4671 19.4801 57.5778 17.2421 59.2015 14.7846C59.843 13.8158 61.0421 10.3781 61.0421 10.3781L65.5577 12.8421C65.5577 12.8421 64.329 16.1974 63.8048 17.2845C63.4788 17.9628 62.1625 19.9085 62.1625 19.9085C61.9761 20.7721 64.8346 27.8524 64.2569 30.5392L55.911 25.0007C56.1575 23.858 56.4671 19.4801 56.4671 19.4801Z" fill="#F7CBAD"/>
<path d="M73.8785 6.23103C76.5388 9.79201 71.4203 12.5425 71.3416 12.6829C71.1174 13.0763 72.7545 10.3168 72.0803 10.023C71.2785 9.67039 68.5121 11.7941 67.9107 12.807C67.9107 12.807 68.671 11.5827 68.5648 11.142C68.4586 10.6939 67.434 11.2619 65.716 12.5303C65.716 12.5303 64.586 13.3889 63.2726 13.6974C60.9019 14.2565 60.1825 12.9539 60.1669 13.0853C60.155 13.1783 60.2107 11.6031 60.2894 9.0248C60.4408 4.07878 61.8567 1.92897 63.62 0.936496C64.1509 0.638592 66.8222 -0.836249 70.6355 2.03261C71.9593 3.02834 73.8785 6.23103 73.8785 6.23103Z" fill="#542B03"/>
<path d="M68.7808 11.0472C68.7808 11.0472 68.0035 10.8146 67.3865 11.6161C66.9499 12.1809 66.9358 12.8257 66.9855 13.0428C67.1169 13.619 67.4035 13.8704 67.4035 13.8704C67.4035 13.8704 68.0287 12.3058 68.1601 12.0267C68.2915 11.7451 68.7808 11.0472 68.7808 11.0472Z" fill="#EFCCAF"/>
<path d="M69.2634 10.8783C69.2634 10.8783 69.6867 11.0603 69.1276 11.5696C68.5663 12.0781 68.3354 12.4364 68.1728 12.8004C68.0258 13.1342 67.6887 14.1781 67.6887 14.1781C67.6887 14.1781 67.2581 14.467 67.2551 13.7268C67.2544 13.375 67.4051 12.7776 67.7117 12.0675C67.8357 11.7769 68.8722 10.5086 69.2634 10.8783Z" fill="#F7DDCB"/>
<path d="M65.7879 23.4066C66.7628 24.7411 66.6076 28.7305 66.2438 33.0375L65.5578 44.4256C65.5162 44.9194 66.4086 46.3885 65.906 48.5269C65.6446 49.6377 64.5391 50.7632 63.539 51.8267C63.0987 52.2935 60.0361 54.3927 57.1004 53.9528C54.2108 53.5202 52.3977 51.6822 52.3019 50.1021C51.7473 40.845 52.9122 24.3273 52.9122 24.3273C53.5055 17.1735 57.9298 16.8543 57.9298 16.8543L62.0548 19.302L65.7879 23.4066Z" fill="#517491"/>
<path d="M79.928 42.1166C79.9548 43.7237 79.0482 44.4737 79.0482 44.4737C79.0482 44.4737 70.1543 46.093 69.1297 46.2008C66.9179 46.4317 65.3803 45.6278 64.8651 45.2246C62.6793 43.5131 61.8276 35.544 61.4059 31.7398C61.106 29.0186 60.858 27.774 61.5782 25.594C62.4187 23.0556 64.4856 22.1725 66.0849 23.7567C67.3226 24.981 67.8059 35.6941 68.4229 38.7066C68.6241 39.6901 69.0963 39.8746 70.0118 39.775L78.8633 39.997C78.8633 39.997 79.196 40.0305 79.5427 40.5398C79.8048 40.9234 79.9191 41.5167 79.928 42.1166Z" fill="#0E304C"/>
</svg>
